M48
; DRILL file {KiCad (5.1.0)-1} date 4/10/2019 10:04:39 PM
; FORMAT={-:-/ absolute / inch / decimal}
; #@! TF.CreationDate,2019-04-10T22:04:39-07:00
; #@! TF.GenerationSoftware,Kicad,Pcbnew,(5.1.0)-1
; #@! TF.FileFunction,Plated,1,2,PTH
FMAT,2
INCH
T1C0.0157
T2C0.0394
T3C0.0512
%
G90
G05
T1
X6.8Y-3.85
X7.15Y-3.35
X7.15Y-3.7
X7.15Y-4.15
X7.35Y-3.35
X7.35Y-4.15
X7.7Y-4.65
X7.7Y-4.75
X7.95Y-5.05
X8.05Y-5.15
X8.45Y-4.9
X8.75Y-3.85
X8.8Y-4.15
X9.1Y-3.35
X9.1Y-3.7
X9.1Y-4.15
X9.1Y-4.65
X9.1Y-4.75
X9.25Y-3.35
T2
X6.82Y-4.45
X6.82Y-4.55
X6.82Y-4.65
X6.82Y-4.75
X6.82Y-4.85
X6.82Y-4.95
X6.82Y-5.05
X6.82Y-5.15
X6.82Y-5.25
X6.82Y-5.35
X6.8394Y-3.0067
X6.9394Y-3.0067
X7.0394Y-3.0067
X7.1394Y-3.0067
X7.2394Y-3.0067
X9.2Y-4.85
X9.2Y-4.95
X9.2Y-5.05
X9.2Y-5.15
X9.2Y-5.25
X9.2Y-5.35
X7.755Y-3.66
X7.755Y-3.76
X7.855Y-3.66
X7.855Y-3.76
X7.955Y-3.66
X7.955Y-3.76
X8.055Y-3.66
X8.055Y-3.76
X8.155Y-3.66
X8.155Y-3.76
X8.255Y-3.66
X8.255Y-3.76
X8.15Y-4.45
X8.15Y-4.55
X8.15Y-4.65
X8.15Y-4.75
X8.15Y-4.85
X8.15Y-4.95
X8.15Y-5.05
X8.15Y-5.15
X8.15Y-5.25
X8.15Y-5.35
X7.85Y-4.85
X7.85Y-4.95
X7.85Y-5.05
X7.85Y-5.15
X7.85Y-5.25
X7.85Y-5.35
X8.7706Y-3.0067
X8.8706Y-3.0067
X8.9706Y-3.0067
X9.0706Y-3.0067
X9.1706Y-3.0067
T3
X6.8394Y-2.7299
X6.9394Y-2.7299
X7.0394Y-2.7299
X7.1394Y-2.7299
X7.2394Y-2.7299
X8.7706Y-2.7299
X8.8706Y-2.7299
X8.9706Y-2.7299
X9.0706Y-2.7299
X9.1706Y-2.7299
T0
M30
