G04 #@! TF.GenerationSoftware,KiCad,Pcbnew,(5.1.0)-1*
G04 #@! TF.CreationDate,2019-04-10T22:13:11-07:00*
G04 #@! TF.ProjectId,HS_2CH_RTD_Module,48535f32-4348-45f5-9254-445f4d6f6475,rev?*
G04 #@! TF.SameCoordinates,Original*
G04 #@! TF.FileFunction,Soldermask,Bot*
G04 #@! TF.FilePolarity,Negative*
%FSLAX46Y46*%
G04 Gerber Fmt 4.6, Leading zero omitted, Abs format (unit mm)*
G04 Created by KiCad (PCBNEW (5.1.0)-1) date 2019-04-10 22:13:11*
%MOMM*%
%LPD*%
G04 APERTURE LIST*
%ADD10C,0.100000*%
G04 APERTURE END LIST*
D10*
G36*
X199500442Y-134995518D02*
G01*
X199566627Y-135002037D01*
X199736466Y-135053557D01*
X199892991Y-135137222D01*
X199928729Y-135166552D01*
X200030186Y-135249814D01*
X200113448Y-135351271D01*
X200142778Y-135387009D01*
X200226443Y-135543534D01*
X200277963Y-135713373D01*
X200295359Y-135890000D01*
X200277963Y-136066627D01*
X200226443Y-136236466D01*
X200142778Y-136392991D01*
X200113448Y-136428729D01*
X200030186Y-136530186D01*
X199928729Y-136613448D01*
X199892991Y-136642778D01*
X199736466Y-136726443D01*
X199566627Y-136777963D01*
X199500442Y-136784482D01*
X199434260Y-136791000D01*
X199345740Y-136791000D01*
X199279558Y-136784482D01*
X199213373Y-136777963D01*
X199043534Y-136726443D01*
X198887009Y-136642778D01*
X198851271Y-136613448D01*
X198749814Y-136530186D01*
X198666552Y-136428729D01*
X198637222Y-136392991D01*
X198553557Y-136236466D01*
X198502037Y-136066627D01*
X198484641Y-135890000D01*
X198502037Y-135713373D01*
X198553557Y-135543534D01*
X198637222Y-135387009D01*
X198666552Y-135351271D01*
X198749814Y-135249814D01*
X198851271Y-135166552D01*
X198887009Y-135137222D01*
X199043534Y-135053557D01*
X199213373Y-135002037D01*
X199279558Y-134995518D01*
X199345740Y-134989000D01*
X199434260Y-134989000D01*
X199500442Y-134995518D01*
X199500442Y-134995518D01*
G37*
G36*
X207911000Y-136791000D02*
G01*
X206109000Y-136791000D01*
X206109000Y-134989000D01*
X207911000Y-134989000D01*
X207911000Y-136791000D01*
X207911000Y-136791000D01*
G37*
G36*
X233790442Y-134995518D02*
G01*
X233856627Y-135002037D01*
X234026466Y-135053557D01*
X234182991Y-135137222D01*
X234218729Y-135166552D01*
X234320186Y-135249814D01*
X234403448Y-135351271D01*
X234432778Y-135387009D01*
X234516443Y-135543534D01*
X234567963Y-135713373D01*
X234585359Y-135890000D01*
X234567963Y-136066627D01*
X234516443Y-136236466D01*
X234432778Y-136392991D01*
X234403448Y-136428729D01*
X234320186Y-136530186D01*
X234218729Y-136613448D01*
X234182991Y-136642778D01*
X234026466Y-136726443D01*
X233856627Y-136777963D01*
X233790442Y-136784482D01*
X233724260Y-136791000D01*
X233635740Y-136791000D01*
X233569558Y-136784482D01*
X233503373Y-136777963D01*
X233333534Y-136726443D01*
X233177009Y-136642778D01*
X233141271Y-136613448D01*
X233039814Y-136530186D01*
X232956552Y-136428729D01*
X232927222Y-136392991D01*
X232843557Y-136236466D01*
X232792037Y-136066627D01*
X232774641Y-135890000D01*
X232792037Y-135713373D01*
X232843557Y-135543534D01*
X232927222Y-135387009D01*
X232956552Y-135351271D01*
X233039814Y-135249814D01*
X233141271Y-135166552D01*
X233177009Y-135137222D01*
X233333534Y-135053557D01*
X233503373Y-135002037D01*
X233569558Y-134995518D01*
X233635740Y-134989000D01*
X233724260Y-134989000D01*
X233790442Y-134995518D01*
X233790442Y-134995518D01*
G37*
G36*
X174129000Y-136791000D02*
G01*
X172327000Y-136791000D01*
X172327000Y-134989000D01*
X174129000Y-134989000D01*
X174129000Y-136791000D01*
X174129000Y-136791000D01*
G37*
G36*
X173338442Y-132455518D02*
G01*
X173404627Y-132462037D01*
X173574466Y-132513557D01*
X173730991Y-132597222D01*
X173766729Y-132626552D01*
X173868186Y-132709814D01*
X173951448Y-132811271D01*
X173980778Y-132847009D01*
X174064443Y-133003534D01*
X174115963Y-133173373D01*
X174133359Y-133350000D01*
X174115963Y-133526627D01*
X174064443Y-133696466D01*
X173980778Y-133852991D01*
X173951448Y-133888729D01*
X173868186Y-133990186D01*
X173766729Y-134073448D01*
X173730991Y-134102778D01*
X173574466Y-134186443D01*
X173404627Y-134237963D01*
X173338443Y-134244481D01*
X173272260Y-134251000D01*
X173183740Y-134251000D01*
X173117557Y-134244481D01*
X173051373Y-134237963D01*
X172881534Y-134186443D01*
X172725009Y-134102778D01*
X172689271Y-134073448D01*
X172587814Y-133990186D01*
X172504552Y-133888729D01*
X172475222Y-133852991D01*
X172391557Y-133696466D01*
X172340037Y-133526627D01*
X172322641Y-133350000D01*
X172340037Y-133173373D01*
X172391557Y-133003534D01*
X172475222Y-132847009D01*
X172504552Y-132811271D01*
X172587814Y-132709814D01*
X172689271Y-132626552D01*
X172725009Y-132597222D01*
X172881534Y-132513557D01*
X173051373Y-132462037D01*
X173117558Y-132455518D01*
X173183740Y-132449000D01*
X173272260Y-132449000D01*
X173338442Y-132455518D01*
X173338442Y-132455518D01*
G37*
G36*
X199500442Y-132455518D02*
G01*
X199566627Y-132462037D01*
X199736466Y-132513557D01*
X199892991Y-132597222D01*
X199928729Y-132626552D01*
X200030186Y-132709814D01*
X200113448Y-132811271D01*
X200142778Y-132847009D01*
X200226443Y-133003534D01*
X200277963Y-133173373D01*
X200295359Y-133350000D01*
X200277963Y-133526627D01*
X200226443Y-133696466D01*
X200142778Y-133852991D01*
X200113448Y-133888729D01*
X200030186Y-133990186D01*
X199928729Y-134073448D01*
X199892991Y-134102778D01*
X199736466Y-134186443D01*
X199566627Y-134237963D01*
X199500443Y-134244481D01*
X199434260Y-134251000D01*
X199345740Y-134251000D01*
X199279557Y-134244481D01*
X199213373Y-134237963D01*
X199043534Y-134186443D01*
X198887009Y-134102778D01*
X198851271Y-134073448D01*
X198749814Y-133990186D01*
X198666552Y-133888729D01*
X198637222Y-133852991D01*
X198553557Y-133696466D01*
X198502037Y-133526627D01*
X198484641Y-133350000D01*
X198502037Y-133173373D01*
X198553557Y-133003534D01*
X198637222Y-132847009D01*
X198666552Y-132811271D01*
X198749814Y-132709814D01*
X198851271Y-132626552D01*
X198887009Y-132597222D01*
X199043534Y-132513557D01*
X199213373Y-132462037D01*
X199279558Y-132455518D01*
X199345740Y-132449000D01*
X199434260Y-132449000D01*
X199500442Y-132455518D01*
X199500442Y-132455518D01*
G37*
G36*
X207120442Y-132455518D02*
G01*
X207186627Y-132462037D01*
X207356466Y-132513557D01*
X207512991Y-132597222D01*
X207548729Y-132626552D01*
X207650186Y-132709814D01*
X207733448Y-132811271D01*
X207762778Y-132847009D01*
X207846443Y-133003534D01*
X207897963Y-133173373D01*
X207915359Y-133350000D01*
X207897963Y-133526627D01*
X207846443Y-133696466D01*
X207762778Y-133852991D01*
X207733448Y-133888729D01*
X207650186Y-133990186D01*
X207548729Y-134073448D01*
X207512991Y-134102778D01*
X207356466Y-134186443D01*
X207186627Y-134237963D01*
X207120443Y-134244481D01*
X207054260Y-134251000D01*
X206965740Y-134251000D01*
X206899557Y-134244481D01*
X206833373Y-134237963D01*
X206663534Y-134186443D01*
X206507009Y-134102778D01*
X206471271Y-134073448D01*
X206369814Y-133990186D01*
X206286552Y-133888729D01*
X206257222Y-133852991D01*
X206173557Y-133696466D01*
X206122037Y-133526627D01*
X206104641Y-133350000D01*
X206122037Y-133173373D01*
X206173557Y-133003534D01*
X206257222Y-132847009D01*
X206286552Y-132811271D01*
X206369814Y-132709814D01*
X206471271Y-132626552D01*
X206507009Y-132597222D01*
X206663534Y-132513557D01*
X206833373Y-132462037D01*
X206899558Y-132455518D01*
X206965740Y-132449000D01*
X207054260Y-132449000D01*
X207120442Y-132455518D01*
X207120442Y-132455518D01*
G37*
G36*
X233790442Y-132455518D02*
G01*
X233856627Y-132462037D01*
X234026466Y-132513557D01*
X234182991Y-132597222D01*
X234218729Y-132626552D01*
X234320186Y-132709814D01*
X234403448Y-132811271D01*
X234432778Y-132847009D01*
X234516443Y-133003534D01*
X234567963Y-133173373D01*
X234585359Y-133350000D01*
X234567963Y-133526627D01*
X234516443Y-133696466D01*
X234432778Y-133852991D01*
X234403448Y-133888729D01*
X234320186Y-133990186D01*
X234218729Y-134073448D01*
X234182991Y-134102778D01*
X234026466Y-134186443D01*
X233856627Y-134237963D01*
X233790443Y-134244481D01*
X233724260Y-134251000D01*
X233635740Y-134251000D01*
X233569557Y-134244481D01*
X233503373Y-134237963D01*
X233333534Y-134186443D01*
X233177009Y-134102778D01*
X233141271Y-134073448D01*
X233039814Y-133990186D01*
X232956552Y-133888729D01*
X232927222Y-133852991D01*
X232843557Y-133696466D01*
X232792037Y-133526627D01*
X232774641Y-133350000D01*
X232792037Y-133173373D01*
X232843557Y-133003534D01*
X232927222Y-132847009D01*
X232956552Y-132811271D01*
X233039814Y-132709814D01*
X233141271Y-132626552D01*
X233177009Y-132597222D01*
X233333534Y-132513557D01*
X233503373Y-132462037D01*
X233569558Y-132455518D01*
X233635740Y-132449000D01*
X233724260Y-132449000D01*
X233790442Y-132455518D01*
X233790442Y-132455518D01*
G37*
G36*
X233790442Y-129915518D02*
G01*
X233856627Y-129922037D01*
X234026466Y-129973557D01*
X234182991Y-130057222D01*
X234218729Y-130086552D01*
X234320186Y-130169814D01*
X234403448Y-130271271D01*
X234432778Y-130307009D01*
X234516443Y-130463534D01*
X234567963Y-130633373D01*
X234585359Y-130810000D01*
X234567963Y-130986627D01*
X234516443Y-131156466D01*
X234432778Y-131312991D01*
X234403448Y-131348729D01*
X234320186Y-131450186D01*
X234218729Y-131533448D01*
X234182991Y-131562778D01*
X234026466Y-131646443D01*
X233856627Y-131697963D01*
X233790443Y-131704481D01*
X233724260Y-131711000D01*
X233635740Y-131711000D01*
X233569557Y-131704481D01*
X233503373Y-131697963D01*
X233333534Y-131646443D01*
X233177009Y-131562778D01*
X233141271Y-131533448D01*
X233039814Y-131450186D01*
X232956552Y-131348729D01*
X232927222Y-131312991D01*
X232843557Y-131156466D01*
X232792037Y-130986627D01*
X232774641Y-130810000D01*
X232792037Y-130633373D01*
X232843557Y-130463534D01*
X232927222Y-130307009D01*
X232956552Y-130271271D01*
X233039814Y-130169814D01*
X233141271Y-130086552D01*
X233177009Y-130057222D01*
X233333534Y-129973557D01*
X233503373Y-129922037D01*
X233569558Y-129915518D01*
X233635740Y-129909000D01*
X233724260Y-129909000D01*
X233790442Y-129915518D01*
X233790442Y-129915518D01*
G37*
G36*
X173338442Y-129915518D02*
G01*
X173404627Y-129922037D01*
X173574466Y-129973557D01*
X173730991Y-130057222D01*
X173766729Y-130086552D01*
X173868186Y-130169814D01*
X173951448Y-130271271D01*
X173980778Y-130307009D01*
X174064443Y-130463534D01*
X174115963Y-130633373D01*
X174133359Y-130810000D01*
X174115963Y-130986627D01*
X174064443Y-131156466D01*
X173980778Y-131312991D01*
X173951448Y-131348729D01*
X173868186Y-131450186D01*
X173766729Y-131533448D01*
X173730991Y-131562778D01*
X173574466Y-131646443D01*
X173404627Y-131697963D01*
X173338443Y-131704481D01*
X173272260Y-131711000D01*
X173183740Y-131711000D01*
X173117557Y-131704481D01*
X173051373Y-131697963D01*
X172881534Y-131646443D01*
X172725009Y-131562778D01*
X172689271Y-131533448D01*
X172587814Y-131450186D01*
X172504552Y-131348729D01*
X172475222Y-131312991D01*
X172391557Y-131156466D01*
X172340037Y-130986627D01*
X172322641Y-130810000D01*
X172340037Y-130633373D01*
X172391557Y-130463534D01*
X172475222Y-130307009D01*
X172504552Y-130271271D01*
X172587814Y-130169814D01*
X172689271Y-130086552D01*
X172725009Y-130057222D01*
X172881534Y-129973557D01*
X173051373Y-129922037D01*
X173117558Y-129915518D01*
X173183740Y-129909000D01*
X173272260Y-129909000D01*
X173338442Y-129915518D01*
X173338442Y-129915518D01*
G37*
G36*
X199500442Y-129915518D02*
G01*
X199566627Y-129922037D01*
X199736466Y-129973557D01*
X199892991Y-130057222D01*
X199928729Y-130086552D01*
X200030186Y-130169814D01*
X200113448Y-130271271D01*
X200142778Y-130307009D01*
X200226443Y-130463534D01*
X200277963Y-130633373D01*
X200295359Y-130810000D01*
X200277963Y-130986627D01*
X200226443Y-131156466D01*
X200142778Y-131312991D01*
X200113448Y-131348729D01*
X200030186Y-131450186D01*
X199928729Y-131533448D01*
X199892991Y-131562778D01*
X199736466Y-131646443D01*
X199566627Y-131697963D01*
X199500443Y-131704481D01*
X199434260Y-131711000D01*
X199345740Y-131711000D01*
X199279557Y-131704481D01*
X199213373Y-131697963D01*
X199043534Y-131646443D01*
X198887009Y-131562778D01*
X198851271Y-131533448D01*
X198749814Y-131450186D01*
X198666552Y-131348729D01*
X198637222Y-131312991D01*
X198553557Y-131156466D01*
X198502037Y-130986627D01*
X198484641Y-130810000D01*
X198502037Y-130633373D01*
X198553557Y-130463534D01*
X198637222Y-130307009D01*
X198666552Y-130271271D01*
X198749814Y-130169814D01*
X198851271Y-130086552D01*
X198887009Y-130057222D01*
X199043534Y-129973557D01*
X199213373Y-129922037D01*
X199279558Y-129915518D01*
X199345740Y-129909000D01*
X199434260Y-129909000D01*
X199500442Y-129915518D01*
X199500442Y-129915518D01*
G37*
G36*
X207120442Y-129915518D02*
G01*
X207186627Y-129922037D01*
X207356466Y-129973557D01*
X207512991Y-130057222D01*
X207548729Y-130086552D01*
X207650186Y-130169814D01*
X207733448Y-130271271D01*
X207762778Y-130307009D01*
X207846443Y-130463534D01*
X207897963Y-130633373D01*
X207915359Y-130810000D01*
X207897963Y-130986627D01*
X207846443Y-131156466D01*
X207762778Y-131312991D01*
X207733448Y-131348729D01*
X207650186Y-131450186D01*
X207548729Y-131533448D01*
X207512991Y-131562778D01*
X207356466Y-131646443D01*
X207186627Y-131697963D01*
X207120443Y-131704481D01*
X207054260Y-131711000D01*
X206965740Y-131711000D01*
X206899557Y-131704481D01*
X206833373Y-131697963D01*
X206663534Y-131646443D01*
X206507009Y-131562778D01*
X206471271Y-131533448D01*
X206369814Y-131450186D01*
X206286552Y-131348729D01*
X206257222Y-131312991D01*
X206173557Y-131156466D01*
X206122037Y-130986627D01*
X206104641Y-130810000D01*
X206122037Y-130633373D01*
X206173557Y-130463534D01*
X206257222Y-130307009D01*
X206286552Y-130271271D01*
X206369814Y-130169814D01*
X206471271Y-130086552D01*
X206507009Y-130057222D01*
X206663534Y-129973557D01*
X206833373Y-129922037D01*
X206899558Y-129915518D01*
X206965740Y-129909000D01*
X207054260Y-129909000D01*
X207120442Y-129915518D01*
X207120442Y-129915518D01*
G37*
G36*
X173338442Y-127375518D02*
G01*
X173404627Y-127382037D01*
X173574466Y-127433557D01*
X173730991Y-127517222D01*
X173766729Y-127546552D01*
X173868186Y-127629814D01*
X173951448Y-127731271D01*
X173980778Y-127767009D01*
X174064443Y-127923534D01*
X174115963Y-128093373D01*
X174133359Y-128270000D01*
X174115963Y-128446627D01*
X174064443Y-128616466D01*
X173980778Y-128772991D01*
X173951448Y-128808729D01*
X173868186Y-128910186D01*
X173766729Y-128993448D01*
X173730991Y-129022778D01*
X173574466Y-129106443D01*
X173404627Y-129157963D01*
X173338442Y-129164482D01*
X173272260Y-129171000D01*
X173183740Y-129171000D01*
X173117558Y-129164482D01*
X173051373Y-129157963D01*
X172881534Y-129106443D01*
X172725009Y-129022778D01*
X172689271Y-128993448D01*
X172587814Y-128910186D01*
X172504552Y-128808729D01*
X172475222Y-128772991D01*
X172391557Y-128616466D01*
X172340037Y-128446627D01*
X172322641Y-128270000D01*
X172340037Y-128093373D01*
X172391557Y-127923534D01*
X172475222Y-127767009D01*
X172504552Y-127731271D01*
X172587814Y-127629814D01*
X172689271Y-127546552D01*
X172725009Y-127517222D01*
X172881534Y-127433557D01*
X173051373Y-127382037D01*
X173117558Y-127375518D01*
X173183740Y-127369000D01*
X173272260Y-127369000D01*
X173338442Y-127375518D01*
X173338442Y-127375518D01*
G37*
G36*
X233790442Y-127375518D02*
G01*
X233856627Y-127382037D01*
X234026466Y-127433557D01*
X234182991Y-127517222D01*
X234218729Y-127546552D01*
X234320186Y-127629814D01*
X234403448Y-127731271D01*
X234432778Y-127767009D01*
X234516443Y-127923534D01*
X234567963Y-128093373D01*
X234585359Y-128270000D01*
X234567963Y-128446627D01*
X234516443Y-128616466D01*
X234432778Y-128772991D01*
X234403448Y-128808729D01*
X234320186Y-128910186D01*
X234218729Y-128993448D01*
X234182991Y-129022778D01*
X234026466Y-129106443D01*
X233856627Y-129157963D01*
X233790442Y-129164482D01*
X233724260Y-129171000D01*
X233635740Y-129171000D01*
X233569558Y-129164482D01*
X233503373Y-129157963D01*
X233333534Y-129106443D01*
X233177009Y-129022778D01*
X233141271Y-128993448D01*
X233039814Y-128910186D01*
X232956552Y-128808729D01*
X232927222Y-128772991D01*
X232843557Y-128616466D01*
X232792037Y-128446627D01*
X232774641Y-128270000D01*
X232792037Y-128093373D01*
X232843557Y-127923534D01*
X232927222Y-127767009D01*
X232956552Y-127731271D01*
X233039814Y-127629814D01*
X233141271Y-127546552D01*
X233177009Y-127517222D01*
X233333534Y-127433557D01*
X233503373Y-127382037D01*
X233569558Y-127375518D01*
X233635740Y-127369000D01*
X233724260Y-127369000D01*
X233790442Y-127375518D01*
X233790442Y-127375518D01*
G37*
G36*
X207120442Y-127375518D02*
G01*
X207186627Y-127382037D01*
X207356466Y-127433557D01*
X207512991Y-127517222D01*
X207548729Y-127546552D01*
X207650186Y-127629814D01*
X207733448Y-127731271D01*
X207762778Y-127767009D01*
X207846443Y-127923534D01*
X207897963Y-128093373D01*
X207915359Y-128270000D01*
X207897963Y-128446627D01*
X207846443Y-128616466D01*
X207762778Y-128772991D01*
X207733448Y-128808729D01*
X207650186Y-128910186D01*
X207548729Y-128993448D01*
X207512991Y-129022778D01*
X207356466Y-129106443D01*
X207186627Y-129157963D01*
X207120442Y-129164482D01*
X207054260Y-129171000D01*
X206965740Y-129171000D01*
X206899558Y-129164482D01*
X206833373Y-129157963D01*
X206663534Y-129106443D01*
X206507009Y-129022778D01*
X206471271Y-128993448D01*
X206369814Y-128910186D01*
X206286552Y-128808729D01*
X206257222Y-128772991D01*
X206173557Y-128616466D01*
X206122037Y-128446627D01*
X206104641Y-128270000D01*
X206122037Y-128093373D01*
X206173557Y-127923534D01*
X206257222Y-127767009D01*
X206286552Y-127731271D01*
X206369814Y-127629814D01*
X206471271Y-127546552D01*
X206507009Y-127517222D01*
X206663534Y-127433557D01*
X206833373Y-127382037D01*
X206899558Y-127375518D01*
X206965740Y-127369000D01*
X207054260Y-127369000D01*
X207120442Y-127375518D01*
X207120442Y-127375518D01*
G37*
G36*
X199500442Y-127375518D02*
G01*
X199566627Y-127382037D01*
X199736466Y-127433557D01*
X199892991Y-127517222D01*
X199928729Y-127546552D01*
X200030186Y-127629814D01*
X200113448Y-127731271D01*
X200142778Y-127767009D01*
X200226443Y-127923534D01*
X200277963Y-128093373D01*
X200295359Y-128270000D01*
X200277963Y-128446627D01*
X200226443Y-128616466D01*
X200142778Y-128772991D01*
X200113448Y-128808729D01*
X200030186Y-128910186D01*
X199928729Y-128993448D01*
X199892991Y-129022778D01*
X199736466Y-129106443D01*
X199566627Y-129157963D01*
X199500442Y-129164482D01*
X199434260Y-129171000D01*
X199345740Y-129171000D01*
X199279558Y-129164482D01*
X199213373Y-129157963D01*
X199043534Y-129106443D01*
X198887009Y-129022778D01*
X198851271Y-128993448D01*
X198749814Y-128910186D01*
X198666552Y-128808729D01*
X198637222Y-128772991D01*
X198553557Y-128616466D01*
X198502037Y-128446627D01*
X198484641Y-128270000D01*
X198502037Y-128093373D01*
X198553557Y-127923534D01*
X198637222Y-127767009D01*
X198666552Y-127731271D01*
X198749814Y-127629814D01*
X198851271Y-127546552D01*
X198887009Y-127517222D01*
X199043534Y-127433557D01*
X199213373Y-127382037D01*
X199279558Y-127375518D01*
X199345740Y-127369000D01*
X199434260Y-127369000D01*
X199500442Y-127375518D01*
X199500442Y-127375518D01*
G37*
G36*
X233790443Y-124835519D02*
G01*
X233856627Y-124842037D01*
X234026466Y-124893557D01*
X234182991Y-124977222D01*
X234218729Y-125006552D01*
X234320186Y-125089814D01*
X234403448Y-125191271D01*
X234432778Y-125227009D01*
X234516443Y-125383534D01*
X234567963Y-125553373D01*
X234585359Y-125730000D01*
X234567963Y-125906627D01*
X234516443Y-126076466D01*
X234432778Y-126232991D01*
X234403448Y-126268729D01*
X234320186Y-126370186D01*
X234218729Y-126453448D01*
X234182991Y-126482778D01*
X234026466Y-126566443D01*
X233856627Y-126617963D01*
X233790442Y-126624482D01*
X233724260Y-126631000D01*
X233635740Y-126631000D01*
X233569558Y-126624482D01*
X233503373Y-126617963D01*
X233333534Y-126566443D01*
X233177009Y-126482778D01*
X233141271Y-126453448D01*
X233039814Y-126370186D01*
X232956552Y-126268729D01*
X232927222Y-126232991D01*
X232843557Y-126076466D01*
X232792037Y-125906627D01*
X232774641Y-125730000D01*
X232792037Y-125553373D01*
X232843557Y-125383534D01*
X232927222Y-125227009D01*
X232956552Y-125191271D01*
X233039814Y-125089814D01*
X233141271Y-125006552D01*
X233177009Y-124977222D01*
X233333534Y-124893557D01*
X233503373Y-124842037D01*
X233569557Y-124835519D01*
X233635740Y-124829000D01*
X233724260Y-124829000D01*
X233790443Y-124835519D01*
X233790443Y-124835519D01*
G37*
G36*
X173338443Y-124835519D02*
G01*
X173404627Y-124842037D01*
X173574466Y-124893557D01*
X173730991Y-124977222D01*
X173766729Y-125006552D01*
X173868186Y-125089814D01*
X173951448Y-125191271D01*
X173980778Y-125227009D01*
X174064443Y-125383534D01*
X174115963Y-125553373D01*
X174133359Y-125730000D01*
X174115963Y-125906627D01*
X174064443Y-126076466D01*
X173980778Y-126232991D01*
X173951448Y-126268729D01*
X173868186Y-126370186D01*
X173766729Y-126453448D01*
X173730991Y-126482778D01*
X173574466Y-126566443D01*
X173404627Y-126617963D01*
X173338442Y-126624482D01*
X173272260Y-126631000D01*
X173183740Y-126631000D01*
X173117558Y-126624482D01*
X173051373Y-126617963D01*
X172881534Y-126566443D01*
X172725009Y-126482778D01*
X172689271Y-126453448D01*
X172587814Y-126370186D01*
X172504552Y-126268729D01*
X172475222Y-126232991D01*
X172391557Y-126076466D01*
X172340037Y-125906627D01*
X172322641Y-125730000D01*
X172340037Y-125553373D01*
X172391557Y-125383534D01*
X172475222Y-125227009D01*
X172504552Y-125191271D01*
X172587814Y-125089814D01*
X172689271Y-125006552D01*
X172725009Y-124977222D01*
X172881534Y-124893557D01*
X173051373Y-124842037D01*
X173117557Y-124835519D01*
X173183740Y-124829000D01*
X173272260Y-124829000D01*
X173338443Y-124835519D01*
X173338443Y-124835519D01*
G37*
G36*
X207120443Y-124835519D02*
G01*
X207186627Y-124842037D01*
X207356466Y-124893557D01*
X207512991Y-124977222D01*
X207548729Y-125006552D01*
X207650186Y-125089814D01*
X207733448Y-125191271D01*
X207762778Y-125227009D01*
X207846443Y-125383534D01*
X207897963Y-125553373D01*
X207915359Y-125730000D01*
X207897963Y-125906627D01*
X207846443Y-126076466D01*
X207762778Y-126232991D01*
X207733448Y-126268729D01*
X207650186Y-126370186D01*
X207548729Y-126453448D01*
X207512991Y-126482778D01*
X207356466Y-126566443D01*
X207186627Y-126617963D01*
X207120442Y-126624482D01*
X207054260Y-126631000D01*
X206965740Y-126631000D01*
X206899558Y-126624482D01*
X206833373Y-126617963D01*
X206663534Y-126566443D01*
X206507009Y-126482778D01*
X206471271Y-126453448D01*
X206369814Y-126370186D01*
X206286552Y-126268729D01*
X206257222Y-126232991D01*
X206173557Y-126076466D01*
X206122037Y-125906627D01*
X206104641Y-125730000D01*
X206122037Y-125553373D01*
X206173557Y-125383534D01*
X206257222Y-125227009D01*
X206286552Y-125191271D01*
X206369814Y-125089814D01*
X206471271Y-125006552D01*
X206507009Y-124977222D01*
X206663534Y-124893557D01*
X206833373Y-124842037D01*
X206899557Y-124835519D01*
X206965740Y-124829000D01*
X207054260Y-124829000D01*
X207120443Y-124835519D01*
X207120443Y-124835519D01*
G37*
G36*
X199500443Y-124835519D02*
G01*
X199566627Y-124842037D01*
X199736466Y-124893557D01*
X199892991Y-124977222D01*
X199928729Y-125006552D01*
X200030186Y-125089814D01*
X200113448Y-125191271D01*
X200142778Y-125227009D01*
X200226443Y-125383534D01*
X200277963Y-125553373D01*
X200295359Y-125730000D01*
X200277963Y-125906627D01*
X200226443Y-126076466D01*
X200142778Y-126232991D01*
X200113448Y-126268729D01*
X200030186Y-126370186D01*
X199928729Y-126453448D01*
X199892991Y-126482778D01*
X199736466Y-126566443D01*
X199566627Y-126617963D01*
X199500442Y-126624482D01*
X199434260Y-126631000D01*
X199345740Y-126631000D01*
X199279558Y-126624482D01*
X199213373Y-126617963D01*
X199043534Y-126566443D01*
X198887009Y-126482778D01*
X198851271Y-126453448D01*
X198749814Y-126370186D01*
X198666552Y-126268729D01*
X198637222Y-126232991D01*
X198553557Y-126076466D01*
X198502037Y-125906627D01*
X198484641Y-125730000D01*
X198502037Y-125553373D01*
X198553557Y-125383534D01*
X198637222Y-125227009D01*
X198666552Y-125191271D01*
X198749814Y-125089814D01*
X198851271Y-125006552D01*
X198887009Y-124977222D01*
X199043534Y-124893557D01*
X199213373Y-124842037D01*
X199279557Y-124835519D01*
X199345740Y-124829000D01*
X199434260Y-124829000D01*
X199500443Y-124835519D01*
X199500443Y-124835519D01*
G37*
G36*
X200291000Y-124091000D02*
G01*
X198489000Y-124091000D01*
X198489000Y-122289000D01*
X200291000Y-122289000D01*
X200291000Y-124091000D01*
X200291000Y-124091000D01*
G37*
G36*
X173338443Y-122295519D02*
G01*
X173404627Y-122302037D01*
X173574466Y-122353557D01*
X173730991Y-122437222D01*
X173766729Y-122466552D01*
X173868186Y-122549814D01*
X173951448Y-122651271D01*
X173980778Y-122687009D01*
X174064443Y-122843534D01*
X174115963Y-123013373D01*
X174133359Y-123190000D01*
X174115963Y-123366627D01*
X174064443Y-123536466D01*
X173980778Y-123692991D01*
X173951448Y-123728729D01*
X173868186Y-123830186D01*
X173766729Y-123913448D01*
X173730991Y-123942778D01*
X173574466Y-124026443D01*
X173404627Y-124077963D01*
X173338442Y-124084482D01*
X173272260Y-124091000D01*
X173183740Y-124091000D01*
X173117558Y-124084482D01*
X173051373Y-124077963D01*
X172881534Y-124026443D01*
X172725009Y-123942778D01*
X172689271Y-123913448D01*
X172587814Y-123830186D01*
X172504552Y-123728729D01*
X172475222Y-123692991D01*
X172391557Y-123536466D01*
X172340037Y-123366627D01*
X172322641Y-123190000D01*
X172340037Y-123013373D01*
X172391557Y-122843534D01*
X172475222Y-122687009D01*
X172504552Y-122651271D01*
X172587814Y-122549814D01*
X172689271Y-122466552D01*
X172725009Y-122437222D01*
X172881534Y-122353557D01*
X173051373Y-122302037D01*
X173117557Y-122295519D01*
X173183740Y-122289000D01*
X173272260Y-122289000D01*
X173338443Y-122295519D01*
X173338443Y-122295519D01*
G37*
G36*
X234581000Y-124091000D02*
G01*
X232779000Y-124091000D01*
X232779000Y-122289000D01*
X234581000Y-122289000D01*
X234581000Y-124091000D01*
X234581000Y-124091000D01*
G37*
G36*
X207120443Y-122295519D02*
G01*
X207186627Y-122302037D01*
X207356466Y-122353557D01*
X207512991Y-122437222D01*
X207548729Y-122466552D01*
X207650186Y-122549814D01*
X207733448Y-122651271D01*
X207762778Y-122687009D01*
X207846443Y-122843534D01*
X207897963Y-123013373D01*
X207915359Y-123190000D01*
X207897963Y-123366627D01*
X207846443Y-123536466D01*
X207762778Y-123692991D01*
X207733448Y-123728729D01*
X207650186Y-123830186D01*
X207548729Y-123913448D01*
X207512991Y-123942778D01*
X207356466Y-124026443D01*
X207186627Y-124077963D01*
X207120442Y-124084482D01*
X207054260Y-124091000D01*
X206965740Y-124091000D01*
X206899558Y-124084482D01*
X206833373Y-124077963D01*
X206663534Y-124026443D01*
X206507009Y-123942778D01*
X206471271Y-123913448D01*
X206369814Y-123830186D01*
X206286552Y-123728729D01*
X206257222Y-123692991D01*
X206173557Y-123536466D01*
X206122037Y-123366627D01*
X206104641Y-123190000D01*
X206122037Y-123013373D01*
X206173557Y-122843534D01*
X206257222Y-122687009D01*
X206286552Y-122651271D01*
X206369814Y-122549814D01*
X206471271Y-122466552D01*
X206507009Y-122437222D01*
X206663534Y-122353557D01*
X206833373Y-122302037D01*
X206899557Y-122295519D01*
X206965740Y-122289000D01*
X207054260Y-122289000D01*
X207120443Y-122295519D01*
X207120443Y-122295519D01*
G37*
G36*
X173338442Y-119755518D02*
G01*
X173404627Y-119762037D01*
X173574466Y-119813557D01*
X173730991Y-119897222D01*
X173766729Y-119926552D01*
X173868186Y-120009814D01*
X173951448Y-120111271D01*
X173980778Y-120147009D01*
X174064443Y-120303534D01*
X174115963Y-120473373D01*
X174133359Y-120650000D01*
X174115963Y-120826627D01*
X174064443Y-120996466D01*
X173980778Y-121152991D01*
X173951448Y-121188729D01*
X173868186Y-121290186D01*
X173766729Y-121373448D01*
X173730991Y-121402778D01*
X173574466Y-121486443D01*
X173404627Y-121537963D01*
X173338443Y-121544481D01*
X173272260Y-121551000D01*
X173183740Y-121551000D01*
X173117557Y-121544481D01*
X173051373Y-121537963D01*
X172881534Y-121486443D01*
X172725009Y-121402778D01*
X172689271Y-121373448D01*
X172587814Y-121290186D01*
X172504552Y-121188729D01*
X172475222Y-121152991D01*
X172391557Y-120996466D01*
X172340037Y-120826627D01*
X172322641Y-120650000D01*
X172340037Y-120473373D01*
X172391557Y-120303534D01*
X172475222Y-120147009D01*
X172504552Y-120111271D01*
X172587814Y-120009814D01*
X172689271Y-119926552D01*
X172725009Y-119897222D01*
X172881534Y-119813557D01*
X173051373Y-119762037D01*
X173117558Y-119755518D01*
X173183740Y-119749000D01*
X173272260Y-119749000D01*
X173338442Y-119755518D01*
X173338442Y-119755518D01*
G37*
G36*
X207120442Y-119755518D02*
G01*
X207186627Y-119762037D01*
X207356466Y-119813557D01*
X207512991Y-119897222D01*
X207548729Y-119926552D01*
X207650186Y-120009814D01*
X207733448Y-120111271D01*
X207762778Y-120147009D01*
X207846443Y-120303534D01*
X207897963Y-120473373D01*
X207915359Y-120650000D01*
X207897963Y-120826627D01*
X207846443Y-120996466D01*
X207762778Y-121152991D01*
X207733448Y-121188729D01*
X207650186Y-121290186D01*
X207548729Y-121373448D01*
X207512991Y-121402778D01*
X207356466Y-121486443D01*
X207186627Y-121537963D01*
X207120443Y-121544481D01*
X207054260Y-121551000D01*
X206965740Y-121551000D01*
X206899557Y-121544481D01*
X206833373Y-121537963D01*
X206663534Y-121486443D01*
X206507009Y-121402778D01*
X206471271Y-121373448D01*
X206369814Y-121290186D01*
X206286552Y-121188729D01*
X206257222Y-121152991D01*
X206173557Y-120996466D01*
X206122037Y-120826627D01*
X206104641Y-120650000D01*
X206122037Y-120473373D01*
X206173557Y-120303534D01*
X206257222Y-120147009D01*
X206286552Y-120111271D01*
X206369814Y-120009814D01*
X206471271Y-119926552D01*
X206507009Y-119897222D01*
X206663534Y-119813557D01*
X206833373Y-119762037D01*
X206899558Y-119755518D01*
X206965740Y-119749000D01*
X207054260Y-119749000D01*
X207120442Y-119755518D01*
X207120442Y-119755518D01*
G37*
G36*
X199978674Y-119783465D02*
G01*
X200016367Y-119794899D01*
X200051103Y-119813466D01*
X200081548Y-119838452D01*
X200106534Y-119868897D01*
X200125101Y-119903633D01*
X200136535Y-119941326D01*
X200141000Y-119986661D01*
X200141000Y-120823339D01*
X200136535Y-120868674D01*
X200125101Y-120906367D01*
X200106534Y-120941103D01*
X200081548Y-120971548D01*
X200051103Y-120996534D01*
X200016367Y-121015101D01*
X199978674Y-121026535D01*
X199933339Y-121031000D01*
X198846661Y-121031000D01*
X198801326Y-121026535D01*
X198763633Y-121015101D01*
X198728897Y-120996534D01*
X198698452Y-120971548D01*
X198673466Y-120941103D01*
X198654899Y-120906367D01*
X198643465Y-120868674D01*
X198639000Y-120823339D01*
X198639000Y-119986661D01*
X198643465Y-119941326D01*
X198654899Y-119903633D01*
X198673466Y-119868897D01*
X198698452Y-119838452D01*
X198728897Y-119813466D01*
X198763633Y-119794899D01*
X198801326Y-119783465D01*
X198846661Y-119779000D01*
X199933339Y-119779000D01*
X199978674Y-119783465D01*
X199978674Y-119783465D01*
G37*
G36*
X234268674Y-119783465D02*
G01*
X234306367Y-119794899D01*
X234341103Y-119813466D01*
X234371548Y-119838452D01*
X234396534Y-119868897D01*
X234415101Y-119903633D01*
X234426535Y-119941326D01*
X234431000Y-119986661D01*
X234431000Y-120823339D01*
X234426535Y-120868674D01*
X234415101Y-120906367D01*
X234396534Y-120941103D01*
X234371548Y-120971548D01*
X234341103Y-120996534D01*
X234306367Y-121015101D01*
X234268674Y-121026535D01*
X234223339Y-121031000D01*
X233136661Y-121031000D01*
X233091326Y-121026535D01*
X233053633Y-121015101D01*
X233018897Y-120996534D01*
X232988452Y-120971548D01*
X232963466Y-120941103D01*
X232944899Y-120906367D01*
X232933465Y-120868674D01*
X232929000Y-120823339D01*
X232929000Y-119986661D01*
X232933465Y-119941326D01*
X232944899Y-119903633D01*
X232963466Y-119868897D01*
X232988452Y-119838452D01*
X233018897Y-119813466D01*
X233053633Y-119794899D01*
X233091326Y-119783465D01*
X233136661Y-119779000D01*
X234223339Y-119779000D01*
X234268674Y-119783465D01*
X234268674Y-119783465D01*
G37*
G36*
X173338443Y-117215519D02*
G01*
X173404627Y-117222037D01*
X173574466Y-117273557D01*
X173730991Y-117357222D01*
X173766729Y-117386552D01*
X173868186Y-117469814D01*
X173951448Y-117571271D01*
X173980778Y-117607009D01*
X174064443Y-117763534D01*
X174115963Y-117933373D01*
X174133359Y-118110000D01*
X174115963Y-118286627D01*
X174064443Y-118456466D01*
X173980778Y-118612991D01*
X173951448Y-118648729D01*
X173868186Y-118750186D01*
X173784732Y-118818674D01*
X173730991Y-118862778D01*
X173574466Y-118946443D01*
X173404627Y-118997963D01*
X173338443Y-119004481D01*
X173272260Y-119011000D01*
X173183740Y-119011000D01*
X173117557Y-119004481D01*
X173051373Y-118997963D01*
X172881534Y-118946443D01*
X172725009Y-118862778D01*
X172671268Y-118818674D01*
X172587814Y-118750186D01*
X172504552Y-118648729D01*
X172475222Y-118612991D01*
X172391557Y-118456466D01*
X172340037Y-118286627D01*
X172322641Y-118110000D01*
X172340037Y-117933373D01*
X172391557Y-117763534D01*
X172475222Y-117607009D01*
X172504552Y-117571271D01*
X172587814Y-117469814D01*
X172689271Y-117386552D01*
X172725009Y-117357222D01*
X172881534Y-117273557D01*
X173051373Y-117222037D01*
X173117557Y-117215519D01*
X173183740Y-117209000D01*
X173272260Y-117209000D01*
X173338443Y-117215519D01*
X173338443Y-117215519D01*
G37*
G36*
X207120443Y-117215519D02*
G01*
X207186627Y-117222037D01*
X207356466Y-117273557D01*
X207512991Y-117357222D01*
X207548729Y-117386552D01*
X207650186Y-117469814D01*
X207733448Y-117571271D01*
X207762778Y-117607009D01*
X207846443Y-117763534D01*
X207897963Y-117933373D01*
X207915359Y-118110000D01*
X207897963Y-118286627D01*
X207846443Y-118456466D01*
X207762778Y-118612991D01*
X207733448Y-118648729D01*
X207650186Y-118750186D01*
X207566732Y-118818674D01*
X207512991Y-118862778D01*
X207356466Y-118946443D01*
X207186627Y-118997963D01*
X207120443Y-119004481D01*
X207054260Y-119011000D01*
X206965740Y-119011000D01*
X206899557Y-119004481D01*
X206833373Y-118997963D01*
X206663534Y-118946443D01*
X206507009Y-118862778D01*
X206453268Y-118818674D01*
X206369814Y-118750186D01*
X206286552Y-118648729D01*
X206257222Y-118612991D01*
X206173557Y-118456466D01*
X206122037Y-118286627D01*
X206104641Y-118110000D01*
X206122037Y-117933373D01*
X206173557Y-117763534D01*
X206257222Y-117607009D01*
X206286552Y-117571271D01*
X206369814Y-117469814D01*
X206471271Y-117386552D01*
X206507009Y-117357222D01*
X206663534Y-117273557D01*
X206833373Y-117222037D01*
X206899557Y-117215519D01*
X206965740Y-117209000D01*
X207054260Y-117209000D01*
X207120443Y-117215519D01*
X207120443Y-117215519D01*
G37*
G36*
X199978674Y-117733465D02*
G01*
X200016367Y-117744899D01*
X200051103Y-117763466D01*
X200081548Y-117788452D01*
X200106534Y-117818897D01*
X200125101Y-117853633D01*
X200136535Y-117891326D01*
X200141000Y-117936661D01*
X200141000Y-118773339D01*
X200136535Y-118818674D01*
X200125101Y-118856367D01*
X200106534Y-118891103D01*
X200081548Y-118921548D01*
X200051103Y-118946534D01*
X200016367Y-118965101D01*
X199978674Y-118976535D01*
X199933339Y-118981000D01*
X198846661Y-118981000D01*
X198801326Y-118976535D01*
X198763633Y-118965101D01*
X198728897Y-118946534D01*
X198698452Y-118921548D01*
X198673466Y-118891103D01*
X198654899Y-118856367D01*
X198643465Y-118818674D01*
X198639000Y-118773339D01*
X198639000Y-117936661D01*
X198643465Y-117891326D01*
X198654899Y-117853633D01*
X198673466Y-117818897D01*
X198698452Y-117788452D01*
X198728897Y-117763466D01*
X198763633Y-117744899D01*
X198801326Y-117733465D01*
X198846661Y-117729000D01*
X199933339Y-117729000D01*
X199978674Y-117733465D01*
X199978674Y-117733465D01*
G37*
G36*
X234268674Y-117733465D02*
G01*
X234306367Y-117744899D01*
X234341103Y-117763466D01*
X234371548Y-117788452D01*
X234396534Y-117818897D01*
X234415101Y-117853633D01*
X234426535Y-117891326D01*
X234431000Y-117936661D01*
X234431000Y-118773339D01*
X234426535Y-118818674D01*
X234415101Y-118856367D01*
X234396534Y-118891103D01*
X234371548Y-118921548D01*
X234341103Y-118946534D01*
X234306367Y-118965101D01*
X234268674Y-118976535D01*
X234223339Y-118981000D01*
X233136661Y-118981000D01*
X233091326Y-118976535D01*
X233053633Y-118965101D01*
X233018897Y-118946534D01*
X232988452Y-118921548D01*
X232963466Y-118891103D01*
X232944899Y-118856367D01*
X232933465Y-118818674D01*
X232929000Y-118773339D01*
X232929000Y-117936661D01*
X232933465Y-117891326D01*
X232944899Y-117853633D01*
X232963466Y-117818897D01*
X232988452Y-117788452D01*
X233018897Y-117763466D01*
X233053633Y-117744899D01*
X233091326Y-117733465D01*
X233136661Y-117729000D01*
X234223339Y-117729000D01*
X234268674Y-117733465D01*
X234268674Y-117733465D01*
G37*
G36*
X207120443Y-114675519D02*
G01*
X207186627Y-114682037D01*
X207356466Y-114733557D01*
X207512991Y-114817222D01*
X207548729Y-114846552D01*
X207650186Y-114929814D01*
X207733448Y-115031271D01*
X207762778Y-115067009D01*
X207846443Y-115223534D01*
X207897963Y-115393373D01*
X207915359Y-115570000D01*
X207897963Y-115746627D01*
X207846443Y-115916466D01*
X207762778Y-116072991D01*
X207733448Y-116108729D01*
X207650186Y-116210186D01*
X207548729Y-116293448D01*
X207512991Y-116322778D01*
X207356466Y-116406443D01*
X207186627Y-116457963D01*
X207120442Y-116464482D01*
X207054260Y-116471000D01*
X206965740Y-116471000D01*
X206899558Y-116464482D01*
X206833373Y-116457963D01*
X206663534Y-116406443D01*
X206507009Y-116322778D01*
X206471271Y-116293448D01*
X206369814Y-116210186D01*
X206286552Y-116108729D01*
X206257222Y-116072991D01*
X206173557Y-115916466D01*
X206122037Y-115746627D01*
X206104641Y-115570000D01*
X206122037Y-115393373D01*
X206173557Y-115223534D01*
X206257222Y-115067009D01*
X206286552Y-115031271D01*
X206369814Y-114929814D01*
X206471271Y-114846552D01*
X206507009Y-114817222D01*
X206663534Y-114733557D01*
X206833373Y-114682037D01*
X206899557Y-114675519D01*
X206965740Y-114669000D01*
X207054260Y-114669000D01*
X207120443Y-114675519D01*
X207120443Y-114675519D01*
G37*
G36*
X173338443Y-114675519D02*
G01*
X173404627Y-114682037D01*
X173574466Y-114733557D01*
X173730991Y-114817222D01*
X173766729Y-114846552D01*
X173868186Y-114929814D01*
X173951448Y-115031271D01*
X173980778Y-115067009D01*
X174064443Y-115223534D01*
X174115963Y-115393373D01*
X174133359Y-115570000D01*
X174115963Y-115746627D01*
X174064443Y-115916466D01*
X173980778Y-116072991D01*
X173951448Y-116108729D01*
X173868186Y-116210186D01*
X173766729Y-116293448D01*
X173730991Y-116322778D01*
X173574466Y-116406443D01*
X173404627Y-116457963D01*
X173338442Y-116464482D01*
X173272260Y-116471000D01*
X173183740Y-116471000D01*
X173117558Y-116464482D01*
X173051373Y-116457963D01*
X172881534Y-116406443D01*
X172725009Y-116322778D01*
X172689271Y-116293448D01*
X172587814Y-116210186D01*
X172504552Y-116108729D01*
X172475222Y-116072991D01*
X172391557Y-115916466D01*
X172340037Y-115746627D01*
X172322641Y-115570000D01*
X172340037Y-115393373D01*
X172391557Y-115223534D01*
X172475222Y-115067009D01*
X172504552Y-115031271D01*
X172587814Y-114929814D01*
X172689271Y-114846552D01*
X172725009Y-114817222D01*
X172881534Y-114733557D01*
X173051373Y-114682037D01*
X173117557Y-114675519D01*
X173183740Y-114669000D01*
X173272260Y-114669000D01*
X173338443Y-114675519D01*
X173338443Y-114675519D01*
G37*
G36*
X207120443Y-112135519D02*
G01*
X207186627Y-112142037D01*
X207356466Y-112193557D01*
X207512991Y-112277222D01*
X207548729Y-112306552D01*
X207650186Y-112389814D01*
X207733448Y-112491271D01*
X207762778Y-112527009D01*
X207846443Y-112683534D01*
X207897963Y-112853373D01*
X207915359Y-113030000D01*
X207897963Y-113206627D01*
X207846443Y-113376466D01*
X207762778Y-113532991D01*
X207733448Y-113568729D01*
X207650186Y-113670186D01*
X207548729Y-113753448D01*
X207512991Y-113782778D01*
X207356466Y-113866443D01*
X207186627Y-113917963D01*
X207120443Y-113924481D01*
X207054260Y-113931000D01*
X206965740Y-113931000D01*
X206899557Y-113924481D01*
X206833373Y-113917963D01*
X206663534Y-113866443D01*
X206507009Y-113782778D01*
X206471271Y-113753448D01*
X206369814Y-113670186D01*
X206286552Y-113568729D01*
X206257222Y-113532991D01*
X206173557Y-113376466D01*
X206122037Y-113206627D01*
X206104641Y-113030000D01*
X206122037Y-112853373D01*
X206173557Y-112683534D01*
X206257222Y-112527009D01*
X206286552Y-112491271D01*
X206369814Y-112389814D01*
X206471271Y-112306552D01*
X206507009Y-112277222D01*
X206663534Y-112193557D01*
X206833373Y-112142037D01*
X206899557Y-112135519D01*
X206965740Y-112129000D01*
X207054260Y-112129000D01*
X207120443Y-112135519D01*
X207120443Y-112135519D01*
G37*
G36*
X173338443Y-112135519D02*
G01*
X173404627Y-112142037D01*
X173574466Y-112193557D01*
X173730991Y-112277222D01*
X173766729Y-112306552D01*
X173868186Y-112389814D01*
X173951448Y-112491271D01*
X173980778Y-112527009D01*
X174064443Y-112683534D01*
X174115963Y-112853373D01*
X174133359Y-113030000D01*
X174115963Y-113206627D01*
X174064443Y-113376466D01*
X173980778Y-113532991D01*
X173951448Y-113568729D01*
X173868186Y-113670186D01*
X173766729Y-113753448D01*
X173730991Y-113782778D01*
X173574466Y-113866443D01*
X173404627Y-113917963D01*
X173338443Y-113924481D01*
X173272260Y-113931000D01*
X173183740Y-113931000D01*
X173117557Y-113924481D01*
X173051373Y-113917963D01*
X172881534Y-113866443D01*
X172725009Y-113782778D01*
X172689271Y-113753448D01*
X172587814Y-113670186D01*
X172504552Y-113568729D01*
X172475222Y-113532991D01*
X172391557Y-113376466D01*
X172340037Y-113206627D01*
X172322641Y-113030000D01*
X172340037Y-112853373D01*
X172391557Y-112683534D01*
X172475222Y-112527009D01*
X172504552Y-112491271D01*
X172587814Y-112389814D01*
X172689271Y-112306552D01*
X172725009Y-112277222D01*
X172881534Y-112193557D01*
X173051373Y-112142037D01*
X173117557Y-112135519D01*
X173183740Y-112129000D01*
X173272260Y-112129000D01*
X173338443Y-112135519D01*
X173338443Y-112135519D01*
G37*
G36*
X199627442Y-94609518D02*
G01*
X199693627Y-94616037D01*
X199863466Y-94667557D01*
X200019991Y-94751222D01*
X200055729Y-94780552D01*
X200157186Y-94863814D01*
X200240448Y-94965271D01*
X200269778Y-95001009D01*
X200353443Y-95157534D01*
X200404963Y-95327373D01*
X200422359Y-95504000D01*
X200404963Y-95680627D01*
X200353443Y-95850466D01*
X200269778Y-96006991D01*
X200240448Y-96042729D01*
X200157186Y-96144186D01*
X200055729Y-96227448D01*
X200019991Y-96256778D01*
X199863466Y-96340443D01*
X199693627Y-96391963D01*
X199627442Y-96398482D01*
X199561260Y-96405000D01*
X199472740Y-96405000D01*
X199406558Y-96398482D01*
X199340373Y-96391963D01*
X199170534Y-96340443D01*
X199014009Y-96256778D01*
X198978271Y-96227448D01*
X198876814Y-96144186D01*
X198793552Y-96042729D01*
X198764222Y-96006991D01*
X198680557Y-95850466D01*
X198629037Y-95680627D01*
X198611641Y-95504000D01*
X198629037Y-95327373D01*
X198680557Y-95157534D01*
X198764222Y-95001009D01*
X198793552Y-94965271D01*
X198876814Y-94863814D01*
X198978271Y-94780552D01*
X199014009Y-94751222D01*
X199170534Y-94667557D01*
X199340373Y-94616037D01*
X199406558Y-94609518D01*
X199472740Y-94603000D01*
X199561260Y-94603000D01*
X199627442Y-94609518D01*
X199627442Y-94609518D01*
G37*
G36*
X209787442Y-94609518D02*
G01*
X209853627Y-94616037D01*
X210023466Y-94667557D01*
X210179991Y-94751222D01*
X210215729Y-94780552D01*
X210317186Y-94863814D01*
X210400448Y-94965271D01*
X210429778Y-95001009D01*
X210513443Y-95157534D01*
X210564963Y-95327373D01*
X210582359Y-95504000D01*
X210564963Y-95680627D01*
X210513443Y-95850466D01*
X210429778Y-96006991D01*
X210400448Y-96042729D01*
X210317186Y-96144186D01*
X210215729Y-96227448D01*
X210179991Y-96256778D01*
X210023466Y-96340443D01*
X209853627Y-96391963D01*
X209787442Y-96398482D01*
X209721260Y-96405000D01*
X209632740Y-96405000D01*
X209566558Y-96398482D01*
X209500373Y-96391963D01*
X209330534Y-96340443D01*
X209174009Y-96256778D01*
X209138271Y-96227448D01*
X209036814Y-96144186D01*
X208953552Y-96042729D01*
X208924222Y-96006991D01*
X208840557Y-95850466D01*
X208789037Y-95680627D01*
X208771641Y-95504000D01*
X208789037Y-95327373D01*
X208840557Y-95157534D01*
X208924222Y-95001009D01*
X208953552Y-94965271D01*
X209036814Y-94863814D01*
X209138271Y-94780552D01*
X209174009Y-94751222D01*
X209330534Y-94667557D01*
X209500373Y-94616037D01*
X209566558Y-94609518D01*
X209632740Y-94603000D01*
X209721260Y-94603000D01*
X209787442Y-94609518D01*
X209787442Y-94609518D01*
G37*
G36*
X207247442Y-94609518D02*
G01*
X207313627Y-94616037D01*
X207483466Y-94667557D01*
X207639991Y-94751222D01*
X207675729Y-94780552D01*
X207777186Y-94863814D01*
X207860448Y-94965271D01*
X207889778Y-95001009D01*
X207973443Y-95157534D01*
X208024963Y-95327373D01*
X208042359Y-95504000D01*
X208024963Y-95680627D01*
X207973443Y-95850466D01*
X207889778Y-96006991D01*
X207860448Y-96042729D01*
X207777186Y-96144186D01*
X207675729Y-96227448D01*
X207639991Y-96256778D01*
X207483466Y-96340443D01*
X207313627Y-96391963D01*
X207247442Y-96398482D01*
X207181260Y-96405000D01*
X207092740Y-96405000D01*
X207026558Y-96398482D01*
X206960373Y-96391963D01*
X206790534Y-96340443D01*
X206634009Y-96256778D01*
X206598271Y-96227448D01*
X206496814Y-96144186D01*
X206413552Y-96042729D01*
X206384222Y-96006991D01*
X206300557Y-95850466D01*
X206249037Y-95680627D01*
X206231641Y-95504000D01*
X206249037Y-95327373D01*
X206300557Y-95157534D01*
X206384222Y-95001009D01*
X206413552Y-94965271D01*
X206496814Y-94863814D01*
X206598271Y-94780552D01*
X206634009Y-94751222D01*
X206790534Y-94667557D01*
X206960373Y-94616037D01*
X207026558Y-94609518D01*
X207092740Y-94603000D01*
X207181260Y-94603000D01*
X207247442Y-94609518D01*
X207247442Y-94609518D01*
G37*
G36*
X204707442Y-94609518D02*
G01*
X204773627Y-94616037D01*
X204943466Y-94667557D01*
X205099991Y-94751222D01*
X205135729Y-94780552D01*
X205237186Y-94863814D01*
X205320448Y-94965271D01*
X205349778Y-95001009D01*
X205433443Y-95157534D01*
X205484963Y-95327373D01*
X205502359Y-95504000D01*
X205484963Y-95680627D01*
X205433443Y-95850466D01*
X205349778Y-96006991D01*
X205320448Y-96042729D01*
X205237186Y-96144186D01*
X205135729Y-96227448D01*
X205099991Y-96256778D01*
X204943466Y-96340443D01*
X204773627Y-96391963D01*
X204707442Y-96398482D01*
X204641260Y-96405000D01*
X204552740Y-96405000D01*
X204486558Y-96398482D01*
X204420373Y-96391963D01*
X204250534Y-96340443D01*
X204094009Y-96256778D01*
X204058271Y-96227448D01*
X203956814Y-96144186D01*
X203873552Y-96042729D01*
X203844222Y-96006991D01*
X203760557Y-95850466D01*
X203709037Y-95680627D01*
X203691641Y-95504000D01*
X203709037Y-95327373D01*
X203760557Y-95157534D01*
X203844222Y-95001009D01*
X203873552Y-94965271D01*
X203956814Y-94863814D01*
X204058271Y-94780552D01*
X204094009Y-94751222D01*
X204250534Y-94667557D01*
X204420373Y-94616037D01*
X204486558Y-94609518D01*
X204552740Y-94603000D01*
X204641260Y-94603000D01*
X204707442Y-94609518D01*
X204707442Y-94609518D01*
G37*
G36*
X202167442Y-94609518D02*
G01*
X202233627Y-94616037D01*
X202403466Y-94667557D01*
X202559991Y-94751222D01*
X202595729Y-94780552D01*
X202697186Y-94863814D01*
X202780448Y-94965271D01*
X202809778Y-95001009D01*
X202893443Y-95157534D01*
X202944963Y-95327373D01*
X202962359Y-95504000D01*
X202944963Y-95680627D01*
X202893443Y-95850466D01*
X202809778Y-96006991D01*
X202780448Y-96042729D01*
X202697186Y-96144186D01*
X202595729Y-96227448D01*
X202559991Y-96256778D01*
X202403466Y-96340443D01*
X202233627Y-96391963D01*
X202167442Y-96398482D01*
X202101260Y-96405000D01*
X202012740Y-96405000D01*
X201946558Y-96398482D01*
X201880373Y-96391963D01*
X201710534Y-96340443D01*
X201554009Y-96256778D01*
X201518271Y-96227448D01*
X201416814Y-96144186D01*
X201333552Y-96042729D01*
X201304222Y-96006991D01*
X201220557Y-95850466D01*
X201169037Y-95680627D01*
X201151641Y-95504000D01*
X201169037Y-95327373D01*
X201220557Y-95157534D01*
X201304222Y-95001009D01*
X201333552Y-94965271D01*
X201416814Y-94863814D01*
X201518271Y-94780552D01*
X201554009Y-94751222D01*
X201710534Y-94667557D01*
X201880373Y-94616037D01*
X201946558Y-94609518D01*
X202012740Y-94603000D01*
X202101260Y-94603000D01*
X202167442Y-94609518D01*
X202167442Y-94609518D01*
G37*
G36*
X197878000Y-96405000D02*
G01*
X196076000Y-96405000D01*
X196076000Y-94603000D01*
X197878000Y-94603000D01*
X197878000Y-96405000D01*
X197878000Y-96405000D01*
G37*
G36*
X204707443Y-92069519D02*
G01*
X204773627Y-92076037D01*
X204943466Y-92127557D01*
X205099991Y-92211222D01*
X205135729Y-92240552D01*
X205237186Y-92323814D01*
X205320448Y-92425271D01*
X205349778Y-92461009D01*
X205433443Y-92617534D01*
X205484963Y-92787373D01*
X205502359Y-92964000D01*
X205484963Y-93140627D01*
X205433443Y-93310466D01*
X205349778Y-93466991D01*
X205320448Y-93502729D01*
X205237186Y-93604186D01*
X205135729Y-93687448D01*
X205099991Y-93716778D01*
X204943466Y-93800443D01*
X204773627Y-93851963D01*
X204707443Y-93858481D01*
X204641260Y-93865000D01*
X204552740Y-93865000D01*
X204486557Y-93858481D01*
X204420373Y-93851963D01*
X204250534Y-93800443D01*
X204094009Y-93716778D01*
X204058271Y-93687448D01*
X203956814Y-93604186D01*
X203873552Y-93502729D01*
X203844222Y-93466991D01*
X203760557Y-93310466D01*
X203709037Y-93140627D01*
X203691641Y-92964000D01*
X203709037Y-92787373D01*
X203760557Y-92617534D01*
X203844222Y-92461009D01*
X203873552Y-92425271D01*
X203956814Y-92323814D01*
X204058271Y-92240552D01*
X204094009Y-92211222D01*
X204250534Y-92127557D01*
X204420373Y-92076037D01*
X204486557Y-92069519D01*
X204552740Y-92063000D01*
X204641260Y-92063000D01*
X204707443Y-92069519D01*
X204707443Y-92069519D01*
G37*
G36*
X197087443Y-92069519D02*
G01*
X197153627Y-92076037D01*
X197323466Y-92127557D01*
X197479991Y-92211222D01*
X197515729Y-92240552D01*
X197617186Y-92323814D01*
X197700448Y-92425271D01*
X197729778Y-92461009D01*
X197813443Y-92617534D01*
X197864963Y-92787373D01*
X197882359Y-92964000D01*
X197864963Y-93140627D01*
X197813443Y-93310466D01*
X197729778Y-93466991D01*
X197700448Y-93502729D01*
X197617186Y-93604186D01*
X197515729Y-93687448D01*
X197479991Y-93716778D01*
X197323466Y-93800443D01*
X197153627Y-93851963D01*
X197087443Y-93858481D01*
X197021260Y-93865000D01*
X196932740Y-93865000D01*
X196866557Y-93858481D01*
X196800373Y-93851963D01*
X196630534Y-93800443D01*
X196474009Y-93716778D01*
X196438271Y-93687448D01*
X196336814Y-93604186D01*
X196253552Y-93502729D01*
X196224222Y-93466991D01*
X196140557Y-93310466D01*
X196089037Y-93140627D01*
X196071641Y-92964000D01*
X196089037Y-92787373D01*
X196140557Y-92617534D01*
X196224222Y-92461009D01*
X196253552Y-92425271D01*
X196336814Y-92323814D01*
X196438271Y-92240552D01*
X196474009Y-92211222D01*
X196630534Y-92127557D01*
X196800373Y-92076037D01*
X196866557Y-92069519D01*
X196932740Y-92063000D01*
X197021260Y-92063000D01*
X197087443Y-92069519D01*
X197087443Y-92069519D01*
G37*
G36*
X199627443Y-92069519D02*
G01*
X199693627Y-92076037D01*
X199863466Y-92127557D01*
X200019991Y-92211222D01*
X200055729Y-92240552D01*
X200157186Y-92323814D01*
X200240448Y-92425271D01*
X200269778Y-92461009D01*
X200353443Y-92617534D01*
X200404963Y-92787373D01*
X200422359Y-92964000D01*
X200404963Y-93140627D01*
X200353443Y-93310466D01*
X200269778Y-93466991D01*
X200240448Y-93502729D01*
X200157186Y-93604186D01*
X200055729Y-93687448D01*
X200019991Y-93716778D01*
X199863466Y-93800443D01*
X199693627Y-93851963D01*
X199627443Y-93858481D01*
X199561260Y-93865000D01*
X199472740Y-93865000D01*
X199406557Y-93858481D01*
X199340373Y-93851963D01*
X199170534Y-93800443D01*
X199014009Y-93716778D01*
X198978271Y-93687448D01*
X198876814Y-93604186D01*
X198793552Y-93502729D01*
X198764222Y-93466991D01*
X198680557Y-93310466D01*
X198629037Y-93140627D01*
X198611641Y-92964000D01*
X198629037Y-92787373D01*
X198680557Y-92617534D01*
X198764222Y-92461009D01*
X198793552Y-92425271D01*
X198876814Y-92323814D01*
X198978271Y-92240552D01*
X199014009Y-92211222D01*
X199170534Y-92127557D01*
X199340373Y-92076037D01*
X199406557Y-92069519D01*
X199472740Y-92063000D01*
X199561260Y-92063000D01*
X199627443Y-92069519D01*
X199627443Y-92069519D01*
G37*
G36*
X202167443Y-92069519D02*
G01*
X202233627Y-92076037D01*
X202403466Y-92127557D01*
X202559991Y-92211222D01*
X202595729Y-92240552D01*
X202697186Y-92323814D01*
X202780448Y-92425271D01*
X202809778Y-92461009D01*
X202893443Y-92617534D01*
X202944963Y-92787373D01*
X202962359Y-92964000D01*
X202944963Y-93140627D01*
X202893443Y-93310466D01*
X202809778Y-93466991D01*
X202780448Y-93502729D01*
X202697186Y-93604186D01*
X202595729Y-93687448D01*
X202559991Y-93716778D01*
X202403466Y-93800443D01*
X202233627Y-93851963D01*
X202167443Y-93858481D01*
X202101260Y-93865000D01*
X202012740Y-93865000D01*
X201946557Y-93858481D01*
X201880373Y-93851963D01*
X201710534Y-93800443D01*
X201554009Y-93716778D01*
X201518271Y-93687448D01*
X201416814Y-93604186D01*
X201333552Y-93502729D01*
X201304222Y-93466991D01*
X201220557Y-93310466D01*
X201169037Y-93140627D01*
X201151641Y-92964000D01*
X201169037Y-92787373D01*
X201220557Y-92617534D01*
X201304222Y-92461009D01*
X201333552Y-92425271D01*
X201416814Y-92323814D01*
X201518271Y-92240552D01*
X201554009Y-92211222D01*
X201710534Y-92127557D01*
X201880373Y-92076037D01*
X201946557Y-92069519D01*
X202012740Y-92063000D01*
X202101260Y-92063000D01*
X202167443Y-92069519D01*
X202167443Y-92069519D01*
G37*
G36*
X209787443Y-92069519D02*
G01*
X209853627Y-92076037D01*
X210023466Y-92127557D01*
X210179991Y-92211222D01*
X210215729Y-92240552D01*
X210317186Y-92323814D01*
X210400448Y-92425271D01*
X210429778Y-92461009D01*
X210513443Y-92617534D01*
X210564963Y-92787373D01*
X210582359Y-92964000D01*
X210564963Y-93140627D01*
X210513443Y-93310466D01*
X210429778Y-93466991D01*
X210400448Y-93502729D01*
X210317186Y-93604186D01*
X210215729Y-93687448D01*
X210179991Y-93716778D01*
X210023466Y-93800443D01*
X209853627Y-93851963D01*
X209787443Y-93858481D01*
X209721260Y-93865000D01*
X209632740Y-93865000D01*
X209566557Y-93858481D01*
X209500373Y-93851963D01*
X209330534Y-93800443D01*
X209174009Y-93716778D01*
X209138271Y-93687448D01*
X209036814Y-93604186D01*
X208953552Y-93502729D01*
X208924222Y-93466991D01*
X208840557Y-93310466D01*
X208789037Y-93140627D01*
X208771641Y-92964000D01*
X208789037Y-92787373D01*
X208840557Y-92617534D01*
X208924222Y-92461009D01*
X208953552Y-92425271D01*
X209036814Y-92323814D01*
X209138271Y-92240552D01*
X209174009Y-92211222D01*
X209330534Y-92127557D01*
X209500373Y-92076037D01*
X209566557Y-92069519D01*
X209632740Y-92063000D01*
X209721260Y-92063000D01*
X209787443Y-92069519D01*
X209787443Y-92069519D01*
G37*
G36*
X207247443Y-92069519D02*
G01*
X207313627Y-92076037D01*
X207483466Y-92127557D01*
X207639991Y-92211222D01*
X207675729Y-92240552D01*
X207777186Y-92323814D01*
X207860448Y-92425271D01*
X207889778Y-92461009D01*
X207973443Y-92617534D01*
X208024963Y-92787373D01*
X208042359Y-92964000D01*
X208024963Y-93140627D01*
X207973443Y-93310466D01*
X207889778Y-93466991D01*
X207860448Y-93502729D01*
X207777186Y-93604186D01*
X207675729Y-93687448D01*
X207639991Y-93716778D01*
X207483466Y-93800443D01*
X207313627Y-93851963D01*
X207247443Y-93858481D01*
X207181260Y-93865000D01*
X207092740Y-93865000D01*
X207026557Y-93858481D01*
X206960373Y-93851963D01*
X206790534Y-93800443D01*
X206634009Y-93716778D01*
X206598271Y-93687448D01*
X206496814Y-93604186D01*
X206413552Y-93502729D01*
X206384222Y-93466991D01*
X206300557Y-93310466D01*
X206249037Y-93140627D01*
X206231641Y-92964000D01*
X206249037Y-92787373D01*
X206300557Y-92617534D01*
X206384222Y-92461009D01*
X206413552Y-92425271D01*
X206496814Y-92323814D01*
X206598271Y-92240552D01*
X206634009Y-92211222D01*
X206790534Y-92127557D01*
X206960373Y-92076037D01*
X207026557Y-92069519D01*
X207092740Y-92063000D01*
X207181260Y-92063000D01*
X207247443Y-92069519D01*
X207247443Y-92069519D01*
G37*
G36*
X173832442Y-75475518D02*
G01*
X173898627Y-75482037D01*
X174068466Y-75533557D01*
X174224991Y-75617222D01*
X174260729Y-75646552D01*
X174362186Y-75729814D01*
X174445448Y-75831271D01*
X174474778Y-75867009D01*
X174558443Y-76023534D01*
X174609963Y-76193373D01*
X174627359Y-76370000D01*
X174609963Y-76546627D01*
X174558443Y-76716466D01*
X174474778Y-76872991D01*
X174445448Y-76908729D01*
X174362186Y-77010186D01*
X174260729Y-77093448D01*
X174224991Y-77122778D01*
X174068466Y-77206443D01*
X173898627Y-77257963D01*
X173832443Y-77264481D01*
X173766260Y-77271000D01*
X173677740Y-77271000D01*
X173611557Y-77264481D01*
X173545373Y-77257963D01*
X173375534Y-77206443D01*
X173219009Y-77122778D01*
X173183271Y-77093448D01*
X173081814Y-77010186D01*
X172998552Y-76908729D01*
X172969222Y-76872991D01*
X172885557Y-76716466D01*
X172834037Y-76546627D01*
X172816641Y-76370000D01*
X172834037Y-76193373D01*
X172885557Y-76023534D01*
X172969222Y-75867009D01*
X172998552Y-75831271D01*
X173081814Y-75729814D01*
X173183271Y-75646552D01*
X173219009Y-75617222D01*
X173375534Y-75533557D01*
X173545373Y-75482037D01*
X173611558Y-75475518D01*
X173677740Y-75469000D01*
X173766260Y-75469000D01*
X173832442Y-75475518D01*
X173832442Y-75475518D01*
G37*
G36*
X222882442Y-75475518D02*
G01*
X222948627Y-75482037D01*
X223118466Y-75533557D01*
X223274991Y-75617222D01*
X223310729Y-75646552D01*
X223412186Y-75729814D01*
X223495448Y-75831271D01*
X223524778Y-75867009D01*
X223608443Y-76023534D01*
X223659963Y-76193373D01*
X223677359Y-76370000D01*
X223659963Y-76546627D01*
X223608443Y-76716466D01*
X223524778Y-76872991D01*
X223495448Y-76908729D01*
X223412186Y-77010186D01*
X223310729Y-77093448D01*
X223274991Y-77122778D01*
X223118466Y-77206443D01*
X222948627Y-77257963D01*
X222882443Y-77264481D01*
X222816260Y-77271000D01*
X222727740Y-77271000D01*
X222661557Y-77264481D01*
X222595373Y-77257963D01*
X222425534Y-77206443D01*
X222269009Y-77122778D01*
X222233271Y-77093448D01*
X222131814Y-77010186D01*
X222048552Y-76908729D01*
X222019222Y-76872991D01*
X221935557Y-76716466D01*
X221884037Y-76546627D01*
X221866641Y-76370000D01*
X221884037Y-76193373D01*
X221935557Y-76023534D01*
X222019222Y-75867009D01*
X222048552Y-75831271D01*
X222131814Y-75729814D01*
X222233271Y-75646552D01*
X222269009Y-75617222D01*
X222425534Y-75533557D01*
X222595373Y-75482037D01*
X222661558Y-75475518D01*
X222727740Y-75469000D01*
X222816260Y-75469000D01*
X222882442Y-75475518D01*
X222882442Y-75475518D01*
G37*
G36*
X225422442Y-75475518D02*
G01*
X225488627Y-75482037D01*
X225658466Y-75533557D01*
X225814991Y-75617222D01*
X225850729Y-75646552D01*
X225952186Y-75729814D01*
X226035448Y-75831271D01*
X226064778Y-75867009D01*
X226148443Y-76023534D01*
X226199963Y-76193373D01*
X226217359Y-76370000D01*
X226199963Y-76546627D01*
X226148443Y-76716466D01*
X226064778Y-76872991D01*
X226035448Y-76908729D01*
X225952186Y-77010186D01*
X225850729Y-77093448D01*
X225814991Y-77122778D01*
X225658466Y-77206443D01*
X225488627Y-77257963D01*
X225422443Y-77264481D01*
X225356260Y-77271000D01*
X225267740Y-77271000D01*
X225201557Y-77264481D01*
X225135373Y-77257963D01*
X224965534Y-77206443D01*
X224809009Y-77122778D01*
X224773271Y-77093448D01*
X224671814Y-77010186D01*
X224588552Y-76908729D01*
X224559222Y-76872991D01*
X224475557Y-76716466D01*
X224424037Y-76546627D01*
X224406641Y-76370000D01*
X224424037Y-76193373D01*
X224475557Y-76023534D01*
X224559222Y-75867009D01*
X224588552Y-75831271D01*
X224671814Y-75729814D01*
X224773271Y-75646552D01*
X224809009Y-75617222D01*
X224965534Y-75533557D01*
X225135373Y-75482037D01*
X225201558Y-75475518D01*
X225267740Y-75469000D01*
X225356260Y-75469000D01*
X225422442Y-75475518D01*
X225422442Y-75475518D01*
G37*
G36*
X227962442Y-75475518D02*
G01*
X228028627Y-75482037D01*
X228198466Y-75533557D01*
X228354991Y-75617222D01*
X228390729Y-75646552D01*
X228492186Y-75729814D01*
X228575448Y-75831271D01*
X228604778Y-75867009D01*
X228688443Y-76023534D01*
X228739963Y-76193373D01*
X228757359Y-76370000D01*
X228739963Y-76546627D01*
X228688443Y-76716466D01*
X228604778Y-76872991D01*
X228575448Y-76908729D01*
X228492186Y-77010186D01*
X228390729Y-77093448D01*
X228354991Y-77122778D01*
X228198466Y-77206443D01*
X228028627Y-77257963D01*
X227962443Y-77264481D01*
X227896260Y-77271000D01*
X227807740Y-77271000D01*
X227741557Y-77264481D01*
X227675373Y-77257963D01*
X227505534Y-77206443D01*
X227349009Y-77122778D01*
X227313271Y-77093448D01*
X227211814Y-77010186D01*
X227128552Y-76908729D01*
X227099222Y-76872991D01*
X227015557Y-76716466D01*
X226964037Y-76546627D01*
X226946641Y-76370000D01*
X226964037Y-76193373D01*
X227015557Y-76023534D01*
X227099222Y-75867009D01*
X227128552Y-75831271D01*
X227211814Y-75729814D01*
X227313271Y-75646552D01*
X227349009Y-75617222D01*
X227505534Y-75533557D01*
X227675373Y-75482037D01*
X227741558Y-75475518D01*
X227807740Y-75469000D01*
X227896260Y-75469000D01*
X227962442Y-75475518D01*
X227962442Y-75475518D01*
G37*
G36*
X230502442Y-75475518D02*
G01*
X230568627Y-75482037D01*
X230738466Y-75533557D01*
X230894991Y-75617222D01*
X230930729Y-75646552D01*
X231032186Y-75729814D01*
X231115448Y-75831271D01*
X231144778Y-75867009D01*
X231228443Y-76023534D01*
X231279963Y-76193373D01*
X231297359Y-76370000D01*
X231279963Y-76546627D01*
X231228443Y-76716466D01*
X231144778Y-76872991D01*
X231115448Y-76908729D01*
X231032186Y-77010186D01*
X230930729Y-77093448D01*
X230894991Y-77122778D01*
X230738466Y-77206443D01*
X230568627Y-77257963D01*
X230502443Y-77264481D01*
X230436260Y-77271000D01*
X230347740Y-77271000D01*
X230281557Y-77264481D01*
X230215373Y-77257963D01*
X230045534Y-77206443D01*
X229889009Y-77122778D01*
X229853271Y-77093448D01*
X229751814Y-77010186D01*
X229668552Y-76908729D01*
X229639222Y-76872991D01*
X229555557Y-76716466D01*
X229504037Y-76546627D01*
X229486641Y-76370000D01*
X229504037Y-76193373D01*
X229555557Y-76023534D01*
X229639222Y-75867009D01*
X229668552Y-75831271D01*
X229751814Y-75729814D01*
X229853271Y-75646552D01*
X229889009Y-75617222D01*
X230045534Y-75533557D01*
X230215373Y-75482037D01*
X230281558Y-75475518D01*
X230347740Y-75469000D01*
X230436260Y-75469000D01*
X230502442Y-75475518D01*
X230502442Y-75475518D01*
G37*
G36*
X233833000Y-77271000D02*
G01*
X232031000Y-77271000D01*
X232031000Y-75469000D01*
X233833000Y-75469000D01*
X233833000Y-77271000D01*
X233833000Y-77271000D01*
G37*
G36*
X184783000Y-77271000D02*
G01*
X182981000Y-77271000D01*
X182981000Y-75469000D01*
X184783000Y-75469000D01*
X184783000Y-77271000D01*
X184783000Y-77271000D01*
G37*
G36*
X176372442Y-75475518D02*
G01*
X176438627Y-75482037D01*
X176608466Y-75533557D01*
X176764991Y-75617222D01*
X176800729Y-75646552D01*
X176902186Y-75729814D01*
X176985448Y-75831271D01*
X177014778Y-75867009D01*
X177098443Y-76023534D01*
X177149963Y-76193373D01*
X177167359Y-76370000D01*
X177149963Y-76546627D01*
X177098443Y-76716466D01*
X177014778Y-76872991D01*
X176985448Y-76908729D01*
X176902186Y-77010186D01*
X176800729Y-77093448D01*
X176764991Y-77122778D01*
X176608466Y-77206443D01*
X176438627Y-77257963D01*
X176372443Y-77264481D01*
X176306260Y-77271000D01*
X176217740Y-77271000D01*
X176151557Y-77264481D01*
X176085373Y-77257963D01*
X175915534Y-77206443D01*
X175759009Y-77122778D01*
X175723271Y-77093448D01*
X175621814Y-77010186D01*
X175538552Y-76908729D01*
X175509222Y-76872991D01*
X175425557Y-76716466D01*
X175374037Y-76546627D01*
X175356641Y-76370000D01*
X175374037Y-76193373D01*
X175425557Y-76023534D01*
X175509222Y-75867009D01*
X175538552Y-75831271D01*
X175621814Y-75729814D01*
X175723271Y-75646552D01*
X175759009Y-75617222D01*
X175915534Y-75533557D01*
X176085373Y-75482037D01*
X176151558Y-75475518D01*
X176217740Y-75469000D01*
X176306260Y-75469000D01*
X176372442Y-75475518D01*
X176372442Y-75475518D01*
G37*
G36*
X178912442Y-75475518D02*
G01*
X178978627Y-75482037D01*
X179148466Y-75533557D01*
X179304991Y-75617222D01*
X179340729Y-75646552D01*
X179442186Y-75729814D01*
X179525448Y-75831271D01*
X179554778Y-75867009D01*
X179638443Y-76023534D01*
X179689963Y-76193373D01*
X179707359Y-76370000D01*
X179689963Y-76546627D01*
X179638443Y-76716466D01*
X179554778Y-76872991D01*
X179525448Y-76908729D01*
X179442186Y-77010186D01*
X179340729Y-77093448D01*
X179304991Y-77122778D01*
X179148466Y-77206443D01*
X178978627Y-77257963D01*
X178912443Y-77264481D01*
X178846260Y-77271000D01*
X178757740Y-77271000D01*
X178691557Y-77264481D01*
X178625373Y-77257963D01*
X178455534Y-77206443D01*
X178299009Y-77122778D01*
X178263271Y-77093448D01*
X178161814Y-77010186D01*
X178078552Y-76908729D01*
X178049222Y-76872991D01*
X177965557Y-76716466D01*
X177914037Y-76546627D01*
X177896641Y-76370000D01*
X177914037Y-76193373D01*
X177965557Y-76023534D01*
X178049222Y-75867009D01*
X178078552Y-75831271D01*
X178161814Y-75729814D01*
X178263271Y-75646552D01*
X178299009Y-75617222D01*
X178455534Y-75533557D01*
X178625373Y-75482037D01*
X178691558Y-75475518D01*
X178757740Y-75469000D01*
X178846260Y-75469000D01*
X178912442Y-75475518D01*
X178912442Y-75475518D01*
G37*
G36*
X181452442Y-75475518D02*
G01*
X181518627Y-75482037D01*
X181688466Y-75533557D01*
X181844991Y-75617222D01*
X181880729Y-75646552D01*
X181982186Y-75729814D01*
X182065448Y-75831271D01*
X182094778Y-75867009D01*
X182178443Y-76023534D01*
X182229963Y-76193373D01*
X182247359Y-76370000D01*
X182229963Y-76546627D01*
X182178443Y-76716466D01*
X182094778Y-76872991D01*
X182065448Y-76908729D01*
X181982186Y-77010186D01*
X181880729Y-77093448D01*
X181844991Y-77122778D01*
X181688466Y-77206443D01*
X181518627Y-77257963D01*
X181452443Y-77264481D01*
X181386260Y-77271000D01*
X181297740Y-77271000D01*
X181231557Y-77264481D01*
X181165373Y-77257963D01*
X180995534Y-77206443D01*
X180839009Y-77122778D01*
X180803271Y-77093448D01*
X180701814Y-77010186D01*
X180618552Y-76908729D01*
X180589222Y-76872991D01*
X180505557Y-76716466D01*
X180454037Y-76546627D01*
X180436641Y-76370000D01*
X180454037Y-76193373D01*
X180505557Y-76023534D01*
X180589222Y-75867009D01*
X180618552Y-75831271D01*
X180701814Y-75729814D01*
X180803271Y-75646552D01*
X180839009Y-75617222D01*
X180995534Y-75533557D01*
X181165373Y-75482037D01*
X181231558Y-75475518D01*
X181297740Y-75469000D01*
X181386260Y-75469000D01*
X181452442Y-75475518D01*
X181452442Y-75475518D01*
G37*
G36*
X176561272Y-68353428D02*
G01*
X176747991Y-68430770D01*
X176747993Y-68430771D01*
X176916037Y-68543054D01*
X177058946Y-68685963D01*
X177171229Y-68854007D01*
X177171230Y-68854009D01*
X177248572Y-69040728D01*
X177288000Y-69238947D01*
X177288000Y-69441053D01*
X177248572Y-69639272D01*
X177171230Y-69825991D01*
X177171229Y-69825993D01*
X177058946Y-69994037D01*
X176916037Y-70136946D01*
X176747993Y-70249229D01*
X176747992Y-70249230D01*
X176747991Y-70249230D01*
X176561272Y-70326572D01*
X176363053Y-70366000D01*
X176160947Y-70366000D01*
X175962728Y-70326572D01*
X175776009Y-70249230D01*
X175776008Y-70249230D01*
X175776007Y-70249229D01*
X175607963Y-70136946D01*
X175465054Y-69994037D01*
X175352771Y-69825993D01*
X175352770Y-69825991D01*
X175275428Y-69639272D01*
X175236000Y-69441053D01*
X175236000Y-69238947D01*
X175275428Y-69040728D01*
X175352770Y-68854009D01*
X175352771Y-68854007D01*
X175465054Y-68685963D01*
X175607963Y-68543054D01*
X175776007Y-68430771D01*
X175776009Y-68430770D01*
X175962728Y-68353428D01*
X176160947Y-68314000D01*
X176363053Y-68314000D01*
X176561272Y-68353428D01*
X176561272Y-68353428D01*
G37*
G36*
X233958000Y-70366000D02*
G01*
X231906000Y-70366000D01*
X231906000Y-68314000D01*
X233958000Y-68314000D01*
X233958000Y-70366000D01*
X233958000Y-70366000D01*
G37*
G36*
X230691272Y-68353428D02*
G01*
X230877991Y-68430770D01*
X230877993Y-68430771D01*
X231046037Y-68543054D01*
X231188946Y-68685963D01*
X231301229Y-68854007D01*
X231301230Y-68854009D01*
X231378572Y-69040728D01*
X231418000Y-69238947D01*
X231418000Y-69441053D01*
X231378572Y-69639272D01*
X231301230Y-69825991D01*
X231301229Y-69825993D01*
X231188946Y-69994037D01*
X231046037Y-70136946D01*
X230877993Y-70249229D01*
X230877992Y-70249230D01*
X230877991Y-70249230D01*
X230691272Y-70326572D01*
X230493053Y-70366000D01*
X230290947Y-70366000D01*
X230092728Y-70326572D01*
X229906009Y-70249230D01*
X229906008Y-70249230D01*
X229906007Y-70249229D01*
X229737963Y-70136946D01*
X229595054Y-69994037D01*
X229482771Y-69825993D01*
X229482770Y-69825991D01*
X229405428Y-69639272D01*
X229366000Y-69441053D01*
X229366000Y-69238947D01*
X229405428Y-69040728D01*
X229482770Y-68854009D01*
X229482771Y-68854007D01*
X229595054Y-68685963D01*
X229737963Y-68543054D01*
X229906007Y-68430771D01*
X229906009Y-68430770D01*
X230092728Y-68353428D01*
X230290947Y-68314000D01*
X230493053Y-68314000D01*
X230691272Y-68353428D01*
X230691272Y-68353428D01*
G37*
G36*
X228151272Y-68353428D02*
G01*
X228337991Y-68430770D01*
X228337993Y-68430771D01*
X228506037Y-68543054D01*
X228648946Y-68685963D01*
X228761229Y-68854007D01*
X228761230Y-68854009D01*
X228838572Y-69040728D01*
X228878000Y-69238947D01*
X228878000Y-69441053D01*
X228838572Y-69639272D01*
X228761230Y-69825991D01*
X228761229Y-69825993D01*
X228648946Y-69994037D01*
X228506037Y-70136946D01*
X228337993Y-70249229D01*
X228337992Y-70249230D01*
X228337991Y-70249230D01*
X228151272Y-70326572D01*
X227953053Y-70366000D01*
X227750947Y-70366000D01*
X227552728Y-70326572D01*
X227366009Y-70249230D01*
X227366008Y-70249230D01*
X227366007Y-70249229D01*
X227197963Y-70136946D01*
X227055054Y-69994037D01*
X226942771Y-69825993D01*
X226942770Y-69825991D01*
X226865428Y-69639272D01*
X226826000Y-69441053D01*
X226826000Y-69238947D01*
X226865428Y-69040728D01*
X226942770Y-68854009D01*
X226942771Y-68854007D01*
X227055054Y-68685963D01*
X227197963Y-68543054D01*
X227366007Y-68430771D01*
X227366009Y-68430770D01*
X227552728Y-68353428D01*
X227750947Y-68314000D01*
X227953053Y-68314000D01*
X228151272Y-68353428D01*
X228151272Y-68353428D01*
G37*
G36*
X225611272Y-68353428D02*
G01*
X225797991Y-68430770D01*
X225797993Y-68430771D01*
X225966037Y-68543054D01*
X226108946Y-68685963D01*
X226221229Y-68854007D01*
X226221230Y-68854009D01*
X226298572Y-69040728D01*
X226338000Y-69238947D01*
X226338000Y-69441053D01*
X226298572Y-69639272D01*
X226221230Y-69825991D01*
X226221229Y-69825993D01*
X226108946Y-69994037D01*
X225966037Y-70136946D01*
X225797993Y-70249229D01*
X225797992Y-70249230D01*
X225797991Y-70249230D01*
X225611272Y-70326572D01*
X225413053Y-70366000D01*
X225210947Y-70366000D01*
X225012728Y-70326572D01*
X224826009Y-70249230D01*
X224826008Y-70249230D01*
X224826007Y-70249229D01*
X224657963Y-70136946D01*
X224515054Y-69994037D01*
X224402771Y-69825993D01*
X224402770Y-69825991D01*
X224325428Y-69639272D01*
X224286000Y-69441053D01*
X224286000Y-69238947D01*
X224325428Y-69040728D01*
X224402770Y-68854009D01*
X224402771Y-68854007D01*
X224515054Y-68685963D01*
X224657963Y-68543054D01*
X224826007Y-68430771D01*
X224826009Y-68430770D01*
X225012728Y-68353428D01*
X225210947Y-68314000D01*
X225413053Y-68314000D01*
X225611272Y-68353428D01*
X225611272Y-68353428D01*
G37*
G36*
X223071272Y-68353428D02*
G01*
X223257991Y-68430770D01*
X223257993Y-68430771D01*
X223426037Y-68543054D01*
X223568946Y-68685963D01*
X223681229Y-68854007D01*
X223681230Y-68854009D01*
X223758572Y-69040728D01*
X223798000Y-69238947D01*
X223798000Y-69441053D01*
X223758572Y-69639272D01*
X223681230Y-69825991D01*
X223681229Y-69825993D01*
X223568946Y-69994037D01*
X223426037Y-70136946D01*
X223257993Y-70249229D01*
X223257992Y-70249230D01*
X223257991Y-70249230D01*
X223071272Y-70326572D01*
X222873053Y-70366000D01*
X222670947Y-70366000D01*
X222472728Y-70326572D01*
X222286009Y-70249230D01*
X222286008Y-70249230D01*
X222286007Y-70249229D01*
X222117963Y-70136946D01*
X221975054Y-69994037D01*
X221862771Y-69825993D01*
X221862770Y-69825991D01*
X221785428Y-69639272D01*
X221746000Y-69441053D01*
X221746000Y-69238947D01*
X221785428Y-69040728D01*
X221862770Y-68854009D01*
X221862771Y-68854007D01*
X221975054Y-68685963D01*
X222117963Y-68543054D01*
X222286007Y-68430771D01*
X222286009Y-68430770D01*
X222472728Y-68353428D01*
X222670947Y-68314000D01*
X222873053Y-68314000D01*
X223071272Y-68353428D01*
X223071272Y-68353428D01*
G37*
G36*
X184908000Y-70366000D02*
G01*
X182856000Y-70366000D01*
X182856000Y-68314000D01*
X184908000Y-68314000D01*
X184908000Y-70366000D01*
X184908000Y-70366000D01*
G37*
G36*
X181641272Y-68353428D02*
G01*
X181827991Y-68430770D01*
X181827993Y-68430771D01*
X181996037Y-68543054D01*
X182138946Y-68685963D01*
X182251229Y-68854007D01*
X182251230Y-68854009D01*
X182328572Y-69040728D01*
X182368000Y-69238947D01*
X182368000Y-69441053D01*
X182328572Y-69639272D01*
X182251230Y-69825991D01*
X182251229Y-69825993D01*
X182138946Y-69994037D01*
X181996037Y-70136946D01*
X181827993Y-70249229D01*
X181827992Y-70249230D01*
X181827991Y-70249230D01*
X181641272Y-70326572D01*
X181443053Y-70366000D01*
X181240947Y-70366000D01*
X181042728Y-70326572D01*
X180856009Y-70249230D01*
X180856008Y-70249230D01*
X180856007Y-70249229D01*
X180687963Y-70136946D01*
X180545054Y-69994037D01*
X180432771Y-69825993D01*
X180432770Y-69825991D01*
X180355428Y-69639272D01*
X180316000Y-69441053D01*
X180316000Y-69238947D01*
X180355428Y-69040728D01*
X180432770Y-68854009D01*
X180432771Y-68854007D01*
X180545054Y-68685963D01*
X180687963Y-68543054D01*
X180856007Y-68430771D01*
X180856009Y-68430770D01*
X181042728Y-68353428D01*
X181240947Y-68314000D01*
X181443053Y-68314000D01*
X181641272Y-68353428D01*
X181641272Y-68353428D01*
G37*
G36*
X179101272Y-68353428D02*
G01*
X179287991Y-68430770D01*
X179287993Y-68430771D01*
X179456037Y-68543054D01*
X179598946Y-68685963D01*
X179711229Y-68854007D01*
X179711230Y-68854009D01*
X179788572Y-69040728D01*
X179828000Y-69238947D01*
X179828000Y-69441053D01*
X179788572Y-69639272D01*
X179711230Y-69825991D01*
X179711229Y-69825993D01*
X179598946Y-69994037D01*
X179456037Y-70136946D01*
X179287993Y-70249229D01*
X179287992Y-70249230D01*
X179287991Y-70249230D01*
X179101272Y-70326572D01*
X178903053Y-70366000D01*
X178700947Y-70366000D01*
X178502728Y-70326572D01*
X178316009Y-70249230D01*
X178316008Y-70249230D01*
X178316007Y-70249229D01*
X178147963Y-70136946D01*
X178005054Y-69994037D01*
X177892771Y-69825993D01*
X177892770Y-69825991D01*
X177815428Y-69639272D01*
X177776000Y-69441053D01*
X177776000Y-69238947D01*
X177815428Y-69040728D01*
X177892770Y-68854009D01*
X177892771Y-68854007D01*
X178005054Y-68685963D01*
X178147963Y-68543054D01*
X178316007Y-68430771D01*
X178316009Y-68430770D01*
X178502728Y-68353428D01*
X178700947Y-68314000D01*
X178903053Y-68314000D01*
X179101272Y-68353428D01*
X179101272Y-68353428D01*
G37*
G36*
X174021272Y-68353428D02*
G01*
X174207991Y-68430770D01*
X174207993Y-68430771D01*
X174376037Y-68543054D01*
X174518946Y-68685963D01*
X174631229Y-68854007D01*
X174631230Y-68854009D01*
X174708572Y-69040728D01*
X174748000Y-69238947D01*
X174748000Y-69441053D01*
X174708572Y-69639272D01*
X174631230Y-69825991D01*
X174631229Y-69825993D01*
X174518946Y-69994037D01*
X174376037Y-70136946D01*
X174207993Y-70249229D01*
X174207992Y-70249230D01*
X174207991Y-70249230D01*
X174021272Y-70326572D01*
X173823053Y-70366000D01*
X173620947Y-70366000D01*
X173422728Y-70326572D01*
X173236009Y-70249230D01*
X173236008Y-70249230D01*
X173236007Y-70249229D01*
X173067963Y-70136946D01*
X172925054Y-69994037D01*
X172812771Y-69825993D01*
X172812770Y-69825991D01*
X172735428Y-69639272D01*
X172696000Y-69441053D01*
X172696000Y-69238947D01*
X172735428Y-69040728D01*
X172812770Y-68854009D01*
X172812771Y-68854007D01*
X172925054Y-68685963D01*
X173067963Y-68543054D01*
X173236007Y-68430771D01*
X173236009Y-68430770D01*
X173422728Y-68353428D01*
X173620947Y-68314000D01*
X173823053Y-68314000D01*
X174021272Y-68353428D01*
X174021272Y-68353428D01*
G37*
M02*
