G04 #@! TF.GenerationSoftware,KiCad,Pcbnew,(5.1.0)-1*
G04 #@! TF.CreationDate,2019-04-10T22:13:11-07:00*
G04 #@! TF.ProjectId,HS_2CH_RTD_Module,48535f32-4348-45f5-9254-445f4d6f6475,rev?*
G04 #@! TF.SameCoordinates,Original*
G04 #@! TF.FileFunction,Soldermask,Top*
G04 #@! TF.FilePolarity,Negative*
%FSLAX46Y46*%
G04 Gerber Fmt 4.6, Leading zero omitted, Abs format (unit mm)*
G04 Created by KiCad (PCBNEW (5.1.0)-1) date 2019-04-10 22:13:11*
%MOMM*%
%LPD*%
G04 APERTURE LIST*
%ADD10C,0.100000*%
G04 APERTURE END LIST*
D10*
G36*
X207911000Y-136791000D02*
G01*
X206109000Y-136791000D01*
X206109000Y-134989000D01*
X207911000Y-134989000D01*
X207911000Y-136791000D01*
X207911000Y-136791000D01*
G37*
G36*
X174129000Y-136791000D02*
G01*
X172327000Y-136791000D01*
X172327000Y-134989000D01*
X174129000Y-134989000D01*
X174129000Y-136791000D01*
X174129000Y-136791000D01*
G37*
G36*
X199500442Y-134995518D02*
G01*
X199566627Y-135002037D01*
X199736466Y-135053557D01*
X199892991Y-135137222D01*
X199928729Y-135166552D01*
X200030186Y-135249814D01*
X200113448Y-135351271D01*
X200142778Y-135387009D01*
X200226443Y-135543534D01*
X200277963Y-135713373D01*
X200295359Y-135890000D01*
X200277963Y-136066627D01*
X200226443Y-136236466D01*
X200142778Y-136392991D01*
X200113448Y-136428729D01*
X200030186Y-136530186D01*
X199928729Y-136613448D01*
X199892991Y-136642778D01*
X199736466Y-136726443D01*
X199566627Y-136777963D01*
X199500442Y-136784482D01*
X199434260Y-136791000D01*
X199345740Y-136791000D01*
X199279558Y-136784482D01*
X199213373Y-136777963D01*
X199043534Y-136726443D01*
X198887009Y-136642778D01*
X198851271Y-136613448D01*
X198749814Y-136530186D01*
X198666552Y-136428729D01*
X198637222Y-136392991D01*
X198553557Y-136236466D01*
X198502037Y-136066627D01*
X198484641Y-135890000D01*
X198502037Y-135713373D01*
X198553557Y-135543534D01*
X198637222Y-135387009D01*
X198666552Y-135351271D01*
X198749814Y-135249814D01*
X198851271Y-135166552D01*
X198887009Y-135137222D01*
X199043534Y-135053557D01*
X199213373Y-135002037D01*
X199279558Y-134995518D01*
X199345740Y-134989000D01*
X199434260Y-134989000D01*
X199500442Y-134995518D01*
X199500442Y-134995518D01*
G37*
G36*
X233790442Y-134995518D02*
G01*
X233856627Y-135002037D01*
X234026466Y-135053557D01*
X234182991Y-135137222D01*
X234218729Y-135166552D01*
X234320186Y-135249814D01*
X234403448Y-135351271D01*
X234432778Y-135387009D01*
X234516443Y-135543534D01*
X234567963Y-135713373D01*
X234585359Y-135890000D01*
X234567963Y-136066627D01*
X234516443Y-136236466D01*
X234432778Y-136392991D01*
X234403448Y-136428729D01*
X234320186Y-136530186D01*
X234218729Y-136613448D01*
X234182991Y-136642778D01*
X234026466Y-136726443D01*
X233856627Y-136777963D01*
X233790442Y-136784482D01*
X233724260Y-136791000D01*
X233635740Y-136791000D01*
X233569558Y-136784482D01*
X233503373Y-136777963D01*
X233333534Y-136726443D01*
X233177009Y-136642778D01*
X233141271Y-136613448D01*
X233039814Y-136530186D01*
X232956552Y-136428729D01*
X232927222Y-136392991D01*
X232843557Y-136236466D01*
X232792037Y-136066627D01*
X232774641Y-135890000D01*
X232792037Y-135713373D01*
X232843557Y-135543534D01*
X232927222Y-135387009D01*
X232956552Y-135351271D01*
X233039814Y-135249814D01*
X233141271Y-135166552D01*
X233177009Y-135137222D01*
X233333534Y-135053557D01*
X233503373Y-135002037D01*
X233569558Y-134995518D01*
X233635740Y-134989000D01*
X233724260Y-134989000D01*
X233790442Y-134995518D01*
X233790442Y-134995518D01*
G37*
G36*
X207120442Y-132455518D02*
G01*
X207186627Y-132462037D01*
X207356466Y-132513557D01*
X207512991Y-132597222D01*
X207548729Y-132626552D01*
X207650186Y-132709814D01*
X207733448Y-132811271D01*
X207762778Y-132847009D01*
X207846443Y-133003534D01*
X207897963Y-133173373D01*
X207915359Y-133350000D01*
X207897963Y-133526627D01*
X207846443Y-133696466D01*
X207762778Y-133852991D01*
X207733448Y-133888729D01*
X207650186Y-133990186D01*
X207548729Y-134073448D01*
X207512991Y-134102778D01*
X207356466Y-134186443D01*
X207186627Y-134237963D01*
X207120443Y-134244481D01*
X207054260Y-134251000D01*
X206965740Y-134251000D01*
X206899557Y-134244481D01*
X206833373Y-134237963D01*
X206663534Y-134186443D01*
X206507009Y-134102778D01*
X206471271Y-134073448D01*
X206369814Y-133990186D01*
X206286552Y-133888729D01*
X206257222Y-133852991D01*
X206173557Y-133696466D01*
X206122037Y-133526627D01*
X206104641Y-133350000D01*
X206122037Y-133173373D01*
X206173557Y-133003534D01*
X206257222Y-132847009D01*
X206286552Y-132811271D01*
X206369814Y-132709814D01*
X206471271Y-132626552D01*
X206507009Y-132597222D01*
X206663534Y-132513557D01*
X206833373Y-132462037D01*
X206899558Y-132455518D01*
X206965740Y-132449000D01*
X207054260Y-132449000D01*
X207120442Y-132455518D01*
X207120442Y-132455518D01*
G37*
G36*
X199500442Y-132455518D02*
G01*
X199566627Y-132462037D01*
X199736466Y-132513557D01*
X199892991Y-132597222D01*
X199928729Y-132626552D01*
X200030186Y-132709814D01*
X200113448Y-132811271D01*
X200142778Y-132847009D01*
X200226443Y-133003534D01*
X200277963Y-133173373D01*
X200295359Y-133350000D01*
X200277963Y-133526627D01*
X200226443Y-133696466D01*
X200142778Y-133852991D01*
X200113448Y-133888729D01*
X200030186Y-133990186D01*
X199928729Y-134073448D01*
X199892991Y-134102778D01*
X199736466Y-134186443D01*
X199566627Y-134237963D01*
X199500443Y-134244481D01*
X199434260Y-134251000D01*
X199345740Y-134251000D01*
X199279557Y-134244481D01*
X199213373Y-134237963D01*
X199043534Y-134186443D01*
X198887009Y-134102778D01*
X198851271Y-134073448D01*
X198749814Y-133990186D01*
X198666552Y-133888729D01*
X198637222Y-133852991D01*
X198553557Y-133696466D01*
X198502037Y-133526627D01*
X198484641Y-133350000D01*
X198502037Y-133173373D01*
X198553557Y-133003534D01*
X198637222Y-132847009D01*
X198666552Y-132811271D01*
X198749814Y-132709814D01*
X198851271Y-132626552D01*
X198887009Y-132597222D01*
X199043534Y-132513557D01*
X199213373Y-132462037D01*
X199279558Y-132455518D01*
X199345740Y-132449000D01*
X199434260Y-132449000D01*
X199500442Y-132455518D01*
X199500442Y-132455518D01*
G37*
G36*
X173338442Y-132455518D02*
G01*
X173404627Y-132462037D01*
X173574466Y-132513557D01*
X173730991Y-132597222D01*
X173766729Y-132626552D01*
X173868186Y-132709814D01*
X173951448Y-132811271D01*
X173980778Y-132847009D01*
X174064443Y-133003534D01*
X174115963Y-133173373D01*
X174133359Y-133350000D01*
X174115963Y-133526627D01*
X174064443Y-133696466D01*
X173980778Y-133852991D01*
X173951448Y-133888729D01*
X173868186Y-133990186D01*
X173766729Y-134073448D01*
X173730991Y-134102778D01*
X173574466Y-134186443D01*
X173404627Y-134237963D01*
X173338443Y-134244481D01*
X173272260Y-134251000D01*
X173183740Y-134251000D01*
X173117557Y-134244481D01*
X173051373Y-134237963D01*
X172881534Y-134186443D01*
X172725009Y-134102778D01*
X172689271Y-134073448D01*
X172587814Y-133990186D01*
X172504552Y-133888729D01*
X172475222Y-133852991D01*
X172391557Y-133696466D01*
X172340037Y-133526627D01*
X172322641Y-133350000D01*
X172340037Y-133173373D01*
X172391557Y-133003534D01*
X172475222Y-132847009D01*
X172504552Y-132811271D01*
X172587814Y-132709814D01*
X172689271Y-132626552D01*
X172725009Y-132597222D01*
X172881534Y-132513557D01*
X173051373Y-132462037D01*
X173117558Y-132455518D01*
X173183740Y-132449000D01*
X173272260Y-132449000D01*
X173338442Y-132455518D01*
X173338442Y-132455518D01*
G37*
G36*
X233790442Y-132455518D02*
G01*
X233856627Y-132462037D01*
X234026466Y-132513557D01*
X234182991Y-132597222D01*
X234218729Y-132626552D01*
X234320186Y-132709814D01*
X234403448Y-132811271D01*
X234432778Y-132847009D01*
X234516443Y-133003534D01*
X234567963Y-133173373D01*
X234585359Y-133350000D01*
X234567963Y-133526627D01*
X234516443Y-133696466D01*
X234432778Y-133852991D01*
X234403448Y-133888729D01*
X234320186Y-133990186D01*
X234218729Y-134073448D01*
X234182991Y-134102778D01*
X234026466Y-134186443D01*
X233856627Y-134237963D01*
X233790443Y-134244481D01*
X233724260Y-134251000D01*
X233635740Y-134251000D01*
X233569557Y-134244481D01*
X233503373Y-134237963D01*
X233333534Y-134186443D01*
X233177009Y-134102778D01*
X233141271Y-134073448D01*
X233039814Y-133990186D01*
X232956552Y-133888729D01*
X232927222Y-133852991D01*
X232843557Y-133696466D01*
X232792037Y-133526627D01*
X232774641Y-133350000D01*
X232792037Y-133173373D01*
X232843557Y-133003534D01*
X232927222Y-132847009D01*
X232956552Y-132811271D01*
X233039814Y-132709814D01*
X233141271Y-132626552D01*
X233177009Y-132597222D01*
X233333534Y-132513557D01*
X233503373Y-132462037D01*
X233569558Y-132455518D01*
X233635740Y-132449000D01*
X233724260Y-132449000D01*
X233790442Y-132455518D01*
X233790442Y-132455518D01*
G37*
G36*
X233790442Y-129915518D02*
G01*
X233856627Y-129922037D01*
X234026466Y-129973557D01*
X234182991Y-130057222D01*
X234218729Y-130086552D01*
X234320186Y-130169814D01*
X234403448Y-130271271D01*
X234432778Y-130307009D01*
X234516443Y-130463534D01*
X234567963Y-130633373D01*
X234585359Y-130810000D01*
X234567963Y-130986627D01*
X234516443Y-131156466D01*
X234432778Y-131312991D01*
X234403448Y-131348729D01*
X234320186Y-131450186D01*
X234218729Y-131533448D01*
X234182991Y-131562778D01*
X234026466Y-131646443D01*
X233856627Y-131697963D01*
X233790443Y-131704481D01*
X233724260Y-131711000D01*
X233635740Y-131711000D01*
X233569557Y-131704481D01*
X233503373Y-131697963D01*
X233333534Y-131646443D01*
X233177009Y-131562778D01*
X233141271Y-131533448D01*
X233039814Y-131450186D01*
X232956552Y-131348729D01*
X232927222Y-131312991D01*
X232843557Y-131156466D01*
X232792037Y-130986627D01*
X232774641Y-130810000D01*
X232792037Y-130633373D01*
X232843557Y-130463534D01*
X232927222Y-130307009D01*
X232956552Y-130271271D01*
X233039814Y-130169814D01*
X233141271Y-130086552D01*
X233177009Y-130057222D01*
X233333534Y-129973557D01*
X233503373Y-129922037D01*
X233569558Y-129915518D01*
X233635740Y-129909000D01*
X233724260Y-129909000D01*
X233790442Y-129915518D01*
X233790442Y-129915518D01*
G37*
G36*
X173338442Y-129915518D02*
G01*
X173404627Y-129922037D01*
X173574466Y-129973557D01*
X173730991Y-130057222D01*
X173766729Y-130086552D01*
X173868186Y-130169814D01*
X173951448Y-130271271D01*
X173980778Y-130307009D01*
X174064443Y-130463534D01*
X174115963Y-130633373D01*
X174133359Y-130810000D01*
X174115963Y-130986627D01*
X174064443Y-131156466D01*
X173980778Y-131312991D01*
X173951448Y-131348729D01*
X173868186Y-131450186D01*
X173766729Y-131533448D01*
X173730991Y-131562778D01*
X173574466Y-131646443D01*
X173404627Y-131697963D01*
X173338443Y-131704481D01*
X173272260Y-131711000D01*
X173183740Y-131711000D01*
X173117557Y-131704481D01*
X173051373Y-131697963D01*
X172881534Y-131646443D01*
X172725009Y-131562778D01*
X172689271Y-131533448D01*
X172587814Y-131450186D01*
X172504552Y-131348729D01*
X172475222Y-131312991D01*
X172391557Y-131156466D01*
X172340037Y-130986627D01*
X172322641Y-130810000D01*
X172340037Y-130633373D01*
X172391557Y-130463534D01*
X172475222Y-130307009D01*
X172504552Y-130271271D01*
X172587814Y-130169814D01*
X172689271Y-130086552D01*
X172725009Y-130057222D01*
X172881534Y-129973557D01*
X173051373Y-129922037D01*
X173117558Y-129915518D01*
X173183740Y-129909000D01*
X173272260Y-129909000D01*
X173338442Y-129915518D01*
X173338442Y-129915518D01*
G37*
G36*
X199500442Y-129915518D02*
G01*
X199566627Y-129922037D01*
X199736466Y-129973557D01*
X199892991Y-130057222D01*
X199928729Y-130086552D01*
X200030186Y-130169814D01*
X200113448Y-130271271D01*
X200142778Y-130307009D01*
X200226443Y-130463534D01*
X200277963Y-130633373D01*
X200295359Y-130810000D01*
X200277963Y-130986627D01*
X200226443Y-131156466D01*
X200142778Y-131312991D01*
X200113448Y-131348729D01*
X200030186Y-131450186D01*
X199928729Y-131533448D01*
X199892991Y-131562778D01*
X199736466Y-131646443D01*
X199566627Y-131697963D01*
X199500443Y-131704481D01*
X199434260Y-131711000D01*
X199345740Y-131711000D01*
X199279557Y-131704481D01*
X199213373Y-131697963D01*
X199043534Y-131646443D01*
X198887009Y-131562778D01*
X198851271Y-131533448D01*
X198749814Y-131450186D01*
X198666552Y-131348729D01*
X198637222Y-131312991D01*
X198553557Y-131156466D01*
X198502037Y-130986627D01*
X198484641Y-130810000D01*
X198502037Y-130633373D01*
X198553557Y-130463534D01*
X198637222Y-130307009D01*
X198666552Y-130271271D01*
X198749814Y-130169814D01*
X198851271Y-130086552D01*
X198887009Y-130057222D01*
X199043534Y-129973557D01*
X199213373Y-129922037D01*
X199279558Y-129915518D01*
X199345740Y-129909000D01*
X199434260Y-129909000D01*
X199500442Y-129915518D01*
X199500442Y-129915518D01*
G37*
G36*
X207120442Y-129915518D02*
G01*
X207186627Y-129922037D01*
X207356466Y-129973557D01*
X207512991Y-130057222D01*
X207548729Y-130086552D01*
X207650186Y-130169814D01*
X207733448Y-130271271D01*
X207762778Y-130307009D01*
X207846443Y-130463534D01*
X207897963Y-130633373D01*
X207915359Y-130810000D01*
X207897963Y-130986627D01*
X207846443Y-131156466D01*
X207762778Y-131312991D01*
X207733448Y-131348729D01*
X207650186Y-131450186D01*
X207548729Y-131533448D01*
X207512991Y-131562778D01*
X207356466Y-131646443D01*
X207186627Y-131697963D01*
X207120443Y-131704481D01*
X207054260Y-131711000D01*
X206965740Y-131711000D01*
X206899557Y-131704481D01*
X206833373Y-131697963D01*
X206663534Y-131646443D01*
X206507009Y-131562778D01*
X206471271Y-131533448D01*
X206369814Y-131450186D01*
X206286552Y-131348729D01*
X206257222Y-131312991D01*
X206173557Y-131156466D01*
X206122037Y-130986627D01*
X206104641Y-130810000D01*
X206122037Y-130633373D01*
X206173557Y-130463534D01*
X206257222Y-130307009D01*
X206286552Y-130271271D01*
X206369814Y-130169814D01*
X206471271Y-130086552D01*
X206507009Y-130057222D01*
X206663534Y-129973557D01*
X206833373Y-129922037D01*
X206899558Y-129915518D01*
X206965740Y-129909000D01*
X207054260Y-129909000D01*
X207120442Y-129915518D01*
X207120442Y-129915518D01*
G37*
G36*
X199500442Y-127375518D02*
G01*
X199566627Y-127382037D01*
X199736466Y-127433557D01*
X199892991Y-127517222D01*
X199928729Y-127546552D01*
X200030186Y-127629814D01*
X200113448Y-127731271D01*
X200142778Y-127767009D01*
X200226443Y-127923534D01*
X200277963Y-128093373D01*
X200295359Y-128270000D01*
X200277963Y-128446627D01*
X200226443Y-128616466D01*
X200142778Y-128772991D01*
X200113448Y-128808729D01*
X200030186Y-128910186D01*
X199928729Y-128993448D01*
X199892991Y-129022778D01*
X199736466Y-129106443D01*
X199566627Y-129157963D01*
X199500442Y-129164482D01*
X199434260Y-129171000D01*
X199345740Y-129171000D01*
X199279558Y-129164482D01*
X199213373Y-129157963D01*
X199043534Y-129106443D01*
X198887009Y-129022778D01*
X198851271Y-128993448D01*
X198749814Y-128910186D01*
X198666552Y-128808729D01*
X198637222Y-128772991D01*
X198553557Y-128616466D01*
X198502037Y-128446627D01*
X198484641Y-128270000D01*
X198502037Y-128093373D01*
X198553557Y-127923534D01*
X198637222Y-127767009D01*
X198666552Y-127731271D01*
X198749814Y-127629814D01*
X198851271Y-127546552D01*
X198887009Y-127517222D01*
X199043534Y-127433557D01*
X199213373Y-127382037D01*
X199279558Y-127375518D01*
X199345740Y-127369000D01*
X199434260Y-127369000D01*
X199500442Y-127375518D01*
X199500442Y-127375518D01*
G37*
G36*
X233790442Y-127375518D02*
G01*
X233856627Y-127382037D01*
X234026466Y-127433557D01*
X234182991Y-127517222D01*
X234218729Y-127546552D01*
X234320186Y-127629814D01*
X234403448Y-127731271D01*
X234432778Y-127767009D01*
X234516443Y-127923534D01*
X234567963Y-128093373D01*
X234585359Y-128270000D01*
X234567963Y-128446627D01*
X234516443Y-128616466D01*
X234432778Y-128772991D01*
X234403448Y-128808729D01*
X234320186Y-128910186D01*
X234218729Y-128993448D01*
X234182991Y-129022778D01*
X234026466Y-129106443D01*
X233856627Y-129157963D01*
X233790442Y-129164482D01*
X233724260Y-129171000D01*
X233635740Y-129171000D01*
X233569558Y-129164482D01*
X233503373Y-129157963D01*
X233333534Y-129106443D01*
X233177009Y-129022778D01*
X233141271Y-128993448D01*
X233039814Y-128910186D01*
X232956552Y-128808729D01*
X232927222Y-128772991D01*
X232843557Y-128616466D01*
X232792037Y-128446627D01*
X232774641Y-128270000D01*
X232792037Y-128093373D01*
X232843557Y-127923534D01*
X232927222Y-127767009D01*
X232956552Y-127731271D01*
X233039814Y-127629814D01*
X233141271Y-127546552D01*
X233177009Y-127517222D01*
X233333534Y-127433557D01*
X233503373Y-127382037D01*
X233569558Y-127375518D01*
X233635740Y-127369000D01*
X233724260Y-127369000D01*
X233790442Y-127375518D01*
X233790442Y-127375518D01*
G37*
G36*
X207120442Y-127375518D02*
G01*
X207186627Y-127382037D01*
X207356466Y-127433557D01*
X207512991Y-127517222D01*
X207548729Y-127546552D01*
X207650186Y-127629814D01*
X207733448Y-127731271D01*
X207762778Y-127767009D01*
X207846443Y-127923534D01*
X207897963Y-128093373D01*
X207915359Y-128270000D01*
X207897963Y-128446627D01*
X207846443Y-128616466D01*
X207762778Y-128772991D01*
X207733448Y-128808729D01*
X207650186Y-128910186D01*
X207548729Y-128993448D01*
X207512991Y-129022778D01*
X207356466Y-129106443D01*
X207186627Y-129157963D01*
X207120442Y-129164482D01*
X207054260Y-129171000D01*
X206965740Y-129171000D01*
X206899558Y-129164482D01*
X206833373Y-129157963D01*
X206663534Y-129106443D01*
X206507009Y-129022778D01*
X206471271Y-128993448D01*
X206369814Y-128910186D01*
X206286552Y-128808729D01*
X206257222Y-128772991D01*
X206173557Y-128616466D01*
X206122037Y-128446627D01*
X206104641Y-128270000D01*
X206122037Y-128093373D01*
X206173557Y-127923534D01*
X206257222Y-127767009D01*
X206286552Y-127731271D01*
X206369814Y-127629814D01*
X206471271Y-127546552D01*
X206507009Y-127517222D01*
X206663534Y-127433557D01*
X206833373Y-127382037D01*
X206899558Y-127375518D01*
X206965740Y-127369000D01*
X207054260Y-127369000D01*
X207120442Y-127375518D01*
X207120442Y-127375518D01*
G37*
G36*
X173338442Y-127375518D02*
G01*
X173404627Y-127382037D01*
X173574466Y-127433557D01*
X173730991Y-127517222D01*
X173766729Y-127546552D01*
X173868186Y-127629814D01*
X173951448Y-127731271D01*
X173980778Y-127767009D01*
X174064443Y-127923534D01*
X174115963Y-128093373D01*
X174133359Y-128270000D01*
X174115963Y-128446627D01*
X174064443Y-128616466D01*
X173980778Y-128772991D01*
X173951448Y-128808729D01*
X173868186Y-128910186D01*
X173766729Y-128993448D01*
X173730991Y-129022778D01*
X173574466Y-129106443D01*
X173404627Y-129157963D01*
X173338442Y-129164482D01*
X173272260Y-129171000D01*
X173183740Y-129171000D01*
X173117558Y-129164482D01*
X173051373Y-129157963D01*
X172881534Y-129106443D01*
X172725009Y-129022778D01*
X172689271Y-128993448D01*
X172587814Y-128910186D01*
X172504552Y-128808729D01*
X172475222Y-128772991D01*
X172391557Y-128616466D01*
X172340037Y-128446627D01*
X172322641Y-128270000D01*
X172340037Y-128093373D01*
X172391557Y-127923534D01*
X172475222Y-127767009D01*
X172504552Y-127731271D01*
X172587814Y-127629814D01*
X172689271Y-127546552D01*
X172725009Y-127517222D01*
X172881534Y-127433557D01*
X173051373Y-127382037D01*
X173117558Y-127375518D01*
X173183740Y-127369000D01*
X173272260Y-127369000D01*
X173338442Y-127375518D01*
X173338442Y-127375518D01*
G37*
G36*
X173338443Y-124835519D02*
G01*
X173404627Y-124842037D01*
X173574466Y-124893557D01*
X173574468Y-124893558D01*
X173642155Y-124929738D01*
X173730991Y-124977222D01*
X173766729Y-125006552D01*
X173868186Y-125089814D01*
X173951448Y-125191271D01*
X173980778Y-125227009D01*
X174064443Y-125383534D01*
X174115963Y-125553373D01*
X174133359Y-125730000D01*
X174115963Y-125906627D01*
X174064443Y-126076466D01*
X173980778Y-126232991D01*
X173951448Y-126268729D01*
X173868186Y-126370186D01*
X173772967Y-126448329D01*
X173730991Y-126482778D01*
X173730989Y-126482779D01*
X173642154Y-126530263D01*
X173574466Y-126566443D01*
X173404627Y-126617963D01*
X173338442Y-126624482D01*
X173272260Y-126631000D01*
X173183740Y-126631000D01*
X173117558Y-126624482D01*
X173051373Y-126617963D01*
X172881534Y-126566443D01*
X172813847Y-126530263D01*
X172725011Y-126482779D01*
X172725009Y-126482778D01*
X172683033Y-126448329D01*
X172587814Y-126370186D01*
X172504552Y-126268729D01*
X172475222Y-126232991D01*
X172391557Y-126076466D01*
X172340037Y-125906627D01*
X172322641Y-125730000D01*
X172340037Y-125553373D01*
X172391557Y-125383534D01*
X172475222Y-125227009D01*
X172504552Y-125191271D01*
X172587814Y-125089814D01*
X172689271Y-125006552D01*
X172725009Y-124977222D01*
X172813845Y-124929738D01*
X172881532Y-124893558D01*
X172881534Y-124893557D01*
X173051373Y-124842037D01*
X173117557Y-124835519D01*
X173183740Y-124829000D01*
X173272260Y-124829000D01*
X173338443Y-124835519D01*
X173338443Y-124835519D01*
G37*
G36*
X207120443Y-124835519D02*
G01*
X207186627Y-124842037D01*
X207356466Y-124893557D01*
X207356468Y-124893558D01*
X207424155Y-124929738D01*
X207512991Y-124977222D01*
X207548729Y-125006552D01*
X207650186Y-125089814D01*
X207733448Y-125191271D01*
X207762778Y-125227009D01*
X207846443Y-125383534D01*
X207897963Y-125553373D01*
X207915359Y-125730000D01*
X207897963Y-125906627D01*
X207846443Y-126076466D01*
X207762778Y-126232991D01*
X207733448Y-126268729D01*
X207650186Y-126370186D01*
X207554967Y-126448329D01*
X207512991Y-126482778D01*
X207512989Y-126482779D01*
X207424154Y-126530263D01*
X207356466Y-126566443D01*
X207186627Y-126617963D01*
X207120442Y-126624482D01*
X207054260Y-126631000D01*
X206965740Y-126631000D01*
X206899558Y-126624482D01*
X206833373Y-126617963D01*
X206663534Y-126566443D01*
X206595847Y-126530263D01*
X206507011Y-126482779D01*
X206507009Y-126482778D01*
X206465033Y-126448329D01*
X206369814Y-126370186D01*
X206286552Y-126268729D01*
X206257222Y-126232991D01*
X206173557Y-126076466D01*
X206122037Y-125906627D01*
X206104641Y-125730000D01*
X206122037Y-125553373D01*
X206173557Y-125383534D01*
X206257222Y-125227009D01*
X206286552Y-125191271D01*
X206369814Y-125089814D01*
X206471271Y-125006552D01*
X206507009Y-124977222D01*
X206595845Y-124929738D01*
X206663532Y-124893558D01*
X206663534Y-124893557D01*
X206833373Y-124842037D01*
X206899557Y-124835519D01*
X206965740Y-124829000D01*
X207054260Y-124829000D01*
X207120443Y-124835519D01*
X207120443Y-124835519D01*
G37*
G36*
X199500443Y-124835519D02*
G01*
X199566627Y-124842037D01*
X199736466Y-124893557D01*
X199736468Y-124893558D01*
X199804155Y-124929738D01*
X199892991Y-124977222D01*
X199928729Y-125006552D01*
X200030186Y-125089814D01*
X200113448Y-125191271D01*
X200142778Y-125227009D01*
X200226443Y-125383534D01*
X200277963Y-125553373D01*
X200295359Y-125730000D01*
X200277963Y-125906627D01*
X200226443Y-126076466D01*
X200142778Y-126232991D01*
X200113448Y-126268729D01*
X200030186Y-126370186D01*
X199934967Y-126448329D01*
X199892991Y-126482778D01*
X199892989Y-126482779D01*
X199804154Y-126530263D01*
X199736466Y-126566443D01*
X199566627Y-126617963D01*
X199500442Y-126624482D01*
X199434260Y-126631000D01*
X199345740Y-126631000D01*
X199279558Y-126624482D01*
X199213373Y-126617963D01*
X199043534Y-126566443D01*
X198975847Y-126530263D01*
X198887011Y-126482779D01*
X198887009Y-126482778D01*
X198845033Y-126448329D01*
X198749814Y-126370186D01*
X198666552Y-126268729D01*
X198637222Y-126232991D01*
X198553557Y-126076466D01*
X198502037Y-125906627D01*
X198484641Y-125730000D01*
X198502037Y-125553373D01*
X198553557Y-125383534D01*
X198637222Y-125227009D01*
X198666552Y-125191271D01*
X198749814Y-125089814D01*
X198851271Y-125006552D01*
X198887009Y-124977222D01*
X198975845Y-124929738D01*
X199043532Y-124893558D01*
X199043534Y-124893557D01*
X199213373Y-124842037D01*
X199279557Y-124835519D01*
X199345740Y-124829000D01*
X199434260Y-124829000D01*
X199500443Y-124835519D01*
X199500443Y-124835519D01*
G37*
G36*
X233790443Y-124835519D02*
G01*
X233856627Y-124842037D01*
X234026466Y-124893557D01*
X234026468Y-124893558D01*
X234094155Y-124929738D01*
X234182991Y-124977222D01*
X234218729Y-125006552D01*
X234320186Y-125089814D01*
X234403448Y-125191271D01*
X234432778Y-125227009D01*
X234516443Y-125383534D01*
X234567963Y-125553373D01*
X234585359Y-125730000D01*
X234567963Y-125906627D01*
X234516443Y-126076466D01*
X234432778Y-126232991D01*
X234403448Y-126268729D01*
X234320186Y-126370186D01*
X234224967Y-126448329D01*
X234182991Y-126482778D01*
X234182989Y-126482779D01*
X234094154Y-126530263D01*
X234026466Y-126566443D01*
X233856627Y-126617963D01*
X233790442Y-126624482D01*
X233724260Y-126631000D01*
X233635740Y-126631000D01*
X233569558Y-126624482D01*
X233503373Y-126617963D01*
X233333534Y-126566443D01*
X233265847Y-126530263D01*
X233177011Y-126482779D01*
X233177009Y-126482778D01*
X233135033Y-126448329D01*
X233039814Y-126370186D01*
X232956552Y-126268729D01*
X232927222Y-126232991D01*
X232843557Y-126076466D01*
X232792037Y-125906627D01*
X232774641Y-125730000D01*
X232792037Y-125553373D01*
X232843557Y-125383534D01*
X232927222Y-125227009D01*
X232956552Y-125191271D01*
X233039814Y-125089814D01*
X233141271Y-125006552D01*
X233177009Y-124977222D01*
X233265845Y-124929738D01*
X233333532Y-124893558D01*
X233333534Y-124893557D01*
X233503373Y-124842037D01*
X233569557Y-124835519D01*
X233635740Y-124829000D01*
X233724260Y-124829000D01*
X233790443Y-124835519D01*
X233790443Y-124835519D01*
G37*
G36*
X176643999Y-124929737D02*
G01*
X176653608Y-124932652D01*
X176662472Y-124937390D01*
X176670237Y-124943763D01*
X176680448Y-124956206D01*
X176687378Y-124966575D01*
X176704705Y-124983902D01*
X176725080Y-124997515D01*
X176747720Y-125006891D01*
X176771753Y-125011671D01*
X176796257Y-125011670D01*
X176820290Y-125006888D01*
X176842929Y-124997510D01*
X176863302Y-124983895D01*
X176880629Y-124966568D01*
X176887558Y-124956198D01*
X176897763Y-124943763D01*
X176905528Y-124937390D01*
X176914392Y-124932652D01*
X176924001Y-124929737D01*
X176940140Y-124928148D01*
X177427861Y-124928148D01*
X177446199Y-124929954D01*
X177458450Y-124930556D01*
X177476869Y-124930556D01*
X177499149Y-124932750D01*
X177583233Y-124949476D01*
X177604660Y-124955976D01*
X177683858Y-124988780D01*
X177689303Y-124991691D01*
X177689309Y-124991693D01*
X177698169Y-124996429D01*
X177698173Y-124996432D01*
X177703614Y-124999340D01*
X177774899Y-125046971D01*
X177792204Y-125061172D01*
X177852828Y-125121796D01*
X177867029Y-125139101D01*
X177914660Y-125210386D01*
X177917568Y-125215827D01*
X177917571Y-125215831D01*
X177922307Y-125224691D01*
X177922309Y-125224697D01*
X177925220Y-125230142D01*
X177958024Y-125309340D01*
X177964524Y-125330767D01*
X177981250Y-125414851D01*
X177983444Y-125437131D01*
X177983444Y-125455550D01*
X177984046Y-125467801D01*
X177985852Y-125486139D01*
X177985852Y-125973862D01*
X177984046Y-125992199D01*
X177983444Y-126004450D01*
X177983444Y-126022869D01*
X177981250Y-126045149D01*
X177964524Y-126129233D01*
X177958024Y-126150660D01*
X177925220Y-126229858D01*
X177922309Y-126235303D01*
X177922307Y-126235309D01*
X177917571Y-126244169D01*
X177917568Y-126244173D01*
X177914660Y-126249614D01*
X177867029Y-126320899D01*
X177852828Y-126338204D01*
X177792204Y-126398828D01*
X177774899Y-126413029D01*
X177703614Y-126460660D01*
X177698173Y-126463568D01*
X177698169Y-126463571D01*
X177689309Y-126468307D01*
X177689303Y-126468309D01*
X177683858Y-126471220D01*
X177604660Y-126504024D01*
X177583233Y-126510524D01*
X177499149Y-126527250D01*
X177476869Y-126529444D01*
X177458450Y-126529444D01*
X177446199Y-126530046D01*
X177427862Y-126531852D01*
X176940140Y-126531852D01*
X176924001Y-126530263D01*
X176914392Y-126527348D01*
X176905528Y-126522610D01*
X176897763Y-126516237D01*
X176887552Y-126503794D01*
X176880622Y-126493425D01*
X176863295Y-126476098D01*
X176842920Y-126462485D01*
X176820280Y-126453109D01*
X176796247Y-126448329D01*
X176771743Y-126448330D01*
X176747710Y-126453112D01*
X176725071Y-126462490D01*
X176704698Y-126476105D01*
X176687371Y-126493432D01*
X176680442Y-126503802D01*
X176670237Y-126516237D01*
X176662472Y-126522610D01*
X176653608Y-126527348D01*
X176643999Y-126530263D01*
X176627860Y-126531852D01*
X176140138Y-126531852D01*
X176121801Y-126530046D01*
X176109550Y-126529444D01*
X176091131Y-126529444D01*
X176068851Y-126527250D01*
X175984767Y-126510524D01*
X175963340Y-126504024D01*
X175884142Y-126471220D01*
X175878697Y-126468309D01*
X175878691Y-126468307D01*
X175869831Y-126463571D01*
X175869827Y-126463568D01*
X175864386Y-126460660D01*
X175793101Y-126413029D01*
X175775796Y-126398828D01*
X175715172Y-126338204D01*
X175700971Y-126320899D01*
X175653340Y-126249614D01*
X175650432Y-126244173D01*
X175650429Y-126244169D01*
X175645693Y-126235309D01*
X175645691Y-126235303D01*
X175642780Y-126229858D01*
X175609976Y-126150660D01*
X175603476Y-126129233D01*
X175586750Y-126045149D01*
X175584556Y-126022869D01*
X175584556Y-126004450D01*
X175583954Y-125992199D01*
X175582148Y-125973862D01*
X175582148Y-125486139D01*
X175583954Y-125467801D01*
X175584556Y-125455550D01*
X175584556Y-125437131D01*
X175586750Y-125414851D01*
X175603476Y-125330767D01*
X175609976Y-125309340D01*
X175642780Y-125230142D01*
X175645691Y-125224697D01*
X175645693Y-125224691D01*
X175650429Y-125215831D01*
X175650432Y-125215827D01*
X175653340Y-125210386D01*
X175700971Y-125139101D01*
X175715172Y-125121796D01*
X175775796Y-125061172D01*
X175793101Y-125046971D01*
X175864386Y-124999340D01*
X175869827Y-124996432D01*
X175869831Y-124996429D01*
X175878691Y-124991693D01*
X175878697Y-124991691D01*
X175884142Y-124988780D01*
X175963340Y-124955976D01*
X175984767Y-124949476D01*
X176068851Y-124932750D01*
X176091131Y-124930556D01*
X176109550Y-124930556D01*
X176121801Y-124929954D01*
X176140139Y-124928148D01*
X176627860Y-124928148D01*
X176643999Y-124929737D01*
X176643999Y-124929737D01*
G37*
G36*
X229729999Y-124929737D02*
G01*
X229739608Y-124932652D01*
X229748472Y-124937390D01*
X229756237Y-124943763D01*
X229766448Y-124956206D01*
X229773378Y-124966575D01*
X229790705Y-124983902D01*
X229811080Y-124997515D01*
X229833720Y-125006891D01*
X229857753Y-125011671D01*
X229882257Y-125011670D01*
X229906290Y-125006888D01*
X229928929Y-124997510D01*
X229949302Y-124983895D01*
X229966629Y-124966568D01*
X229973558Y-124956198D01*
X229983763Y-124943763D01*
X229991528Y-124937390D01*
X230000392Y-124932652D01*
X230010001Y-124929737D01*
X230026140Y-124928148D01*
X230513861Y-124928148D01*
X230532199Y-124929954D01*
X230544450Y-124930556D01*
X230562869Y-124930556D01*
X230585149Y-124932750D01*
X230669233Y-124949476D01*
X230690660Y-124955976D01*
X230769858Y-124988780D01*
X230775303Y-124991691D01*
X230775309Y-124991693D01*
X230784169Y-124996429D01*
X230784173Y-124996432D01*
X230789614Y-124999340D01*
X230860899Y-125046971D01*
X230878204Y-125061172D01*
X230938828Y-125121796D01*
X230953029Y-125139101D01*
X231000660Y-125210386D01*
X231003568Y-125215827D01*
X231003571Y-125215831D01*
X231008307Y-125224691D01*
X231008309Y-125224697D01*
X231011220Y-125230142D01*
X231044024Y-125309340D01*
X231050524Y-125330767D01*
X231067250Y-125414851D01*
X231069444Y-125437131D01*
X231069444Y-125455550D01*
X231070046Y-125467801D01*
X231071852Y-125486139D01*
X231071852Y-125973862D01*
X231070046Y-125992199D01*
X231069444Y-126004450D01*
X231069444Y-126022869D01*
X231067250Y-126045149D01*
X231050524Y-126129233D01*
X231044024Y-126150660D01*
X231011220Y-126229858D01*
X231008309Y-126235303D01*
X231008307Y-126235309D01*
X231003571Y-126244169D01*
X231003568Y-126244173D01*
X231000660Y-126249614D01*
X230953029Y-126320899D01*
X230938828Y-126338204D01*
X230878204Y-126398828D01*
X230860899Y-126413029D01*
X230789614Y-126460660D01*
X230784173Y-126463568D01*
X230784169Y-126463571D01*
X230775309Y-126468307D01*
X230775303Y-126468309D01*
X230769858Y-126471220D01*
X230690660Y-126504024D01*
X230669233Y-126510524D01*
X230585149Y-126527250D01*
X230562869Y-126529444D01*
X230544450Y-126529444D01*
X230532199Y-126530046D01*
X230513862Y-126531852D01*
X230026140Y-126531852D01*
X230010001Y-126530263D01*
X230000392Y-126527348D01*
X229991528Y-126522610D01*
X229983763Y-126516237D01*
X229973552Y-126503794D01*
X229966622Y-126493425D01*
X229949295Y-126476098D01*
X229928920Y-126462485D01*
X229906280Y-126453109D01*
X229882247Y-126448329D01*
X229857743Y-126448330D01*
X229833710Y-126453112D01*
X229811071Y-126462490D01*
X229790698Y-126476105D01*
X229773371Y-126493432D01*
X229766442Y-126503802D01*
X229756237Y-126516237D01*
X229748472Y-126522610D01*
X229739608Y-126527348D01*
X229729999Y-126530263D01*
X229713860Y-126531852D01*
X229226138Y-126531852D01*
X229207801Y-126530046D01*
X229195550Y-126529444D01*
X229177131Y-126529444D01*
X229154851Y-126527250D01*
X229070767Y-126510524D01*
X229049340Y-126504024D01*
X228970142Y-126471220D01*
X228964697Y-126468309D01*
X228964691Y-126468307D01*
X228955831Y-126463571D01*
X228955827Y-126463568D01*
X228950386Y-126460660D01*
X228879101Y-126413029D01*
X228861796Y-126398828D01*
X228801172Y-126338204D01*
X228786971Y-126320899D01*
X228739340Y-126249614D01*
X228736432Y-126244173D01*
X228736429Y-126244169D01*
X228731693Y-126235309D01*
X228731691Y-126235303D01*
X228728780Y-126229858D01*
X228695976Y-126150660D01*
X228689476Y-126129233D01*
X228672750Y-126045149D01*
X228670556Y-126022869D01*
X228670556Y-126004450D01*
X228669954Y-125992199D01*
X228668148Y-125973862D01*
X228668148Y-125486139D01*
X228669954Y-125467801D01*
X228670556Y-125455550D01*
X228670556Y-125437131D01*
X228672750Y-125414851D01*
X228689476Y-125330767D01*
X228695976Y-125309340D01*
X228728780Y-125230142D01*
X228731691Y-125224697D01*
X228731693Y-125224691D01*
X228736429Y-125215831D01*
X228736432Y-125215827D01*
X228739340Y-125210386D01*
X228786971Y-125139101D01*
X228801172Y-125121796D01*
X228861796Y-125061172D01*
X228879101Y-125046971D01*
X228950386Y-124999340D01*
X228955827Y-124996432D01*
X228955831Y-124996429D01*
X228964691Y-124991693D01*
X228964697Y-124991691D01*
X228970142Y-124988780D01*
X229049340Y-124955976D01*
X229070767Y-124949476D01*
X229154851Y-124932750D01*
X229177131Y-124930556D01*
X229195550Y-124930556D01*
X229207801Y-124929954D01*
X229226139Y-124928148D01*
X229713860Y-124928148D01*
X229729999Y-124929737D01*
X229729999Y-124929737D01*
G37*
G36*
X195439999Y-124929737D02*
G01*
X195449608Y-124932652D01*
X195458472Y-124937390D01*
X195466237Y-124943763D01*
X195476448Y-124956206D01*
X195483378Y-124966575D01*
X195500705Y-124983902D01*
X195521080Y-124997515D01*
X195543720Y-125006891D01*
X195567753Y-125011671D01*
X195592257Y-125011670D01*
X195616290Y-125006888D01*
X195638929Y-124997510D01*
X195659302Y-124983895D01*
X195676629Y-124966568D01*
X195683558Y-124956198D01*
X195693763Y-124943763D01*
X195701528Y-124937390D01*
X195710392Y-124932652D01*
X195720001Y-124929737D01*
X195736140Y-124928148D01*
X196223861Y-124928148D01*
X196242199Y-124929954D01*
X196254450Y-124930556D01*
X196272869Y-124930556D01*
X196295149Y-124932750D01*
X196379233Y-124949476D01*
X196400660Y-124955976D01*
X196479858Y-124988780D01*
X196485303Y-124991691D01*
X196485309Y-124991693D01*
X196494169Y-124996429D01*
X196494173Y-124996432D01*
X196499614Y-124999340D01*
X196570899Y-125046971D01*
X196588204Y-125061172D01*
X196648828Y-125121796D01*
X196663029Y-125139101D01*
X196710660Y-125210386D01*
X196713568Y-125215827D01*
X196713571Y-125215831D01*
X196718307Y-125224691D01*
X196718309Y-125224697D01*
X196721220Y-125230142D01*
X196754024Y-125309340D01*
X196760524Y-125330767D01*
X196777250Y-125414851D01*
X196779444Y-125437131D01*
X196779444Y-125455550D01*
X196780046Y-125467801D01*
X196781852Y-125486139D01*
X196781852Y-125973862D01*
X196780046Y-125992199D01*
X196779444Y-126004450D01*
X196779444Y-126022869D01*
X196777250Y-126045149D01*
X196760524Y-126129233D01*
X196754024Y-126150660D01*
X196721220Y-126229858D01*
X196718309Y-126235303D01*
X196718307Y-126235309D01*
X196713571Y-126244169D01*
X196713568Y-126244173D01*
X196710660Y-126249614D01*
X196663029Y-126320899D01*
X196648828Y-126338204D01*
X196588204Y-126398828D01*
X196570899Y-126413029D01*
X196499614Y-126460660D01*
X196494173Y-126463568D01*
X196494169Y-126463571D01*
X196485309Y-126468307D01*
X196485303Y-126468309D01*
X196479858Y-126471220D01*
X196400660Y-126504024D01*
X196379233Y-126510524D01*
X196295149Y-126527250D01*
X196272869Y-126529444D01*
X196254450Y-126529444D01*
X196242199Y-126530046D01*
X196223862Y-126531852D01*
X195736140Y-126531852D01*
X195720001Y-126530263D01*
X195710392Y-126527348D01*
X195701528Y-126522610D01*
X195693763Y-126516237D01*
X195683552Y-126503794D01*
X195676622Y-126493425D01*
X195659295Y-126476098D01*
X195638920Y-126462485D01*
X195616280Y-126453109D01*
X195592247Y-126448329D01*
X195567743Y-126448330D01*
X195543710Y-126453112D01*
X195521071Y-126462490D01*
X195500698Y-126476105D01*
X195483371Y-126493432D01*
X195476442Y-126503802D01*
X195466237Y-126516237D01*
X195458472Y-126522610D01*
X195449608Y-126527348D01*
X195439999Y-126530263D01*
X195423860Y-126531852D01*
X194936138Y-126531852D01*
X194917801Y-126530046D01*
X194905550Y-126529444D01*
X194887131Y-126529444D01*
X194864851Y-126527250D01*
X194780767Y-126510524D01*
X194759340Y-126504024D01*
X194680142Y-126471220D01*
X194674697Y-126468309D01*
X194674691Y-126468307D01*
X194665831Y-126463571D01*
X194665827Y-126463568D01*
X194660386Y-126460660D01*
X194589101Y-126413029D01*
X194571796Y-126398828D01*
X194511172Y-126338204D01*
X194496971Y-126320899D01*
X194449340Y-126249614D01*
X194446432Y-126244173D01*
X194446429Y-126244169D01*
X194441693Y-126235309D01*
X194441691Y-126235303D01*
X194438780Y-126229858D01*
X194405976Y-126150660D01*
X194399476Y-126129233D01*
X194382750Y-126045149D01*
X194380556Y-126022869D01*
X194380556Y-126004450D01*
X194379954Y-125992199D01*
X194378148Y-125973862D01*
X194378148Y-125486139D01*
X194379954Y-125467801D01*
X194380556Y-125455550D01*
X194380556Y-125437131D01*
X194382750Y-125414851D01*
X194399476Y-125330767D01*
X194405976Y-125309340D01*
X194438780Y-125230142D01*
X194441691Y-125224697D01*
X194441693Y-125224691D01*
X194446429Y-125215831D01*
X194446432Y-125215827D01*
X194449340Y-125210386D01*
X194496971Y-125139101D01*
X194511172Y-125121796D01*
X194571796Y-125061172D01*
X194589101Y-125046971D01*
X194660386Y-124999340D01*
X194665827Y-124996432D01*
X194665831Y-124996429D01*
X194674691Y-124991693D01*
X194674697Y-124991691D01*
X194680142Y-124988780D01*
X194759340Y-124955976D01*
X194780767Y-124949476D01*
X194864851Y-124932750D01*
X194887131Y-124930556D01*
X194905550Y-124930556D01*
X194917801Y-124929954D01*
X194936139Y-124928148D01*
X195423860Y-124928148D01*
X195439999Y-124929737D01*
X195439999Y-124929737D01*
G37*
G36*
X210679999Y-124929737D02*
G01*
X210689608Y-124932652D01*
X210698472Y-124937390D01*
X210706237Y-124943763D01*
X210716448Y-124956206D01*
X210723378Y-124966575D01*
X210740705Y-124983902D01*
X210761080Y-124997515D01*
X210783720Y-125006891D01*
X210807753Y-125011671D01*
X210832257Y-125011670D01*
X210856290Y-125006888D01*
X210878929Y-124997510D01*
X210899302Y-124983895D01*
X210916629Y-124966568D01*
X210923558Y-124956198D01*
X210933763Y-124943763D01*
X210941528Y-124937390D01*
X210950392Y-124932652D01*
X210960001Y-124929737D01*
X210976140Y-124928148D01*
X211463861Y-124928148D01*
X211482199Y-124929954D01*
X211494450Y-124930556D01*
X211512869Y-124930556D01*
X211535149Y-124932750D01*
X211619233Y-124949476D01*
X211640660Y-124955976D01*
X211719858Y-124988780D01*
X211725303Y-124991691D01*
X211725309Y-124991693D01*
X211734169Y-124996429D01*
X211734173Y-124996432D01*
X211739614Y-124999340D01*
X211810899Y-125046971D01*
X211828204Y-125061172D01*
X211888828Y-125121796D01*
X211903029Y-125139101D01*
X211950660Y-125210386D01*
X211953568Y-125215827D01*
X211953571Y-125215831D01*
X211958307Y-125224691D01*
X211958309Y-125224697D01*
X211961220Y-125230142D01*
X211994024Y-125309340D01*
X212000524Y-125330767D01*
X212017250Y-125414851D01*
X212019444Y-125437131D01*
X212019444Y-125455550D01*
X212020046Y-125467801D01*
X212021852Y-125486139D01*
X212021852Y-125973862D01*
X212020046Y-125992199D01*
X212019444Y-126004450D01*
X212019444Y-126022869D01*
X212017250Y-126045149D01*
X212000524Y-126129233D01*
X211994024Y-126150660D01*
X211961220Y-126229858D01*
X211958309Y-126235303D01*
X211958307Y-126235309D01*
X211953571Y-126244169D01*
X211953568Y-126244173D01*
X211950660Y-126249614D01*
X211903029Y-126320899D01*
X211888828Y-126338204D01*
X211828204Y-126398828D01*
X211810899Y-126413029D01*
X211739614Y-126460660D01*
X211734173Y-126463568D01*
X211734169Y-126463571D01*
X211725309Y-126468307D01*
X211725303Y-126468309D01*
X211719858Y-126471220D01*
X211640660Y-126504024D01*
X211619233Y-126510524D01*
X211535149Y-126527250D01*
X211512869Y-126529444D01*
X211494450Y-126529444D01*
X211482199Y-126530046D01*
X211463862Y-126531852D01*
X210976140Y-126531852D01*
X210960001Y-126530263D01*
X210950392Y-126527348D01*
X210941528Y-126522610D01*
X210933763Y-126516237D01*
X210923552Y-126503794D01*
X210916622Y-126493425D01*
X210899295Y-126476098D01*
X210878920Y-126462485D01*
X210856280Y-126453109D01*
X210832247Y-126448329D01*
X210807743Y-126448330D01*
X210783710Y-126453112D01*
X210761071Y-126462490D01*
X210740698Y-126476105D01*
X210723371Y-126493432D01*
X210716442Y-126503802D01*
X210706237Y-126516237D01*
X210698472Y-126522610D01*
X210689608Y-126527348D01*
X210679999Y-126530263D01*
X210663860Y-126531852D01*
X210176138Y-126531852D01*
X210157801Y-126530046D01*
X210145550Y-126529444D01*
X210127131Y-126529444D01*
X210104851Y-126527250D01*
X210020767Y-126510524D01*
X209999340Y-126504024D01*
X209920142Y-126471220D01*
X209914697Y-126468309D01*
X209914691Y-126468307D01*
X209905831Y-126463571D01*
X209905827Y-126463568D01*
X209900386Y-126460660D01*
X209829101Y-126413029D01*
X209811796Y-126398828D01*
X209751172Y-126338204D01*
X209736971Y-126320899D01*
X209689340Y-126249614D01*
X209686432Y-126244173D01*
X209686429Y-126244169D01*
X209681693Y-126235309D01*
X209681691Y-126235303D01*
X209678780Y-126229858D01*
X209645976Y-126150660D01*
X209639476Y-126129233D01*
X209622750Y-126045149D01*
X209620556Y-126022869D01*
X209620556Y-126004450D01*
X209619954Y-125992199D01*
X209618148Y-125973862D01*
X209618148Y-125486139D01*
X209619954Y-125467801D01*
X209620556Y-125455550D01*
X209620556Y-125437131D01*
X209622750Y-125414851D01*
X209639476Y-125330767D01*
X209645976Y-125309340D01*
X209678780Y-125230142D01*
X209681691Y-125224697D01*
X209681693Y-125224691D01*
X209686429Y-125215831D01*
X209686432Y-125215827D01*
X209689340Y-125210386D01*
X209736971Y-125139101D01*
X209751172Y-125121796D01*
X209811796Y-125061172D01*
X209829101Y-125046971D01*
X209900386Y-124999340D01*
X209905827Y-124996432D01*
X209905831Y-124996429D01*
X209914691Y-124991693D01*
X209914697Y-124991691D01*
X209920142Y-124988780D01*
X209999340Y-124955976D01*
X210020767Y-124949476D01*
X210104851Y-124932750D01*
X210127131Y-124930556D01*
X210145550Y-124930556D01*
X210157801Y-124929954D01*
X210176139Y-124928148D01*
X210663860Y-124928148D01*
X210679999Y-124929737D01*
X210679999Y-124929737D01*
G37*
G36*
X234581000Y-124091000D02*
G01*
X232779000Y-124091000D01*
X232779000Y-122289000D01*
X234581000Y-122289000D01*
X234581000Y-124091000D01*
X234581000Y-124091000D01*
G37*
G36*
X173338443Y-122295519D02*
G01*
X173404627Y-122302037D01*
X173574466Y-122353557D01*
X173730991Y-122437222D01*
X173766729Y-122466552D01*
X173868186Y-122549814D01*
X173951448Y-122651271D01*
X173980778Y-122687009D01*
X174064443Y-122843534D01*
X174115963Y-123013373D01*
X174133359Y-123190000D01*
X174115963Y-123366627D01*
X174064443Y-123536466D01*
X173980778Y-123692991D01*
X173951448Y-123728729D01*
X173868186Y-123830186D01*
X173766729Y-123913448D01*
X173730991Y-123942778D01*
X173574466Y-124026443D01*
X173404627Y-124077963D01*
X173338442Y-124084482D01*
X173272260Y-124091000D01*
X173183740Y-124091000D01*
X173117558Y-124084482D01*
X173051373Y-124077963D01*
X172881534Y-124026443D01*
X172725009Y-123942778D01*
X172689271Y-123913448D01*
X172587814Y-123830186D01*
X172504552Y-123728729D01*
X172475222Y-123692991D01*
X172391557Y-123536466D01*
X172340037Y-123366627D01*
X172322641Y-123190000D01*
X172340037Y-123013373D01*
X172391557Y-122843534D01*
X172475222Y-122687009D01*
X172504552Y-122651271D01*
X172587814Y-122549814D01*
X172689271Y-122466552D01*
X172725009Y-122437222D01*
X172881534Y-122353557D01*
X173051373Y-122302037D01*
X173117557Y-122295519D01*
X173183740Y-122289000D01*
X173272260Y-122289000D01*
X173338443Y-122295519D01*
X173338443Y-122295519D01*
G37*
G36*
X200291000Y-124091000D02*
G01*
X198489000Y-124091000D01*
X198489000Y-122289000D01*
X200291000Y-122289000D01*
X200291000Y-124091000D01*
X200291000Y-124091000D01*
G37*
G36*
X207120443Y-122295519D02*
G01*
X207186627Y-122302037D01*
X207356466Y-122353557D01*
X207512991Y-122437222D01*
X207548729Y-122466552D01*
X207650186Y-122549814D01*
X207733448Y-122651271D01*
X207762778Y-122687009D01*
X207846443Y-122843534D01*
X207897963Y-123013373D01*
X207915359Y-123190000D01*
X207897963Y-123366627D01*
X207846443Y-123536466D01*
X207762778Y-123692991D01*
X207733448Y-123728729D01*
X207650186Y-123830186D01*
X207548729Y-123913448D01*
X207512991Y-123942778D01*
X207356466Y-124026443D01*
X207186627Y-124077963D01*
X207120442Y-124084482D01*
X207054260Y-124091000D01*
X206965740Y-124091000D01*
X206899558Y-124084482D01*
X206833373Y-124077963D01*
X206663534Y-124026443D01*
X206507009Y-123942778D01*
X206471271Y-123913448D01*
X206369814Y-123830186D01*
X206286552Y-123728729D01*
X206257222Y-123692991D01*
X206173557Y-123536466D01*
X206122037Y-123366627D01*
X206104641Y-123190000D01*
X206122037Y-123013373D01*
X206173557Y-122843534D01*
X206257222Y-122687009D01*
X206286552Y-122651271D01*
X206369814Y-122549814D01*
X206471271Y-122466552D01*
X206507009Y-122437222D01*
X206663534Y-122353557D01*
X206833373Y-122302037D01*
X206899557Y-122295519D01*
X206965740Y-122289000D01*
X207054260Y-122289000D01*
X207120443Y-122295519D01*
X207120443Y-122295519D01*
G37*
G36*
X207120442Y-119755518D02*
G01*
X207186627Y-119762037D01*
X207356466Y-119813557D01*
X207512991Y-119897222D01*
X207548729Y-119926552D01*
X207650186Y-120009814D01*
X207733448Y-120111271D01*
X207762778Y-120147009D01*
X207846443Y-120303534D01*
X207897963Y-120473373D01*
X207915359Y-120650000D01*
X207897963Y-120826627D01*
X207846443Y-120996466D01*
X207762778Y-121152991D01*
X207733448Y-121188729D01*
X207650186Y-121290186D01*
X207548729Y-121373448D01*
X207512991Y-121402778D01*
X207356466Y-121486443D01*
X207186627Y-121537963D01*
X207120443Y-121544481D01*
X207054260Y-121551000D01*
X206965740Y-121551000D01*
X206899557Y-121544481D01*
X206833373Y-121537963D01*
X206663534Y-121486443D01*
X206507009Y-121402778D01*
X206471271Y-121373448D01*
X206369814Y-121290186D01*
X206286552Y-121188729D01*
X206257222Y-121152991D01*
X206173557Y-120996466D01*
X206122037Y-120826627D01*
X206104641Y-120650000D01*
X206122037Y-120473373D01*
X206173557Y-120303534D01*
X206257222Y-120147009D01*
X206286552Y-120111271D01*
X206369814Y-120009814D01*
X206471271Y-119926552D01*
X206507009Y-119897222D01*
X206663534Y-119813557D01*
X206833373Y-119762037D01*
X206899558Y-119755518D01*
X206965740Y-119749000D01*
X207054260Y-119749000D01*
X207120442Y-119755518D01*
X207120442Y-119755518D01*
G37*
G36*
X173338442Y-119755518D02*
G01*
X173404627Y-119762037D01*
X173574466Y-119813557D01*
X173730991Y-119897222D01*
X173766729Y-119926552D01*
X173868186Y-120009814D01*
X173951448Y-120111271D01*
X173980778Y-120147009D01*
X174064443Y-120303534D01*
X174115963Y-120473373D01*
X174133359Y-120650000D01*
X174115963Y-120826627D01*
X174064443Y-120996466D01*
X173980778Y-121152991D01*
X173951448Y-121188729D01*
X173868186Y-121290186D01*
X173766729Y-121373448D01*
X173730991Y-121402778D01*
X173574466Y-121486443D01*
X173404627Y-121537963D01*
X173338443Y-121544481D01*
X173272260Y-121551000D01*
X173183740Y-121551000D01*
X173117557Y-121544481D01*
X173051373Y-121537963D01*
X172881534Y-121486443D01*
X172725009Y-121402778D01*
X172689271Y-121373448D01*
X172587814Y-121290186D01*
X172504552Y-121188729D01*
X172475222Y-121152991D01*
X172391557Y-120996466D01*
X172340037Y-120826627D01*
X172322641Y-120650000D01*
X172340037Y-120473373D01*
X172391557Y-120303534D01*
X172475222Y-120147009D01*
X172504552Y-120111271D01*
X172587814Y-120009814D01*
X172689271Y-119926552D01*
X172725009Y-119897222D01*
X172881534Y-119813557D01*
X173051373Y-119762037D01*
X173117558Y-119755518D01*
X173183740Y-119749000D01*
X173272260Y-119749000D01*
X173338442Y-119755518D01*
X173338442Y-119755518D01*
G37*
G36*
X207120443Y-117215519D02*
G01*
X207186627Y-117222037D01*
X207356466Y-117273557D01*
X207512991Y-117357222D01*
X207548729Y-117386552D01*
X207650186Y-117469814D01*
X207733448Y-117571271D01*
X207762778Y-117607009D01*
X207846443Y-117763534D01*
X207897963Y-117933373D01*
X207915359Y-118110000D01*
X207897963Y-118286627D01*
X207846443Y-118456466D01*
X207762778Y-118612991D01*
X207733448Y-118648729D01*
X207650186Y-118750186D01*
X207548729Y-118833448D01*
X207512991Y-118862778D01*
X207356466Y-118946443D01*
X207186627Y-118997963D01*
X207120443Y-119004481D01*
X207054260Y-119011000D01*
X206965740Y-119011000D01*
X206899557Y-119004481D01*
X206833373Y-118997963D01*
X206663534Y-118946443D01*
X206507009Y-118862778D01*
X206471271Y-118833448D01*
X206369814Y-118750186D01*
X206286552Y-118648729D01*
X206257222Y-118612991D01*
X206173557Y-118456466D01*
X206122037Y-118286627D01*
X206104641Y-118110000D01*
X206122037Y-117933373D01*
X206173557Y-117763534D01*
X206257222Y-117607009D01*
X206286552Y-117571271D01*
X206369814Y-117469814D01*
X206471271Y-117386552D01*
X206507009Y-117357222D01*
X206663534Y-117273557D01*
X206833373Y-117222037D01*
X206899557Y-117215519D01*
X206965740Y-117209000D01*
X207054260Y-117209000D01*
X207120443Y-117215519D01*
X207120443Y-117215519D01*
G37*
G36*
X173338443Y-117215519D02*
G01*
X173404627Y-117222037D01*
X173574466Y-117273557D01*
X173730991Y-117357222D01*
X173766729Y-117386552D01*
X173868186Y-117469814D01*
X173951448Y-117571271D01*
X173980778Y-117607009D01*
X174064443Y-117763534D01*
X174115963Y-117933373D01*
X174133359Y-118110000D01*
X174115963Y-118286627D01*
X174064443Y-118456466D01*
X173980778Y-118612991D01*
X173951448Y-118648729D01*
X173868186Y-118750186D01*
X173766729Y-118833448D01*
X173730991Y-118862778D01*
X173574466Y-118946443D01*
X173404627Y-118997963D01*
X173338443Y-119004481D01*
X173272260Y-119011000D01*
X173183740Y-119011000D01*
X173117557Y-119004481D01*
X173051373Y-118997963D01*
X172881534Y-118946443D01*
X172725009Y-118862778D01*
X172689271Y-118833448D01*
X172587814Y-118750186D01*
X172504552Y-118648729D01*
X172475222Y-118612991D01*
X172391557Y-118456466D01*
X172340037Y-118286627D01*
X172322641Y-118110000D01*
X172340037Y-117933373D01*
X172391557Y-117763534D01*
X172475222Y-117607009D01*
X172504552Y-117571271D01*
X172587814Y-117469814D01*
X172689271Y-117386552D01*
X172725009Y-117357222D01*
X172881534Y-117273557D01*
X173051373Y-117222037D01*
X173117557Y-117215519D01*
X173183740Y-117209000D01*
X173272260Y-117209000D01*
X173338443Y-117215519D01*
X173338443Y-117215519D01*
G37*
G36*
X207120443Y-114675519D02*
G01*
X207186627Y-114682037D01*
X207356466Y-114733557D01*
X207512991Y-114817222D01*
X207548729Y-114846552D01*
X207650186Y-114929814D01*
X207733448Y-115031271D01*
X207762778Y-115067009D01*
X207846443Y-115223534D01*
X207897963Y-115393373D01*
X207915359Y-115570000D01*
X207897963Y-115746627D01*
X207846443Y-115916466D01*
X207762778Y-116072991D01*
X207733448Y-116108729D01*
X207650186Y-116210186D01*
X207548729Y-116293448D01*
X207512991Y-116322778D01*
X207356466Y-116406443D01*
X207186627Y-116457963D01*
X207120442Y-116464482D01*
X207054260Y-116471000D01*
X206965740Y-116471000D01*
X206899558Y-116464482D01*
X206833373Y-116457963D01*
X206663534Y-116406443D01*
X206507009Y-116322778D01*
X206471271Y-116293448D01*
X206369814Y-116210186D01*
X206286552Y-116108729D01*
X206257222Y-116072991D01*
X206173557Y-115916466D01*
X206122037Y-115746627D01*
X206104641Y-115570000D01*
X206122037Y-115393373D01*
X206173557Y-115223534D01*
X206257222Y-115067009D01*
X206286552Y-115031271D01*
X206369814Y-114929814D01*
X206471271Y-114846552D01*
X206507009Y-114817222D01*
X206663534Y-114733557D01*
X206833373Y-114682037D01*
X206899557Y-114675519D01*
X206965740Y-114669000D01*
X207054260Y-114669000D01*
X207120443Y-114675519D01*
X207120443Y-114675519D01*
G37*
G36*
X173338443Y-114675519D02*
G01*
X173404627Y-114682037D01*
X173574466Y-114733557D01*
X173730991Y-114817222D01*
X173766729Y-114846552D01*
X173868186Y-114929814D01*
X173951448Y-115031271D01*
X173980778Y-115067009D01*
X174064443Y-115223534D01*
X174115963Y-115393373D01*
X174133359Y-115570000D01*
X174115963Y-115746627D01*
X174064443Y-115916466D01*
X173980778Y-116072991D01*
X173951448Y-116108729D01*
X173868186Y-116210186D01*
X173766729Y-116293448D01*
X173730991Y-116322778D01*
X173574466Y-116406443D01*
X173404627Y-116457963D01*
X173338442Y-116464482D01*
X173272260Y-116471000D01*
X173183740Y-116471000D01*
X173117558Y-116464482D01*
X173051373Y-116457963D01*
X172881534Y-116406443D01*
X172725009Y-116322778D01*
X172689271Y-116293448D01*
X172587814Y-116210186D01*
X172504552Y-116108729D01*
X172475222Y-116072991D01*
X172391557Y-115916466D01*
X172340037Y-115746627D01*
X172322641Y-115570000D01*
X172340037Y-115393373D01*
X172391557Y-115223534D01*
X172475222Y-115067009D01*
X172504552Y-115031271D01*
X172587814Y-114929814D01*
X172689271Y-114846552D01*
X172725009Y-114817222D01*
X172881534Y-114733557D01*
X173051373Y-114682037D01*
X173117557Y-114675519D01*
X173183740Y-114669000D01*
X173272260Y-114669000D01*
X173338443Y-114675519D01*
X173338443Y-114675519D01*
G37*
G36*
X173338443Y-112135519D02*
G01*
X173404627Y-112142037D01*
X173574466Y-112193557D01*
X173730991Y-112277222D01*
X173766729Y-112306552D01*
X173868186Y-112389814D01*
X173951448Y-112491271D01*
X173980778Y-112527009D01*
X174064443Y-112683534D01*
X174115963Y-112853373D01*
X174133359Y-113030000D01*
X174115963Y-113206627D01*
X174064443Y-113376466D01*
X173980778Y-113532991D01*
X173951448Y-113568729D01*
X173868186Y-113670186D01*
X173766729Y-113753448D01*
X173730991Y-113782778D01*
X173574466Y-113866443D01*
X173404627Y-113917963D01*
X173338443Y-113924481D01*
X173272260Y-113931000D01*
X173183740Y-113931000D01*
X173117557Y-113924481D01*
X173051373Y-113917963D01*
X172881534Y-113866443D01*
X172725009Y-113782778D01*
X172689271Y-113753448D01*
X172587814Y-113670186D01*
X172504552Y-113568729D01*
X172475222Y-113532991D01*
X172391557Y-113376466D01*
X172340037Y-113206627D01*
X172322641Y-113030000D01*
X172340037Y-112853373D01*
X172391557Y-112683534D01*
X172475222Y-112527009D01*
X172504552Y-112491271D01*
X172587814Y-112389814D01*
X172689271Y-112306552D01*
X172725009Y-112277222D01*
X172881534Y-112193557D01*
X173051373Y-112142037D01*
X173117557Y-112135519D01*
X173183740Y-112129000D01*
X173272260Y-112129000D01*
X173338443Y-112135519D01*
X173338443Y-112135519D01*
G37*
G36*
X207120443Y-112135519D02*
G01*
X207186627Y-112142037D01*
X207356466Y-112193557D01*
X207512991Y-112277222D01*
X207548729Y-112306552D01*
X207650186Y-112389814D01*
X207733448Y-112491271D01*
X207762778Y-112527009D01*
X207846443Y-112683534D01*
X207897963Y-112853373D01*
X207915359Y-113030000D01*
X207897963Y-113206627D01*
X207846443Y-113376466D01*
X207762778Y-113532991D01*
X207733448Y-113568729D01*
X207650186Y-113670186D01*
X207548729Y-113753448D01*
X207512991Y-113782778D01*
X207356466Y-113866443D01*
X207186627Y-113917963D01*
X207120443Y-113924481D01*
X207054260Y-113931000D01*
X206965740Y-113931000D01*
X206899557Y-113924481D01*
X206833373Y-113917963D01*
X206663534Y-113866443D01*
X206507009Y-113782778D01*
X206471271Y-113753448D01*
X206369814Y-113670186D01*
X206286552Y-113568729D01*
X206257222Y-113532991D01*
X206173557Y-113376466D01*
X206122037Y-113206627D01*
X206104641Y-113030000D01*
X206122037Y-112853373D01*
X206173557Y-112683534D01*
X206257222Y-112527009D01*
X206286552Y-112491271D01*
X206369814Y-112389814D01*
X206471271Y-112306552D01*
X206507009Y-112277222D01*
X206663534Y-112193557D01*
X206833373Y-112142037D01*
X206899557Y-112135519D01*
X206965740Y-112129000D01*
X207054260Y-112129000D01*
X207120443Y-112135519D01*
X207120443Y-112135519D01*
G37*
G36*
X226768674Y-105933465D02*
G01*
X226806367Y-105944899D01*
X226841103Y-105963466D01*
X226871548Y-105988452D01*
X226896534Y-106018897D01*
X226915101Y-106053633D01*
X226926535Y-106091326D01*
X226931000Y-106136661D01*
X226931000Y-107223339D01*
X226926535Y-107268674D01*
X226915101Y-107306367D01*
X226896534Y-107341103D01*
X226871548Y-107371548D01*
X226841103Y-107396534D01*
X226806367Y-107415101D01*
X226768674Y-107426535D01*
X226723339Y-107431000D01*
X225886661Y-107431000D01*
X225841326Y-107426535D01*
X225803633Y-107415101D01*
X225768897Y-107396534D01*
X225738452Y-107371548D01*
X225713466Y-107341103D01*
X225694899Y-107306367D01*
X225683465Y-107268674D01*
X225679000Y-107223339D01*
X225679000Y-106136661D01*
X225683465Y-106091326D01*
X225694899Y-106053633D01*
X225713466Y-106018897D01*
X225738452Y-105988452D01*
X225768897Y-105963466D01*
X225803633Y-105944899D01*
X225841326Y-105933465D01*
X225886661Y-105929000D01*
X226723339Y-105929000D01*
X226768674Y-105933465D01*
X226768674Y-105933465D01*
G37*
G36*
X228818674Y-105933465D02*
G01*
X228856367Y-105944899D01*
X228891103Y-105963466D01*
X228921548Y-105988452D01*
X228946534Y-106018897D01*
X228965101Y-106053633D01*
X228976535Y-106091326D01*
X228981000Y-106136661D01*
X228981000Y-107223339D01*
X228976535Y-107268674D01*
X228965101Y-107306367D01*
X228946534Y-107341103D01*
X228921548Y-107371548D01*
X228891103Y-107396534D01*
X228856367Y-107415101D01*
X228818674Y-107426535D01*
X228773339Y-107431000D01*
X227936661Y-107431000D01*
X227891326Y-107426535D01*
X227853633Y-107415101D01*
X227818897Y-107396534D01*
X227788452Y-107371548D01*
X227763466Y-107341103D01*
X227744899Y-107306367D01*
X227733465Y-107268674D01*
X227729000Y-107223339D01*
X227729000Y-106136661D01*
X227733465Y-106091326D01*
X227744899Y-106053633D01*
X227763466Y-106018897D01*
X227788452Y-105988452D01*
X227818897Y-105963466D01*
X227853633Y-105944899D01*
X227891326Y-105933465D01*
X227936661Y-105929000D01*
X228773339Y-105929000D01*
X228818674Y-105933465D01*
X228818674Y-105933465D01*
G37*
G36*
X179288674Y-105933465D02*
G01*
X179326367Y-105944899D01*
X179361103Y-105963466D01*
X179391548Y-105988452D01*
X179416534Y-106018897D01*
X179435101Y-106053633D01*
X179446535Y-106091326D01*
X179451000Y-106136661D01*
X179451000Y-107223339D01*
X179446535Y-107268674D01*
X179435101Y-107306367D01*
X179416534Y-107341103D01*
X179391548Y-107371548D01*
X179361103Y-107396534D01*
X179326367Y-107415101D01*
X179288674Y-107426535D01*
X179243339Y-107431000D01*
X178406661Y-107431000D01*
X178361326Y-107426535D01*
X178323633Y-107415101D01*
X178288897Y-107396534D01*
X178258452Y-107371548D01*
X178233466Y-107341103D01*
X178214899Y-107306367D01*
X178203465Y-107268674D01*
X178199000Y-107223339D01*
X178199000Y-106136661D01*
X178203465Y-106091326D01*
X178214899Y-106053633D01*
X178233466Y-106018897D01*
X178258452Y-105988452D01*
X178288897Y-105963466D01*
X178323633Y-105944899D01*
X178361326Y-105933465D01*
X178406661Y-105929000D01*
X179243339Y-105929000D01*
X179288674Y-105933465D01*
X179288674Y-105933465D01*
G37*
G36*
X177238674Y-105933465D02*
G01*
X177276367Y-105944899D01*
X177311103Y-105963466D01*
X177341548Y-105988452D01*
X177366534Y-106018897D01*
X177385101Y-106053633D01*
X177396535Y-106091326D01*
X177401000Y-106136661D01*
X177401000Y-107223339D01*
X177396535Y-107268674D01*
X177385101Y-107306367D01*
X177366534Y-107341103D01*
X177341548Y-107371548D01*
X177311103Y-107396534D01*
X177276367Y-107415101D01*
X177238674Y-107426535D01*
X177193339Y-107431000D01*
X176356661Y-107431000D01*
X176311326Y-107426535D01*
X176273633Y-107415101D01*
X176238897Y-107396534D01*
X176208452Y-107371548D01*
X176183466Y-107341103D01*
X176164899Y-107306367D01*
X176153465Y-107268674D01*
X176149000Y-107223339D01*
X176149000Y-106136661D01*
X176153465Y-106091326D01*
X176164899Y-106053633D01*
X176183466Y-106018897D01*
X176208452Y-105988452D01*
X176238897Y-105963466D01*
X176273633Y-105944899D01*
X176311326Y-105933465D01*
X176356661Y-105929000D01*
X177193339Y-105929000D01*
X177238674Y-105933465D01*
X177238674Y-105933465D01*
G37*
G36*
X229308674Y-99583465D02*
G01*
X229346367Y-99594899D01*
X229381103Y-99613466D01*
X229411548Y-99638452D01*
X229436534Y-99668897D01*
X229455101Y-99703633D01*
X229466535Y-99741326D01*
X229471000Y-99786661D01*
X229471000Y-100873339D01*
X229466535Y-100918674D01*
X229455101Y-100956367D01*
X229436534Y-100991103D01*
X229411548Y-101021548D01*
X229381103Y-101046534D01*
X229346367Y-101065101D01*
X229308674Y-101076535D01*
X229263339Y-101081000D01*
X228426661Y-101081000D01*
X228381326Y-101076535D01*
X228343633Y-101065101D01*
X228308897Y-101046534D01*
X228278452Y-101021548D01*
X228253466Y-100991103D01*
X228234899Y-100956367D01*
X228223465Y-100918674D01*
X228219000Y-100873339D01*
X228219000Y-99786661D01*
X228223465Y-99741326D01*
X228234899Y-99703633D01*
X228253466Y-99668897D01*
X228278452Y-99638452D01*
X228308897Y-99613466D01*
X228343633Y-99594899D01*
X228381326Y-99583465D01*
X228426661Y-99579000D01*
X229263339Y-99579000D01*
X229308674Y-99583465D01*
X229308674Y-99583465D01*
G37*
G36*
X231358674Y-99583465D02*
G01*
X231396367Y-99594899D01*
X231431103Y-99613466D01*
X231461548Y-99638452D01*
X231486534Y-99668897D01*
X231505101Y-99703633D01*
X231516535Y-99741326D01*
X231521000Y-99786661D01*
X231521000Y-100873339D01*
X231516535Y-100918674D01*
X231505101Y-100956367D01*
X231486534Y-100991103D01*
X231461548Y-101021548D01*
X231431103Y-101046534D01*
X231396367Y-101065101D01*
X231358674Y-101076535D01*
X231313339Y-101081000D01*
X230476661Y-101081000D01*
X230431326Y-101076535D01*
X230393633Y-101065101D01*
X230358897Y-101046534D01*
X230328452Y-101021548D01*
X230303466Y-100991103D01*
X230284899Y-100956367D01*
X230273465Y-100918674D01*
X230269000Y-100873339D01*
X230269000Y-99786661D01*
X230273465Y-99741326D01*
X230284899Y-99703633D01*
X230303466Y-99668897D01*
X230328452Y-99638452D01*
X230358897Y-99613466D01*
X230393633Y-99594899D01*
X230431326Y-99583465D01*
X230476661Y-99579000D01*
X231313339Y-99579000D01*
X231358674Y-99583465D01*
X231358674Y-99583465D01*
G37*
G36*
X226278674Y-99583465D02*
G01*
X226316367Y-99594899D01*
X226351103Y-99613466D01*
X226381548Y-99638452D01*
X226406534Y-99668897D01*
X226425101Y-99703633D01*
X226436535Y-99741326D01*
X226441000Y-99786661D01*
X226441000Y-100873339D01*
X226436535Y-100918674D01*
X226425101Y-100956367D01*
X226406534Y-100991103D01*
X226381548Y-101021548D01*
X226351103Y-101046534D01*
X226316367Y-101065101D01*
X226278674Y-101076535D01*
X226233339Y-101081000D01*
X225396661Y-101081000D01*
X225351326Y-101076535D01*
X225313633Y-101065101D01*
X225278897Y-101046534D01*
X225248452Y-101021548D01*
X225223466Y-100991103D01*
X225204899Y-100956367D01*
X225193465Y-100918674D01*
X225189000Y-100873339D01*
X225189000Y-99786661D01*
X225193465Y-99741326D01*
X225204899Y-99703633D01*
X225223466Y-99668897D01*
X225248452Y-99638452D01*
X225278897Y-99613466D01*
X225313633Y-99594899D01*
X225351326Y-99583465D01*
X225396661Y-99579000D01*
X226233339Y-99579000D01*
X226278674Y-99583465D01*
X226278674Y-99583465D01*
G37*
G36*
X224228674Y-99583465D02*
G01*
X224266367Y-99594899D01*
X224301103Y-99613466D01*
X224331548Y-99638452D01*
X224356534Y-99668897D01*
X224375101Y-99703633D01*
X224386535Y-99741326D01*
X224391000Y-99786661D01*
X224391000Y-100873339D01*
X224386535Y-100918674D01*
X224375101Y-100956367D01*
X224356534Y-100991103D01*
X224331548Y-101021548D01*
X224301103Y-101046534D01*
X224266367Y-101065101D01*
X224228674Y-101076535D01*
X224183339Y-101081000D01*
X223346661Y-101081000D01*
X223301326Y-101076535D01*
X223263633Y-101065101D01*
X223228897Y-101046534D01*
X223198452Y-101021548D01*
X223173466Y-100991103D01*
X223154899Y-100956367D01*
X223143465Y-100918674D01*
X223139000Y-100873339D01*
X223139000Y-99786661D01*
X223143465Y-99741326D01*
X223154899Y-99703633D01*
X223173466Y-99668897D01*
X223198452Y-99638452D01*
X223228897Y-99613466D01*
X223263633Y-99594899D01*
X223301326Y-99583465D01*
X223346661Y-99579000D01*
X224183339Y-99579000D01*
X224228674Y-99583465D01*
X224228674Y-99583465D01*
G37*
G36*
X174698674Y-99583465D02*
G01*
X174736367Y-99594899D01*
X174771103Y-99613466D01*
X174801548Y-99638452D01*
X174826534Y-99668897D01*
X174845101Y-99703633D01*
X174856535Y-99741326D01*
X174861000Y-99786661D01*
X174861000Y-100873339D01*
X174856535Y-100918674D01*
X174845101Y-100956367D01*
X174826534Y-100991103D01*
X174801548Y-101021548D01*
X174771103Y-101046534D01*
X174736367Y-101065101D01*
X174698674Y-101076535D01*
X174653339Y-101081000D01*
X173816661Y-101081000D01*
X173771326Y-101076535D01*
X173733633Y-101065101D01*
X173698897Y-101046534D01*
X173668452Y-101021548D01*
X173643466Y-100991103D01*
X173624899Y-100956367D01*
X173613465Y-100918674D01*
X173609000Y-100873339D01*
X173609000Y-99786661D01*
X173613465Y-99741326D01*
X173624899Y-99703633D01*
X173643466Y-99668897D01*
X173668452Y-99638452D01*
X173698897Y-99613466D01*
X173733633Y-99594899D01*
X173771326Y-99583465D01*
X173816661Y-99579000D01*
X174653339Y-99579000D01*
X174698674Y-99583465D01*
X174698674Y-99583465D01*
G37*
G36*
X176748674Y-99583465D02*
G01*
X176786367Y-99594899D01*
X176821103Y-99613466D01*
X176851548Y-99638452D01*
X176876534Y-99668897D01*
X176895101Y-99703633D01*
X176906535Y-99741326D01*
X176911000Y-99786661D01*
X176911000Y-100873339D01*
X176906535Y-100918674D01*
X176895101Y-100956367D01*
X176876534Y-100991103D01*
X176851548Y-101021548D01*
X176821103Y-101046534D01*
X176786367Y-101065101D01*
X176748674Y-101076535D01*
X176703339Y-101081000D01*
X175866661Y-101081000D01*
X175821326Y-101076535D01*
X175783633Y-101065101D01*
X175748897Y-101046534D01*
X175718452Y-101021548D01*
X175693466Y-100991103D01*
X175674899Y-100956367D01*
X175663465Y-100918674D01*
X175659000Y-100873339D01*
X175659000Y-99786661D01*
X175663465Y-99741326D01*
X175674899Y-99703633D01*
X175693466Y-99668897D01*
X175718452Y-99638452D01*
X175748897Y-99613466D01*
X175783633Y-99594899D01*
X175821326Y-99583465D01*
X175866661Y-99579000D01*
X176703339Y-99579000D01*
X176748674Y-99583465D01*
X176748674Y-99583465D01*
G37*
G36*
X181828674Y-99583465D02*
G01*
X181866367Y-99594899D01*
X181901103Y-99613466D01*
X181931548Y-99638452D01*
X181956534Y-99668897D01*
X181975101Y-99703633D01*
X181986535Y-99741326D01*
X181991000Y-99786661D01*
X181991000Y-100873339D01*
X181986535Y-100918674D01*
X181975101Y-100956367D01*
X181956534Y-100991103D01*
X181931548Y-101021548D01*
X181901103Y-101046534D01*
X181866367Y-101065101D01*
X181828674Y-101076535D01*
X181783339Y-101081000D01*
X180946661Y-101081000D01*
X180901326Y-101076535D01*
X180863633Y-101065101D01*
X180828897Y-101046534D01*
X180798452Y-101021548D01*
X180773466Y-100991103D01*
X180754899Y-100956367D01*
X180743465Y-100918674D01*
X180739000Y-100873339D01*
X180739000Y-99786661D01*
X180743465Y-99741326D01*
X180754899Y-99703633D01*
X180773466Y-99668897D01*
X180798452Y-99638452D01*
X180828897Y-99613466D01*
X180863633Y-99594899D01*
X180901326Y-99583465D01*
X180946661Y-99579000D01*
X181783339Y-99579000D01*
X181828674Y-99583465D01*
X181828674Y-99583465D01*
G37*
G36*
X179778674Y-99583465D02*
G01*
X179816367Y-99594899D01*
X179851103Y-99613466D01*
X179881548Y-99638452D01*
X179906534Y-99668897D01*
X179925101Y-99703633D01*
X179936535Y-99741326D01*
X179941000Y-99786661D01*
X179941000Y-100873339D01*
X179936535Y-100918674D01*
X179925101Y-100956367D01*
X179906534Y-100991103D01*
X179881548Y-101021548D01*
X179851103Y-101046534D01*
X179816367Y-101065101D01*
X179778674Y-101076535D01*
X179733339Y-101081000D01*
X178896661Y-101081000D01*
X178851326Y-101076535D01*
X178813633Y-101065101D01*
X178778897Y-101046534D01*
X178748452Y-101021548D01*
X178723466Y-100991103D01*
X178704899Y-100956367D01*
X178693465Y-100918674D01*
X178689000Y-100873339D01*
X178689000Y-99786661D01*
X178693465Y-99741326D01*
X178704899Y-99703633D01*
X178723466Y-99668897D01*
X178748452Y-99638452D01*
X178778897Y-99613466D01*
X178813633Y-99594899D01*
X178851326Y-99583465D01*
X178896661Y-99579000D01*
X179733339Y-99579000D01*
X179778674Y-99583465D01*
X179778674Y-99583465D01*
G37*
G36*
X174661000Y-97446000D02*
G01*
X173859000Y-97446000D01*
X173859000Y-96894000D01*
X174661000Y-96894000D01*
X174661000Y-97446000D01*
X174661000Y-97446000D01*
G37*
G36*
X181741000Y-97446000D02*
G01*
X180939000Y-97446000D01*
X180939000Y-96894000D01*
X181741000Y-96894000D01*
X181741000Y-97446000D01*
X181741000Y-97446000D01*
G37*
G36*
X231271000Y-97446000D02*
G01*
X230469000Y-97446000D01*
X230469000Y-96894000D01*
X231271000Y-96894000D01*
X231271000Y-97446000D01*
X231271000Y-97446000D01*
G37*
G36*
X224191000Y-97446000D02*
G01*
X223389000Y-97446000D01*
X223389000Y-96894000D01*
X224191000Y-96894000D01*
X224191000Y-97446000D01*
X224191000Y-97446000D01*
G37*
G36*
X226191000Y-96796000D02*
G01*
X225389000Y-96796000D01*
X225389000Y-96244000D01*
X226191000Y-96244000D01*
X226191000Y-96796000D01*
X226191000Y-96796000D01*
G37*
G36*
X176661000Y-96796000D02*
G01*
X175859000Y-96796000D01*
X175859000Y-96244000D01*
X176661000Y-96244000D01*
X176661000Y-96796000D01*
X176661000Y-96796000D01*
G37*
G36*
X229271000Y-96796000D02*
G01*
X228469000Y-96796000D01*
X228469000Y-96244000D01*
X229271000Y-96244000D01*
X229271000Y-96796000D01*
X229271000Y-96796000D01*
G37*
G36*
X179741000Y-96796000D02*
G01*
X178939000Y-96796000D01*
X178939000Y-96244000D01*
X179741000Y-96244000D01*
X179741000Y-96796000D01*
X179741000Y-96796000D01*
G37*
G36*
X209787442Y-94609518D02*
G01*
X209853627Y-94616037D01*
X210023466Y-94667557D01*
X210179991Y-94751222D01*
X210215729Y-94780552D01*
X210317186Y-94863814D01*
X210400448Y-94965271D01*
X210429778Y-95001009D01*
X210513443Y-95157534D01*
X210564963Y-95327373D01*
X210582359Y-95504000D01*
X210564963Y-95680627D01*
X210513443Y-95850466D01*
X210429778Y-96006991D01*
X210400448Y-96042729D01*
X210317186Y-96144186D01*
X210215729Y-96227448D01*
X210179991Y-96256778D01*
X210023466Y-96340443D01*
X209853627Y-96391963D01*
X209787442Y-96398482D01*
X209721260Y-96405000D01*
X209632740Y-96405000D01*
X209566558Y-96398482D01*
X209500373Y-96391963D01*
X209330534Y-96340443D01*
X209174009Y-96256778D01*
X209138271Y-96227448D01*
X209036814Y-96144186D01*
X208953552Y-96042729D01*
X208924222Y-96006991D01*
X208840557Y-95850466D01*
X208789037Y-95680627D01*
X208771641Y-95504000D01*
X208789037Y-95327373D01*
X208840557Y-95157534D01*
X208924222Y-95001009D01*
X208953552Y-94965271D01*
X209036814Y-94863814D01*
X209138271Y-94780552D01*
X209174009Y-94751222D01*
X209330534Y-94667557D01*
X209500373Y-94616037D01*
X209566558Y-94609518D01*
X209632740Y-94603000D01*
X209721260Y-94603000D01*
X209787442Y-94609518D01*
X209787442Y-94609518D01*
G37*
G36*
X207247442Y-94609518D02*
G01*
X207313627Y-94616037D01*
X207483466Y-94667557D01*
X207639991Y-94751222D01*
X207675729Y-94780552D01*
X207777186Y-94863814D01*
X207860448Y-94965271D01*
X207889778Y-95001009D01*
X207973443Y-95157534D01*
X208024963Y-95327373D01*
X208042359Y-95504000D01*
X208024963Y-95680627D01*
X207973443Y-95850466D01*
X207889778Y-96006991D01*
X207860448Y-96042729D01*
X207777186Y-96144186D01*
X207675729Y-96227448D01*
X207639991Y-96256778D01*
X207483466Y-96340443D01*
X207313627Y-96391963D01*
X207247442Y-96398482D01*
X207181260Y-96405000D01*
X207092740Y-96405000D01*
X207026558Y-96398482D01*
X206960373Y-96391963D01*
X206790534Y-96340443D01*
X206634009Y-96256778D01*
X206598271Y-96227448D01*
X206496814Y-96144186D01*
X206413552Y-96042729D01*
X206384222Y-96006991D01*
X206300557Y-95850466D01*
X206249037Y-95680627D01*
X206231641Y-95504000D01*
X206249037Y-95327373D01*
X206300557Y-95157534D01*
X206384222Y-95001009D01*
X206413552Y-94965271D01*
X206496814Y-94863814D01*
X206598271Y-94780552D01*
X206634009Y-94751222D01*
X206790534Y-94667557D01*
X206960373Y-94616037D01*
X207026558Y-94609518D01*
X207092740Y-94603000D01*
X207181260Y-94603000D01*
X207247442Y-94609518D01*
X207247442Y-94609518D01*
G37*
G36*
X202167442Y-94609518D02*
G01*
X202233627Y-94616037D01*
X202403466Y-94667557D01*
X202559991Y-94751222D01*
X202595729Y-94780552D01*
X202697186Y-94863814D01*
X202780448Y-94965271D01*
X202809778Y-95001009D01*
X202893443Y-95157534D01*
X202944963Y-95327373D01*
X202962359Y-95504000D01*
X202944963Y-95680627D01*
X202893443Y-95850466D01*
X202809778Y-96006991D01*
X202780448Y-96042729D01*
X202697186Y-96144186D01*
X202595729Y-96227448D01*
X202559991Y-96256778D01*
X202403466Y-96340443D01*
X202233627Y-96391963D01*
X202167442Y-96398482D01*
X202101260Y-96405000D01*
X202012740Y-96405000D01*
X201946558Y-96398482D01*
X201880373Y-96391963D01*
X201710534Y-96340443D01*
X201554009Y-96256778D01*
X201518271Y-96227448D01*
X201416814Y-96144186D01*
X201333552Y-96042729D01*
X201304222Y-96006991D01*
X201220557Y-95850466D01*
X201169037Y-95680627D01*
X201151641Y-95504000D01*
X201169037Y-95327373D01*
X201220557Y-95157534D01*
X201304222Y-95001009D01*
X201333552Y-94965271D01*
X201416814Y-94863814D01*
X201518271Y-94780552D01*
X201554009Y-94751222D01*
X201710534Y-94667557D01*
X201880373Y-94616037D01*
X201946558Y-94609518D01*
X202012740Y-94603000D01*
X202101260Y-94603000D01*
X202167442Y-94609518D01*
X202167442Y-94609518D01*
G37*
G36*
X199627442Y-94609518D02*
G01*
X199693627Y-94616037D01*
X199863466Y-94667557D01*
X200019991Y-94751222D01*
X200055729Y-94780552D01*
X200157186Y-94863814D01*
X200240448Y-94965271D01*
X200269778Y-95001009D01*
X200353443Y-95157534D01*
X200404963Y-95327373D01*
X200422359Y-95504000D01*
X200404963Y-95680627D01*
X200353443Y-95850466D01*
X200269778Y-96006991D01*
X200240448Y-96042729D01*
X200157186Y-96144186D01*
X200055729Y-96227448D01*
X200019991Y-96256778D01*
X199863466Y-96340443D01*
X199693627Y-96391963D01*
X199627442Y-96398482D01*
X199561260Y-96405000D01*
X199472740Y-96405000D01*
X199406558Y-96398482D01*
X199340373Y-96391963D01*
X199170534Y-96340443D01*
X199014009Y-96256778D01*
X198978271Y-96227448D01*
X198876814Y-96144186D01*
X198793552Y-96042729D01*
X198764222Y-96006991D01*
X198680557Y-95850466D01*
X198629037Y-95680627D01*
X198611641Y-95504000D01*
X198629037Y-95327373D01*
X198680557Y-95157534D01*
X198764222Y-95001009D01*
X198793552Y-94965271D01*
X198876814Y-94863814D01*
X198978271Y-94780552D01*
X199014009Y-94751222D01*
X199170534Y-94667557D01*
X199340373Y-94616037D01*
X199406558Y-94609518D01*
X199472740Y-94603000D01*
X199561260Y-94603000D01*
X199627442Y-94609518D01*
X199627442Y-94609518D01*
G37*
G36*
X197878000Y-96405000D02*
G01*
X196076000Y-96405000D01*
X196076000Y-94603000D01*
X197878000Y-94603000D01*
X197878000Y-96405000D01*
X197878000Y-96405000D01*
G37*
G36*
X204707442Y-94609518D02*
G01*
X204773627Y-94616037D01*
X204943466Y-94667557D01*
X205099991Y-94751222D01*
X205135729Y-94780552D01*
X205237186Y-94863814D01*
X205320448Y-94965271D01*
X205349778Y-95001009D01*
X205433443Y-95157534D01*
X205484963Y-95327373D01*
X205502359Y-95504000D01*
X205484963Y-95680627D01*
X205433443Y-95850466D01*
X205349778Y-96006991D01*
X205320448Y-96042729D01*
X205237186Y-96144186D01*
X205135729Y-96227448D01*
X205099991Y-96256778D01*
X204943466Y-96340443D01*
X204773627Y-96391963D01*
X204707442Y-96398482D01*
X204641260Y-96405000D01*
X204552740Y-96405000D01*
X204486558Y-96398482D01*
X204420373Y-96391963D01*
X204250534Y-96340443D01*
X204094009Y-96256778D01*
X204058271Y-96227448D01*
X203956814Y-96144186D01*
X203873552Y-96042729D01*
X203844222Y-96006991D01*
X203760557Y-95850466D01*
X203709037Y-95680627D01*
X203691641Y-95504000D01*
X203709037Y-95327373D01*
X203760557Y-95157534D01*
X203844222Y-95001009D01*
X203873552Y-94965271D01*
X203956814Y-94863814D01*
X204058271Y-94780552D01*
X204094009Y-94751222D01*
X204250534Y-94667557D01*
X204420373Y-94616037D01*
X204486558Y-94609518D01*
X204552740Y-94603000D01*
X204641260Y-94603000D01*
X204707442Y-94609518D01*
X204707442Y-94609518D01*
G37*
G36*
X174661000Y-96146000D02*
G01*
X173859000Y-96146000D01*
X173859000Y-95594000D01*
X174661000Y-95594000D01*
X174661000Y-96146000D01*
X174661000Y-96146000D01*
G37*
G36*
X181741000Y-96146000D02*
G01*
X180939000Y-96146000D01*
X180939000Y-95594000D01*
X181741000Y-95594000D01*
X181741000Y-96146000D01*
X181741000Y-96146000D01*
G37*
G36*
X231271000Y-96146000D02*
G01*
X230469000Y-96146000D01*
X230469000Y-95594000D01*
X231271000Y-95594000D01*
X231271000Y-96146000D01*
X231271000Y-96146000D01*
G37*
G36*
X224191000Y-96146000D02*
G01*
X223389000Y-96146000D01*
X223389000Y-95594000D01*
X224191000Y-95594000D01*
X224191000Y-96146000D01*
X224191000Y-96146000D01*
G37*
G36*
X202167443Y-92069519D02*
G01*
X202233627Y-92076037D01*
X202403466Y-92127557D01*
X202559991Y-92211222D01*
X202595729Y-92240552D01*
X202697186Y-92323814D01*
X202780448Y-92425271D01*
X202809778Y-92461009D01*
X202893443Y-92617534D01*
X202944963Y-92787373D01*
X202962359Y-92964000D01*
X202944963Y-93140627D01*
X202893443Y-93310466D01*
X202809778Y-93466991D01*
X202780448Y-93502729D01*
X202697186Y-93604186D01*
X202595729Y-93687448D01*
X202559991Y-93716778D01*
X202403466Y-93800443D01*
X202233627Y-93851963D01*
X202167443Y-93858481D01*
X202101260Y-93865000D01*
X202012740Y-93865000D01*
X201946557Y-93858481D01*
X201880373Y-93851963D01*
X201710534Y-93800443D01*
X201554009Y-93716778D01*
X201518271Y-93687448D01*
X201416814Y-93604186D01*
X201333552Y-93502729D01*
X201304222Y-93466991D01*
X201220557Y-93310466D01*
X201169037Y-93140627D01*
X201151641Y-92964000D01*
X201169037Y-92787373D01*
X201220557Y-92617534D01*
X201304222Y-92461009D01*
X201333552Y-92425271D01*
X201416814Y-92323814D01*
X201518271Y-92240552D01*
X201554009Y-92211222D01*
X201710534Y-92127557D01*
X201880373Y-92076037D01*
X201946557Y-92069519D01*
X202012740Y-92063000D01*
X202101260Y-92063000D01*
X202167443Y-92069519D01*
X202167443Y-92069519D01*
G37*
G36*
X209787443Y-92069519D02*
G01*
X209853627Y-92076037D01*
X210023466Y-92127557D01*
X210179991Y-92211222D01*
X210215729Y-92240552D01*
X210317186Y-92323814D01*
X210400448Y-92425271D01*
X210429778Y-92461009D01*
X210513443Y-92617534D01*
X210564963Y-92787373D01*
X210582359Y-92964000D01*
X210564963Y-93140627D01*
X210513443Y-93310466D01*
X210429778Y-93466991D01*
X210400448Y-93502729D01*
X210317186Y-93604186D01*
X210215729Y-93687448D01*
X210179991Y-93716778D01*
X210023466Y-93800443D01*
X209853627Y-93851963D01*
X209787443Y-93858481D01*
X209721260Y-93865000D01*
X209632740Y-93865000D01*
X209566557Y-93858481D01*
X209500373Y-93851963D01*
X209330534Y-93800443D01*
X209174009Y-93716778D01*
X209138271Y-93687448D01*
X209036814Y-93604186D01*
X208953552Y-93502729D01*
X208924222Y-93466991D01*
X208840557Y-93310466D01*
X208789037Y-93140627D01*
X208771641Y-92964000D01*
X208789037Y-92787373D01*
X208840557Y-92617534D01*
X208924222Y-92461009D01*
X208953552Y-92425271D01*
X209036814Y-92323814D01*
X209138271Y-92240552D01*
X209174009Y-92211222D01*
X209330534Y-92127557D01*
X209500373Y-92076037D01*
X209566557Y-92069519D01*
X209632740Y-92063000D01*
X209721260Y-92063000D01*
X209787443Y-92069519D01*
X209787443Y-92069519D01*
G37*
G36*
X207247443Y-92069519D02*
G01*
X207313627Y-92076037D01*
X207483466Y-92127557D01*
X207639991Y-92211222D01*
X207675729Y-92240552D01*
X207777186Y-92323814D01*
X207860448Y-92425271D01*
X207889778Y-92461009D01*
X207973443Y-92617534D01*
X208024963Y-92787373D01*
X208042359Y-92964000D01*
X208024963Y-93140627D01*
X207973443Y-93310466D01*
X207889778Y-93466991D01*
X207860448Y-93502729D01*
X207777186Y-93604186D01*
X207675729Y-93687448D01*
X207639991Y-93716778D01*
X207483466Y-93800443D01*
X207313627Y-93851963D01*
X207247443Y-93858481D01*
X207181260Y-93865000D01*
X207092740Y-93865000D01*
X207026557Y-93858481D01*
X206960373Y-93851963D01*
X206790534Y-93800443D01*
X206634009Y-93716778D01*
X206598271Y-93687448D01*
X206496814Y-93604186D01*
X206413552Y-93502729D01*
X206384222Y-93466991D01*
X206300557Y-93310466D01*
X206249037Y-93140627D01*
X206231641Y-92964000D01*
X206249037Y-92787373D01*
X206300557Y-92617534D01*
X206384222Y-92461009D01*
X206413552Y-92425271D01*
X206496814Y-92323814D01*
X206598271Y-92240552D01*
X206634009Y-92211222D01*
X206790534Y-92127557D01*
X206960373Y-92076037D01*
X207026557Y-92069519D01*
X207092740Y-92063000D01*
X207181260Y-92063000D01*
X207247443Y-92069519D01*
X207247443Y-92069519D01*
G37*
G36*
X204707443Y-92069519D02*
G01*
X204773627Y-92076037D01*
X204943466Y-92127557D01*
X205099991Y-92211222D01*
X205135729Y-92240552D01*
X205237186Y-92323814D01*
X205320448Y-92425271D01*
X205349778Y-92461009D01*
X205433443Y-92617534D01*
X205484963Y-92787373D01*
X205502359Y-92964000D01*
X205484963Y-93140627D01*
X205433443Y-93310466D01*
X205349778Y-93466991D01*
X205320448Y-93502729D01*
X205237186Y-93604186D01*
X205135729Y-93687448D01*
X205099991Y-93716778D01*
X204943466Y-93800443D01*
X204773627Y-93851963D01*
X204707443Y-93858481D01*
X204641260Y-93865000D01*
X204552740Y-93865000D01*
X204486557Y-93858481D01*
X204420373Y-93851963D01*
X204250534Y-93800443D01*
X204094009Y-93716778D01*
X204058271Y-93687448D01*
X203956814Y-93604186D01*
X203873552Y-93502729D01*
X203844222Y-93466991D01*
X203760557Y-93310466D01*
X203709037Y-93140627D01*
X203691641Y-92964000D01*
X203709037Y-92787373D01*
X203760557Y-92617534D01*
X203844222Y-92461009D01*
X203873552Y-92425271D01*
X203956814Y-92323814D01*
X204058271Y-92240552D01*
X204094009Y-92211222D01*
X204250534Y-92127557D01*
X204420373Y-92076037D01*
X204486557Y-92069519D01*
X204552740Y-92063000D01*
X204641260Y-92063000D01*
X204707443Y-92069519D01*
X204707443Y-92069519D01*
G37*
G36*
X197087443Y-92069519D02*
G01*
X197153627Y-92076037D01*
X197323466Y-92127557D01*
X197479991Y-92211222D01*
X197515729Y-92240552D01*
X197617186Y-92323814D01*
X197700448Y-92425271D01*
X197729778Y-92461009D01*
X197813443Y-92617534D01*
X197864963Y-92787373D01*
X197882359Y-92964000D01*
X197864963Y-93140627D01*
X197813443Y-93310466D01*
X197729778Y-93466991D01*
X197700448Y-93502729D01*
X197617186Y-93604186D01*
X197515729Y-93687448D01*
X197479991Y-93716778D01*
X197323466Y-93800443D01*
X197153627Y-93851963D01*
X197087443Y-93858481D01*
X197021260Y-93865000D01*
X196932740Y-93865000D01*
X196866557Y-93858481D01*
X196800373Y-93851963D01*
X196630534Y-93800443D01*
X196474009Y-93716778D01*
X196438271Y-93687448D01*
X196336814Y-93604186D01*
X196253552Y-93502729D01*
X196224222Y-93466991D01*
X196140557Y-93310466D01*
X196089037Y-93140627D01*
X196071641Y-92964000D01*
X196089037Y-92787373D01*
X196140557Y-92617534D01*
X196224222Y-92461009D01*
X196253552Y-92425271D01*
X196336814Y-92323814D01*
X196438271Y-92240552D01*
X196474009Y-92211222D01*
X196630534Y-92127557D01*
X196800373Y-92076037D01*
X196866557Y-92069519D01*
X196932740Y-92063000D01*
X197021260Y-92063000D01*
X197087443Y-92069519D01*
X197087443Y-92069519D01*
G37*
G36*
X199627443Y-92069519D02*
G01*
X199693627Y-92076037D01*
X199863466Y-92127557D01*
X200019991Y-92211222D01*
X200055729Y-92240552D01*
X200157186Y-92323814D01*
X200240448Y-92425271D01*
X200269778Y-92461009D01*
X200353443Y-92617534D01*
X200404963Y-92787373D01*
X200422359Y-92964000D01*
X200404963Y-93140627D01*
X200353443Y-93310466D01*
X200269778Y-93466991D01*
X200240448Y-93502729D01*
X200157186Y-93604186D01*
X200055729Y-93687448D01*
X200019991Y-93716778D01*
X199863466Y-93800443D01*
X199693627Y-93851963D01*
X199627443Y-93858481D01*
X199561260Y-93865000D01*
X199472740Y-93865000D01*
X199406557Y-93858481D01*
X199340373Y-93851963D01*
X199170534Y-93800443D01*
X199014009Y-93716778D01*
X198978271Y-93687448D01*
X198876814Y-93604186D01*
X198793552Y-93502729D01*
X198764222Y-93466991D01*
X198680557Y-93310466D01*
X198629037Y-93140627D01*
X198611641Y-92964000D01*
X198629037Y-92787373D01*
X198680557Y-92617534D01*
X198764222Y-92461009D01*
X198793552Y-92425271D01*
X198876814Y-92323814D01*
X198978271Y-92240552D01*
X199014009Y-92211222D01*
X199170534Y-92127557D01*
X199340373Y-92076037D01*
X199406557Y-92069519D01*
X199472740Y-92063000D01*
X199561260Y-92063000D01*
X199627443Y-92069519D01*
X199627443Y-92069519D01*
G37*
G36*
X231811000Y-92366000D02*
G01*
X231009000Y-92366000D01*
X231009000Y-91814000D01*
X231811000Y-91814000D01*
X231811000Y-92366000D01*
X231811000Y-92366000D01*
G37*
G36*
X182281000Y-92366000D02*
G01*
X181479000Y-92366000D01*
X181479000Y-91814000D01*
X182281000Y-91814000D01*
X182281000Y-92366000D01*
X182281000Y-92366000D01*
G37*
G36*
X233811000Y-91716000D02*
G01*
X233009000Y-91716000D01*
X233009000Y-91164000D01*
X233811000Y-91164000D01*
X233811000Y-91716000D01*
X233811000Y-91716000D01*
G37*
G36*
X184281000Y-91716000D02*
G01*
X183479000Y-91716000D01*
X183479000Y-91164000D01*
X184281000Y-91164000D01*
X184281000Y-91716000D01*
X184281000Y-91716000D01*
G37*
G36*
X182281000Y-91066000D02*
G01*
X181479000Y-91066000D01*
X181479000Y-90514000D01*
X182281000Y-90514000D01*
X182281000Y-91066000D01*
X182281000Y-91066000D01*
G37*
G36*
X231811000Y-91066000D02*
G01*
X231009000Y-91066000D01*
X231009000Y-90514000D01*
X231811000Y-90514000D01*
X231811000Y-91066000D01*
X231811000Y-91066000D01*
G37*
G36*
X229188674Y-85493465D02*
G01*
X229226367Y-85504899D01*
X229261103Y-85523466D01*
X229291548Y-85548452D01*
X229316534Y-85578897D01*
X229335101Y-85613633D01*
X229346535Y-85651326D01*
X229351000Y-85696661D01*
X229351000Y-86533339D01*
X229346535Y-86578674D01*
X229335101Y-86616367D01*
X229316534Y-86651103D01*
X229291548Y-86681548D01*
X229261103Y-86706534D01*
X229226367Y-86725101D01*
X229188674Y-86736535D01*
X229143339Y-86741000D01*
X228056661Y-86741000D01*
X228011326Y-86736535D01*
X227973633Y-86725101D01*
X227938897Y-86706534D01*
X227908452Y-86681548D01*
X227883466Y-86651103D01*
X227864899Y-86616367D01*
X227853465Y-86578674D01*
X227849000Y-86533339D01*
X227849000Y-85696661D01*
X227853465Y-85651326D01*
X227864899Y-85613633D01*
X227883466Y-85578897D01*
X227908452Y-85548452D01*
X227938897Y-85523466D01*
X227973633Y-85504899D01*
X228011326Y-85493465D01*
X228056661Y-85489000D01*
X229143339Y-85489000D01*
X229188674Y-85493465D01*
X229188674Y-85493465D01*
G37*
G36*
X226648674Y-85493465D02*
G01*
X226686367Y-85504899D01*
X226721103Y-85523466D01*
X226751548Y-85548452D01*
X226776534Y-85578897D01*
X226795101Y-85613633D01*
X226806535Y-85651326D01*
X226811000Y-85696661D01*
X226811000Y-86533339D01*
X226806535Y-86578674D01*
X226795101Y-86616367D01*
X226776534Y-86651103D01*
X226751548Y-86681548D01*
X226721103Y-86706534D01*
X226686367Y-86725101D01*
X226648674Y-86736535D01*
X226603339Y-86741000D01*
X225516661Y-86741000D01*
X225471326Y-86736535D01*
X225433633Y-86725101D01*
X225398897Y-86706534D01*
X225368452Y-86681548D01*
X225343466Y-86651103D01*
X225324899Y-86616367D01*
X225313465Y-86578674D01*
X225309000Y-86533339D01*
X225309000Y-85696661D01*
X225313465Y-85651326D01*
X225324899Y-85613633D01*
X225343466Y-85578897D01*
X225368452Y-85548452D01*
X225398897Y-85523466D01*
X225433633Y-85504899D01*
X225471326Y-85493465D01*
X225516661Y-85489000D01*
X226603339Y-85489000D01*
X226648674Y-85493465D01*
X226648674Y-85493465D01*
G37*
G36*
X179658674Y-85493465D02*
G01*
X179696367Y-85504899D01*
X179731103Y-85523466D01*
X179761548Y-85548452D01*
X179786534Y-85578897D01*
X179805101Y-85613633D01*
X179816535Y-85651326D01*
X179821000Y-85696661D01*
X179821000Y-86533339D01*
X179816535Y-86578674D01*
X179805101Y-86616367D01*
X179786534Y-86651103D01*
X179761548Y-86681548D01*
X179731103Y-86706534D01*
X179696367Y-86725101D01*
X179658674Y-86736535D01*
X179613339Y-86741000D01*
X178526661Y-86741000D01*
X178481326Y-86736535D01*
X178443633Y-86725101D01*
X178408897Y-86706534D01*
X178378452Y-86681548D01*
X178353466Y-86651103D01*
X178334899Y-86616367D01*
X178323465Y-86578674D01*
X178319000Y-86533339D01*
X178319000Y-85696661D01*
X178323465Y-85651326D01*
X178334899Y-85613633D01*
X178353466Y-85578897D01*
X178378452Y-85548452D01*
X178408897Y-85523466D01*
X178443633Y-85504899D01*
X178481326Y-85493465D01*
X178526661Y-85489000D01*
X179613339Y-85489000D01*
X179658674Y-85493465D01*
X179658674Y-85493465D01*
G37*
G36*
X177118674Y-85493465D02*
G01*
X177156367Y-85504899D01*
X177191103Y-85523466D01*
X177221548Y-85548452D01*
X177246534Y-85578897D01*
X177265101Y-85613633D01*
X177276535Y-85651326D01*
X177281000Y-85696661D01*
X177281000Y-86533339D01*
X177276535Y-86578674D01*
X177265101Y-86616367D01*
X177246534Y-86651103D01*
X177221548Y-86681548D01*
X177191103Y-86706534D01*
X177156367Y-86725101D01*
X177118674Y-86736535D01*
X177073339Y-86741000D01*
X175986661Y-86741000D01*
X175941326Y-86736535D01*
X175903633Y-86725101D01*
X175868897Y-86706534D01*
X175838452Y-86681548D01*
X175813466Y-86651103D01*
X175794899Y-86616367D01*
X175783465Y-86578674D01*
X175779000Y-86533339D01*
X175779000Y-85696661D01*
X175783465Y-85651326D01*
X175794899Y-85613633D01*
X175813466Y-85578897D01*
X175838452Y-85548452D01*
X175868897Y-85523466D01*
X175903633Y-85504899D01*
X175941326Y-85493465D01*
X175986661Y-85489000D01*
X177073339Y-85489000D01*
X177118674Y-85493465D01*
X177118674Y-85493465D01*
G37*
G36*
X229188674Y-83443465D02*
G01*
X229226367Y-83454899D01*
X229261103Y-83473466D01*
X229291548Y-83498452D01*
X229316534Y-83528897D01*
X229335101Y-83563633D01*
X229346535Y-83601326D01*
X229351000Y-83646661D01*
X229351000Y-84483339D01*
X229346535Y-84528674D01*
X229335101Y-84566367D01*
X229316534Y-84601103D01*
X229291548Y-84631548D01*
X229261103Y-84656534D01*
X229226367Y-84675101D01*
X229188674Y-84686535D01*
X229143339Y-84691000D01*
X228056661Y-84691000D01*
X228011326Y-84686535D01*
X227973633Y-84675101D01*
X227938897Y-84656534D01*
X227908452Y-84631548D01*
X227883466Y-84601103D01*
X227864899Y-84566367D01*
X227853465Y-84528674D01*
X227849000Y-84483339D01*
X227849000Y-83646661D01*
X227853465Y-83601326D01*
X227864899Y-83563633D01*
X227883466Y-83528897D01*
X227908452Y-83498452D01*
X227938897Y-83473466D01*
X227973633Y-83454899D01*
X228011326Y-83443465D01*
X228056661Y-83439000D01*
X229143339Y-83439000D01*
X229188674Y-83443465D01*
X229188674Y-83443465D01*
G37*
G36*
X226648674Y-83443465D02*
G01*
X226686367Y-83454899D01*
X226721103Y-83473466D01*
X226751548Y-83498452D01*
X226776534Y-83528897D01*
X226795101Y-83563633D01*
X226806535Y-83601326D01*
X226811000Y-83646661D01*
X226811000Y-84483339D01*
X226806535Y-84528674D01*
X226795101Y-84566367D01*
X226776534Y-84601103D01*
X226751548Y-84631548D01*
X226721103Y-84656534D01*
X226686367Y-84675101D01*
X226648674Y-84686535D01*
X226603339Y-84691000D01*
X225516661Y-84691000D01*
X225471326Y-84686535D01*
X225433633Y-84675101D01*
X225398897Y-84656534D01*
X225368452Y-84631548D01*
X225343466Y-84601103D01*
X225324899Y-84566367D01*
X225313465Y-84528674D01*
X225309000Y-84483339D01*
X225309000Y-83646661D01*
X225313465Y-83601326D01*
X225324899Y-83563633D01*
X225343466Y-83528897D01*
X225368452Y-83498452D01*
X225398897Y-83473466D01*
X225433633Y-83454899D01*
X225471326Y-83443465D01*
X225516661Y-83439000D01*
X226603339Y-83439000D01*
X226648674Y-83443465D01*
X226648674Y-83443465D01*
G37*
G36*
X179658674Y-83443465D02*
G01*
X179696367Y-83454899D01*
X179731103Y-83473466D01*
X179761548Y-83498452D01*
X179786534Y-83528897D01*
X179805101Y-83563633D01*
X179816535Y-83601326D01*
X179821000Y-83646661D01*
X179821000Y-84483339D01*
X179816535Y-84528674D01*
X179805101Y-84566367D01*
X179786534Y-84601103D01*
X179761548Y-84631548D01*
X179731103Y-84656534D01*
X179696367Y-84675101D01*
X179658674Y-84686535D01*
X179613339Y-84691000D01*
X178526661Y-84691000D01*
X178481326Y-84686535D01*
X178443633Y-84675101D01*
X178408897Y-84656534D01*
X178378452Y-84631548D01*
X178353466Y-84601103D01*
X178334899Y-84566367D01*
X178323465Y-84528674D01*
X178319000Y-84483339D01*
X178319000Y-83646661D01*
X178323465Y-83601326D01*
X178334899Y-83563633D01*
X178353466Y-83528897D01*
X178378452Y-83498452D01*
X178408897Y-83473466D01*
X178443633Y-83454899D01*
X178481326Y-83443465D01*
X178526661Y-83439000D01*
X179613339Y-83439000D01*
X179658674Y-83443465D01*
X179658674Y-83443465D01*
G37*
G36*
X177118674Y-83443465D02*
G01*
X177156367Y-83454899D01*
X177191103Y-83473466D01*
X177221548Y-83498452D01*
X177246534Y-83528897D01*
X177265101Y-83563633D01*
X177276535Y-83601326D01*
X177281000Y-83646661D01*
X177281000Y-84483339D01*
X177276535Y-84528674D01*
X177265101Y-84566367D01*
X177246534Y-84601103D01*
X177221548Y-84631548D01*
X177191103Y-84656534D01*
X177156367Y-84675101D01*
X177118674Y-84686535D01*
X177073339Y-84691000D01*
X175986661Y-84691000D01*
X175941326Y-84686535D01*
X175903633Y-84675101D01*
X175868897Y-84656534D01*
X175838452Y-84631548D01*
X175813466Y-84601103D01*
X175794899Y-84566367D01*
X175783465Y-84528674D01*
X175779000Y-84483339D01*
X175779000Y-83646661D01*
X175783465Y-83601326D01*
X175794899Y-83563633D01*
X175813466Y-83528897D01*
X175838452Y-83498452D01*
X175868897Y-83473466D01*
X175903633Y-83454899D01*
X175941326Y-83443465D01*
X175986661Y-83439000D01*
X177073339Y-83439000D01*
X177118674Y-83443465D01*
X177118674Y-83443465D01*
G37*
G36*
X172800674Y-81683465D02*
G01*
X172838367Y-81694899D01*
X172873103Y-81713466D01*
X172903548Y-81738452D01*
X172928534Y-81768897D01*
X172947101Y-81803633D01*
X172958535Y-81841326D01*
X172963000Y-81886661D01*
X172963000Y-82723339D01*
X172958535Y-82768674D01*
X172947101Y-82806367D01*
X172928534Y-82841103D01*
X172903548Y-82871548D01*
X172873103Y-82896534D01*
X172838367Y-82915101D01*
X172800674Y-82926535D01*
X172755339Y-82931000D01*
X171668661Y-82931000D01*
X171623326Y-82926535D01*
X171585633Y-82915101D01*
X171550897Y-82896534D01*
X171520452Y-82871548D01*
X171495466Y-82841103D01*
X171476899Y-82806367D01*
X171465465Y-82768674D01*
X171461000Y-82723339D01*
X171461000Y-81886661D01*
X171465465Y-81841326D01*
X171476899Y-81803633D01*
X171495466Y-81768897D01*
X171520452Y-81738452D01*
X171550897Y-81713466D01*
X171585633Y-81694899D01*
X171623326Y-81683465D01*
X171668661Y-81679000D01*
X172755339Y-81679000D01*
X172800674Y-81683465D01*
X172800674Y-81683465D01*
G37*
G36*
X221568674Y-81683465D02*
G01*
X221606367Y-81694899D01*
X221641103Y-81713466D01*
X221671548Y-81738452D01*
X221696534Y-81768897D01*
X221715101Y-81803633D01*
X221726535Y-81841326D01*
X221731000Y-81886661D01*
X221731000Y-82723339D01*
X221726535Y-82768674D01*
X221715101Y-82806367D01*
X221696534Y-82841103D01*
X221671548Y-82871548D01*
X221641103Y-82896534D01*
X221606367Y-82915101D01*
X221568674Y-82926535D01*
X221523339Y-82931000D01*
X220436661Y-82931000D01*
X220391326Y-82926535D01*
X220353633Y-82915101D01*
X220318897Y-82896534D01*
X220288452Y-82871548D01*
X220263466Y-82841103D01*
X220244899Y-82806367D01*
X220233465Y-82768674D01*
X220229000Y-82723339D01*
X220229000Y-81886661D01*
X220233465Y-81841326D01*
X220244899Y-81803633D01*
X220263466Y-81768897D01*
X220288452Y-81738452D01*
X220318897Y-81713466D01*
X220353633Y-81694899D01*
X220391326Y-81683465D01*
X220436661Y-81679000D01*
X221523339Y-81679000D01*
X221568674Y-81683465D01*
X221568674Y-81683465D01*
G37*
G36*
X172800674Y-79633465D02*
G01*
X172838367Y-79644899D01*
X172873103Y-79663466D01*
X172903548Y-79688452D01*
X172928534Y-79718897D01*
X172947101Y-79753633D01*
X172958535Y-79791326D01*
X172963000Y-79836661D01*
X172963000Y-80673339D01*
X172958535Y-80718674D01*
X172947101Y-80756367D01*
X172928534Y-80791103D01*
X172903548Y-80821548D01*
X172873103Y-80846534D01*
X172838367Y-80865101D01*
X172800674Y-80876535D01*
X172755339Y-80881000D01*
X171668661Y-80881000D01*
X171623326Y-80876535D01*
X171585633Y-80865101D01*
X171550897Y-80846534D01*
X171520452Y-80821548D01*
X171495466Y-80791103D01*
X171476899Y-80756367D01*
X171465465Y-80718674D01*
X171461000Y-80673339D01*
X171461000Y-79836661D01*
X171465465Y-79791326D01*
X171476899Y-79753633D01*
X171495466Y-79718897D01*
X171520452Y-79688452D01*
X171550897Y-79663466D01*
X171585633Y-79644899D01*
X171623326Y-79633465D01*
X171668661Y-79629000D01*
X172755339Y-79629000D01*
X172800674Y-79633465D01*
X172800674Y-79633465D01*
G37*
G36*
X221568674Y-79633465D02*
G01*
X221606367Y-79644899D01*
X221641103Y-79663466D01*
X221671548Y-79688452D01*
X221696534Y-79718897D01*
X221715101Y-79753633D01*
X221726535Y-79791326D01*
X221731000Y-79836661D01*
X221731000Y-80673339D01*
X221726535Y-80718674D01*
X221715101Y-80756367D01*
X221696534Y-80791103D01*
X221671548Y-80821548D01*
X221641103Y-80846534D01*
X221606367Y-80865101D01*
X221568674Y-80876535D01*
X221523339Y-80881000D01*
X220436661Y-80881000D01*
X220391326Y-80876535D01*
X220353633Y-80865101D01*
X220318897Y-80846534D01*
X220288452Y-80821548D01*
X220263466Y-80791103D01*
X220244899Y-80756367D01*
X220233465Y-80718674D01*
X220229000Y-80673339D01*
X220229000Y-79836661D01*
X220233465Y-79791326D01*
X220244899Y-79753633D01*
X220263466Y-79718897D01*
X220288452Y-79688452D01*
X220318897Y-79663466D01*
X220353633Y-79644899D01*
X220391326Y-79633465D01*
X220436661Y-79629000D01*
X221523339Y-79629000D01*
X221568674Y-79633465D01*
X221568674Y-79633465D01*
G37*
G36*
X184783000Y-77271000D02*
G01*
X182981000Y-77271000D01*
X182981000Y-75469000D01*
X184783000Y-75469000D01*
X184783000Y-77271000D01*
X184783000Y-77271000D01*
G37*
G36*
X173832442Y-75475518D02*
G01*
X173898627Y-75482037D01*
X174068466Y-75533557D01*
X174224991Y-75617222D01*
X174260729Y-75646552D01*
X174362186Y-75729814D01*
X174445448Y-75831271D01*
X174474778Y-75867009D01*
X174558443Y-76023534D01*
X174609963Y-76193373D01*
X174627359Y-76370000D01*
X174609963Y-76546627D01*
X174558443Y-76716466D01*
X174474778Y-76872991D01*
X174445448Y-76908729D01*
X174362186Y-77010186D01*
X174260729Y-77093448D01*
X174224991Y-77122778D01*
X174068466Y-77206443D01*
X173898627Y-77257963D01*
X173832443Y-77264481D01*
X173766260Y-77271000D01*
X173677740Y-77271000D01*
X173611557Y-77264481D01*
X173545373Y-77257963D01*
X173375534Y-77206443D01*
X173219009Y-77122778D01*
X173183271Y-77093448D01*
X173081814Y-77010186D01*
X172998552Y-76908729D01*
X172969222Y-76872991D01*
X172885557Y-76716466D01*
X172834037Y-76546627D01*
X172816641Y-76370000D01*
X172834037Y-76193373D01*
X172885557Y-76023534D01*
X172969222Y-75867009D01*
X172998552Y-75831271D01*
X173081814Y-75729814D01*
X173183271Y-75646552D01*
X173219009Y-75617222D01*
X173375534Y-75533557D01*
X173545373Y-75482037D01*
X173611558Y-75475518D01*
X173677740Y-75469000D01*
X173766260Y-75469000D01*
X173832442Y-75475518D01*
X173832442Y-75475518D01*
G37*
G36*
X176372442Y-75475518D02*
G01*
X176438627Y-75482037D01*
X176608466Y-75533557D01*
X176764991Y-75617222D01*
X176800729Y-75646552D01*
X176902186Y-75729814D01*
X176985448Y-75831271D01*
X177014778Y-75867009D01*
X177098443Y-76023534D01*
X177149963Y-76193373D01*
X177167359Y-76370000D01*
X177149963Y-76546627D01*
X177098443Y-76716466D01*
X177014778Y-76872991D01*
X176985448Y-76908729D01*
X176902186Y-77010186D01*
X176800729Y-77093448D01*
X176764991Y-77122778D01*
X176608466Y-77206443D01*
X176438627Y-77257963D01*
X176372443Y-77264481D01*
X176306260Y-77271000D01*
X176217740Y-77271000D01*
X176151557Y-77264481D01*
X176085373Y-77257963D01*
X175915534Y-77206443D01*
X175759009Y-77122778D01*
X175723271Y-77093448D01*
X175621814Y-77010186D01*
X175538552Y-76908729D01*
X175509222Y-76872991D01*
X175425557Y-76716466D01*
X175374037Y-76546627D01*
X175356641Y-76370000D01*
X175374037Y-76193373D01*
X175425557Y-76023534D01*
X175509222Y-75867009D01*
X175538552Y-75831271D01*
X175621814Y-75729814D01*
X175723271Y-75646552D01*
X175759009Y-75617222D01*
X175915534Y-75533557D01*
X176085373Y-75482037D01*
X176151558Y-75475518D01*
X176217740Y-75469000D01*
X176306260Y-75469000D01*
X176372442Y-75475518D01*
X176372442Y-75475518D01*
G37*
G36*
X178912442Y-75475518D02*
G01*
X178978627Y-75482037D01*
X179148466Y-75533557D01*
X179304991Y-75617222D01*
X179340729Y-75646552D01*
X179442186Y-75729814D01*
X179525448Y-75831271D01*
X179554778Y-75867009D01*
X179638443Y-76023534D01*
X179689963Y-76193373D01*
X179707359Y-76370000D01*
X179689963Y-76546627D01*
X179638443Y-76716466D01*
X179554778Y-76872991D01*
X179525448Y-76908729D01*
X179442186Y-77010186D01*
X179340729Y-77093448D01*
X179304991Y-77122778D01*
X179148466Y-77206443D01*
X178978627Y-77257963D01*
X178912443Y-77264481D01*
X178846260Y-77271000D01*
X178757740Y-77271000D01*
X178691557Y-77264481D01*
X178625373Y-77257963D01*
X178455534Y-77206443D01*
X178299009Y-77122778D01*
X178263271Y-77093448D01*
X178161814Y-77010186D01*
X178078552Y-76908729D01*
X178049222Y-76872991D01*
X177965557Y-76716466D01*
X177914037Y-76546627D01*
X177896641Y-76370000D01*
X177914037Y-76193373D01*
X177965557Y-76023534D01*
X178049222Y-75867009D01*
X178078552Y-75831271D01*
X178161814Y-75729814D01*
X178263271Y-75646552D01*
X178299009Y-75617222D01*
X178455534Y-75533557D01*
X178625373Y-75482037D01*
X178691558Y-75475518D01*
X178757740Y-75469000D01*
X178846260Y-75469000D01*
X178912442Y-75475518D01*
X178912442Y-75475518D01*
G37*
G36*
X181452442Y-75475518D02*
G01*
X181518627Y-75482037D01*
X181688466Y-75533557D01*
X181844991Y-75617222D01*
X181880729Y-75646552D01*
X181982186Y-75729814D01*
X182065448Y-75831271D01*
X182094778Y-75867009D01*
X182178443Y-76023534D01*
X182229963Y-76193373D01*
X182247359Y-76370000D01*
X182229963Y-76546627D01*
X182178443Y-76716466D01*
X182094778Y-76872991D01*
X182065448Y-76908729D01*
X181982186Y-77010186D01*
X181880729Y-77093448D01*
X181844991Y-77122778D01*
X181688466Y-77206443D01*
X181518627Y-77257963D01*
X181452443Y-77264481D01*
X181386260Y-77271000D01*
X181297740Y-77271000D01*
X181231557Y-77264481D01*
X181165373Y-77257963D01*
X180995534Y-77206443D01*
X180839009Y-77122778D01*
X180803271Y-77093448D01*
X180701814Y-77010186D01*
X180618552Y-76908729D01*
X180589222Y-76872991D01*
X180505557Y-76716466D01*
X180454037Y-76546627D01*
X180436641Y-76370000D01*
X180454037Y-76193373D01*
X180505557Y-76023534D01*
X180589222Y-75867009D01*
X180618552Y-75831271D01*
X180701814Y-75729814D01*
X180803271Y-75646552D01*
X180839009Y-75617222D01*
X180995534Y-75533557D01*
X181165373Y-75482037D01*
X181231558Y-75475518D01*
X181297740Y-75469000D01*
X181386260Y-75469000D01*
X181452442Y-75475518D01*
X181452442Y-75475518D01*
G37*
G36*
X222882442Y-75475518D02*
G01*
X222948627Y-75482037D01*
X223118466Y-75533557D01*
X223274991Y-75617222D01*
X223310729Y-75646552D01*
X223412186Y-75729814D01*
X223495448Y-75831271D01*
X223524778Y-75867009D01*
X223608443Y-76023534D01*
X223659963Y-76193373D01*
X223677359Y-76370000D01*
X223659963Y-76546627D01*
X223608443Y-76716466D01*
X223524778Y-76872991D01*
X223495448Y-76908729D01*
X223412186Y-77010186D01*
X223310729Y-77093448D01*
X223274991Y-77122778D01*
X223118466Y-77206443D01*
X222948627Y-77257963D01*
X222882443Y-77264481D01*
X222816260Y-77271000D01*
X222727740Y-77271000D01*
X222661557Y-77264481D01*
X222595373Y-77257963D01*
X222425534Y-77206443D01*
X222269009Y-77122778D01*
X222233271Y-77093448D01*
X222131814Y-77010186D01*
X222048552Y-76908729D01*
X222019222Y-76872991D01*
X221935557Y-76716466D01*
X221884037Y-76546627D01*
X221866641Y-76370000D01*
X221884037Y-76193373D01*
X221935557Y-76023534D01*
X222019222Y-75867009D01*
X222048552Y-75831271D01*
X222131814Y-75729814D01*
X222233271Y-75646552D01*
X222269009Y-75617222D01*
X222425534Y-75533557D01*
X222595373Y-75482037D01*
X222661558Y-75475518D01*
X222727740Y-75469000D01*
X222816260Y-75469000D01*
X222882442Y-75475518D01*
X222882442Y-75475518D01*
G37*
G36*
X225422442Y-75475518D02*
G01*
X225488627Y-75482037D01*
X225658466Y-75533557D01*
X225814991Y-75617222D01*
X225850729Y-75646552D01*
X225952186Y-75729814D01*
X226035448Y-75831271D01*
X226064778Y-75867009D01*
X226148443Y-76023534D01*
X226199963Y-76193373D01*
X226217359Y-76370000D01*
X226199963Y-76546627D01*
X226148443Y-76716466D01*
X226064778Y-76872991D01*
X226035448Y-76908729D01*
X225952186Y-77010186D01*
X225850729Y-77093448D01*
X225814991Y-77122778D01*
X225658466Y-77206443D01*
X225488627Y-77257963D01*
X225422443Y-77264481D01*
X225356260Y-77271000D01*
X225267740Y-77271000D01*
X225201557Y-77264481D01*
X225135373Y-77257963D01*
X224965534Y-77206443D01*
X224809009Y-77122778D01*
X224773271Y-77093448D01*
X224671814Y-77010186D01*
X224588552Y-76908729D01*
X224559222Y-76872991D01*
X224475557Y-76716466D01*
X224424037Y-76546627D01*
X224406641Y-76370000D01*
X224424037Y-76193373D01*
X224475557Y-76023534D01*
X224559222Y-75867009D01*
X224588552Y-75831271D01*
X224671814Y-75729814D01*
X224773271Y-75646552D01*
X224809009Y-75617222D01*
X224965534Y-75533557D01*
X225135373Y-75482037D01*
X225201558Y-75475518D01*
X225267740Y-75469000D01*
X225356260Y-75469000D01*
X225422442Y-75475518D01*
X225422442Y-75475518D01*
G37*
G36*
X227962442Y-75475518D02*
G01*
X228028627Y-75482037D01*
X228198466Y-75533557D01*
X228354991Y-75617222D01*
X228390729Y-75646552D01*
X228492186Y-75729814D01*
X228575448Y-75831271D01*
X228604778Y-75867009D01*
X228688443Y-76023534D01*
X228739963Y-76193373D01*
X228757359Y-76370000D01*
X228739963Y-76546627D01*
X228688443Y-76716466D01*
X228604778Y-76872991D01*
X228575448Y-76908729D01*
X228492186Y-77010186D01*
X228390729Y-77093448D01*
X228354991Y-77122778D01*
X228198466Y-77206443D01*
X228028627Y-77257963D01*
X227962443Y-77264481D01*
X227896260Y-77271000D01*
X227807740Y-77271000D01*
X227741557Y-77264481D01*
X227675373Y-77257963D01*
X227505534Y-77206443D01*
X227349009Y-77122778D01*
X227313271Y-77093448D01*
X227211814Y-77010186D01*
X227128552Y-76908729D01*
X227099222Y-76872991D01*
X227015557Y-76716466D01*
X226964037Y-76546627D01*
X226946641Y-76370000D01*
X226964037Y-76193373D01*
X227015557Y-76023534D01*
X227099222Y-75867009D01*
X227128552Y-75831271D01*
X227211814Y-75729814D01*
X227313271Y-75646552D01*
X227349009Y-75617222D01*
X227505534Y-75533557D01*
X227675373Y-75482037D01*
X227741558Y-75475518D01*
X227807740Y-75469000D01*
X227896260Y-75469000D01*
X227962442Y-75475518D01*
X227962442Y-75475518D01*
G37*
G36*
X230502442Y-75475518D02*
G01*
X230568627Y-75482037D01*
X230738466Y-75533557D01*
X230894991Y-75617222D01*
X230930729Y-75646552D01*
X231032186Y-75729814D01*
X231115448Y-75831271D01*
X231144778Y-75867009D01*
X231228443Y-76023534D01*
X231279963Y-76193373D01*
X231297359Y-76370000D01*
X231279963Y-76546627D01*
X231228443Y-76716466D01*
X231144778Y-76872991D01*
X231115448Y-76908729D01*
X231032186Y-77010186D01*
X230930729Y-77093448D01*
X230894991Y-77122778D01*
X230738466Y-77206443D01*
X230568627Y-77257963D01*
X230502443Y-77264481D01*
X230436260Y-77271000D01*
X230347740Y-77271000D01*
X230281557Y-77264481D01*
X230215373Y-77257963D01*
X230045534Y-77206443D01*
X229889009Y-77122778D01*
X229853271Y-77093448D01*
X229751814Y-77010186D01*
X229668552Y-76908729D01*
X229639222Y-76872991D01*
X229555557Y-76716466D01*
X229504037Y-76546627D01*
X229486641Y-76370000D01*
X229504037Y-76193373D01*
X229555557Y-76023534D01*
X229639222Y-75867009D01*
X229668552Y-75831271D01*
X229751814Y-75729814D01*
X229853271Y-75646552D01*
X229889009Y-75617222D01*
X230045534Y-75533557D01*
X230215373Y-75482037D01*
X230281558Y-75475518D01*
X230347740Y-75469000D01*
X230436260Y-75469000D01*
X230502442Y-75475518D01*
X230502442Y-75475518D01*
G37*
G36*
X233833000Y-77271000D02*
G01*
X232031000Y-77271000D01*
X232031000Y-75469000D01*
X233833000Y-75469000D01*
X233833000Y-77271000D01*
X233833000Y-77271000D01*
G37*
G36*
X228151272Y-68353428D02*
G01*
X228337991Y-68430770D01*
X228337993Y-68430771D01*
X228506037Y-68543054D01*
X228648946Y-68685963D01*
X228761229Y-68854007D01*
X228761230Y-68854009D01*
X228838572Y-69040728D01*
X228878000Y-69238947D01*
X228878000Y-69441053D01*
X228838572Y-69639272D01*
X228761230Y-69825991D01*
X228761229Y-69825993D01*
X228648946Y-69994037D01*
X228506037Y-70136946D01*
X228337993Y-70249229D01*
X228337992Y-70249230D01*
X228337991Y-70249230D01*
X228151272Y-70326572D01*
X227953053Y-70366000D01*
X227750947Y-70366000D01*
X227552728Y-70326572D01*
X227366009Y-70249230D01*
X227366008Y-70249230D01*
X227366007Y-70249229D01*
X227197963Y-70136946D01*
X227055054Y-69994037D01*
X226942771Y-69825993D01*
X226942770Y-69825991D01*
X226865428Y-69639272D01*
X226826000Y-69441053D01*
X226826000Y-69238947D01*
X226865428Y-69040728D01*
X226942770Y-68854009D01*
X226942771Y-68854007D01*
X227055054Y-68685963D01*
X227197963Y-68543054D01*
X227366007Y-68430771D01*
X227366009Y-68430770D01*
X227552728Y-68353428D01*
X227750947Y-68314000D01*
X227953053Y-68314000D01*
X228151272Y-68353428D01*
X228151272Y-68353428D01*
G37*
G36*
X223071272Y-68353428D02*
G01*
X223257991Y-68430770D01*
X223257993Y-68430771D01*
X223426037Y-68543054D01*
X223568946Y-68685963D01*
X223681229Y-68854007D01*
X223681230Y-68854009D01*
X223758572Y-69040728D01*
X223798000Y-69238947D01*
X223798000Y-69441053D01*
X223758572Y-69639272D01*
X223681230Y-69825991D01*
X223681229Y-69825993D01*
X223568946Y-69994037D01*
X223426037Y-70136946D01*
X223257993Y-70249229D01*
X223257992Y-70249230D01*
X223257991Y-70249230D01*
X223071272Y-70326572D01*
X222873053Y-70366000D01*
X222670947Y-70366000D01*
X222472728Y-70326572D01*
X222286009Y-70249230D01*
X222286008Y-70249230D01*
X222286007Y-70249229D01*
X222117963Y-70136946D01*
X221975054Y-69994037D01*
X221862771Y-69825993D01*
X221862770Y-69825991D01*
X221785428Y-69639272D01*
X221746000Y-69441053D01*
X221746000Y-69238947D01*
X221785428Y-69040728D01*
X221862770Y-68854009D01*
X221862771Y-68854007D01*
X221975054Y-68685963D01*
X222117963Y-68543054D01*
X222286007Y-68430771D01*
X222286009Y-68430770D01*
X222472728Y-68353428D01*
X222670947Y-68314000D01*
X222873053Y-68314000D01*
X223071272Y-68353428D01*
X223071272Y-68353428D01*
G37*
G36*
X225611272Y-68353428D02*
G01*
X225797991Y-68430770D01*
X225797993Y-68430771D01*
X225966037Y-68543054D01*
X226108946Y-68685963D01*
X226221229Y-68854007D01*
X226221230Y-68854009D01*
X226298572Y-69040728D01*
X226338000Y-69238947D01*
X226338000Y-69441053D01*
X226298572Y-69639272D01*
X226221230Y-69825991D01*
X226221229Y-69825993D01*
X226108946Y-69994037D01*
X225966037Y-70136946D01*
X225797993Y-70249229D01*
X225797992Y-70249230D01*
X225797991Y-70249230D01*
X225611272Y-70326572D01*
X225413053Y-70366000D01*
X225210947Y-70366000D01*
X225012728Y-70326572D01*
X224826009Y-70249230D01*
X224826008Y-70249230D01*
X224826007Y-70249229D01*
X224657963Y-70136946D01*
X224515054Y-69994037D01*
X224402771Y-69825993D01*
X224402770Y-69825991D01*
X224325428Y-69639272D01*
X224286000Y-69441053D01*
X224286000Y-69238947D01*
X224325428Y-69040728D01*
X224402770Y-68854009D01*
X224402771Y-68854007D01*
X224515054Y-68685963D01*
X224657963Y-68543054D01*
X224826007Y-68430771D01*
X224826009Y-68430770D01*
X225012728Y-68353428D01*
X225210947Y-68314000D01*
X225413053Y-68314000D01*
X225611272Y-68353428D01*
X225611272Y-68353428D01*
G37*
G36*
X233958000Y-70366000D02*
G01*
X231906000Y-70366000D01*
X231906000Y-68314000D01*
X233958000Y-68314000D01*
X233958000Y-70366000D01*
X233958000Y-70366000D01*
G37*
G36*
X230691272Y-68353428D02*
G01*
X230877991Y-68430770D01*
X230877993Y-68430771D01*
X231046037Y-68543054D01*
X231188946Y-68685963D01*
X231301229Y-68854007D01*
X231301230Y-68854009D01*
X231378572Y-69040728D01*
X231418000Y-69238947D01*
X231418000Y-69441053D01*
X231378572Y-69639272D01*
X231301230Y-69825991D01*
X231301229Y-69825993D01*
X231188946Y-69994037D01*
X231046037Y-70136946D01*
X230877993Y-70249229D01*
X230877992Y-70249230D01*
X230877991Y-70249230D01*
X230691272Y-70326572D01*
X230493053Y-70366000D01*
X230290947Y-70366000D01*
X230092728Y-70326572D01*
X229906009Y-70249230D01*
X229906008Y-70249230D01*
X229906007Y-70249229D01*
X229737963Y-70136946D01*
X229595054Y-69994037D01*
X229482771Y-69825993D01*
X229482770Y-69825991D01*
X229405428Y-69639272D01*
X229366000Y-69441053D01*
X229366000Y-69238947D01*
X229405428Y-69040728D01*
X229482770Y-68854009D01*
X229482771Y-68854007D01*
X229595054Y-68685963D01*
X229737963Y-68543054D01*
X229906007Y-68430771D01*
X229906009Y-68430770D01*
X230092728Y-68353428D01*
X230290947Y-68314000D01*
X230493053Y-68314000D01*
X230691272Y-68353428D01*
X230691272Y-68353428D01*
G37*
G36*
X184908000Y-70366000D02*
G01*
X182856000Y-70366000D01*
X182856000Y-68314000D01*
X184908000Y-68314000D01*
X184908000Y-70366000D01*
X184908000Y-70366000D01*
G37*
G36*
X181641272Y-68353428D02*
G01*
X181827991Y-68430770D01*
X181827993Y-68430771D01*
X181996037Y-68543054D01*
X182138946Y-68685963D01*
X182251229Y-68854007D01*
X182251230Y-68854009D01*
X182328572Y-69040728D01*
X182368000Y-69238947D01*
X182368000Y-69441053D01*
X182328572Y-69639272D01*
X182251230Y-69825991D01*
X182251229Y-69825993D01*
X182138946Y-69994037D01*
X181996037Y-70136946D01*
X181827993Y-70249229D01*
X181827992Y-70249230D01*
X181827991Y-70249230D01*
X181641272Y-70326572D01*
X181443053Y-70366000D01*
X181240947Y-70366000D01*
X181042728Y-70326572D01*
X180856009Y-70249230D01*
X180856008Y-70249230D01*
X180856007Y-70249229D01*
X180687963Y-70136946D01*
X180545054Y-69994037D01*
X180432771Y-69825993D01*
X180432770Y-69825991D01*
X180355428Y-69639272D01*
X180316000Y-69441053D01*
X180316000Y-69238947D01*
X180355428Y-69040728D01*
X180432770Y-68854009D01*
X180432771Y-68854007D01*
X180545054Y-68685963D01*
X180687963Y-68543054D01*
X180856007Y-68430771D01*
X180856009Y-68430770D01*
X181042728Y-68353428D01*
X181240947Y-68314000D01*
X181443053Y-68314000D01*
X181641272Y-68353428D01*
X181641272Y-68353428D01*
G37*
G36*
X179101272Y-68353428D02*
G01*
X179287991Y-68430770D01*
X179287993Y-68430771D01*
X179456037Y-68543054D01*
X179598946Y-68685963D01*
X179711229Y-68854007D01*
X179711230Y-68854009D01*
X179788572Y-69040728D01*
X179828000Y-69238947D01*
X179828000Y-69441053D01*
X179788572Y-69639272D01*
X179711230Y-69825991D01*
X179711229Y-69825993D01*
X179598946Y-69994037D01*
X179456037Y-70136946D01*
X179287993Y-70249229D01*
X179287992Y-70249230D01*
X179287991Y-70249230D01*
X179101272Y-70326572D01*
X178903053Y-70366000D01*
X178700947Y-70366000D01*
X178502728Y-70326572D01*
X178316009Y-70249230D01*
X178316008Y-70249230D01*
X178316007Y-70249229D01*
X178147963Y-70136946D01*
X178005054Y-69994037D01*
X177892771Y-69825993D01*
X177892770Y-69825991D01*
X177815428Y-69639272D01*
X177776000Y-69441053D01*
X177776000Y-69238947D01*
X177815428Y-69040728D01*
X177892770Y-68854009D01*
X177892771Y-68854007D01*
X178005054Y-68685963D01*
X178147963Y-68543054D01*
X178316007Y-68430771D01*
X178316009Y-68430770D01*
X178502728Y-68353428D01*
X178700947Y-68314000D01*
X178903053Y-68314000D01*
X179101272Y-68353428D01*
X179101272Y-68353428D01*
G37*
G36*
X176561272Y-68353428D02*
G01*
X176747991Y-68430770D01*
X176747993Y-68430771D01*
X176916037Y-68543054D01*
X177058946Y-68685963D01*
X177171229Y-68854007D01*
X177171230Y-68854009D01*
X177248572Y-69040728D01*
X177288000Y-69238947D01*
X177288000Y-69441053D01*
X177248572Y-69639272D01*
X177171230Y-69825991D01*
X177171229Y-69825993D01*
X177058946Y-69994037D01*
X176916037Y-70136946D01*
X176747993Y-70249229D01*
X176747992Y-70249230D01*
X176747991Y-70249230D01*
X176561272Y-70326572D01*
X176363053Y-70366000D01*
X176160947Y-70366000D01*
X175962728Y-70326572D01*
X175776009Y-70249230D01*
X175776008Y-70249230D01*
X175776007Y-70249229D01*
X175607963Y-70136946D01*
X175465054Y-69994037D01*
X175352771Y-69825993D01*
X175352770Y-69825991D01*
X175275428Y-69639272D01*
X175236000Y-69441053D01*
X175236000Y-69238947D01*
X175275428Y-69040728D01*
X175352770Y-68854009D01*
X175352771Y-68854007D01*
X175465054Y-68685963D01*
X175607963Y-68543054D01*
X175776007Y-68430771D01*
X175776009Y-68430770D01*
X175962728Y-68353428D01*
X176160947Y-68314000D01*
X176363053Y-68314000D01*
X176561272Y-68353428D01*
X176561272Y-68353428D01*
G37*
G36*
X174021272Y-68353428D02*
G01*
X174207991Y-68430770D01*
X174207993Y-68430771D01*
X174376037Y-68543054D01*
X174518946Y-68685963D01*
X174631229Y-68854007D01*
X174631230Y-68854009D01*
X174708572Y-69040728D01*
X174748000Y-69238947D01*
X174748000Y-69441053D01*
X174708572Y-69639272D01*
X174631230Y-69825991D01*
X174631229Y-69825993D01*
X174518946Y-69994037D01*
X174376037Y-70136946D01*
X174207993Y-70249229D01*
X174207992Y-70249230D01*
X174207991Y-70249230D01*
X174021272Y-70326572D01*
X173823053Y-70366000D01*
X173620947Y-70366000D01*
X173422728Y-70326572D01*
X173236009Y-70249230D01*
X173236008Y-70249230D01*
X173236007Y-70249229D01*
X173067963Y-70136946D01*
X172925054Y-69994037D01*
X172812771Y-69825993D01*
X172812770Y-69825991D01*
X172735428Y-69639272D01*
X172696000Y-69441053D01*
X172696000Y-69238947D01*
X172735428Y-69040728D01*
X172812770Y-68854009D01*
X172812771Y-68854007D01*
X172925054Y-68685963D01*
X173067963Y-68543054D01*
X173236007Y-68430771D01*
X173236009Y-68430770D01*
X173422728Y-68353428D01*
X173620947Y-68314000D01*
X173823053Y-68314000D01*
X174021272Y-68353428D01*
X174021272Y-68353428D01*
G37*
M02*
