G04 #@! TF.GenerationSoftware,KiCad,Pcbnew,(5.1.0)-1*
G04 #@! TF.CreationDate,2019-04-10T22:13:11-07:00*
G04 #@! TF.ProjectId,HS_2CH_RTD_Module,48535f32-4348-45f5-9254-445f4d6f6475,rev?*
G04 #@! TF.SameCoordinates,Original*
G04 #@! TF.FileFunction,Legend,Bot*
G04 #@! TF.FilePolarity,Positive*
%FSLAX46Y46*%
G04 Gerber Fmt 4.6, Leading zero omitted, Abs format (unit mm)*
G04 Created by KiCad (PCBNEW (5.1.0)-1) date 2019-04-10 22:13:11*
%MOMM*%
%LPD*%
G04 APERTURE LIST*
%ADD10C,0.120000*%
%ADD11C,0.150000*%
G04 APERTURE END LIST*
D10*
X198680000Y-119641252D02*
X198680000Y-119118748D01*
X200100000Y-119641252D02*
X200100000Y-119118748D01*
X232970000Y-119641252D02*
X232970000Y-119118748D01*
X234390000Y-119641252D02*
X234390000Y-119118748D01*
D11*
X201492380Y-119213333D02*
X201016190Y-118880000D01*
X201492380Y-118641904D02*
X200492380Y-118641904D01*
X200492380Y-119022857D01*
X200540000Y-119118095D01*
X200587619Y-119165714D01*
X200682857Y-119213333D01*
X200825714Y-119213333D01*
X200920952Y-119165714D01*
X200968571Y-119118095D01*
X201016190Y-119022857D01*
X201016190Y-118641904D01*
X201492380Y-120165714D02*
X201492380Y-119594285D01*
X201492380Y-119880000D02*
X200492380Y-119880000D01*
X200635238Y-119784761D01*
X200730476Y-119689523D01*
X200778095Y-119594285D01*
X235782380Y-119213333D02*
X235306190Y-118880000D01*
X235782380Y-118641904D02*
X234782380Y-118641904D01*
X234782380Y-119022857D01*
X234830000Y-119118095D01*
X234877619Y-119165714D01*
X234972857Y-119213333D01*
X235115714Y-119213333D01*
X235210952Y-119165714D01*
X235258571Y-119118095D01*
X235306190Y-119022857D01*
X235306190Y-118641904D01*
X234877619Y-119594285D02*
X234830000Y-119641904D01*
X234782380Y-119737142D01*
X234782380Y-119975238D01*
X234830000Y-120070476D01*
X234877619Y-120118095D01*
X234972857Y-120165714D01*
X235068095Y-120165714D01*
X235210952Y-120118095D01*
X235782380Y-119546666D01*
X235782380Y-120165714D01*
M02*
