M48
; DRILL file {KiCad (5.1.0)-1} date 4/10/2019 10:12:56 PM
; FORMAT={-:-/ absolute / metric / decimal}
; #@! TF.CreationDate,2019-04-10T22:12:56-07:00
; #@! TF.GenerationSoftware,Kicad,Pcbnew,(5.1.0)-1
FMAT,2
METRIC
T1C0.400
T2C1.000
T3C1.300
%
G90
G05
T1
X172.72Y-97.79
X181.61Y-85.09
X181.61Y-93.98
X181.61Y-105.41
X186.69Y-85.09
X186.69Y-105.41
X195.58Y-118.11
X195.58Y-120.65
X201.93Y-128.27
X204.47Y-130.81
X214.63Y-124.46
X222.25Y-97.79
X223.52Y-105.41
X231.14Y-85.09
X231.14Y-93.98
X231.14Y-105.41
X231.14Y-118.11
X231.14Y-120.65
X234.95Y-85.09
T2
X173.228Y-113.03
X173.228Y-115.57
X173.228Y-118.11
X173.228Y-120.65
X173.228Y-123.19
X173.228Y-125.73
X173.228Y-128.27
X173.228Y-130.81
X173.228Y-133.35
X173.228Y-135.89
X173.722Y-76.37
X176.262Y-76.37
X178.802Y-76.37
X181.342Y-76.37
X183.882Y-76.37
X233.68Y-123.19
X233.68Y-125.73
X233.68Y-128.27
X233.68Y-130.81
X233.68Y-133.35
X233.68Y-135.89
X196.977Y-92.964
X196.977Y-95.504
X199.517Y-92.964
X199.517Y-95.504
X202.057Y-92.964
X202.057Y-95.504
X204.597Y-92.964
X204.597Y-95.504
X207.137Y-92.964
X207.137Y-95.504
X209.677Y-92.964
X209.677Y-95.504
X207.01Y-113.03
X207.01Y-115.57
X207.01Y-118.11
X207.01Y-120.65
X207.01Y-123.19
X207.01Y-125.73
X207.01Y-128.27
X207.01Y-130.81
X207.01Y-133.35
X207.01Y-135.89
X199.39Y-123.19
X199.39Y-125.73
X199.39Y-128.27
X199.39Y-130.81
X199.39Y-133.35
X199.39Y-135.89
X222.772Y-76.37
X225.312Y-76.37
X227.852Y-76.37
X230.392Y-76.37
X232.932Y-76.37
T3
X173.722Y-69.34
X176.262Y-69.34
X178.802Y-69.34
X181.342Y-69.34
X183.882Y-69.34
X222.772Y-69.34
X225.312Y-69.34
X227.852Y-69.34
X230.392Y-69.34
X232.932Y-69.34
T0
M30
