G04 #@! TF.GenerationSoftware,KiCad,Pcbnew,(5.1.0)-1*
G04 #@! TF.CreationDate,2019-04-10T22:13:11-07:00*
G04 #@! TF.ProjectId,HS_2CH_RTD_Module,48535f32-4348-45f5-9254-445f4d6f6475,rev?*
G04 #@! TF.SameCoordinates,Original*
G04 #@! TF.FileFunction,Copper,L2,Bot*
G04 #@! TF.FilePolarity,Positive*
%FSLAX46Y46*%
G04 Gerber Fmt 4.6, Leading zero omitted, Abs format (unit mm)*
G04 Created by KiCad (PCBNEW (5.1.0)-1) date 2019-04-10 22:13:11*
%MOMM*%
%LPD*%
G04 APERTURE LIST*
%ADD10C,1.950000*%
%ADD11R,1.950000X1.950000*%
%ADD12R,1.700000X1.700000*%
%ADD13O,1.700000X1.700000*%
%ADD14C,0.100000*%
%ADD15C,1.150000*%
%ADD16C,0.800000*%
%ADD17C,1.000000*%
%ADD18C,0.250000*%
%ADD19C,0.254000*%
G04 APERTURE END LIST*
D10*
X173722000Y-69340000D03*
X176262000Y-69340000D03*
X178802000Y-69340000D03*
X181342000Y-69340000D03*
D11*
X183882000Y-69340000D03*
X232932000Y-69340000D03*
D10*
X230392000Y-69340000D03*
X227852000Y-69340000D03*
X225312000Y-69340000D03*
X222772000Y-69340000D03*
D12*
X196977000Y-95504000D03*
D13*
X196977000Y-92964000D03*
X199517000Y-95504000D03*
X199517000Y-92964000D03*
X202057000Y-95504000D03*
X202057000Y-92964000D03*
X204597000Y-95504000D03*
X204597000Y-92964000D03*
X207137000Y-95504000D03*
X207137000Y-92964000D03*
X209677000Y-95504000D03*
X209677000Y-92964000D03*
D12*
X199390000Y-123190000D03*
D13*
X199390000Y-125730000D03*
X199390000Y-128270000D03*
X199390000Y-130810000D03*
X199390000Y-133350000D03*
X199390000Y-135890000D03*
D12*
X173228000Y-135890000D03*
D13*
X173228000Y-133350000D03*
X173228000Y-130810000D03*
X173228000Y-128270000D03*
X173228000Y-125730000D03*
X173228000Y-123190000D03*
X173228000Y-120650000D03*
X173228000Y-118110000D03*
X173228000Y-115570000D03*
X173228000Y-113030000D03*
D14*
G36*
X199864505Y-117781204D02*
G01*
X199888773Y-117784804D01*
X199912572Y-117790765D01*
X199935671Y-117799030D01*
X199957850Y-117809520D01*
X199978893Y-117822132D01*
X199998599Y-117836747D01*
X200016777Y-117853223D01*
X200033253Y-117871401D01*
X200047868Y-117891107D01*
X200060480Y-117912150D01*
X200070970Y-117934329D01*
X200079235Y-117957428D01*
X200085196Y-117981227D01*
X200088796Y-118005495D01*
X200090000Y-118029999D01*
X200090000Y-118680001D01*
X200088796Y-118704505D01*
X200085196Y-118728773D01*
X200079235Y-118752572D01*
X200070970Y-118775671D01*
X200060480Y-118797850D01*
X200047868Y-118818893D01*
X200033253Y-118838599D01*
X200016777Y-118856777D01*
X199998599Y-118873253D01*
X199978893Y-118887868D01*
X199957850Y-118900480D01*
X199935671Y-118910970D01*
X199912572Y-118919235D01*
X199888773Y-118925196D01*
X199864505Y-118928796D01*
X199840001Y-118930000D01*
X198939999Y-118930000D01*
X198915495Y-118928796D01*
X198891227Y-118925196D01*
X198867428Y-118919235D01*
X198844329Y-118910970D01*
X198822150Y-118900480D01*
X198801107Y-118887868D01*
X198781401Y-118873253D01*
X198763223Y-118856777D01*
X198746747Y-118838599D01*
X198732132Y-118818893D01*
X198719520Y-118797850D01*
X198709030Y-118775671D01*
X198700765Y-118752572D01*
X198694804Y-118728773D01*
X198691204Y-118704505D01*
X198690000Y-118680001D01*
X198690000Y-118029999D01*
X198691204Y-118005495D01*
X198694804Y-117981227D01*
X198700765Y-117957428D01*
X198709030Y-117934329D01*
X198719520Y-117912150D01*
X198732132Y-117891107D01*
X198746747Y-117871401D01*
X198763223Y-117853223D01*
X198781401Y-117836747D01*
X198801107Y-117822132D01*
X198822150Y-117809520D01*
X198844329Y-117799030D01*
X198867428Y-117790765D01*
X198891227Y-117784804D01*
X198915495Y-117781204D01*
X198939999Y-117780000D01*
X199840001Y-117780000D01*
X199864505Y-117781204D01*
X199864505Y-117781204D01*
G37*
D15*
X199390000Y-118355000D03*
D14*
G36*
X199864505Y-119831204D02*
G01*
X199888773Y-119834804D01*
X199912572Y-119840765D01*
X199935671Y-119849030D01*
X199957850Y-119859520D01*
X199978893Y-119872132D01*
X199998599Y-119886747D01*
X200016777Y-119903223D01*
X200033253Y-119921401D01*
X200047868Y-119941107D01*
X200060480Y-119962150D01*
X200070970Y-119984329D01*
X200079235Y-120007428D01*
X200085196Y-120031227D01*
X200088796Y-120055495D01*
X200090000Y-120079999D01*
X200090000Y-120730001D01*
X200088796Y-120754505D01*
X200085196Y-120778773D01*
X200079235Y-120802572D01*
X200070970Y-120825671D01*
X200060480Y-120847850D01*
X200047868Y-120868893D01*
X200033253Y-120888599D01*
X200016777Y-120906777D01*
X199998599Y-120923253D01*
X199978893Y-120937868D01*
X199957850Y-120950480D01*
X199935671Y-120960970D01*
X199912572Y-120969235D01*
X199888773Y-120975196D01*
X199864505Y-120978796D01*
X199840001Y-120980000D01*
X198939999Y-120980000D01*
X198915495Y-120978796D01*
X198891227Y-120975196D01*
X198867428Y-120969235D01*
X198844329Y-120960970D01*
X198822150Y-120950480D01*
X198801107Y-120937868D01*
X198781401Y-120923253D01*
X198763223Y-120906777D01*
X198746747Y-120888599D01*
X198732132Y-120868893D01*
X198719520Y-120847850D01*
X198709030Y-120825671D01*
X198700765Y-120802572D01*
X198694804Y-120778773D01*
X198691204Y-120754505D01*
X198690000Y-120730001D01*
X198690000Y-120079999D01*
X198691204Y-120055495D01*
X198694804Y-120031227D01*
X198700765Y-120007428D01*
X198709030Y-119984329D01*
X198719520Y-119962150D01*
X198732132Y-119941107D01*
X198746747Y-119921401D01*
X198763223Y-119903223D01*
X198781401Y-119886747D01*
X198801107Y-119872132D01*
X198822150Y-119859520D01*
X198844329Y-119849030D01*
X198867428Y-119840765D01*
X198891227Y-119834804D01*
X198915495Y-119831204D01*
X198939999Y-119830000D01*
X199840001Y-119830000D01*
X199864505Y-119831204D01*
X199864505Y-119831204D01*
G37*
D15*
X199390000Y-120405000D03*
D13*
X173722000Y-76370000D03*
X176262000Y-76370000D03*
X178802000Y-76370000D03*
X181342000Y-76370000D03*
D12*
X183882000Y-76370000D03*
X232932000Y-76370000D03*
D13*
X230392000Y-76370000D03*
X227852000Y-76370000D03*
X225312000Y-76370000D03*
X222772000Y-76370000D03*
D12*
X233680000Y-123190000D03*
D13*
X233680000Y-125730000D03*
X233680000Y-128270000D03*
X233680000Y-130810000D03*
X233680000Y-133350000D03*
X233680000Y-135890000D03*
D12*
X207010000Y-135890000D03*
D13*
X207010000Y-133350000D03*
X207010000Y-130810000D03*
X207010000Y-128270000D03*
X207010000Y-125730000D03*
X207010000Y-123190000D03*
X207010000Y-120650000D03*
X207010000Y-118110000D03*
X207010000Y-115570000D03*
X207010000Y-113030000D03*
D14*
G36*
X234154505Y-117781204D02*
G01*
X234178773Y-117784804D01*
X234202572Y-117790765D01*
X234225671Y-117799030D01*
X234247850Y-117809520D01*
X234268893Y-117822132D01*
X234288599Y-117836747D01*
X234306777Y-117853223D01*
X234323253Y-117871401D01*
X234337868Y-117891107D01*
X234350480Y-117912150D01*
X234360970Y-117934329D01*
X234369235Y-117957428D01*
X234375196Y-117981227D01*
X234378796Y-118005495D01*
X234380000Y-118029999D01*
X234380000Y-118680001D01*
X234378796Y-118704505D01*
X234375196Y-118728773D01*
X234369235Y-118752572D01*
X234360970Y-118775671D01*
X234350480Y-118797850D01*
X234337868Y-118818893D01*
X234323253Y-118838599D01*
X234306777Y-118856777D01*
X234288599Y-118873253D01*
X234268893Y-118887868D01*
X234247850Y-118900480D01*
X234225671Y-118910970D01*
X234202572Y-118919235D01*
X234178773Y-118925196D01*
X234154505Y-118928796D01*
X234130001Y-118930000D01*
X233229999Y-118930000D01*
X233205495Y-118928796D01*
X233181227Y-118925196D01*
X233157428Y-118919235D01*
X233134329Y-118910970D01*
X233112150Y-118900480D01*
X233091107Y-118887868D01*
X233071401Y-118873253D01*
X233053223Y-118856777D01*
X233036747Y-118838599D01*
X233022132Y-118818893D01*
X233009520Y-118797850D01*
X232999030Y-118775671D01*
X232990765Y-118752572D01*
X232984804Y-118728773D01*
X232981204Y-118704505D01*
X232980000Y-118680001D01*
X232980000Y-118029999D01*
X232981204Y-118005495D01*
X232984804Y-117981227D01*
X232990765Y-117957428D01*
X232999030Y-117934329D01*
X233009520Y-117912150D01*
X233022132Y-117891107D01*
X233036747Y-117871401D01*
X233053223Y-117853223D01*
X233071401Y-117836747D01*
X233091107Y-117822132D01*
X233112150Y-117809520D01*
X233134329Y-117799030D01*
X233157428Y-117790765D01*
X233181227Y-117784804D01*
X233205495Y-117781204D01*
X233229999Y-117780000D01*
X234130001Y-117780000D01*
X234154505Y-117781204D01*
X234154505Y-117781204D01*
G37*
D15*
X233680000Y-118355000D03*
D14*
G36*
X234154505Y-119831204D02*
G01*
X234178773Y-119834804D01*
X234202572Y-119840765D01*
X234225671Y-119849030D01*
X234247850Y-119859520D01*
X234268893Y-119872132D01*
X234288599Y-119886747D01*
X234306777Y-119903223D01*
X234323253Y-119921401D01*
X234337868Y-119941107D01*
X234350480Y-119962150D01*
X234360970Y-119984329D01*
X234369235Y-120007428D01*
X234375196Y-120031227D01*
X234378796Y-120055495D01*
X234380000Y-120079999D01*
X234380000Y-120730001D01*
X234378796Y-120754505D01*
X234375196Y-120778773D01*
X234369235Y-120802572D01*
X234360970Y-120825671D01*
X234350480Y-120847850D01*
X234337868Y-120868893D01*
X234323253Y-120888599D01*
X234306777Y-120906777D01*
X234288599Y-120923253D01*
X234268893Y-120937868D01*
X234247850Y-120950480D01*
X234225671Y-120960970D01*
X234202572Y-120969235D01*
X234178773Y-120975196D01*
X234154505Y-120978796D01*
X234130001Y-120980000D01*
X233229999Y-120980000D01*
X233205495Y-120978796D01*
X233181227Y-120975196D01*
X233157428Y-120969235D01*
X233134329Y-120960970D01*
X233112150Y-120950480D01*
X233091107Y-120937868D01*
X233071401Y-120923253D01*
X233053223Y-120906777D01*
X233036747Y-120888599D01*
X233022132Y-120868893D01*
X233009520Y-120847850D01*
X232999030Y-120825671D01*
X232990765Y-120802572D01*
X232984804Y-120778773D01*
X232981204Y-120754505D01*
X232980000Y-120730001D01*
X232980000Y-120079999D01*
X232981204Y-120055495D01*
X232984804Y-120031227D01*
X232990765Y-120007428D01*
X232999030Y-119984329D01*
X233009520Y-119962150D01*
X233022132Y-119941107D01*
X233036747Y-119921401D01*
X233053223Y-119903223D01*
X233071401Y-119886747D01*
X233091107Y-119872132D01*
X233112150Y-119859520D01*
X233134329Y-119849030D01*
X233157428Y-119840765D01*
X233181227Y-119834804D01*
X233205495Y-119831204D01*
X233229999Y-119830000D01*
X234130001Y-119830000D01*
X234154505Y-119831204D01*
X234154505Y-119831204D01*
G37*
D15*
X233680000Y-120405000D03*
D16*
X231140000Y-85090000D03*
X181610000Y-105410000D03*
X181610000Y-85090000D03*
X223520000Y-105410000D03*
X231140000Y-105410000D03*
X186690000Y-105410000D03*
X234950000Y-85090000D03*
X186690000Y-85090000D03*
X214630000Y-124460000D03*
X201930000Y-128270000D03*
X204470000Y-130810000D03*
X231140000Y-93980000D03*
X222250000Y-97790000D03*
X181610000Y-93980000D03*
X172720000Y-97790000D03*
X195580000Y-120650000D03*
X195580000Y-118110000D03*
X231140000Y-118110000D03*
X231140000Y-120650000D03*
D17*
X223520000Y-105410000D02*
X231140000Y-105410000D01*
X181610000Y-105410000D02*
X186690000Y-105410000D01*
X231140000Y-85090000D02*
X234950000Y-85090000D01*
X181610000Y-85090000D02*
X186690000Y-85090000D01*
D18*
X199390000Y-128270000D02*
X203525011Y-128270000D01*
X207010000Y-128270000D02*
X203525011Y-128270000D01*
X200692001Y-94139001D02*
X200692001Y-107982001D01*
X199517000Y-92964000D02*
X200692001Y-94139001D01*
X201930000Y-109220000D02*
X201930000Y-128270000D01*
X200692001Y-107982001D02*
X201930000Y-109220000D01*
X208212081Y-128270000D02*
X233680000Y-128270000D01*
X207010000Y-128270000D02*
X208212081Y-128270000D01*
X173228000Y-128270000D02*
X199390000Y-128270000D01*
X199390000Y-130810000D02*
X204470000Y-130810000D01*
X207010000Y-130810000D02*
X204470000Y-130810000D01*
X208212081Y-130810000D02*
X233680000Y-130810000D01*
X207010000Y-130810000D02*
X208212081Y-130810000D01*
X173228000Y-130810000D02*
X199390000Y-130810000D01*
D17*
X182626000Y-92964000D02*
X181610000Y-93980000D01*
X196977000Y-92964000D02*
X182626000Y-92964000D01*
X172720000Y-95250000D02*
X172720000Y-97790000D01*
X181610000Y-93980000D02*
X173990000Y-93980000D01*
X173990000Y-93980000D02*
X172720000Y-95250000D01*
X222250000Y-97790000D02*
X222250000Y-95250000D01*
X223520000Y-93980000D02*
X231140000Y-93980000D01*
X222250000Y-95250000D02*
X223520000Y-93980000D01*
X230740001Y-93580001D02*
X231140000Y-93980000D01*
X226060000Y-88900000D02*
X230740001Y-93580001D01*
X196977000Y-92964000D02*
X201041000Y-88900000D01*
X201041000Y-88900000D02*
X226060000Y-88900000D01*
D18*
X195825000Y-120405000D02*
X195580000Y-120650000D01*
X199390000Y-120405000D02*
X195825000Y-120405000D01*
X199390000Y-120405000D02*
X199390000Y-123190000D01*
X195825000Y-118355000D02*
X195580000Y-118110000D01*
X199390000Y-118355000D02*
X195825000Y-118355000D01*
X233435000Y-118110000D02*
X233680000Y-118355000D01*
X231140000Y-118110000D02*
X233435000Y-118110000D01*
X233435000Y-120650000D02*
X233680000Y-120405000D01*
X231140000Y-120650000D02*
X233435000Y-120650000D01*
X233680000Y-120405000D02*
X233680000Y-123190000D01*
D19*
G36*
X236491468Y-151934495D02*
G01*
X170161465Y-151934495D01*
X170161465Y-136740000D01*
X171739928Y-136740000D01*
X171752188Y-136864482D01*
X171788498Y-136984180D01*
X171847463Y-137094494D01*
X171926815Y-137191185D01*
X172023506Y-137270537D01*
X172133820Y-137329502D01*
X172253518Y-137365812D01*
X172378000Y-137378072D01*
X172942250Y-137375000D01*
X173101000Y-137216250D01*
X173101000Y-136017000D01*
X173355000Y-136017000D01*
X173355000Y-137216250D01*
X173513750Y-137375000D01*
X174078000Y-137378072D01*
X174202482Y-137365812D01*
X174322180Y-137329502D01*
X174432494Y-137270537D01*
X174529185Y-137191185D01*
X174608537Y-137094494D01*
X174667502Y-136984180D01*
X174703812Y-136864482D01*
X174716072Y-136740000D01*
X174713388Y-136246890D01*
X197948524Y-136246890D01*
X197993175Y-136394099D01*
X198118359Y-136656920D01*
X198292412Y-136890269D01*
X198508645Y-137085178D01*
X198758748Y-137234157D01*
X199033109Y-137331481D01*
X199263000Y-137210814D01*
X199263000Y-136017000D01*
X199517000Y-136017000D01*
X199517000Y-137210814D01*
X199746891Y-137331481D01*
X200021252Y-137234157D01*
X200271355Y-137085178D01*
X200487588Y-136890269D01*
X200599672Y-136740000D01*
X205521928Y-136740000D01*
X205534188Y-136864482D01*
X205570498Y-136984180D01*
X205629463Y-137094494D01*
X205708815Y-137191185D01*
X205805506Y-137270537D01*
X205915820Y-137329502D01*
X206035518Y-137365812D01*
X206160000Y-137378072D01*
X206724250Y-137375000D01*
X206883000Y-137216250D01*
X206883000Y-136017000D01*
X207137000Y-136017000D01*
X207137000Y-137216250D01*
X207295750Y-137375000D01*
X207860000Y-137378072D01*
X207984482Y-137365812D01*
X208104180Y-137329502D01*
X208214494Y-137270537D01*
X208311185Y-137191185D01*
X208390537Y-137094494D01*
X208449502Y-136984180D01*
X208485812Y-136864482D01*
X208498072Y-136740000D01*
X208495388Y-136246890D01*
X232238524Y-136246890D01*
X232283175Y-136394099D01*
X232408359Y-136656920D01*
X232582412Y-136890269D01*
X232798645Y-137085178D01*
X233048748Y-137234157D01*
X233323109Y-137331481D01*
X233553000Y-137210814D01*
X233553000Y-136017000D01*
X233807000Y-136017000D01*
X233807000Y-137210814D01*
X234036891Y-137331481D01*
X234311252Y-137234157D01*
X234561355Y-137085178D01*
X234777588Y-136890269D01*
X234951641Y-136656920D01*
X235076825Y-136394099D01*
X235121476Y-136246890D01*
X235000155Y-136017000D01*
X233807000Y-136017000D01*
X233553000Y-136017000D01*
X232359845Y-136017000D01*
X232238524Y-136246890D01*
X208495388Y-136246890D01*
X208495000Y-136175750D01*
X208336250Y-136017000D01*
X207137000Y-136017000D01*
X206883000Y-136017000D01*
X205683750Y-136017000D01*
X205525000Y-136175750D01*
X205521928Y-136740000D01*
X200599672Y-136740000D01*
X200661641Y-136656920D01*
X200786825Y-136394099D01*
X200831476Y-136246890D01*
X200710155Y-136017000D01*
X199517000Y-136017000D01*
X199263000Y-136017000D01*
X198069845Y-136017000D01*
X197948524Y-136246890D01*
X174713388Y-136246890D01*
X174713000Y-136175750D01*
X174554250Y-136017000D01*
X173355000Y-136017000D01*
X173101000Y-136017000D01*
X171901750Y-136017000D01*
X171743000Y-136175750D01*
X171739928Y-136740000D01*
X170161465Y-136740000D01*
X170161465Y-105410000D01*
X180469509Y-105410000D01*
X180491423Y-105632499D01*
X180556324Y-105846447D01*
X180661716Y-106043623D01*
X180803551Y-106216449D01*
X180976377Y-106358284D01*
X181173553Y-106463676D01*
X181387501Y-106528577D01*
X181554248Y-106545000D01*
X186745752Y-106545000D01*
X186912499Y-106528577D01*
X187126447Y-106463676D01*
X187323623Y-106358284D01*
X187496449Y-106216449D01*
X187638284Y-106043623D01*
X187743676Y-105846447D01*
X187808577Y-105632499D01*
X187830491Y-105410000D01*
X187808577Y-105187501D01*
X187743676Y-104973553D01*
X187638284Y-104776377D01*
X187496449Y-104603551D01*
X187323623Y-104461716D01*
X187126447Y-104356324D01*
X186912499Y-104291423D01*
X186745752Y-104275000D01*
X181554248Y-104275000D01*
X181387501Y-104291423D01*
X181173553Y-104356324D01*
X180976377Y-104461716D01*
X180803551Y-104603551D01*
X180661716Y-104776377D01*
X180556324Y-104973553D01*
X180491423Y-105187501D01*
X180469509Y-105410000D01*
X170161465Y-105410000D01*
X170161465Y-95250000D01*
X171579509Y-95250000D01*
X171585000Y-95305752D01*
X171585001Y-97845752D01*
X171601424Y-98012499D01*
X171666325Y-98226447D01*
X171771717Y-98423623D01*
X171913552Y-98596449D01*
X172086378Y-98738284D01*
X172283554Y-98843676D01*
X172497502Y-98908577D01*
X172720000Y-98930491D01*
X172942499Y-98908577D01*
X173156447Y-98843676D01*
X173353623Y-98738284D01*
X173526449Y-98596449D01*
X173668284Y-98423623D01*
X173773676Y-98226447D01*
X173838577Y-98012499D01*
X173855000Y-97845752D01*
X173855000Y-95720131D01*
X174460132Y-95115000D01*
X181554249Y-95115000D01*
X181610000Y-95120491D01*
X181665751Y-95115000D01*
X181665752Y-95115000D01*
X181832499Y-95098577D01*
X182046447Y-95033676D01*
X182243623Y-94928284D01*
X182416449Y-94786449D01*
X182451996Y-94743136D01*
X183096132Y-94099000D01*
X195818272Y-94099000D01*
X195772506Y-94123463D01*
X195675815Y-94202815D01*
X195596463Y-94299506D01*
X195537498Y-94409820D01*
X195501188Y-94529518D01*
X195488928Y-94654000D01*
X195488928Y-96354000D01*
X195501188Y-96478482D01*
X195537498Y-96598180D01*
X195596463Y-96708494D01*
X195675815Y-96805185D01*
X195772506Y-96884537D01*
X195882820Y-96943502D01*
X196002518Y-96979812D01*
X196127000Y-96992072D01*
X197827000Y-96992072D01*
X197951482Y-96979812D01*
X198071180Y-96943502D01*
X198181494Y-96884537D01*
X198278185Y-96805185D01*
X198357537Y-96708494D01*
X198416502Y-96598180D01*
X198437393Y-96529313D01*
X198461866Y-96559134D01*
X198687986Y-96744706D01*
X198945966Y-96882599D01*
X199225889Y-96967513D01*
X199444050Y-96989000D01*
X199589950Y-96989000D01*
X199808111Y-96967513D01*
X199932001Y-96929931D01*
X199932002Y-107944669D01*
X199928325Y-107982001D01*
X199942999Y-108130986D01*
X199986455Y-108274247D01*
X200057027Y-108406277D01*
X200110142Y-108470997D01*
X200152001Y-108522002D01*
X200180999Y-108545800D01*
X201170000Y-109534802D01*
X201170001Y-127510000D01*
X200667595Y-127510000D01*
X200630706Y-127440986D01*
X200445134Y-127214866D01*
X200219014Y-127029294D01*
X200164209Y-127000000D01*
X200219014Y-126970706D01*
X200445134Y-126785134D01*
X200630706Y-126559014D01*
X200768599Y-126301034D01*
X200853513Y-126021111D01*
X200882185Y-125730000D01*
X200853513Y-125438889D01*
X200768599Y-125158966D01*
X200630706Y-124900986D01*
X200445134Y-124674866D01*
X200415313Y-124650393D01*
X200484180Y-124629502D01*
X200594494Y-124570537D01*
X200691185Y-124491185D01*
X200770537Y-124394494D01*
X200829502Y-124284180D01*
X200865812Y-124164482D01*
X200878072Y-124040000D01*
X200878072Y-122340000D01*
X200865812Y-122215518D01*
X200829502Y-122095820D01*
X200770537Y-121985506D01*
X200691185Y-121888815D01*
X200594494Y-121809463D01*
X200484180Y-121750498D01*
X200364482Y-121714188D01*
X200240000Y-121701928D01*
X200150000Y-121701928D01*
X200150000Y-121559527D01*
X200179851Y-121550472D01*
X200333387Y-121468405D01*
X200467962Y-121357962D01*
X200578405Y-121223387D01*
X200660472Y-121069851D01*
X200711008Y-120903255D01*
X200728072Y-120730001D01*
X200728072Y-120079999D01*
X200711008Y-119906745D01*
X200660472Y-119740149D01*
X200578405Y-119586613D01*
X200467962Y-119452038D01*
X200380184Y-119380000D01*
X200467962Y-119307962D01*
X200578405Y-119173387D01*
X200660472Y-119019851D01*
X200711008Y-118853255D01*
X200728072Y-118680001D01*
X200728072Y-118029999D01*
X200711008Y-117856745D01*
X200660472Y-117690149D01*
X200578405Y-117536613D01*
X200467962Y-117402038D01*
X200333387Y-117291595D01*
X200179851Y-117209528D01*
X200013255Y-117158992D01*
X199840001Y-117141928D01*
X198939999Y-117141928D01*
X198766745Y-117158992D01*
X198600149Y-117209528D01*
X198446613Y-117291595D01*
X198312038Y-117402038D01*
X198201595Y-117536613D01*
X198170386Y-117595000D01*
X196480672Y-117595000D01*
X196383937Y-117450226D01*
X196239774Y-117306063D01*
X196070256Y-117192795D01*
X195881898Y-117114774D01*
X195681939Y-117075000D01*
X195478061Y-117075000D01*
X195278102Y-117114774D01*
X195089744Y-117192795D01*
X194920226Y-117306063D01*
X194776063Y-117450226D01*
X194662795Y-117619744D01*
X194584774Y-117808102D01*
X194545000Y-118008061D01*
X194545000Y-118211939D01*
X194584774Y-118411898D01*
X194662795Y-118600256D01*
X194776063Y-118769774D01*
X194920226Y-118913937D01*
X195089744Y-119027205D01*
X195278102Y-119105226D01*
X195478061Y-119145000D01*
X195681939Y-119145000D01*
X195817830Y-119117970D01*
X195824999Y-119118676D01*
X195862322Y-119115000D01*
X198170386Y-119115000D01*
X198201595Y-119173387D01*
X198312038Y-119307962D01*
X198399816Y-119380000D01*
X198312038Y-119452038D01*
X198201595Y-119586613D01*
X198170386Y-119645000D01*
X195862322Y-119645000D01*
X195824999Y-119641324D01*
X195817830Y-119642030D01*
X195681939Y-119615000D01*
X195478061Y-119615000D01*
X195278102Y-119654774D01*
X195089744Y-119732795D01*
X194920226Y-119846063D01*
X194776063Y-119990226D01*
X194662795Y-120159744D01*
X194584774Y-120348102D01*
X194545000Y-120548061D01*
X194545000Y-120751939D01*
X194584774Y-120951898D01*
X194662795Y-121140256D01*
X194776063Y-121309774D01*
X194920226Y-121453937D01*
X195089744Y-121567205D01*
X195278102Y-121645226D01*
X195478061Y-121685000D01*
X195681939Y-121685000D01*
X195881898Y-121645226D01*
X196070256Y-121567205D01*
X196239774Y-121453937D01*
X196383937Y-121309774D01*
X196480672Y-121165000D01*
X198170386Y-121165000D01*
X198201595Y-121223387D01*
X198312038Y-121357962D01*
X198446613Y-121468405D01*
X198600149Y-121550472D01*
X198630000Y-121559527D01*
X198630000Y-121701928D01*
X198540000Y-121701928D01*
X198415518Y-121714188D01*
X198295820Y-121750498D01*
X198185506Y-121809463D01*
X198088815Y-121888815D01*
X198009463Y-121985506D01*
X197950498Y-122095820D01*
X197914188Y-122215518D01*
X197901928Y-122340000D01*
X197901928Y-124040000D01*
X197914188Y-124164482D01*
X197950498Y-124284180D01*
X198009463Y-124394494D01*
X198088815Y-124491185D01*
X198185506Y-124570537D01*
X198295820Y-124629502D01*
X198364687Y-124650393D01*
X198334866Y-124674866D01*
X198149294Y-124900986D01*
X198011401Y-125158966D01*
X197926487Y-125438889D01*
X197897815Y-125730000D01*
X197926487Y-126021111D01*
X198011401Y-126301034D01*
X198149294Y-126559014D01*
X198334866Y-126785134D01*
X198560986Y-126970706D01*
X198615791Y-127000000D01*
X198560986Y-127029294D01*
X198334866Y-127214866D01*
X198149294Y-127440986D01*
X198112405Y-127510000D01*
X174505595Y-127510000D01*
X174468706Y-127440986D01*
X174283134Y-127214866D01*
X174057014Y-127029294D01*
X174002209Y-127000000D01*
X174057014Y-126970706D01*
X174283134Y-126785134D01*
X174468706Y-126559014D01*
X174606599Y-126301034D01*
X174691513Y-126021111D01*
X174720185Y-125730000D01*
X174691513Y-125438889D01*
X174606599Y-125158966D01*
X174468706Y-124900986D01*
X174283134Y-124674866D01*
X174057014Y-124489294D01*
X174002209Y-124460000D01*
X174057014Y-124430706D01*
X174283134Y-124245134D01*
X174468706Y-124019014D01*
X174606599Y-123761034D01*
X174691513Y-123481111D01*
X174720185Y-123190000D01*
X174691513Y-122898889D01*
X174606599Y-122618966D01*
X174468706Y-122360986D01*
X174283134Y-122134866D01*
X174057014Y-121949294D01*
X174002209Y-121920000D01*
X174057014Y-121890706D01*
X174283134Y-121705134D01*
X174468706Y-121479014D01*
X174606599Y-121221034D01*
X174691513Y-120941111D01*
X174720185Y-120650000D01*
X174691513Y-120358889D01*
X174606599Y-120078966D01*
X174468706Y-119820986D01*
X174283134Y-119594866D01*
X174057014Y-119409294D01*
X174002209Y-119380000D01*
X174057014Y-119350706D01*
X174283134Y-119165134D01*
X174468706Y-118939014D01*
X174606599Y-118681034D01*
X174691513Y-118401111D01*
X174720185Y-118110000D01*
X174691513Y-117818889D01*
X174606599Y-117538966D01*
X174468706Y-117280986D01*
X174283134Y-117054866D01*
X174057014Y-116869294D01*
X174002209Y-116840000D01*
X174057014Y-116810706D01*
X174283134Y-116625134D01*
X174468706Y-116399014D01*
X174606599Y-116141034D01*
X174691513Y-115861111D01*
X174720185Y-115570000D01*
X174691513Y-115278889D01*
X174606599Y-114998966D01*
X174468706Y-114740986D01*
X174283134Y-114514866D01*
X174057014Y-114329294D01*
X174002209Y-114300000D01*
X174057014Y-114270706D01*
X174283134Y-114085134D01*
X174468706Y-113859014D01*
X174606599Y-113601034D01*
X174691513Y-113321111D01*
X174720185Y-113030000D01*
X174691513Y-112738889D01*
X174606599Y-112458966D01*
X174468706Y-112200986D01*
X174283134Y-111974866D01*
X174057014Y-111789294D01*
X173799034Y-111651401D01*
X173519111Y-111566487D01*
X173300950Y-111545000D01*
X173155050Y-111545000D01*
X172936889Y-111566487D01*
X172656966Y-111651401D01*
X172398986Y-111789294D01*
X172172866Y-111974866D01*
X171987294Y-112200986D01*
X171849401Y-112458966D01*
X171764487Y-112738889D01*
X171735815Y-113030000D01*
X171764487Y-113321111D01*
X171849401Y-113601034D01*
X171987294Y-113859014D01*
X172172866Y-114085134D01*
X172398986Y-114270706D01*
X172453791Y-114300000D01*
X172398986Y-114329294D01*
X172172866Y-114514866D01*
X171987294Y-114740986D01*
X171849401Y-114998966D01*
X171764487Y-115278889D01*
X171735815Y-115570000D01*
X171764487Y-115861111D01*
X171849401Y-116141034D01*
X171987294Y-116399014D01*
X172172866Y-116625134D01*
X172398986Y-116810706D01*
X172453791Y-116840000D01*
X172398986Y-116869294D01*
X172172866Y-117054866D01*
X171987294Y-117280986D01*
X171849401Y-117538966D01*
X171764487Y-117818889D01*
X171735815Y-118110000D01*
X171764487Y-118401111D01*
X171849401Y-118681034D01*
X171987294Y-118939014D01*
X172172866Y-119165134D01*
X172398986Y-119350706D01*
X172453791Y-119380000D01*
X172398986Y-119409294D01*
X172172866Y-119594866D01*
X171987294Y-119820986D01*
X171849401Y-120078966D01*
X171764487Y-120358889D01*
X171735815Y-120650000D01*
X171764487Y-120941111D01*
X171849401Y-121221034D01*
X171987294Y-121479014D01*
X172172866Y-121705134D01*
X172398986Y-121890706D01*
X172453791Y-121920000D01*
X172398986Y-121949294D01*
X172172866Y-122134866D01*
X171987294Y-122360986D01*
X171849401Y-122618966D01*
X171764487Y-122898889D01*
X171735815Y-123190000D01*
X171764487Y-123481111D01*
X171849401Y-123761034D01*
X171987294Y-124019014D01*
X172172866Y-124245134D01*
X172398986Y-124430706D01*
X172453791Y-124460000D01*
X172398986Y-124489294D01*
X172172866Y-124674866D01*
X171987294Y-124900986D01*
X171849401Y-125158966D01*
X171764487Y-125438889D01*
X171735815Y-125730000D01*
X171764487Y-126021111D01*
X171849401Y-126301034D01*
X171987294Y-126559014D01*
X172172866Y-126785134D01*
X172398986Y-126970706D01*
X172453791Y-127000000D01*
X172398986Y-127029294D01*
X172172866Y-127214866D01*
X171987294Y-127440986D01*
X171849401Y-127698966D01*
X171764487Y-127978889D01*
X171735815Y-128270000D01*
X171764487Y-128561111D01*
X171849401Y-128841034D01*
X171987294Y-129099014D01*
X172172866Y-129325134D01*
X172398986Y-129510706D01*
X172453791Y-129540000D01*
X172398986Y-129569294D01*
X172172866Y-129754866D01*
X171987294Y-129980986D01*
X171849401Y-130238966D01*
X171764487Y-130518889D01*
X171735815Y-130810000D01*
X171764487Y-131101111D01*
X171849401Y-131381034D01*
X171987294Y-131639014D01*
X172172866Y-131865134D01*
X172398986Y-132050706D01*
X172453791Y-132080000D01*
X172398986Y-132109294D01*
X172172866Y-132294866D01*
X171987294Y-132520986D01*
X171849401Y-132778966D01*
X171764487Y-133058889D01*
X171735815Y-133350000D01*
X171764487Y-133641111D01*
X171849401Y-133921034D01*
X171987294Y-134179014D01*
X172172866Y-134405134D01*
X172202687Y-134429607D01*
X172133820Y-134450498D01*
X172023506Y-134509463D01*
X171926815Y-134588815D01*
X171847463Y-134685506D01*
X171788498Y-134795820D01*
X171752188Y-134915518D01*
X171739928Y-135040000D01*
X171743000Y-135604250D01*
X171901750Y-135763000D01*
X173101000Y-135763000D01*
X173101000Y-135743000D01*
X173355000Y-135743000D01*
X173355000Y-135763000D01*
X174554250Y-135763000D01*
X174713000Y-135604250D01*
X174716072Y-135040000D01*
X174703812Y-134915518D01*
X174667502Y-134795820D01*
X174608537Y-134685506D01*
X174529185Y-134588815D01*
X174432494Y-134509463D01*
X174322180Y-134450498D01*
X174253313Y-134429607D01*
X174283134Y-134405134D01*
X174468706Y-134179014D01*
X174606599Y-133921034D01*
X174691513Y-133641111D01*
X174720185Y-133350000D01*
X174691513Y-133058889D01*
X174606599Y-132778966D01*
X174468706Y-132520986D01*
X174283134Y-132294866D01*
X174057014Y-132109294D01*
X174002209Y-132080000D01*
X174057014Y-132050706D01*
X174283134Y-131865134D01*
X174468706Y-131639014D01*
X174505595Y-131570000D01*
X198112405Y-131570000D01*
X198149294Y-131639014D01*
X198334866Y-131865134D01*
X198560986Y-132050706D01*
X198615791Y-132080000D01*
X198560986Y-132109294D01*
X198334866Y-132294866D01*
X198149294Y-132520986D01*
X198011401Y-132778966D01*
X197926487Y-133058889D01*
X197897815Y-133350000D01*
X197926487Y-133641111D01*
X198011401Y-133921034D01*
X198149294Y-134179014D01*
X198334866Y-134405134D01*
X198560986Y-134590706D01*
X198625523Y-134625201D01*
X198508645Y-134694822D01*
X198292412Y-134889731D01*
X198118359Y-135123080D01*
X197993175Y-135385901D01*
X197948524Y-135533110D01*
X198069845Y-135763000D01*
X199263000Y-135763000D01*
X199263000Y-135743000D01*
X199517000Y-135743000D01*
X199517000Y-135763000D01*
X200710155Y-135763000D01*
X200831476Y-135533110D01*
X200786825Y-135385901D01*
X200661641Y-135123080D01*
X200487588Y-134889731D01*
X200271355Y-134694822D01*
X200154477Y-134625201D01*
X200219014Y-134590706D01*
X200445134Y-134405134D01*
X200630706Y-134179014D01*
X200768599Y-133921034D01*
X200853513Y-133641111D01*
X200882185Y-133350000D01*
X200853513Y-133058889D01*
X200768599Y-132778966D01*
X200630706Y-132520986D01*
X200445134Y-132294866D01*
X200219014Y-132109294D01*
X200164209Y-132080000D01*
X200219014Y-132050706D01*
X200445134Y-131865134D01*
X200630706Y-131639014D01*
X200667595Y-131570000D01*
X203766289Y-131570000D01*
X203810226Y-131613937D01*
X203979744Y-131727205D01*
X204168102Y-131805226D01*
X204368061Y-131845000D01*
X204571939Y-131845000D01*
X204771898Y-131805226D01*
X204960256Y-131727205D01*
X205129774Y-131613937D01*
X205173711Y-131570000D01*
X205732405Y-131570000D01*
X205769294Y-131639014D01*
X205954866Y-131865134D01*
X206180986Y-132050706D01*
X206235791Y-132080000D01*
X206180986Y-132109294D01*
X205954866Y-132294866D01*
X205769294Y-132520986D01*
X205631401Y-132778966D01*
X205546487Y-133058889D01*
X205517815Y-133350000D01*
X205546487Y-133641111D01*
X205631401Y-133921034D01*
X205769294Y-134179014D01*
X205954866Y-134405134D01*
X205984687Y-134429607D01*
X205915820Y-134450498D01*
X205805506Y-134509463D01*
X205708815Y-134588815D01*
X205629463Y-134685506D01*
X205570498Y-134795820D01*
X205534188Y-134915518D01*
X205521928Y-135040000D01*
X205525000Y-135604250D01*
X205683750Y-135763000D01*
X206883000Y-135763000D01*
X206883000Y-135743000D01*
X207137000Y-135743000D01*
X207137000Y-135763000D01*
X208336250Y-135763000D01*
X208495000Y-135604250D01*
X208498072Y-135040000D01*
X208485812Y-134915518D01*
X208449502Y-134795820D01*
X208390537Y-134685506D01*
X208311185Y-134588815D01*
X208214494Y-134509463D01*
X208104180Y-134450498D01*
X208035313Y-134429607D01*
X208065134Y-134405134D01*
X208250706Y-134179014D01*
X208388599Y-133921034D01*
X208473513Y-133641111D01*
X208502185Y-133350000D01*
X208473513Y-133058889D01*
X208388599Y-132778966D01*
X208250706Y-132520986D01*
X208065134Y-132294866D01*
X207839014Y-132109294D01*
X207784209Y-132080000D01*
X207839014Y-132050706D01*
X208065134Y-131865134D01*
X208250706Y-131639014D01*
X208287595Y-131570000D01*
X232402405Y-131570000D01*
X232439294Y-131639014D01*
X232624866Y-131865134D01*
X232850986Y-132050706D01*
X232905791Y-132080000D01*
X232850986Y-132109294D01*
X232624866Y-132294866D01*
X232439294Y-132520986D01*
X232301401Y-132778966D01*
X232216487Y-133058889D01*
X232187815Y-133350000D01*
X232216487Y-133641111D01*
X232301401Y-133921034D01*
X232439294Y-134179014D01*
X232624866Y-134405134D01*
X232850986Y-134590706D01*
X232915523Y-134625201D01*
X232798645Y-134694822D01*
X232582412Y-134889731D01*
X232408359Y-135123080D01*
X232283175Y-135385901D01*
X232238524Y-135533110D01*
X232359845Y-135763000D01*
X233553000Y-135763000D01*
X233553000Y-135743000D01*
X233807000Y-135743000D01*
X233807000Y-135763000D01*
X235000155Y-135763000D01*
X235121476Y-135533110D01*
X235076825Y-135385901D01*
X234951641Y-135123080D01*
X234777588Y-134889731D01*
X234561355Y-134694822D01*
X234444477Y-134625201D01*
X234509014Y-134590706D01*
X234735134Y-134405134D01*
X234920706Y-134179014D01*
X235058599Y-133921034D01*
X235143513Y-133641111D01*
X235172185Y-133350000D01*
X235143513Y-133058889D01*
X235058599Y-132778966D01*
X234920706Y-132520986D01*
X234735134Y-132294866D01*
X234509014Y-132109294D01*
X234454209Y-132080000D01*
X234509014Y-132050706D01*
X234735134Y-131865134D01*
X234920706Y-131639014D01*
X235058599Y-131381034D01*
X235143513Y-131101111D01*
X235172185Y-130810000D01*
X235143513Y-130518889D01*
X235058599Y-130238966D01*
X234920706Y-129980986D01*
X234735134Y-129754866D01*
X234509014Y-129569294D01*
X234454209Y-129540000D01*
X234509014Y-129510706D01*
X234735134Y-129325134D01*
X234920706Y-129099014D01*
X235058599Y-128841034D01*
X235143513Y-128561111D01*
X235172185Y-128270000D01*
X235143513Y-127978889D01*
X235058599Y-127698966D01*
X234920706Y-127440986D01*
X234735134Y-127214866D01*
X234509014Y-127029294D01*
X234454209Y-127000000D01*
X234509014Y-126970706D01*
X234735134Y-126785134D01*
X234920706Y-126559014D01*
X235058599Y-126301034D01*
X235143513Y-126021111D01*
X235172185Y-125730000D01*
X235143513Y-125438889D01*
X235058599Y-125158966D01*
X234920706Y-124900986D01*
X234735134Y-124674866D01*
X234705313Y-124650393D01*
X234774180Y-124629502D01*
X234884494Y-124570537D01*
X234981185Y-124491185D01*
X235060537Y-124394494D01*
X235119502Y-124284180D01*
X235155812Y-124164482D01*
X235168072Y-124040000D01*
X235168072Y-122340000D01*
X235155812Y-122215518D01*
X235119502Y-122095820D01*
X235060537Y-121985506D01*
X234981185Y-121888815D01*
X234884494Y-121809463D01*
X234774180Y-121750498D01*
X234654482Y-121714188D01*
X234530000Y-121701928D01*
X234440000Y-121701928D01*
X234440000Y-121559527D01*
X234469851Y-121550472D01*
X234623387Y-121468405D01*
X234757962Y-121357962D01*
X234868405Y-121223387D01*
X234950472Y-121069851D01*
X235001008Y-120903255D01*
X235018072Y-120730001D01*
X235018072Y-120079999D01*
X235001008Y-119906745D01*
X234950472Y-119740149D01*
X234868405Y-119586613D01*
X234757962Y-119452038D01*
X234670184Y-119380000D01*
X234757962Y-119307962D01*
X234868405Y-119173387D01*
X234950472Y-119019851D01*
X235001008Y-118853255D01*
X235018072Y-118680001D01*
X235018072Y-118029999D01*
X235001008Y-117856745D01*
X234950472Y-117690149D01*
X234868405Y-117536613D01*
X234757962Y-117402038D01*
X234623387Y-117291595D01*
X234469851Y-117209528D01*
X234303255Y-117158992D01*
X234130001Y-117141928D01*
X233229999Y-117141928D01*
X233056745Y-117158992D01*
X232890149Y-117209528D01*
X232736613Y-117291595D01*
X232665446Y-117350000D01*
X231843711Y-117350000D01*
X231799774Y-117306063D01*
X231630256Y-117192795D01*
X231441898Y-117114774D01*
X231241939Y-117075000D01*
X231038061Y-117075000D01*
X230838102Y-117114774D01*
X230649744Y-117192795D01*
X230480226Y-117306063D01*
X230336063Y-117450226D01*
X230222795Y-117619744D01*
X230144774Y-117808102D01*
X230105000Y-118008061D01*
X230105000Y-118211939D01*
X230144774Y-118411898D01*
X230222795Y-118600256D01*
X230336063Y-118769774D01*
X230480226Y-118913937D01*
X230649744Y-119027205D01*
X230838102Y-119105226D01*
X231038061Y-119145000D01*
X231241939Y-119145000D01*
X231441898Y-119105226D01*
X231630256Y-119027205D01*
X231799774Y-118913937D01*
X231843711Y-118870000D01*
X232364072Y-118870000D01*
X232409528Y-119019851D01*
X232491595Y-119173387D01*
X232602038Y-119307962D01*
X232689816Y-119380000D01*
X232602038Y-119452038D01*
X232491595Y-119586613D01*
X232409528Y-119740149D01*
X232364072Y-119890000D01*
X231843711Y-119890000D01*
X231799774Y-119846063D01*
X231630256Y-119732795D01*
X231441898Y-119654774D01*
X231241939Y-119615000D01*
X231038061Y-119615000D01*
X230838102Y-119654774D01*
X230649744Y-119732795D01*
X230480226Y-119846063D01*
X230336063Y-119990226D01*
X230222795Y-120159744D01*
X230144774Y-120348102D01*
X230105000Y-120548061D01*
X230105000Y-120751939D01*
X230144774Y-120951898D01*
X230222795Y-121140256D01*
X230336063Y-121309774D01*
X230480226Y-121453937D01*
X230649744Y-121567205D01*
X230838102Y-121645226D01*
X231038061Y-121685000D01*
X231241939Y-121685000D01*
X231441898Y-121645226D01*
X231630256Y-121567205D01*
X231799774Y-121453937D01*
X231843711Y-121410000D01*
X232665446Y-121410000D01*
X232736613Y-121468405D01*
X232890149Y-121550472D01*
X232920000Y-121559527D01*
X232920000Y-121701928D01*
X232830000Y-121701928D01*
X232705518Y-121714188D01*
X232585820Y-121750498D01*
X232475506Y-121809463D01*
X232378815Y-121888815D01*
X232299463Y-121985506D01*
X232240498Y-122095820D01*
X232204188Y-122215518D01*
X232191928Y-122340000D01*
X232191928Y-124040000D01*
X232204188Y-124164482D01*
X232240498Y-124284180D01*
X232299463Y-124394494D01*
X232378815Y-124491185D01*
X232475506Y-124570537D01*
X232585820Y-124629502D01*
X232654687Y-124650393D01*
X232624866Y-124674866D01*
X232439294Y-124900986D01*
X232301401Y-125158966D01*
X232216487Y-125438889D01*
X232187815Y-125730000D01*
X232216487Y-126021111D01*
X232301401Y-126301034D01*
X232439294Y-126559014D01*
X232624866Y-126785134D01*
X232850986Y-126970706D01*
X232905791Y-127000000D01*
X232850986Y-127029294D01*
X232624866Y-127214866D01*
X232439294Y-127440986D01*
X232402405Y-127510000D01*
X208287595Y-127510000D01*
X208250706Y-127440986D01*
X208065134Y-127214866D01*
X207839014Y-127029294D01*
X207784209Y-127000000D01*
X207839014Y-126970706D01*
X208065134Y-126785134D01*
X208250706Y-126559014D01*
X208388599Y-126301034D01*
X208473513Y-126021111D01*
X208502185Y-125730000D01*
X208473513Y-125438889D01*
X208388599Y-125158966D01*
X208250706Y-124900986D01*
X208065134Y-124674866D01*
X207839014Y-124489294D01*
X207784209Y-124460000D01*
X207839014Y-124430706D01*
X208065134Y-124245134D01*
X208250706Y-124019014D01*
X208388599Y-123761034D01*
X208473513Y-123481111D01*
X208502185Y-123190000D01*
X208473513Y-122898889D01*
X208388599Y-122618966D01*
X208250706Y-122360986D01*
X208065134Y-122134866D01*
X207839014Y-121949294D01*
X207784209Y-121920000D01*
X207839014Y-121890706D01*
X208065134Y-121705134D01*
X208250706Y-121479014D01*
X208388599Y-121221034D01*
X208473513Y-120941111D01*
X208502185Y-120650000D01*
X208473513Y-120358889D01*
X208388599Y-120078966D01*
X208250706Y-119820986D01*
X208065134Y-119594866D01*
X207839014Y-119409294D01*
X207784209Y-119380000D01*
X207839014Y-119350706D01*
X208065134Y-119165134D01*
X208250706Y-118939014D01*
X208388599Y-118681034D01*
X208473513Y-118401111D01*
X208502185Y-118110000D01*
X208473513Y-117818889D01*
X208388599Y-117538966D01*
X208250706Y-117280986D01*
X208065134Y-117054866D01*
X207839014Y-116869294D01*
X207784209Y-116840000D01*
X207839014Y-116810706D01*
X208065134Y-116625134D01*
X208250706Y-116399014D01*
X208388599Y-116141034D01*
X208473513Y-115861111D01*
X208502185Y-115570000D01*
X208473513Y-115278889D01*
X208388599Y-114998966D01*
X208250706Y-114740986D01*
X208065134Y-114514866D01*
X207839014Y-114329294D01*
X207784209Y-114300000D01*
X207839014Y-114270706D01*
X208065134Y-114085134D01*
X208250706Y-113859014D01*
X208388599Y-113601034D01*
X208473513Y-113321111D01*
X208502185Y-113030000D01*
X208473513Y-112738889D01*
X208388599Y-112458966D01*
X208250706Y-112200986D01*
X208065134Y-111974866D01*
X207839014Y-111789294D01*
X207581034Y-111651401D01*
X207301111Y-111566487D01*
X207082950Y-111545000D01*
X206937050Y-111545000D01*
X206718889Y-111566487D01*
X206438966Y-111651401D01*
X206180986Y-111789294D01*
X205954866Y-111974866D01*
X205769294Y-112200986D01*
X205631401Y-112458966D01*
X205546487Y-112738889D01*
X205517815Y-113030000D01*
X205546487Y-113321111D01*
X205631401Y-113601034D01*
X205769294Y-113859014D01*
X205954866Y-114085134D01*
X206180986Y-114270706D01*
X206235791Y-114300000D01*
X206180986Y-114329294D01*
X205954866Y-114514866D01*
X205769294Y-114740986D01*
X205631401Y-114998966D01*
X205546487Y-115278889D01*
X205517815Y-115570000D01*
X205546487Y-115861111D01*
X205631401Y-116141034D01*
X205769294Y-116399014D01*
X205954866Y-116625134D01*
X206180986Y-116810706D01*
X206235791Y-116840000D01*
X206180986Y-116869294D01*
X205954866Y-117054866D01*
X205769294Y-117280986D01*
X205631401Y-117538966D01*
X205546487Y-117818889D01*
X205517815Y-118110000D01*
X205546487Y-118401111D01*
X205631401Y-118681034D01*
X205769294Y-118939014D01*
X205954866Y-119165134D01*
X206180986Y-119350706D01*
X206235791Y-119380000D01*
X206180986Y-119409294D01*
X205954866Y-119594866D01*
X205769294Y-119820986D01*
X205631401Y-120078966D01*
X205546487Y-120358889D01*
X205517815Y-120650000D01*
X205546487Y-120941111D01*
X205631401Y-121221034D01*
X205769294Y-121479014D01*
X205954866Y-121705134D01*
X206180986Y-121890706D01*
X206235791Y-121920000D01*
X206180986Y-121949294D01*
X205954866Y-122134866D01*
X205769294Y-122360986D01*
X205631401Y-122618966D01*
X205546487Y-122898889D01*
X205517815Y-123190000D01*
X205546487Y-123481111D01*
X205631401Y-123761034D01*
X205769294Y-124019014D01*
X205954866Y-124245134D01*
X206180986Y-124430706D01*
X206235791Y-124460000D01*
X206180986Y-124489294D01*
X205954866Y-124674866D01*
X205769294Y-124900986D01*
X205631401Y-125158966D01*
X205546487Y-125438889D01*
X205517815Y-125730000D01*
X205546487Y-126021111D01*
X205631401Y-126301034D01*
X205769294Y-126559014D01*
X205954866Y-126785134D01*
X206180986Y-126970706D01*
X206235791Y-127000000D01*
X206180986Y-127029294D01*
X205954866Y-127214866D01*
X205769294Y-127440986D01*
X205732405Y-127510000D01*
X202690000Y-127510000D01*
X202690000Y-109257323D01*
X202693676Y-109220000D01*
X202690000Y-109182677D01*
X202690000Y-109182667D01*
X202679003Y-109071014D01*
X202635546Y-108927753D01*
X202564975Y-108795725D01*
X202564974Y-108795723D01*
X202493799Y-108708997D01*
X202470001Y-108679999D01*
X202441004Y-108656202D01*
X201452001Y-107667200D01*
X201452001Y-105410000D01*
X222379509Y-105410000D01*
X222401423Y-105632499D01*
X222466324Y-105846447D01*
X222571716Y-106043623D01*
X222713551Y-106216449D01*
X222886377Y-106358284D01*
X223083553Y-106463676D01*
X223297501Y-106528577D01*
X223464248Y-106545000D01*
X231195752Y-106545000D01*
X231362499Y-106528577D01*
X231576447Y-106463676D01*
X231773623Y-106358284D01*
X231946449Y-106216449D01*
X232088284Y-106043623D01*
X232193676Y-105846447D01*
X232258577Y-105632499D01*
X232280491Y-105410000D01*
X232258577Y-105187501D01*
X232193676Y-104973553D01*
X232088284Y-104776377D01*
X231946449Y-104603551D01*
X231773623Y-104461716D01*
X231576447Y-104356324D01*
X231362499Y-104291423D01*
X231195752Y-104275000D01*
X223464248Y-104275000D01*
X223297501Y-104291423D01*
X223083553Y-104356324D01*
X222886377Y-104461716D01*
X222713551Y-104603551D01*
X222571716Y-104776377D01*
X222466324Y-104973553D01*
X222401423Y-105187501D01*
X222379509Y-105410000D01*
X201452001Y-105410000D01*
X201452001Y-96864444D01*
X201485966Y-96882599D01*
X201765889Y-96967513D01*
X201984050Y-96989000D01*
X202129950Y-96989000D01*
X202348111Y-96967513D01*
X202628034Y-96882599D01*
X202886014Y-96744706D01*
X203112134Y-96559134D01*
X203297706Y-96333014D01*
X203327000Y-96278209D01*
X203356294Y-96333014D01*
X203541866Y-96559134D01*
X203767986Y-96744706D01*
X204025966Y-96882599D01*
X204305889Y-96967513D01*
X204524050Y-96989000D01*
X204669950Y-96989000D01*
X204888111Y-96967513D01*
X205168034Y-96882599D01*
X205426014Y-96744706D01*
X205652134Y-96559134D01*
X205837706Y-96333014D01*
X205867000Y-96278209D01*
X205896294Y-96333014D01*
X206081866Y-96559134D01*
X206307986Y-96744706D01*
X206565966Y-96882599D01*
X206845889Y-96967513D01*
X207064050Y-96989000D01*
X207209950Y-96989000D01*
X207428111Y-96967513D01*
X207708034Y-96882599D01*
X207966014Y-96744706D01*
X208192134Y-96559134D01*
X208377706Y-96333014D01*
X208407000Y-96278209D01*
X208436294Y-96333014D01*
X208621866Y-96559134D01*
X208847986Y-96744706D01*
X209105966Y-96882599D01*
X209385889Y-96967513D01*
X209604050Y-96989000D01*
X209749950Y-96989000D01*
X209968111Y-96967513D01*
X210248034Y-96882599D01*
X210506014Y-96744706D01*
X210732134Y-96559134D01*
X210917706Y-96333014D01*
X211055599Y-96075034D01*
X211140513Y-95795111D01*
X211169185Y-95504000D01*
X211140513Y-95212889D01*
X211055599Y-94932966D01*
X210917706Y-94674986D01*
X210732134Y-94448866D01*
X210506014Y-94263294D01*
X210448244Y-94232416D01*
X210677269Y-94061588D01*
X210872178Y-93845355D01*
X211021157Y-93595252D01*
X211118481Y-93320891D01*
X210997814Y-93091000D01*
X209804000Y-93091000D01*
X209804000Y-93111000D01*
X209550000Y-93111000D01*
X209550000Y-93091000D01*
X209530000Y-93091000D01*
X209530000Y-92837000D01*
X209550000Y-92837000D01*
X209550000Y-91643845D01*
X209804000Y-91643845D01*
X209804000Y-92837000D01*
X210997814Y-92837000D01*
X211118481Y-92607109D01*
X211021157Y-92332748D01*
X210872178Y-92082645D01*
X210677269Y-91866412D01*
X210443920Y-91692359D01*
X210181099Y-91567175D01*
X210033890Y-91522524D01*
X209804000Y-91643845D01*
X209550000Y-91643845D01*
X209320110Y-91522524D01*
X209172901Y-91567175D01*
X208910080Y-91692359D01*
X208676731Y-91866412D01*
X208481822Y-92082645D01*
X208412201Y-92199523D01*
X208377706Y-92134986D01*
X208192134Y-91908866D01*
X207966014Y-91723294D01*
X207708034Y-91585401D01*
X207428111Y-91500487D01*
X207209950Y-91479000D01*
X207064050Y-91479000D01*
X206845889Y-91500487D01*
X206565966Y-91585401D01*
X206307986Y-91723294D01*
X206081866Y-91908866D01*
X205896294Y-92134986D01*
X205867000Y-92189791D01*
X205837706Y-92134986D01*
X205652134Y-91908866D01*
X205426014Y-91723294D01*
X205168034Y-91585401D01*
X204888111Y-91500487D01*
X204669950Y-91479000D01*
X204524050Y-91479000D01*
X204305889Y-91500487D01*
X204025966Y-91585401D01*
X203767986Y-91723294D01*
X203541866Y-91908866D01*
X203356294Y-92134986D01*
X203327000Y-92189791D01*
X203297706Y-92134986D01*
X203112134Y-91908866D01*
X202886014Y-91723294D01*
X202628034Y-91585401D01*
X202348111Y-91500487D01*
X202129950Y-91479000D01*
X201984050Y-91479000D01*
X201765889Y-91500487D01*
X201485966Y-91585401D01*
X201227986Y-91723294D01*
X201001866Y-91908866D01*
X200816294Y-92134986D01*
X200787000Y-92189791D01*
X200757706Y-92134986D01*
X200572134Y-91908866D01*
X200346014Y-91723294D01*
X200088034Y-91585401D01*
X199990360Y-91555772D01*
X201511132Y-90035000D01*
X225589869Y-90035000D01*
X228399868Y-92845000D01*
X223575743Y-92845000D01*
X223519999Y-92839510D01*
X223464255Y-92845000D01*
X223464248Y-92845000D01*
X223318493Y-92859356D01*
X223297500Y-92861423D01*
X223247705Y-92876529D01*
X223083553Y-92926324D01*
X222886377Y-93031716D01*
X222713551Y-93173551D01*
X222678011Y-93216857D01*
X221486860Y-94408009D01*
X221443552Y-94443551D01*
X221301717Y-94616377D01*
X221270390Y-94674986D01*
X221196324Y-94813554D01*
X221131423Y-95027502D01*
X221109509Y-95250000D01*
X221115001Y-95305761D01*
X221115000Y-97845751D01*
X221131423Y-98012498D01*
X221196324Y-98226446D01*
X221301716Y-98423623D01*
X221443551Y-98596449D01*
X221616377Y-98738284D01*
X221813553Y-98843676D01*
X222027501Y-98908577D01*
X222250000Y-98930491D01*
X222472498Y-98908577D01*
X222686446Y-98843676D01*
X222883623Y-98738284D01*
X223056449Y-98596449D01*
X223198284Y-98423623D01*
X223303676Y-98226447D01*
X223368577Y-98012499D01*
X223385000Y-97845752D01*
X223385000Y-95720131D01*
X223990132Y-95115000D01*
X231084248Y-95115000D01*
X231139999Y-95120491D01*
X231195751Y-95115000D01*
X231195752Y-95115000D01*
X231362499Y-95098577D01*
X231576447Y-95033676D01*
X231773623Y-94928284D01*
X231946449Y-94786449D01*
X232088284Y-94613623D01*
X232193676Y-94416447D01*
X232258577Y-94202499D01*
X232280491Y-93980000D01*
X232258577Y-93757501D01*
X232193676Y-93543553D01*
X232088284Y-93346377D01*
X231946449Y-93173551D01*
X231903135Y-93138004D01*
X231581994Y-92816863D01*
X231581989Y-92816857D01*
X226901996Y-88136865D01*
X226866449Y-88093551D01*
X226693623Y-87951716D01*
X226496447Y-87846324D01*
X226282499Y-87781423D01*
X226115752Y-87765000D01*
X226115751Y-87765000D01*
X226060000Y-87759509D01*
X226004249Y-87765000D01*
X201096751Y-87765000D01*
X201041000Y-87759509D01*
X200985248Y-87765000D01*
X200818501Y-87781423D01*
X200604553Y-87846324D01*
X200407377Y-87951716D01*
X200234551Y-88093551D01*
X200199009Y-88136859D01*
X196851714Y-91484155D01*
X196685889Y-91500487D01*
X196405966Y-91585401D01*
X196147986Y-91723294D01*
X196019183Y-91829000D01*
X182681751Y-91829000D01*
X182626000Y-91823509D01*
X182570248Y-91829000D01*
X182403501Y-91845423D01*
X182189553Y-91910324D01*
X181992377Y-92015716D01*
X181819551Y-92157551D01*
X181784011Y-92200857D01*
X181139869Y-92845000D01*
X174045743Y-92845000D01*
X173989999Y-92839510D01*
X173934255Y-92845000D01*
X173934248Y-92845000D01*
X173788493Y-92859356D01*
X173767500Y-92861423D01*
X173717705Y-92876529D01*
X173553553Y-92926324D01*
X173356377Y-93031716D01*
X173183551Y-93173551D01*
X173148011Y-93216857D01*
X171956865Y-94408004D01*
X171913551Y-94443551D01*
X171771716Y-94616377D01*
X171680812Y-94786448D01*
X171666324Y-94813554D01*
X171601423Y-95027502D01*
X171579509Y-95250000D01*
X170161465Y-95250000D01*
X170161465Y-85090000D01*
X180469509Y-85090000D01*
X180491423Y-85312499D01*
X180556324Y-85526447D01*
X180661716Y-85723623D01*
X180803551Y-85896449D01*
X180976377Y-86038284D01*
X181173553Y-86143676D01*
X181387501Y-86208577D01*
X181554248Y-86225000D01*
X186745752Y-86225000D01*
X186912499Y-86208577D01*
X187126447Y-86143676D01*
X187323623Y-86038284D01*
X187496449Y-85896449D01*
X187638284Y-85723623D01*
X187743676Y-85526447D01*
X187808577Y-85312499D01*
X187830491Y-85090000D01*
X229999509Y-85090000D01*
X230021423Y-85312499D01*
X230086324Y-85526447D01*
X230191716Y-85723623D01*
X230333551Y-85896449D01*
X230506377Y-86038284D01*
X230703553Y-86143676D01*
X230917501Y-86208577D01*
X231084248Y-86225000D01*
X235005752Y-86225000D01*
X235172499Y-86208577D01*
X235386447Y-86143676D01*
X235583623Y-86038284D01*
X235756449Y-85896449D01*
X235898284Y-85723623D01*
X236003676Y-85526447D01*
X236068577Y-85312499D01*
X236090491Y-85090000D01*
X236068577Y-84867501D01*
X236003676Y-84653553D01*
X235898284Y-84456377D01*
X235756449Y-84283551D01*
X235583623Y-84141716D01*
X235386447Y-84036324D01*
X235172499Y-83971423D01*
X235005752Y-83955000D01*
X231084248Y-83955000D01*
X230917501Y-83971423D01*
X230703553Y-84036324D01*
X230506377Y-84141716D01*
X230333551Y-84283551D01*
X230191716Y-84456377D01*
X230086324Y-84653553D01*
X230021423Y-84867501D01*
X229999509Y-85090000D01*
X187830491Y-85090000D01*
X187808577Y-84867501D01*
X187743676Y-84653553D01*
X187638284Y-84456377D01*
X187496449Y-84283551D01*
X187323623Y-84141716D01*
X187126447Y-84036324D01*
X186912499Y-83971423D01*
X186745752Y-83955000D01*
X181554248Y-83955000D01*
X181387501Y-83971423D01*
X181173553Y-84036324D01*
X180976377Y-84141716D01*
X180803551Y-84283551D01*
X180661716Y-84456377D01*
X180556324Y-84653553D01*
X180491423Y-84867501D01*
X180469509Y-85090000D01*
X170161465Y-85090000D01*
X170161465Y-76370000D01*
X172229815Y-76370000D01*
X172258487Y-76661111D01*
X172343401Y-76941034D01*
X172481294Y-77199014D01*
X172666866Y-77425134D01*
X172892986Y-77610706D01*
X173150966Y-77748599D01*
X173430889Y-77833513D01*
X173649050Y-77855000D01*
X173794950Y-77855000D01*
X174013111Y-77833513D01*
X174293034Y-77748599D01*
X174551014Y-77610706D01*
X174777134Y-77425134D01*
X174962706Y-77199014D01*
X174992000Y-77144209D01*
X175021294Y-77199014D01*
X175206866Y-77425134D01*
X175432986Y-77610706D01*
X175690966Y-77748599D01*
X175970889Y-77833513D01*
X176189050Y-77855000D01*
X176334950Y-77855000D01*
X176553111Y-77833513D01*
X176833034Y-77748599D01*
X177091014Y-77610706D01*
X177317134Y-77425134D01*
X177502706Y-77199014D01*
X177532000Y-77144209D01*
X177561294Y-77199014D01*
X177746866Y-77425134D01*
X177972986Y-77610706D01*
X178230966Y-77748599D01*
X178510889Y-77833513D01*
X178729050Y-77855000D01*
X178874950Y-77855000D01*
X179093111Y-77833513D01*
X179373034Y-77748599D01*
X179631014Y-77610706D01*
X179857134Y-77425134D01*
X180042706Y-77199014D01*
X180072000Y-77144209D01*
X180101294Y-77199014D01*
X180286866Y-77425134D01*
X180512986Y-77610706D01*
X180770966Y-77748599D01*
X181050889Y-77833513D01*
X181269050Y-77855000D01*
X181414950Y-77855000D01*
X181633111Y-77833513D01*
X181913034Y-77748599D01*
X182171014Y-77610706D01*
X182397134Y-77425134D01*
X182421607Y-77395313D01*
X182442498Y-77464180D01*
X182501463Y-77574494D01*
X182580815Y-77671185D01*
X182677506Y-77750537D01*
X182787820Y-77809502D01*
X182907518Y-77845812D01*
X183032000Y-77858072D01*
X184732000Y-77858072D01*
X184856482Y-77845812D01*
X184976180Y-77809502D01*
X185086494Y-77750537D01*
X185183185Y-77671185D01*
X185262537Y-77574494D01*
X185321502Y-77464180D01*
X185357812Y-77344482D01*
X185370072Y-77220000D01*
X185370072Y-76370000D01*
X221279815Y-76370000D01*
X221308487Y-76661111D01*
X221393401Y-76941034D01*
X221531294Y-77199014D01*
X221716866Y-77425134D01*
X221942986Y-77610706D01*
X222200966Y-77748599D01*
X222480889Y-77833513D01*
X222699050Y-77855000D01*
X222844950Y-77855000D01*
X223063111Y-77833513D01*
X223343034Y-77748599D01*
X223601014Y-77610706D01*
X223827134Y-77425134D01*
X224012706Y-77199014D01*
X224042000Y-77144209D01*
X224071294Y-77199014D01*
X224256866Y-77425134D01*
X224482986Y-77610706D01*
X224740966Y-77748599D01*
X225020889Y-77833513D01*
X225239050Y-77855000D01*
X225384950Y-77855000D01*
X225603111Y-77833513D01*
X225883034Y-77748599D01*
X226141014Y-77610706D01*
X226367134Y-77425134D01*
X226552706Y-77199014D01*
X226582000Y-77144209D01*
X226611294Y-77199014D01*
X226796866Y-77425134D01*
X227022986Y-77610706D01*
X227280966Y-77748599D01*
X227560889Y-77833513D01*
X227779050Y-77855000D01*
X227924950Y-77855000D01*
X228143111Y-77833513D01*
X228423034Y-77748599D01*
X228681014Y-77610706D01*
X228907134Y-77425134D01*
X229092706Y-77199014D01*
X229122000Y-77144209D01*
X229151294Y-77199014D01*
X229336866Y-77425134D01*
X229562986Y-77610706D01*
X229820966Y-77748599D01*
X230100889Y-77833513D01*
X230319050Y-77855000D01*
X230464950Y-77855000D01*
X230683111Y-77833513D01*
X230963034Y-77748599D01*
X231221014Y-77610706D01*
X231447134Y-77425134D01*
X231471607Y-77395313D01*
X231492498Y-77464180D01*
X231551463Y-77574494D01*
X231630815Y-77671185D01*
X231727506Y-77750537D01*
X231837820Y-77809502D01*
X231957518Y-77845812D01*
X232082000Y-77858072D01*
X233782000Y-77858072D01*
X233906482Y-77845812D01*
X234026180Y-77809502D01*
X234136494Y-77750537D01*
X234233185Y-77671185D01*
X234312537Y-77574494D01*
X234371502Y-77464180D01*
X234407812Y-77344482D01*
X234420072Y-77220000D01*
X234420072Y-75520000D01*
X234407812Y-75395518D01*
X234371502Y-75275820D01*
X234312537Y-75165506D01*
X234233185Y-75068815D01*
X234136494Y-74989463D01*
X234026180Y-74930498D01*
X233906482Y-74894188D01*
X233782000Y-74881928D01*
X232082000Y-74881928D01*
X231957518Y-74894188D01*
X231837820Y-74930498D01*
X231727506Y-74989463D01*
X231630815Y-75068815D01*
X231551463Y-75165506D01*
X231492498Y-75275820D01*
X231471607Y-75344687D01*
X231447134Y-75314866D01*
X231221014Y-75129294D01*
X230963034Y-74991401D01*
X230683111Y-74906487D01*
X230464950Y-74885000D01*
X230319050Y-74885000D01*
X230100889Y-74906487D01*
X229820966Y-74991401D01*
X229562986Y-75129294D01*
X229336866Y-75314866D01*
X229151294Y-75540986D01*
X229122000Y-75595791D01*
X229092706Y-75540986D01*
X228907134Y-75314866D01*
X228681014Y-75129294D01*
X228423034Y-74991401D01*
X228143111Y-74906487D01*
X227924950Y-74885000D01*
X227779050Y-74885000D01*
X227560889Y-74906487D01*
X227280966Y-74991401D01*
X227022986Y-75129294D01*
X226796866Y-75314866D01*
X226611294Y-75540986D01*
X226582000Y-75595791D01*
X226552706Y-75540986D01*
X226367134Y-75314866D01*
X226141014Y-75129294D01*
X225883034Y-74991401D01*
X225603111Y-74906487D01*
X225384950Y-74885000D01*
X225239050Y-74885000D01*
X225020889Y-74906487D01*
X224740966Y-74991401D01*
X224482986Y-75129294D01*
X224256866Y-75314866D01*
X224071294Y-75540986D01*
X224042000Y-75595791D01*
X224012706Y-75540986D01*
X223827134Y-75314866D01*
X223601014Y-75129294D01*
X223343034Y-74991401D01*
X223063111Y-74906487D01*
X222844950Y-74885000D01*
X222699050Y-74885000D01*
X222480889Y-74906487D01*
X222200966Y-74991401D01*
X221942986Y-75129294D01*
X221716866Y-75314866D01*
X221531294Y-75540986D01*
X221393401Y-75798966D01*
X221308487Y-76078889D01*
X221279815Y-76370000D01*
X185370072Y-76370000D01*
X185370072Y-75520000D01*
X185357812Y-75395518D01*
X185321502Y-75275820D01*
X185262537Y-75165506D01*
X185183185Y-75068815D01*
X185086494Y-74989463D01*
X184976180Y-74930498D01*
X184856482Y-74894188D01*
X184732000Y-74881928D01*
X183032000Y-74881928D01*
X182907518Y-74894188D01*
X182787820Y-74930498D01*
X182677506Y-74989463D01*
X182580815Y-75068815D01*
X182501463Y-75165506D01*
X182442498Y-75275820D01*
X182421607Y-75344687D01*
X182397134Y-75314866D01*
X182171014Y-75129294D01*
X181913034Y-74991401D01*
X181633111Y-74906487D01*
X181414950Y-74885000D01*
X181269050Y-74885000D01*
X181050889Y-74906487D01*
X180770966Y-74991401D01*
X180512986Y-75129294D01*
X180286866Y-75314866D01*
X180101294Y-75540986D01*
X180072000Y-75595791D01*
X180042706Y-75540986D01*
X179857134Y-75314866D01*
X179631014Y-75129294D01*
X179373034Y-74991401D01*
X179093111Y-74906487D01*
X178874950Y-74885000D01*
X178729050Y-74885000D01*
X178510889Y-74906487D01*
X178230966Y-74991401D01*
X177972986Y-75129294D01*
X177746866Y-75314866D01*
X177561294Y-75540986D01*
X177532000Y-75595791D01*
X177502706Y-75540986D01*
X177317134Y-75314866D01*
X177091014Y-75129294D01*
X176833034Y-74991401D01*
X176553111Y-74906487D01*
X176334950Y-74885000D01*
X176189050Y-74885000D01*
X175970889Y-74906487D01*
X175690966Y-74991401D01*
X175432986Y-75129294D01*
X175206866Y-75314866D01*
X175021294Y-75540986D01*
X174992000Y-75595791D01*
X174962706Y-75540986D01*
X174777134Y-75314866D01*
X174551014Y-75129294D01*
X174293034Y-74991401D01*
X174013111Y-74906487D01*
X173794950Y-74885000D01*
X173649050Y-74885000D01*
X173430889Y-74906487D01*
X173150966Y-74991401D01*
X172892986Y-75129294D01*
X172666866Y-75314866D01*
X172481294Y-75540986D01*
X172343401Y-75798966D01*
X172258487Y-76078889D01*
X172229815Y-76370000D01*
X170161465Y-76370000D01*
X170161465Y-69181429D01*
X172112000Y-69181429D01*
X172112000Y-69498571D01*
X172173871Y-69809620D01*
X172295237Y-70102621D01*
X172471431Y-70366315D01*
X172695685Y-70590569D01*
X172959379Y-70766763D01*
X173252380Y-70888129D01*
X173563429Y-70950000D01*
X173880571Y-70950000D01*
X174191620Y-70888129D01*
X174484621Y-70766763D01*
X174748315Y-70590569D01*
X174972569Y-70366315D01*
X174992000Y-70337234D01*
X175011431Y-70366315D01*
X175235685Y-70590569D01*
X175499379Y-70766763D01*
X175792380Y-70888129D01*
X176103429Y-70950000D01*
X176420571Y-70950000D01*
X176731620Y-70888129D01*
X177024621Y-70766763D01*
X177288315Y-70590569D01*
X177512569Y-70366315D01*
X177532000Y-70337234D01*
X177551431Y-70366315D01*
X177775685Y-70590569D01*
X178039379Y-70766763D01*
X178332380Y-70888129D01*
X178643429Y-70950000D01*
X178960571Y-70950000D01*
X179271620Y-70888129D01*
X179564621Y-70766763D01*
X179828315Y-70590569D01*
X180052569Y-70366315D01*
X180072000Y-70337234D01*
X180091431Y-70366315D01*
X180315685Y-70590569D01*
X180579379Y-70766763D01*
X180872380Y-70888129D01*
X181183429Y-70950000D01*
X181500571Y-70950000D01*
X181811620Y-70888129D01*
X182104621Y-70766763D01*
X182343234Y-70607328D01*
X182376463Y-70669494D01*
X182455815Y-70766185D01*
X182552506Y-70845537D01*
X182662820Y-70904502D01*
X182782518Y-70940812D01*
X182907000Y-70953072D01*
X184857000Y-70953072D01*
X184981482Y-70940812D01*
X185101180Y-70904502D01*
X185211494Y-70845537D01*
X185308185Y-70766185D01*
X185387537Y-70669494D01*
X185446502Y-70559180D01*
X185482812Y-70439482D01*
X185495072Y-70315000D01*
X185495072Y-69181429D01*
X221162000Y-69181429D01*
X221162000Y-69498571D01*
X221223871Y-69809620D01*
X221345237Y-70102621D01*
X221521431Y-70366315D01*
X221745685Y-70590569D01*
X222009379Y-70766763D01*
X222302380Y-70888129D01*
X222613429Y-70950000D01*
X222930571Y-70950000D01*
X223241620Y-70888129D01*
X223534621Y-70766763D01*
X223798315Y-70590569D01*
X224022569Y-70366315D01*
X224042000Y-70337234D01*
X224061431Y-70366315D01*
X224285685Y-70590569D01*
X224549379Y-70766763D01*
X224842380Y-70888129D01*
X225153429Y-70950000D01*
X225470571Y-70950000D01*
X225781620Y-70888129D01*
X226074621Y-70766763D01*
X226338315Y-70590569D01*
X226562569Y-70366315D01*
X226582000Y-70337234D01*
X226601431Y-70366315D01*
X226825685Y-70590569D01*
X227089379Y-70766763D01*
X227382380Y-70888129D01*
X227693429Y-70950000D01*
X228010571Y-70950000D01*
X228321620Y-70888129D01*
X228614621Y-70766763D01*
X228878315Y-70590569D01*
X229102569Y-70366315D01*
X229122000Y-70337234D01*
X229141431Y-70366315D01*
X229365685Y-70590569D01*
X229629379Y-70766763D01*
X229922380Y-70888129D01*
X230233429Y-70950000D01*
X230550571Y-70950000D01*
X230861620Y-70888129D01*
X231154621Y-70766763D01*
X231393234Y-70607328D01*
X231426463Y-70669494D01*
X231505815Y-70766185D01*
X231602506Y-70845537D01*
X231712820Y-70904502D01*
X231832518Y-70940812D01*
X231957000Y-70953072D01*
X233907000Y-70953072D01*
X234031482Y-70940812D01*
X234151180Y-70904502D01*
X234261494Y-70845537D01*
X234358185Y-70766185D01*
X234437537Y-70669494D01*
X234496502Y-70559180D01*
X234532812Y-70439482D01*
X234545072Y-70315000D01*
X234545072Y-68365000D01*
X234532812Y-68240518D01*
X234496502Y-68120820D01*
X234437537Y-68010506D01*
X234358185Y-67913815D01*
X234261494Y-67834463D01*
X234151180Y-67775498D01*
X234031482Y-67739188D01*
X233907000Y-67726928D01*
X231957000Y-67726928D01*
X231832518Y-67739188D01*
X231712820Y-67775498D01*
X231602506Y-67834463D01*
X231505815Y-67913815D01*
X231426463Y-68010506D01*
X231393234Y-68072672D01*
X231154621Y-67913237D01*
X230861620Y-67791871D01*
X230550571Y-67730000D01*
X230233429Y-67730000D01*
X229922380Y-67791871D01*
X229629379Y-67913237D01*
X229365685Y-68089431D01*
X229141431Y-68313685D01*
X229122000Y-68342766D01*
X229102569Y-68313685D01*
X228878315Y-68089431D01*
X228614621Y-67913237D01*
X228321620Y-67791871D01*
X228010571Y-67730000D01*
X227693429Y-67730000D01*
X227382380Y-67791871D01*
X227089379Y-67913237D01*
X226825685Y-68089431D01*
X226601431Y-68313685D01*
X226582000Y-68342766D01*
X226562569Y-68313685D01*
X226338315Y-68089431D01*
X226074621Y-67913237D01*
X225781620Y-67791871D01*
X225470571Y-67730000D01*
X225153429Y-67730000D01*
X224842380Y-67791871D01*
X224549379Y-67913237D01*
X224285685Y-68089431D01*
X224061431Y-68313685D01*
X224042000Y-68342766D01*
X224022569Y-68313685D01*
X223798315Y-68089431D01*
X223534621Y-67913237D01*
X223241620Y-67791871D01*
X222930571Y-67730000D01*
X222613429Y-67730000D01*
X222302380Y-67791871D01*
X222009379Y-67913237D01*
X221745685Y-68089431D01*
X221521431Y-68313685D01*
X221345237Y-68577379D01*
X221223871Y-68870380D01*
X221162000Y-69181429D01*
X185495072Y-69181429D01*
X185495072Y-68365000D01*
X185482812Y-68240518D01*
X185446502Y-68120820D01*
X185387537Y-68010506D01*
X185308185Y-67913815D01*
X185211494Y-67834463D01*
X185101180Y-67775498D01*
X184981482Y-67739188D01*
X184857000Y-67726928D01*
X182907000Y-67726928D01*
X182782518Y-67739188D01*
X182662820Y-67775498D01*
X182552506Y-67834463D01*
X182455815Y-67913815D01*
X182376463Y-68010506D01*
X182343234Y-68072672D01*
X182104621Y-67913237D01*
X181811620Y-67791871D01*
X181500571Y-67730000D01*
X181183429Y-67730000D01*
X180872380Y-67791871D01*
X180579379Y-67913237D01*
X180315685Y-68089431D01*
X180091431Y-68313685D01*
X180072000Y-68342766D01*
X180052569Y-68313685D01*
X179828315Y-68089431D01*
X179564621Y-67913237D01*
X179271620Y-67791871D01*
X178960571Y-67730000D01*
X178643429Y-67730000D01*
X178332380Y-67791871D01*
X178039379Y-67913237D01*
X177775685Y-68089431D01*
X177551431Y-68313685D01*
X177532000Y-68342766D01*
X177512569Y-68313685D01*
X177288315Y-68089431D01*
X177024621Y-67913237D01*
X176731620Y-67791871D01*
X176420571Y-67730000D01*
X176103429Y-67730000D01*
X175792380Y-67791871D01*
X175499379Y-67913237D01*
X175235685Y-68089431D01*
X175011431Y-68313685D01*
X174992000Y-68342766D01*
X174972569Y-68313685D01*
X174748315Y-68089431D01*
X174484621Y-67913237D01*
X174191620Y-67791871D01*
X173880571Y-67730000D01*
X173563429Y-67730000D01*
X173252380Y-67791871D01*
X172959379Y-67913237D01*
X172695685Y-68089431D01*
X172471431Y-68313685D01*
X172295237Y-68577379D01*
X172173871Y-68870380D01*
X172112000Y-69181429D01*
X170161465Y-69181429D01*
X170161465Y-66504497D01*
X236491469Y-66504497D01*
X236491468Y-151934495D01*
X236491468Y-151934495D01*
G37*
X236491468Y-151934495D02*
X170161465Y-151934495D01*
X170161465Y-136740000D01*
X171739928Y-136740000D01*
X171752188Y-136864482D01*
X171788498Y-136984180D01*
X171847463Y-137094494D01*
X171926815Y-137191185D01*
X172023506Y-137270537D01*
X172133820Y-137329502D01*
X172253518Y-137365812D01*
X172378000Y-137378072D01*
X172942250Y-137375000D01*
X173101000Y-137216250D01*
X173101000Y-136017000D01*
X173355000Y-136017000D01*
X173355000Y-137216250D01*
X173513750Y-137375000D01*
X174078000Y-137378072D01*
X174202482Y-137365812D01*
X174322180Y-137329502D01*
X174432494Y-137270537D01*
X174529185Y-137191185D01*
X174608537Y-137094494D01*
X174667502Y-136984180D01*
X174703812Y-136864482D01*
X174716072Y-136740000D01*
X174713388Y-136246890D01*
X197948524Y-136246890D01*
X197993175Y-136394099D01*
X198118359Y-136656920D01*
X198292412Y-136890269D01*
X198508645Y-137085178D01*
X198758748Y-137234157D01*
X199033109Y-137331481D01*
X199263000Y-137210814D01*
X199263000Y-136017000D01*
X199517000Y-136017000D01*
X199517000Y-137210814D01*
X199746891Y-137331481D01*
X200021252Y-137234157D01*
X200271355Y-137085178D01*
X200487588Y-136890269D01*
X200599672Y-136740000D01*
X205521928Y-136740000D01*
X205534188Y-136864482D01*
X205570498Y-136984180D01*
X205629463Y-137094494D01*
X205708815Y-137191185D01*
X205805506Y-137270537D01*
X205915820Y-137329502D01*
X206035518Y-137365812D01*
X206160000Y-137378072D01*
X206724250Y-137375000D01*
X206883000Y-137216250D01*
X206883000Y-136017000D01*
X207137000Y-136017000D01*
X207137000Y-137216250D01*
X207295750Y-137375000D01*
X207860000Y-137378072D01*
X207984482Y-137365812D01*
X208104180Y-137329502D01*
X208214494Y-137270537D01*
X208311185Y-137191185D01*
X208390537Y-137094494D01*
X208449502Y-136984180D01*
X208485812Y-136864482D01*
X208498072Y-136740000D01*
X208495388Y-136246890D01*
X232238524Y-136246890D01*
X232283175Y-136394099D01*
X232408359Y-136656920D01*
X232582412Y-136890269D01*
X232798645Y-137085178D01*
X233048748Y-137234157D01*
X233323109Y-137331481D01*
X233553000Y-137210814D01*
X233553000Y-136017000D01*
X233807000Y-136017000D01*
X233807000Y-137210814D01*
X234036891Y-137331481D01*
X234311252Y-137234157D01*
X234561355Y-137085178D01*
X234777588Y-136890269D01*
X234951641Y-136656920D01*
X235076825Y-136394099D01*
X235121476Y-136246890D01*
X235000155Y-136017000D01*
X233807000Y-136017000D01*
X233553000Y-136017000D01*
X232359845Y-136017000D01*
X232238524Y-136246890D01*
X208495388Y-136246890D01*
X208495000Y-136175750D01*
X208336250Y-136017000D01*
X207137000Y-136017000D01*
X206883000Y-136017000D01*
X205683750Y-136017000D01*
X205525000Y-136175750D01*
X205521928Y-136740000D01*
X200599672Y-136740000D01*
X200661641Y-136656920D01*
X200786825Y-136394099D01*
X200831476Y-136246890D01*
X200710155Y-136017000D01*
X199517000Y-136017000D01*
X199263000Y-136017000D01*
X198069845Y-136017000D01*
X197948524Y-136246890D01*
X174713388Y-136246890D01*
X174713000Y-136175750D01*
X174554250Y-136017000D01*
X173355000Y-136017000D01*
X173101000Y-136017000D01*
X171901750Y-136017000D01*
X171743000Y-136175750D01*
X171739928Y-136740000D01*
X170161465Y-136740000D01*
X170161465Y-105410000D01*
X180469509Y-105410000D01*
X180491423Y-105632499D01*
X180556324Y-105846447D01*
X180661716Y-106043623D01*
X180803551Y-106216449D01*
X180976377Y-106358284D01*
X181173553Y-106463676D01*
X181387501Y-106528577D01*
X181554248Y-106545000D01*
X186745752Y-106545000D01*
X186912499Y-106528577D01*
X187126447Y-106463676D01*
X187323623Y-106358284D01*
X187496449Y-106216449D01*
X187638284Y-106043623D01*
X187743676Y-105846447D01*
X187808577Y-105632499D01*
X187830491Y-105410000D01*
X187808577Y-105187501D01*
X187743676Y-104973553D01*
X187638284Y-104776377D01*
X187496449Y-104603551D01*
X187323623Y-104461716D01*
X187126447Y-104356324D01*
X186912499Y-104291423D01*
X186745752Y-104275000D01*
X181554248Y-104275000D01*
X181387501Y-104291423D01*
X181173553Y-104356324D01*
X180976377Y-104461716D01*
X180803551Y-104603551D01*
X180661716Y-104776377D01*
X180556324Y-104973553D01*
X180491423Y-105187501D01*
X180469509Y-105410000D01*
X170161465Y-105410000D01*
X170161465Y-95250000D01*
X171579509Y-95250000D01*
X171585000Y-95305752D01*
X171585001Y-97845752D01*
X171601424Y-98012499D01*
X171666325Y-98226447D01*
X171771717Y-98423623D01*
X171913552Y-98596449D01*
X172086378Y-98738284D01*
X172283554Y-98843676D01*
X172497502Y-98908577D01*
X172720000Y-98930491D01*
X172942499Y-98908577D01*
X173156447Y-98843676D01*
X173353623Y-98738284D01*
X173526449Y-98596449D01*
X173668284Y-98423623D01*
X173773676Y-98226447D01*
X173838577Y-98012499D01*
X173855000Y-97845752D01*
X173855000Y-95720131D01*
X174460132Y-95115000D01*
X181554249Y-95115000D01*
X181610000Y-95120491D01*
X181665751Y-95115000D01*
X181665752Y-95115000D01*
X181832499Y-95098577D01*
X182046447Y-95033676D01*
X182243623Y-94928284D01*
X182416449Y-94786449D01*
X182451996Y-94743136D01*
X183096132Y-94099000D01*
X195818272Y-94099000D01*
X195772506Y-94123463D01*
X195675815Y-94202815D01*
X195596463Y-94299506D01*
X195537498Y-94409820D01*
X195501188Y-94529518D01*
X195488928Y-94654000D01*
X195488928Y-96354000D01*
X195501188Y-96478482D01*
X195537498Y-96598180D01*
X195596463Y-96708494D01*
X195675815Y-96805185D01*
X195772506Y-96884537D01*
X195882820Y-96943502D01*
X196002518Y-96979812D01*
X196127000Y-96992072D01*
X197827000Y-96992072D01*
X197951482Y-96979812D01*
X198071180Y-96943502D01*
X198181494Y-96884537D01*
X198278185Y-96805185D01*
X198357537Y-96708494D01*
X198416502Y-96598180D01*
X198437393Y-96529313D01*
X198461866Y-96559134D01*
X198687986Y-96744706D01*
X198945966Y-96882599D01*
X199225889Y-96967513D01*
X199444050Y-96989000D01*
X199589950Y-96989000D01*
X199808111Y-96967513D01*
X199932001Y-96929931D01*
X199932002Y-107944669D01*
X199928325Y-107982001D01*
X199942999Y-108130986D01*
X199986455Y-108274247D01*
X200057027Y-108406277D01*
X200110142Y-108470997D01*
X200152001Y-108522002D01*
X200180999Y-108545800D01*
X201170000Y-109534802D01*
X201170001Y-127510000D01*
X200667595Y-127510000D01*
X200630706Y-127440986D01*
X200445134Y-127214866D01*
X200219014Y-127029294D01*
X200164209Y-127000000D01*
X200219014Y-126970706D01*
X200445134Y-126785134D01*
X200630706Y-126559014D01*
X200768599Y-126301034D01*
X200853513Y-126021111D01*
X200882185Y-125730000D01*
X200853513Y-125438889D01*
X200768599Y-125158966D01*
X200630706Y-124900986D01*
X200445134Y-124674866D01*
X200415313Y-124650393D01*
X200484180Y-124629502D01*
X200594494Y-124570537D01*
X200691185Y-124491185D01*
X200770537Y-124394494D01*
X200829502Y-124284180D01*
X200865812Y-124164482D01*
X200878072Y-124040000D01*
X200878072Y-122340000D01*
X200865812Y-122215518D01*
X200829502Y-122095820D01*
X200770537Y-121985506D01*
X200691185Y-121888815D01*
X200594494Y-121809463D01*
X200484180Y-121750498D01*
X200364482Y-121714188D01*
X200240000Y-121701928D01*
X200150000Y-121701928D01*
X200150000Y-121559527D01*
X200179851Y-121550472D01*
X200333387Y-121468405D01*
X200467962Y-121357962D01*
X200578405Y-121223387D01*
X200660472Y-121069851D01*
X200711008Y-120903255D01*
X200728072Y-120730001D01*
X200728072Y-120079999D01*
X200711008Y-119906745D01*
X200660472Y-119740149D01*
X200578405Y-119586613D01*
X200467962Y-119452038D01*
X200380184Y-119380000D01*
X200467962Y-119307962D01*
X200578405Y-119173387D01*
X200660472Y-119019851D01*
X200711008Y-118853255D01*
X200728072Y-118680001D01*
X200728072Y-118029999D01*
X200711008Y-117856745D01*
X200660472Y-117690149D01*
X200578405Y-117536613D01*
X200467962Y-117402038D01*
X200333387Y-117291595D01*
X200179851Y-117209528D01*
X200013255Y-117158992D01*
X199840001Y-117141928D01*
X198939999Y-117141928D01*
X198766745Y-117158992D01*
X198600149Y-117209528D01*
X198446613Y-117291595D01*
X198312038Y-117402038D01*
X198201595Y-117536613D01*
X198170386Y-117595000D01*
X196480672Y-117595000D01*
X196383937Y-117450226D01*
X196239774Y-117306063D01*
X196070256Y-117192795D01*
X195881898Y-117114774D01*
X195681939Y-117075000D01*
X195478061Y-117075000D01*
X195278102Y-117114774D01*
X195089744Y-117192795D01*
X194920226Y-117306063D01*
X194776063Y-117450226D01*
X194662795Y-117619744D01*
X194584774Y-117808102D01*
X194545000Y-118008061D01*
X194545000Y-118211939D01*
X194584774Y-118411898D01*
X194662795Y-118600256D01*
X194776063Y-118769774D01*
X194920226Y-118913937D01*
X195089744Y-119027205D01*
X195278102Y-119105226D01*
X195478061Y-119145000D01*
X195681939Y-119145000D01*
X195817830Y-119117970D01*
X195824999Y-119118676D01*
X195862322Y-119115000D01*
X198170386Y-119115000D01*
X198201595Y-119173387D01*
X198312038Y-119307962D01*
X198399816Y-119380000D01*
X198312038Y-119452038D01*
X198201595Y-119586613D01*
X198170386Y-119645000D01*
X195862322Y-119645000D01*
X195824999Y-119641324D01*
X195817830Y-119642030D01*
X195681939Y-119615000D01*
X195478061Y-119615000D01*
X195278102Y-119654774D01*
X195089744Y-119732795D01*
X194920226Y-119846063D01*
X194776063Y-119990226D01*
X194662795Y-120159744D01*
X194584774Y-120348102D01*
X194545000Y-120548061D01*
X194545000Y-120751939D01*
X194584774Y-120951898D01*
X194662795Y-121140256D01*
X194776063Y-121309774D01*
X194920226Y-121453937D01*
X195089744Y-121567205D01*
X195278102Y-121645226D01*
X195478061Y-121685000D01*
X195681939Y-121685000D01*
X195881898Y-121645226D01*
X196070256Y-121567205D01*
X196239774Y-121453937D01*
X196383937Y-121309774D01*
X196480672Y-121165000D01*
X198170386Y-121165000D01*
X198201595Y-121223387D01*
X198312038Y-121357962D01*
X198446613Y-121468405D01*
X198600149Y-121550472D01*
X198630000Y-121559527D01*
X198630000Y-121701928D01*
X198540000Y-121701928D01*
X198415518Y-121714188D01*
X198295820Y-121750498D01*
X198185506Y-121809463D01*
X198088815Y-121888815D01*
X198009463Y-121985506D01*
X197950498Y-122095820D01*
X197914188Y-122215518D01*
X197901928Y-122340000D01*
X197901928Y-124040000D01*
X197914188Y-124164482D01*
X197950498Y-124284180D01*
X198009463Y-124394494D01*
X198088815Y-124491185D01*
X198185506Y-124570537D01*
X198295820Y-124629502D01*
X198364687Y-124650393D01*
X198334866Y-124674866D01*
X198149294Y-124900986D01*
X198011401Y-125158966D01*
X197926487Y-125438889D01*
X197897815Y-125730000D01*
X197926487Y-126021111D01*
X198011401Y-126301034D01*
X198149294Y-126559014D01*
X198334866Y-126785134D01*
X198560986Y-126970706D01*
X198615791Y-127000000D01*
X198560986Y-127029294D01*
X198334866Y-127214866D01*
X198149294Y-127440986D01*
X198112405Y-127510000D01*
X174505595Y-127510000D01*
X174468706Y-127440986D01*
X174283134Y-127214866D01*
X174057014Y-127029294D01*
X174002209Y-127000000D01*
X174057014Y-126970706D01*
X174283134Y-126785134D01*
X174468706Y-126559014D01*
X174606599Y-126301034D01*
X174691513Y-126021111D01*
X174720185Y-125730000D01*
X174691513Y-125438889D01*
X174606599Y-125158966D01*
X174468706Y-124900986D01*
X174283134Y-124674866D01*
X174057014Y-124489294D01*
X174002209Y-124460000D01*
X174057014Y-124430706D01*
X174283134Y-124245134D01*
X174468706Y-124019014D01*
X174606599Y-123761034D01*
X174691513Y-123481111D01*
X174720185Y-123190000D01*
X174691513Y-122898889D01*
X174606599Y-122618966D01*
X174468706Y-122360986D01*
X174283134Y-122134866D01*
X174057014Y-121949294D01*
X174002209Y-121920000D01*
X174057014Y-121890706D01*
X174283134Y-121705134D01*
X174468706Y-121479014D01*
X174606599Y-121221034D01*
X174691513Y-120941111D01*
X174720185Y-120650000D01*
X174691513Y-120358889D01*
X174606599Y-120078966D01*
X174468706Y-119820986D01*
X174283134Y-119594866D01*
X174057014Y-119409294D01*
X174002209Y-119380000D01*
X174057014Y-119350706D01*
X174283134Y-119165134D01*
X174468706Y-118939014D01*
X174606599Y-118681034D01*
X174691513Y-118401111D01*
X174720185Y-118110000D01*
X174691513Y-117818889D01*
X174606599Y-117538966D01*
X174468706Y-117280986D01*
X174283134Y-117054866D01*
X174057014Y-116869294D01*
X174002209Y-116840000D01*
X174057014Y-116810706D01*
X174283134Y-116625134D01*
X174468706Y-116399014D01*
X174606599Y-116141034D01*
X174691513Y-115861111D01*
X174720185Y-115570000D01*
X174691513Y-115278889D01*
X174606599Y-114998966D01*
X174468706Y-114740986D01*
X174283134Y-114514866D01*
X174057014Y-114329294D01*
X174002209Y-114300000D01*
X174057014Y-114270706D01*
X174283134Y-114085134D01*
X174468706Y-113859014D01*
X174606599Y-113601034D01*
X174691513Y-113321111D01*
X174720185Y-113030000D01*
X174691513Y-112738889D01*
X174606599Y-112458966D01*
X174468706Y-112200986D01*
X174283134Y-111974866D01*
X174057014Y-111789294D01*
X173799034Y-111651401D01*
X173519111Y-111566487D01*
X173300950Y-111545000D01*
X173155050Y-111545000D01*
X172936889Y-111566487D01*
X172656966Y-111651401D01*
X172398986Y-111789294D01*
X172172866Y-111974866D01*
X171987294Y-112200986D01*
X171849401Y-112458966D01*
X171764487Y-112738889D01*
X171735815Y-113030000D01*
X171764487Y-113321111D01*
X171849401Y-113601034D01*
X171987294Y-113859014D01*
X172172866Y-114085134D01*
X172398986Y-114270706D01*
X172453791Y-114300000D01*
X172398986Y-114329294D01*
X172172866Y-114514866D01*
X171987294Y-114740986D01*
X171849401Y-114998966D01*
X171764487Y-115278889D01*
X171735815Y-115570000D01*
X171764487Y-115861111D01*
X171849401Y-116141034D01*
X171987294Y-116399014D01*
X172172866Y-116625134D01*
X172398986Y-116810706D01*
X172453791Y-116840000D01*
X172398986Y-116869294D01*
X172172866Y-117054866D01*
X171987294Y-117280986D01*
X171849401Y-117538966D01*
X171764487Y-117818889D01*
X171735815Y-118110000D01*
X171764487Y-118401111D01*
X171849401Y-118681034D01*
X171987294Y-118939014D01*
X172172866Y-119165134D01*
X172398986Y-119350706D01*
X172453791Y-119380000D01*
X172398986Y-119409294D01*
X172172866Y-119594866D01*
X171987294Y-119820986D01*
X171849401Y-120078966D01*
X171764487Y-120358889D01*
X171735815Y-120650000D01*
X171764487Y-120941111D01*
X171849401Y-121221034D01*
X171987294Y-121479014D01*
X172172866Y-121705134D01*
X172398986Y-121890706D01*
X172453791Y-121920000D01*
X172398986Y-121949294D01*
X172172866Y-122134866D01*
X171987294Y-122360986D01*
X171849401Y-122618966D01*
X171764487Y-122898889D01*
X171735815Y-123190000D01*
X171764487Y-123481111D01*
X171849401Y-123761034D01*
X171987294Y-124019014D01*
X172172866Y-124245134D01*
X172398986Y-124430706D01*
X172453791Y-124460000D01*
X172398986Y-124489294D01*
X172172866Y-124674866D01*
X171987294Y-124900986D01*
X171849401Y-125158966D01*
X171764487Y-125438889D01*
X171735815Y-125730000D01*
X171764487Y-126021111D01*
X171849401Y-126301034D01*
X171987294Y-126559014D01*
X172172866Y-126785134D01*
X172398986Y-126970706D01*
X172453791Y-127000000D01*
X172398986Y-127029294D01*
X172172866Y-127214866D01*
X171987294Y-127440986D01*
X171849401Y-127698966D01*
X171764487Y-127978889D01*
X171735815Y-128270000D01*
X171764487Y-128561111D01*
X171849401Y-128841034D01*
X171987294Y-129099014D01*
X172172866Y-129325134D01*
X172398986Y-129510706D01*
X172453791Y-129540000D01*
X172398986Y-129569294D01*
X172172866Y-129754866D01*
X171987294Y-129980986D01*
X171849401Y-130238966D01*
X171764487Y-130518889D01*
X171735815Y-130810000D01*
X171764487Y-131101111D01*
X171849401Y-131381034D01*
X171987294Y-131639014D01*
X172172866Y-131865134D01*
X172398986Y-132050706D01*
X172453791Y-132080000D01*
X172398986Y-132109294D01*
X172172866Y-132294866D01*
X171987294Y-132520986D01*
X171849401Y-132778966D01*
X171764487Y-133058889D01*
X171735815Y-133350000D01*
X171764487Y-133641111D01*
X171849401Y-133921034D01*
X171987294Y-134179014D01*
X172172866Y-134405134D01*
X172202687Y-134429607D01*
X172133820Y-134450498D01*
X172023506Y-134509463D01*
X171926815Y-134588815D01*
X171847463Y-134685506D01*
X171788498Y-134795820D01*
X171752188Y-134915518D01*
X171739928Y-135040000D01*
X171743000Y-135604250D01*
X171901750Y-135763000D01*
X173101000Y-135763000D01*
X173101000Y-135743000D01*
X173355000Y-135743000D01*
X173355000Y-135763000D01*
X174554250Y-135763000D01*
X174713000Y-135604250D01*
X174716072Y-135040000D01*
X174703812Y-134915518D01*
X174667502Y-134795820D01*
X174608537Y-134685506D01*
X174529185Y-134588815D01*
X174432494Y-134509463D01*
X174322180Y-134450498D01*
X174253313Y-134429607D01*
X174283134Y-134405134D01*
X174468706Y-134179014D01*
X174606599Y-133921034D01*
X174691513Y-133641111D01*
X174720185Y-133350000D01*
X174691513Y-133058889D01*
X174606599Y-132778966D01*
X174468706Y-132520986D01*
X174283134Y-132294866D01*
X174057014Y-132109294D01*
X174002209Y-132080000D01*
X174057014Y-132050706D01*
X174283134Y-131865134D01*
X174468706Y-131639014D01*
X174505595Y-131570000D01*
X198112405Y-131570000D01*
X198149294Y-131639014D01*
X198334866Y-131865134D01*
X198560986Y-132050706D01*
X198615791Y-132080000D01*
X198560986Y-132109294D01*
X198334866Y-132294866D01*
X198149294Y-132520986D01*
X198011401Y-132778966D01*
X197926487Y-133058889D01*
X197897815Y-133350000D01*
X197926487Y-133641111D01*
X198011401Y-133921034D01*
X198149294Y-134179014D01*
X198334866Y-134405134D01*
X198560986Y-134590706D01*
X198625523Y-134625201D01*
X198508645Y-134694822D01*
X198292412Y-134889731D01*
X198118359Y-135123080D01*
X197993175Y-135385901D01*
X197948524Y-135533110D01*
X198069845Y-135763000D01*
X199263000Y-135763000D01*
X199263000Y-135743000D01*
X199517000Y-135743000D01*
X199517000Y-135763000D01*
X200710155Y-135763000D01*
X200831476Y-135533110D01*
X200786825Y-135385901D01*
X200661641Y-135123080D01*
X200487588Y-134889731D01*
X200271355Y-134694822D01*
X200154477Y-134625201D01*
X200219014Y-134590706D01*
X200445134Y-134405134D01*
X200630706Y-134179014D01*
X200768599Y-133921034D01*
X200853513Y-133641111D01*
X200882185Y-133350000D01*
X200853513Y-133058889D01*
X200768599Y-132778966D01*
X200630706Y-132520986D01*
X200445134Y-132294866D01*
X200219014Y-132109294D01*
X200164209Y-132080000D01*
X200219014Y-132050706D01*
X200445134Y-131865134D01*
X200630706Y-131639014D01*
X200667595Y-131570000D01*
X203766289Y-131570000D01*
X203810226Y-131613937D01*
X203979744Y-131727205D01*
X204168102Y-131805226D01*
X204368061Y-131845000D01*
X204571939Y-131845000D01*
X204771898Y-131805226D01*
X204960256Y-131727205D01*
X205129774Y-131613937D01*
X205173711Y-131570000D01*
X205732405Y-131570000D01*
X205769294Y-131639014D01*
X205954866Y-131865134D01*
X206180986Y-132050706D01*
X206235791Y-132080000D01*
X206180986Y-132109294D01*
X205954866Y-132294866D01*
X205769294Y-132520986D01*
X205631401Y-132778966D01*
X205546487Y-133058889D01*
X205517815Y-133350000D01*
X205546487Y-133641111D01*
X205631401Y-133921034D01*
X205769294Y-134179014D01*
X205954866Y-134405134D01*
X205984687Y-134429607D01*
X205915820Y-134450498D01*
X205805506Y-134509463D01*
X205708815Y-134588815D01*
X205629463Y-134685506D01*
X205570498Y-134795820D01*
X205534188Y-134915518D01*
X205521928Y-135040000D01*
X205525000Y-135604250D01*
X205683750Y-135763000D01*
X206883000Y-135763000D01*
X206883000Y-135743000D01*
X207137000Y-135743000D01*
X207137000Y-135763000D01*
X208336250Y-135763000D01*
X208495000Y-135604250D01*
X208498072Y-135040000D01*
X208485812Y-134915518D01*
X208449502Y-134795820D01*
X208390537Y-134685506D01*
X208311185Y-134588815D01*
X208214494Y-134509463D01*
X208104180Y-134450498D01*
X208035313Y-134429607D01*
X208065134Y-134405134D01*
X208250706Y-134179014D01*
X208388599Y-133921034D01*
X208473513Y-133641111D01*
X208502185Y-133350000D01*
X208473513Y-133058889D01*
X208388599Y-132778966D01*
X208250706Y-132520986D01*
X208065134Y-132294866D01*
X207839014Y-132109294D01*
X207784209Y-132080000D01*
X207839014Y-132050706D01*
X208065134Y-131865134D01*
X208250706Y-131639014D01*
X208287595Y-131570000D01*
X232402405Y-131570000D01*
X232439294Y-131639014D01*
X232624866Y-131865134D01*
X232850986Y-132050706D01*
X232905791Y-132080000D01*
X232850986Y-132109294D01*
X232624866Y-132294866D01*
X232439294Y-132520986D01*
X232301401Y-132778966D01*
X232216487Y-133058889D01*
X232187815Y-133350000D01*
X232216487Y-133641111D01*
X232301401Y-133921034D01*
X232439294Y-134179014D01*
X232624866Y-134405134D01*
X232850986Y-134590706D01*
X232915523Y-134625201D01*
X232798645Y-134694822D01*
X232582412Y-134889731D01*
X232408359Y-135123080D01*
X232283175Y-135385901D01*
X232238524Y-135533110D01*
X232359845Y-135763000D01*
X233553000Y-135763000D01*
X233553000Y-135743000D01*
X233807000Y-135743000D01*
X233807000Y-135763000D01*
X235000155Y-135763000D01*
X235121476Y-135533110D01*
X235076825Y-135385901D01*
X234951641Y-135123080D01*
X234777588Y-134889731D01*
X234561355Y-134694822D01*
X234444477Y-134625201D01*
X234509014Y-134590706D01*
X234735134Y-134405134D01*
X234920706Y-134179014D01*
X235058599Y-133921034D01*
X235143513Y-133641111D01*
X235172185Y-133350000D01*
X235143513Y-133058889D01*
X235058599Y-132778966D01*
X234920706Y-132520986D01*
X234735134Y-132294866D01*
X234509014Y-132109294D01*
X234454209Y-132080000D01*
X234509014Y-132050706D01*
X234735134Y-131865134D01*
X234920706Y-131639014D01*
X235058599Y-131381034D01*
X235143513Y-131101111D01*
X235172185Y-130810000D01*
X235143513Y-130518889D01*
X235058599Y-130238966D01*
X234920706Y-129980986D01*
X234735134Y-129754866D01*
X234509014Y-129569294D01*
X234454209Y-129540000D01*
X234509014Y-129510706D01*
X234735134Y-129325134D01*
X234920706Y-129099014D01*
X235058599Y-128841034D01*
X235143513Y-128561111D01*
X235172185Y-128270000D01*
X235143513Y-127978889D01*
X235058599Y-127698966D01*
X234920706Y-127440986D01*
X234735134Y-127214866D01*
X234509014Y-127029294D01*
X234454209Y-127000000D01*
X234509014Y-126970706D01*
X234735134Y-126785134D01*
X234920706Y-126559014D01*
X235058599Y-126301034D01*
X235143513Y-126021111D01*
X235172185Y-125730000D01*
X235143513Y-125438889D01*
X235058599Y-125158966D01*
X234920706Y-124900986D01*
X234735134Y-124674866D01*
X234705313Y-124650393D01*
X234774180Y-124629502D01*
X234884494Y-124570537D01*
X234981185Y-124491185D01*
X235060537Y-124394494D01*
X235119502Y-124284180D01*
X235155812Y-124164482D01*
X235168072Y-124040000D01*
X235168072Y-122340000D01*
X235155812Y-122215518D01*
X235119502Y-122095820D01*
X235060537Y-121985506D01*
X234981185Y-121888815D01*
X234884494Y-121809463D01*
X234774180Y-121750498D01*
X234654482Y-121714188D01*
X234530000Y-121701928D01*
X234440000Y-121701928D01*
X234440000Y-121559527D01*
X234469851Y-121550472D01*
X234623387Y-121468405D01*
X234757962Y-121357962D01*
X234868405Y-121223387D01*
X234950472Y-121069851D01*
X235001008Y-120903255D01*
X235018072Y-120730001D01*
X235018072Y-120079999D01*
X235001008Y-119906745D01*
X234950472Y-119740149D01*
X234868405Y-119586613D01*
X234757962Y-119452038D01*
X234670184Y-119380000D01*
X234757962Y-119307962D01*
X234868405Y-119173387D01*
X234950472Y-119019851D01*
X235001008Y-118853255D01*
X235018072Y-118680001D01*
X235018072Y-118029999D01*
X235001008Y-117856745D01*
X234950472Y-117690149D01*
X234868405Y-117536613D01*
X234757962Y-117402038D01*
X234623387Y-117291595D01*
X234469851Y-117209528D01*
X234303255Y-117158992D01*
X234130001Y-117141928D01*
X233229999Y-117141928D01*
X233056745Y-117158992D01*
X232890149Y-117209528D01*
X232736613Y-117291595D01*
X232665446Y-117350000D01*
X231843711Y-117350000D01*
X231799774Y-117306063D01*
X231630256Y-117192795D01*
X231441898Y-117114774D01*
X231241939Y-117075000D01*
X231038061Y-117075000D01*
X230838102Y-117114774D01*
X230649744Y-117192795D01*
X230480226Y-117306063D01*
X230336063Y-117450226D01*
X230222795Y-117619744D01*
X230144774Y-117808102D01*
X230105000Y-118008061D01*
X230105000Y-118211939D01*
X230144774Y-118411898D01*
X230222795Y-118600256D01*
X230336063Y-118769774D01*
X230480226Y-118913937D01*
X230649744Y-119027205D01*
X230838102Y-119105226D01*
X231038061Y-119145000D01*
X231241939Y-119145000D01*
X231441898Y-119105226D01*
X231630256Y-119027205D01*
X231799774Y-118913937D01*
X231843711Y-118870000D01*
X232364072Y-118870000D01*
X232409528Y-119019851D01*
X232491595Y-119173387D01*
X232602038Y-119307962D01*
X232689816Y-119380000D01*
X232602038Y-119452038D01*
X232491595Y-119586613D01*
X232409528Y-119740149D01*
X232364072Y-119890000D01*
X231843711Y-119890000D01*
X231799774Y-119846063D01*
X231630256Y-119732795D01*
X231441898Y-119654774D01*
X231241939Y-119615000D01*
X231038061Y-119615000D01*
X230838102Y-119654774D01*
X230649744Y-119732795D01*
X230480226Y-119846063D01*
X230336063Y-119990226D01*
X230222795Y-120159744D01*
X230144774Y-120348102D01*
X230105000Y-120548061D01*
X230105000Y-120751939D01*
X230144774Y-120951898D01*
X230222795Y-121140256D01*
X230336063Y-121309774D01*
X230480226Y-121453937D01*
X230649744Y-121567205D01*
X230838102Y-121645226D01*
X231038061Y-121685000D01*
X231241939Y-121685000D01*
X231441898Y-121645226D01*
X231630256Y-121567205D01*
X231799774Y-121453937D01*
X231843711Y-121410000D01*
X232665446Y-121410000D01*
X232736613Y-121468405D01*
X232890149Y-121550472D01*
X232920000Y-121559527D01*
X232920000Y-121701928D01*
X232830000Y-121701928D01*
X232705518Y-121714188D01*
X232585820Y-121750498D01*
X232475506Y-121809463D01*
X232378815Y-121888815D01*
X232299463Y-121985506D01*
X232240498Y-122095820D01*
X232204188Y-122215518D01*
X232191928Y-122340000D01*
X232191928Y-124040000D01*
X232204188Y-124164482D01*
X232240498Y-124284180D01*
X232299463Y-124394494D01*
X232378815Y-124491185D01*
X232475506Y-124570537D01*
X232585820Y-124629502D01*
X232654687Y-124650393D01*
X232624866Y-124674866D01*
X232439294Y-124900986D01*
X232301401Y-125158966D01*
X232216487Y-125438889D01*
X232187815Y-125730000D01*
X232216487Y-126021111D01*
X232301401Y-126301034D01*
X232439294Y-126559014D01*
X232624866Y-126785134D01*
X232850986Y-126970706D01*
X232905791Y-127000000D01*
X232850986Y-127029294D01*
X232624866Y-127214866D01*
X232439294Y-127440986D01*
X232402405Y-127510000D01*
X208287595Y-127510000D01*
X208250706Y-127440986D01*
X208065134Y-127214866D01*
X207839014Y-127029294D01*
X207784209Y-127000000D01*
X207839014Y-126970706D01*
X208065134Y-126785134D01*
X208250706Y-126559014D01*
X208388599Y-126301034D01*
X208473513Y-126021111D01*
X208502185Y-125730000D01*
X208473513Y-125438889D01*
X208388599Y-125158966D01*
X208250706Y-124900986D01*
X208065134Y-124674866D01*
X207839014Y-124489294D01*
X207784209Y-124460000D01*
X207839014Y-124430706D01*
X208065134Y-124245134D01*
X208250706Y-124019014D01*
X208388599Y-123761034D01*
X208473513Y-123481111D01*
X208502185Y-123190000D01*
X208473513Y-122898889D01*
X208388599Y-122618966D01*
X208250706Y-122360986D01*
X208065134Y-122134866D01*
X207839014Y-121949294D01*
X207784209Y-121920000D01*
X207839014Y-121890706D01*
X208065134Y-121705134D01*
X208250706Y-121479014D01*
X208388599Y-121221034D01*
X208473513Y-120941111D01*
X208502185Y-120650000D01*
X208473513Y-120358889D01*
X208388599Y-120078966D01*
X208250706Y-119820986D01*
X208065134Y-119594866D01*
X207839014Y-119409294D01*
X207784209Y-119380000D01*
X207839014Y-119350706D01*
X208065134Y-119165134D01*
X208250706Y-118939014D01*
X208388599Y-118681034D01*
X208473513Y-118401111D01*
X208502185Y-118110000D01*
X208473513Y-117818889D01*
X208388599Y-117538966D01*
X208250706Y-117280986D01*
X208065134Y-117054866D01*
X207839014Y-116869294D01*
X207784209Y-116840000D01*
X207839014Y-116810706D01*
X208065134Y-116625134D01*
X208250706Y-116399014D01*
X208388599Y-116141034D01*
X208473513Y-115861111D01*
X208502185Y-115570000D01*
X208473513Y-115278889D01*
X208388599Y-114998966D01*
X208250706Y-114740986D01*
X208065134Y-114514866D01*
X207839014Y-114329294D01*
X207784209Y-114300000D01*
X207839014Y-114270706D01*
X208065134Y-114085134D01*
X208250706Y-113859014D01*
X208388599Y-113601034D01*
X208473513Y-113321111D01*
X208502185Y-113030000D01*
X208473513Y-112738889D01*
X208388599Y-112458966D01*
X208250706Y-112200986D01*
X208065134Y-111974866D01*
X207839014Y-111789294D01*
X207581034Y-111651401D01*
X207301111Y-111566487D01*
X207082950Y-111545000D01*
X206937050Y-111545000D01*
X206718889Y-111566487D01*
X206438966Y-111651401D01*
X206180986Y-111789294D01*
X205954866Y-111974866D01*
X205769294Y-112200986D01*
X205631401Y-112458966D01*
X205546487Y-112738889D01*
X205517815Y-113030000D01*
X205546487Y-113321111D01*
X205631401Y-113601034D01*
X205769294Y-113859014D01*
X205954866Y-114085134D01*
X206180986Y-114270706D01*
X206235791Y-114300000D01*
X206180986Y-114329294D01*
X205954866Y-114514866D01*
X205769294Y-114740986D01*
X205631401Y-114998966D01*
X205546487Y-115278889D01*
X205517815Y-115570000D01*
X205546487Y-115861111D01*
X205631401Y-116141034D01*
X205769294Y-116399014D01*
X205954866Y-116625134D01*
X206180986Y-116810706D01*
X206235791Y-116840000D01*
X206180986Y-116869294D01*
X205954866Y-117054866D01*
X205769294Y-117280986D01*
X205631401Y-117538966D01*
X205546487Y-117818889D01*
X205517815Y-118110000D01*
X205546487Y-118401111D01*
X205631401Y-118681034D01*
X205769294Y-118939014D01*
X205954866Y-119165134D01*
X206180986Y-119350706D01*
X206235791Y-119380000D01*
X206180986Y-119409294D01*
X205954866Y-119594866D01*
X205769294Y-119820986D01*
X205631401Y-120078966D01*
X205546487Y-120358889D01*
X205517815Y-120650000D01*
X205546487Y-120941111D01*
X205631401Y-121221034D01*
X205769294Y-121479014D01*
X205954866Y-121705134D01*
X206180986Y-121890706D01*
X206235791Y-121920000D01*
X206180986Y-121949294D01*
X205954866Y-122134866D01*
X205769294Y-122360986D01*
X205631401Y-122618966D01*
X205546487Y-122898889D01*
X205517815Y-123190000D01*
X205546487Y-123481111D01*
X205631401Y-123761034D01*
X205769294Y-124019014D01*
X205954866Y-124245134D01*
X206180986Y-124430706D01*
X206235791Y-124460000D01*
X206180986Y-124489294D01*
X205954866Y-124674866D01*
X205769294Y-124900986D01*
X205631401Y-125158966D01*
X205546487Y-125438889D01*
X205517815Y-125730000D01*
X205546487Y-126021111D01*
X205631401Y-126301034D01*
X205769294Y-126559014D01*
X205954866Y-126785134D01*
X206180986Y-126970706D01*
X206235791Y-127000000D01*
X206180986Y-127029294D01*
X205954866Y-127214866D01*
X205769294Y-127440986D01*
X205732405Y-127510000D01*
X202690000Y-127510000D01*
X202690000Y-109257323D01*
X202693676Y-109220000D01*
X202690000Y-109182677D01*
X202690000Y-109182667D01*
X202679003Y-109071014D01*
X202635546Y-108927753D01*
X202564975Y-108795725D01*
X202564974Y-108795723D01*
X202493799Y-108708997D01*
X202470001Y-108679999D01*
X202441004Y-108656202D01*
X201452001Y-107667200D01*
X201452001Y-105410000D01*
X222379509Y-105410000D01*
X222401423Y-105632499D01*
X222466324Y-105846447D01*
X222571716Y-106043623D01*
X222713551Y-106216449D01*
X222886377Y-106358284D01*
X223083553Y-106463676D01*
X223297501Y-106528577D01*
X223464248Y-106545000D01*
X231195752Y-106545000D01*
X231362499Y-106528577D01*
X231576447Y-106463676D01*
X231773623Y-106358284D01*
X231946449Y-106216449D01*
X232088284Y-106043623D01*
X232193676Y-105846447D01*
X232258577Y-105632499D01*
X232280491Y-105410000D01*
X232258577Y-105187501D01*
X232193676Y-104973553D01*
X232088284Y-104776377D01*
X231946449Y-104603551D01*
X231773623Y-104461716D01*
X231576447Y-104356324D01*
X231362499Y-104291423D01*
X231195752Y-104275000D01*
X223464248Y-104275000D01*
X223297501Y-104291423D01*
X223083553Y-104356324D01*
X222886377Y-104461716D01*
X222713551Y-104603551D01*
X222571716Y-104776377D01*
X222466324Y-104973553D01*
X222401423Y-105187501D01*
X222379509Y-105410000D01*
X201452001Y-105410000D01*
X201452001Y-96864444D01*
X201485966Y-96882599D01*
X201765889Y-96967513D01*
X201984050Y-96989000D01*
X202129950Y-96989000D01*
X202348111Y-96967513D01*
X202628034Y-96882599D01*
X202886014Y-96744706D01*
X203112134Y-96559134D01*
X203297706Y-96333014D01*
X203327000Y-96278209D01*
X203356294Y-96333014D01*
X203541866Y-96559134D01*
X203767986Y-96744706D01*
X204025966Y-96882599D01*
X204305889Y-96967513D01*
X204524050Y-96989000D01*
X204669950Y-96989000D01*
X204888111Y-96967513D01*
X205168034Y-96882599D01*
X205426014Y-96744706D01*
X205652134Y-96559134D01*
X205837706Y-96333014D01*
X205867000Y-96278209D01*
X205896294Y-96333014D01*
X206081866Y-96559134D01*
X206307986Y-96744706D01*
X206565966Y-96882599D01*
X206845889Y-96967513D01*
X207064050Y-96989000D01*
X207209950Y-96989000D01*
X207428111Y-96967513D01*
X207708034Y-96882599D01*
X207966014Y-96744706D01*
X208192134Y-96559134D01*
X208377706Y-96333014D01*
X208407000Y-96278209D01*
X208436294Y-96333014D01*
X208621866Y-96559134D01*
X208847986Y-96744706D01*
X209105966Y-96882599D01*
X209385889Y-96967513D01*
X209604050Y-96989000D01*
X209749950Y-96989000D01*
X209968111Y-96967513D01*
X210248034Y-96882599D01*
X210506014Y-96744706D01*
X210732134Y-96559134D01*
X210917706Y-96333014D01*
X211055599Y-96075034D01*
X211140513Y-95795111D01*
X211169185Y-95504000D01*
X211140513Y-95212889D01*
X211055599Y-94932966D01*
X210917706Y-94674986D01*
X210732134Y-94448866D01*
X210506014Y-94263294D01*
X210448244Y-94232416D01*
X210677269Y-94061588D01*
X210872178Y-93845355D01*
X211021157Y-93595252D01*
X211118481Y-93320891D01*
X210997814Y-93091000D01*
X209804000Y-93091000D01*
X209804000Y-93111000D01*
X209550000Y-93111000D01*
X209550000Y-93091000D01*
X209530000Y-93091000D01*
X209530000Y-92837000D01*
X209550000Y-92837000D01*
X209550000Y-91643845D01*
X209804000Y-91643845D01*
X209804000Y-92837000D01*
X210997814Y-92837000D01*
X211118481Y-92607109D01*
X211021157Y-92332748D01*
X210872178Y-92082645D01*
X210677269Y-91866412D01*
X210443920Y-91692359D01*
X210181099Y-91567175D01*
X210033890Y-91522524D01*
X209804000Y-91643845D01*
X209550000Y-91643845D01*
X209320110Y-91522524D01*
X209172901Y-91567175D01*
X208910080Y-91692359D01*
X208676731Y-91866412D01*
X208481822Y-92082645D01*
X208412201Y-92199523D01*
X208377706Y-92134986D01*
X208192134Y-91908866D01*
X207966014Y-91723294D01*
X207708034Y-91585401D01*
X207428111Y-91500487D01*
X207209950Y-91479000D01*
X207064050Y-91479000D01*
X206845889Y-91500487D01*
X206565966Y-91585401D01*
X206307986Y-91723294D01*
X206081866Y-91908866D01*
X205896294Y-92134986D01*
X205867000Y-92189791D01*
X205837706Y-92134986D01*
X205652134Y-91908866D01*
X205426014Y-91723294D01*
X205168034Y-91585401D01*
X204888111Y-91500487D01*
X204669950Y-91479000D01*
X204524050Y-91479000D01*
X204305889Y-91500487D01*
X204025966Y-91585401D01*
X203767986Y-91723294D01*
X203541866Y-91908866D01*
X203356294Y-92134986D01*
X203327000Y-92189791D01*
X203297706Y-92134986D01*
X203112134Y-91908866D01*
X202886014Y-91723294D01*
X202628034Y-91585401D01*
X202348111Y-91500487D01*
X202129950Y-91479000D01*
X201984050Y-91479000D01*
X201765889Y-91500487D01*
X201485966Y-91585401D01*
X201227986Y-91723294D01*
X201001866Y-91908866D01*
X200816294Y-92134986D01*
X200787000Y-92189791D01*
X200757706Y-92134986D01*
X200572134Y-91908866D01*
X200346014Y-91723294D01*
X200088034Y-91585401D01*
X199990360Y-91555772D01*
X201511132Y-90035000D01*
X225589869Y-90035000D01*
X228399868Y-92845000D01*
X223575743Y-92845000D01*
X223519999Y-92839510D01*
X223464255Y-92845000D01*
X223464248Y-92845000D01*
X223318493Y-92859356D01*
X223297500Y-92861423D01*
X223247705Y-92876529D01*
X223083553Y-92926324D01*
X222886377Y-93031716D01*
X222713551Y-93173551D01*
X222678011Y-93216857D01*
X221486860Y-94408009D01*
X221443552Y-94443551D01*
X221301717Y-94616377D01*
X221270390Y-94674986D01*
X221196324Y-94813554D01*
X221131423Y-95027502D01*
X221109509Y-95250000D01*
X221115001Y-95305761D01*
X221115000Y-97845751D01*
X221131423Y-98012498D01*
X221196324Y-98226446D01*
X221301716Y-98423623D01*
X221443551Y-98596449D01*
X221616377Y-98738284D01*
X221813553Y-98843676D01*
X222027501Y-98908577D01*
X222250000Y-98930491D01*
X222472498Y-98908577D01*
X222686446Y-98843676D01*
X222883623Y-98738284D01*
X223056449Y-98596449D01*
X223198284Y-98423623D01*
X223303676Y-98226447D01*
X223368577Y-98012499D01*
X223385000Y-97845752D01*
X223385000Y-95720131D01*
X223990132Y-95115000D01*
X231084248Y-95115000D01*
X231139999Y-95120491D01*
X231195751Y-95115000D01*
X231195752Y-95115000D01*
X231362499Y-95098577D01*
X231576447Y-95033676D01*
X231773623Y-94928284D01*
X231946449Y-94786449D01*
X232088284Y-94613623D01*
X232193676Y-94416447D01*
X232258577Y-94202499D01*
X232280491Y-93980000D01*
X232258577Y-93757501D01*
X232193676Y-93543553D01*
X232088284Y-93346377D01*
X231946449Y-93173551D01*
X231903135Y-93138004D01*
X231581994Y-92816863D01*
X231581989Y-92816857D01*
X226901996Y-88136865D01*
X226866449Y-88093551D01*
X226693623Y-87951716D01*
X226496447Y-87846324D01*
X226282499Y-87781423D01*
X226115752Y-87765000D01*
X226115751Y-87765000D01*
X226060000Y-87759509D01*
X226004249Y-87765000D01*
X201096751Y-87765000D01*
X201041000Y-87759509D01*
X200985248Y-87765000D01*
X200818501Y-87781423D01*
X200604553Y-87846324D01*
X200407377Y-87951716D01*
X200234551Y-88093551D01*
X200199009Y-88136859D01*
X196851714Y-91484155D01*
X196685889Y-91500487D01*
X196405966Y-91585401D01*
X196147986Y-91723294D01*
X196019183Y-91829000D01*
X182681751Y-91829000D01*
X182626000Y-91823509D01*
X182570248Y-91829000D01*
X182403501Y-91845423D01*
X182189553Y-91910324D01*
X181992377Y-92015716D01*
X181819551Y-92157551D01*
X181784011Y-92200857D01*
X181139869Y-92845000D01*
X174045743Y-92845000D01*
X173989999Y-92839510D01*
X173934255Y-92845000D01*
X173934248Y-92845000D01*
X173788493Y-92859356D01*
X173767500Y-92861423D01*
X173717705Y-92876529D01*
X173553553Y-92926324D01*
X173356377Y-93031716D01*
X173183551Y-93173551D01*
X173148011Y-93216857D01*
X171956865Y-94408004D01*
X171913551Y-94443551D01*
X171771716Y-94616377D01*
X171680812Y-94786448D01*
X171666324Y-94813554D01*
X171601423Y-95027502D01*
X171579509Y-95250000D01*
X170161465Y-95250000D01*
X170161465Y-85090000D01*
X180469509Y-85090000D01*
X180491423Y-85312499D01*
X180556324Y-85526447D01*
X180661716Y-85723623D01*
X180803551Y-85896449D01*
X180976377Y-86038284D01*
X181173553Y-86143676D01*
X181387501Y-86208577D01*
X181554248Y-86225000D01*
X186745752Y-86225000D01*
X186912499Y-86208577D01*
X187126447Y-86143676D01*
X187323623Y-86038284D01*
X187496449Y-85896449D01*
X187638284Y-85723623D01*
X187743676Y-85526447D01*
X187808577Y-85312499D01*
X187830491Y-85090000D01*
X229999509Y-85090000D01*
X230021423Y-85312499D01*
X230086324Y-85526447D01*
X230191716Y-85723623D01*
X230333551Y-85896449D01*
X230506377Y-86038284D01*
X230703553Y-86143676D01*
X230917501Y-86208577D01*
X231084248Y-86225000D01*
X235005752Y-86225000D01*
X235172499Y-86208577D01*
X235386447Y-86143676D01*
X235583623Y-86038284D01*
X235756449Y-85896449D01*
X235898284Y-85723623D01*
X236003676Y-85526447D01*
X236068577Y-85312499D01*
X236090491Y-85090000D01*
X236068577Y-84867501D01*
X236003676Y-84653553D01*
X235898284Y-84456377D01*
X235756449Y-84283551D01*
X235583623Y-84141716D01*
X235386447Y-84036324D01*
X235172499Y-83971423D01*
X235005752Y-83955000D01*
X231084248Y-83955000D01*
X230917501Y-83971423D01*
X230703553Y-84036324D01*
X230506377Y-84141716D01*
X230333551Y-84283551D01*
X230191716Y-84456377D01*
X230086324Y-84653553D01*
X230021423Y-84867501D01*
X229999509Y-85090000D01*
X187830491Y-85090000D01*
X187808577Y-84867501D01*
X187743676Y-84653553D01*
X187638284Y-84456377D01*
X187496449Y-84283551D01*
X187323623Y-84141716D01*
X187126447Y-84036324D01*
X186912499Y-83971423D01*
X186745752Y-83955000D01*
X181554248Y-83955000D01*
X181387501Y-83971423D01*
X181173553Y-84036324D01*
X180976377Y-84141716D01*
X180803551Y-84283551D01*
X180661716Y-84456377D01*
X180556324Y-84653553D01*
X180491423Y-84867501D01*
X180469509Y-85090000D01*
X170161465Y-85090000D01*
X170161465Y-76370000D01*
X172229815Y-76370000D01*
X172258487Y-76661111D01*
X172343401Y-76941034D01*
X172481294Y-77199014D01*
X172666866Y-77425134D01*
X172892986Y-77610706D01*
X173150966Y-77748599D01*
X173430889Y-77833513D01*
X173649050Y-77855000D01*
X173794950Y-77855000D01*
X174013111Y-77833513D01*
X174293034Y-77748599D01*
X174551014Y-77610706D01*
X174777134Y-77425134D01*
X174962706Y-77199014D01*
X174992000Y-77144209D01*
X175021294Y-77199014D01*
X175206866Y-77425134D01*
X175432986Y-77610706D01*
X175690966Y-77748599D01*
X175970889Y-77833513D01*
X176189050Y-77855000D01*
X176334950Y-77855000D01*
X176553111Y-77833513D01*
X176833034Y-77748599D01*
X177091014Y-77610706D01*
X177317134Y-77425134D01*
X177502706Y-77199014D01*
X177532000Y-77144209D01*
X177561294Y-77199014D01*
X177746866Y-77425134D01*
X177972986Y-77610706D01*
X178230966Y-77748599D01*
X178510889Y-77833513D01*
X178729050Y-77855000D01*
X178874950Y-77855000D01*
X179093111Y-77833513D01*
X179373034Y-77748599D01*
X179631014Y-77610706D01*
X179857134Y-77425134D01*
X180042706Y-77199014D01*
X180072000Y-77144209D01*
X180101294Y-77199014D01*
X180286866Y-77425134D01*
X180512986Y-77610706D01*
X180770966Y-77748599D01*
X181050889Y-77833513D01*
X181269050Y-77855000D01*
X181414950Y-77855000D01*
X181633111Y-77833513D01*
X181913034Y-77748599D01*
X182171014Y-77610706D01*
X182397134Y-77425134D01*
X182421607Y-77395313D01*
X182442498Y-77464180D01*
X182501463Y-77574494D01*
X182580815Y-77671185D01*
X182677506Y-77750537D01*
X182787820Y-77809502D01*
X182907518Y-77845812D01*
X183032000Y-77858072D01*
X184732000Y-77858072D01*
X184856482Y-77845812D01*
X184976180Y-77809502D01*
X185086494Y-77750537D01*
X185183185Y-77671185D01*
X185262537Y-77574494D01*
X185321502Y-77464180D01*
X185357812Y-77344482D01*
X185370072Y-77220000D01*
X185370072Y-76370000D01*
X221279815Y-76370000D01*
X221308487Y-76661111D01*
X221393401Y-76941034D01*
X221531294Y-77199014D01*
X221716866Y-77425134D01*
X221942986Y-77610706D01*
X222200966Y-77748599D01*
X222480889Y-77833513D01*
X222699050Y-77855000D01*
X222844950Y-77855000D01*
X223063111Y-77833513D01*
X223343034Y-77748599D01*
X223601014Y-77610706D01*
X223827134Y-77425134D01*
X224012706Y-77199014D01*
X224042000Y-77144209D01*
X224071294Y-77199014D01*
X224256866Y-77425134D01*
X224482986Y-77610706D01*
X224740966Y-77748599D01*
X225020889Y-77833513D01*
X225239050Y-77855000D01*
X225384950Y-77855000D01*
X225603111Y-77833513D01*
X225883034Y-77748599D01*
X226141014Y-77610706D01*
X226367134Y-77425134D01*
X226552706Y-77199014D01*
X226582000Y-77144209D01*
X226611294Y-77199014D01*
X226796866Y-77425134D01*
X227022986Y-77610706D01*
X227280966Y-77748599D01*
X227560889Y-77833513D01*
X227779050Y-77855000D01*
X227924950Y-77855000D01*
X228143111Y-77833513D01*
X228423034Y-77748599D01*
X228681014Y-77610706D01*
X228907134Y-77425134D01*
X229092706Y-77199014D01*
X229122000Y-77144209D01*
X229151294Y-77199014D01*
X229336866Y-77425134D01*
X229562986Y-77610706D01*
X229820966Y-77748599D01*
X230100889Y-77833513D01*
X230319050Y-77855000D01*
X230464950Y-77855000D01*
X230683111Y-77833513D01*
X230963034Y-77748599D01*
X231221014Y-77610706D01*
X231447134Y-77425134D01*
X231471607Y-77395313D01*
X231492498Y-77464180D01*
X231551463Y-77574494D01*
X231630815Y-77671185D01*
X231727506Y-77750537D01*
X231837820Y-77809502D01*
X231957518Y-77845812D01*
X232082000Y-77858072D01*
X233782000Y-77858072D01*
X233906482Y-77845812D01*
X234026180Y-77809502D01*
X234136494Y-77750537D01*
X234233185Y-77671185D01*
X234312537Y-77574494D01*
X234371502Y-77464180D01*
X234407812Y-77344482D01*
X234420072Y-77220000D01*
X234420072Y-75520000D01*
X234407812Y-75395518D01*
X234371502Y-75275820D01*
X234312537Y-75165506D01*
X234233185Y-75068815D01*
X234136494Y-74989463D01*
X234026180Y-74930498D01*
X233906482Y-74894188D01*
X233782000Y-74881928D01*
X232082000Y-74881928D01*
X231957518Y-74894188D01*
X231837820Y-74930498D01*
X231727506Y-74989463D01*
X231630815Y-75068815D01*
X231551463Y-75165506D01*
X231492498Y-75275820D01*
X231471607Y-75344687D01*
X231447134Y-75314866D01*
X231221014Y-75129294D01*
X230963034Y-74991401D01*
X230683111Y-74906487D01*
X230464950Y-74885000D01*
X230319050Y-74885000D01*
X230100889Y-74906487D01*
X229820966Y-74991401D01*
X229562986Y-75129294D01*
X229336866Y-75314866D01*
X229151294Y-75540986D01*
X229122000Y-75595791D01*
X229092706Y-75540986D01*
X228907134Y-75314866D01*
X228681014Y-75129294D01*
X228423034Y-74991401D01*
X228143111Y-74906487D01*
X227924950Y-74885000D01*
X227779050Y-74885000D01*
X227560889Y-74906487D01*
X227280966Y-74991401D01*
X227022986Y-75129294D01*
X226796866Y-75314866D01*
X226611294Y-75540986D01*
X226582000Y-75595791D01*
X226552706Y-75540986D01*
X226367134Y-75314866D01*
X226141014Y-75129294D01*
X225883034Y-74991401D01*
X225603111Y-74906487D01*
X225384950Y-74885000D01*
X225239050Y-74885000D01*
X225020889Y-74906487D01*
X224740966Y-74991401D01*
X224482986Y-75129294D01*
X224256866Y-75314866D01*
X224071294Y-75540986D01*
X224042000Y-75595791D01*
X224012706Y-75540986D01*
X223827134Y-75314866D01*
X223601014Y-75129294D01*
X223343034Y-74991401D01*
X223063111Y-74906487D01*
X222844950Y-74885000D01*
X222699050Y-74885000D01*
X222480889Y-74906487D01*
X222200966Y-74991401D01*
X221942986Y-75129294D01*
X221716866Y-75314866D01*
X221531294Y-75540986D01*
X221393401Y-75798966D01*
X221308487Y-76078889D01*
X221279815Y-76370000D01*
X185370072Y-76370000D01*
X185370072Y-75520000D01*
X185357812Y-75395518D01*
X185321502Y-75275820D01*
X185262537Y-75165506D01*
X185183185Y-75068815D01*
X185086494Y-74989463D01*
X184976180Y-74930498D01*
X184856482Y-74894188D01*
X184732000Y-74881928D01*
X183032000Y-74881928D01*
X182907518Y-74894188D01*
X182787820Y-74930498D01*
X182677506Y-74989463D01*
X182580815Y-75068815D01*
X182501463Y-75165506D01*
X182442498Y-75275820D01*
X182421607Y-75344687D01*
X182397134Y-75314866D01*
X182171014Y-75129294D01*
X181913034Y-74991401D01*
X181633111Y-74906487D01*
X181414950Y-74885000D01*
X181269050Y-74885000D01*
X181050889Y-74906487D01*
X180770966Y-74991401D01*
X180512986Y-75129294D01*
X180286866Y-75314866D01*
X180101294Y-75540986D01*
X180072000Y-75595791D01*
X180042706Y-75540986D01*
X179857134Y-75314866D01*
X179631014Y-75129294D01*
X179373034Y-74991401D01*
X179093111Y-74906487D01*
X178874950Y-74885000D01*
X178729050Y-74885000D01*
X178510889Y-74906487D01*
X178230966Y-74991401D01*
X177972986Y-75129294D01*
X177746866Y-75314866D01*
X177561294Y-75540986D01*
X177532000Y-75595791D01*
X177502706Y-75540986D01*
X177317134Y-75314866D01*
X177091014Y-75129294D01*
X176833034Y-74991401D01*
X176553111Y-74906487D01*
X176334950Y-74885000D01*
X176189050Y-74885000D01*
X175970889Y-74906487D01*
X175690966Y-74991401D01*
X175432986Y-75129294D01*
X175206866Y-75314866D01*
X175021294Y-75540986D01*
X174992000Y-75595791D01*
X174962706Y-75540986D01*
X174777134Y-75314866D01*
X174551014Y-75129294D01*
X174293034Y-74991401D01*
X174013111Y-74906487D01*
X173794950Y-74885000D01*
X173649050Y-74885000D01*
X173430889Y-74906487D01*
X173150966Y-74991401D01*
X172892986Y-75129294D01*
X172666866Y-75314866D01*
X172481294Y-75540986D01*
X172343401Y-75798966D01*
X172258487Y-76078889D01*
X172229815Y-76370000D01*
X170161465Y-76370000D01*
X170161465Y-69181429D01*
X172112000Y-69181429D01*
X172112000Y-69498571D01*
X172173871Y-69809620D01*
X172295237Y-70102621D01*
X172471431Y-70366315D01*
X172695685Y-70590569D01*
X172959379Y-70766763D01*
X173252380Y-70888129D01*
X173563429Y-70950000D01*
X173880571Y-70950000D01*
X174191620Y-70888129D01*
X174484621Y-70766763D01*
X174748315Y-70590569D01*
X174972569Y-70366315D01*
X174992000Y-70337234D01*
X175011431Y-70366315D01*
X175235685Y-70590569D01*
X175499379Y-70766763D01*
X175792380Y-70888129D01*
X176103429Y-70950000D01*
X176420571Y-70950000D01*
X176731620Y-70888129D01*
X177024621Y-70766763D01*
X177288315Y-70590569D01*
X177512569Y-70366315D01*
X177532000Y-70337234D01*
X177551431Y-70366315D01*
X177775685Y-70590569D01*
X178039379Y-70766763D01*
X178332380Y-70888129D01*
X178643429Y-70950000D01*
X178960571Y-70950000D01*
X179271620Y-70888129D01*
X179564621Y-70766763D01*
X179828315Y-70590569D01*
X180052569Y-70366315D01*
X180072000Y-70337234D01*
X180091431Y-70366315D01*
X180315685Y-70590569D01*
X180579379Y-70766763D01*
X180872380Y-70888129D01*
X181183429Y-70950000D01*
X181500571Y-70950000D01*
X181811620Y-70888129D01*
X182104621Y-70766763D01*
X182343234Y-70607328D01*
X182376463Y-70669494D01*
X182455815Y-70766185D01*
X182552506Y-70845537D01*
X182662820Y-70904502D01*
X182782518Y-70940812D01*
X182907000Y-70953072D01*
X184857000Y-70953072D01*
X184981482Y-70940812D01*
X185101180Y-70904502D01*
X185211494Y-70845537D01*
X185308185Y-70766185D01*
X185387537Y-70669494D01*
X185446502Y-70559180D01*
X185482812Y-70439482D01*
X185495072Y-70315000D01*
X185495072Y-69181429D01*
X221162000Y-69181429D01*
X221162000Y-69498571D01*
X221223871Y-69809620D01*
X221345237Y-70102621D01*
X221521431Y-70366315D01*
X221745685Y-70590569D01*
X222009379Y-70766763D01*
X222302380Y-70888129D01*
X222613429Y-70950000D01*
X222930571Y-70950000D01*
X223241620Y-70888129D01*
X223534621Y-70766763D01*
X223798315Y-70590569D01*
X224022569Y-70366315D01*
X224042000Y-70337234D01*
X224061431Y-70366315D01*
X224285685Y-70590569D01*
X224549379Y-70766763D01*
X224842380Y-70888129D01*
X225153429Y-70950000D01*
X225470571Y-70950000D01*
X225781620Y-70888129D01*
X226074621Y-70766763D01*
X226338315Y-70590569D01*
X226562569Y-70366315D01*
X226582000Y-70337234D01*
X226601431Y-70366315D01*
X226825685Y-70590569D01*
X227089379Y-70766763D01*
X227382380Y-70888129D01*
X227693429Y-70950000D01*
X228010571Y-70950000D01*
X228321620Y-70888129D01*
X228614621Y-70766763D01*
X228878315Y-70590569D01*
X229102569Y-70366315D01*
X229122000Y-70337234D01*
X229141431Y-70366315D01*
X229365685Y-70590569D01*
X229629379Y-70766763D01*
X229922380Y-70888129D01*
X230233429Y-70950000D01*
X230550571Y-70950000D01*
X230861620Y-70888129D01*
X231154621Y-70766763D01*
X231393234Y-70607328D01*
X231426463Y-70669494D01*
X231505815Y-70766185D01*
X231602506Y-70845537D01*
X231712820Y-70904502D01*
X231832518Y-70940812D01*
X231957000Y-70953072D01*
X233907000Y-70953072D01*
X234031482Y-70940812D01*
X234151180Y-70904502D01*
X234261494Y-70845537D01*
X234358185Y-70766185D01*
X234437537Y-70669494D01*
X234496502Y-70559180D01*
X234532812Y-70439482D01*
X234545072Y-70315000D01*
X234545072Y-68365000D01*
X234532812Y-68240518D01*
X234496502Y-68120820D01*
X234437537Y-68010506D01*
X234358185Y-67913815D01*
X234261494Y-67834463D01*
X234151180Y-67775498D01*
X234031482Y-67739188D01*
X233907000Y-67726928D01*
X231957000Y-67726928D01*
X231832518Y-67739188D01*
X231712820Y-67775498D01*
X231602506Y-67834463D01*
X231505815Y-67913815D01*
X231426463Y-68010506D01*
X231393234Y-68072672D01*
X231154621Y-67913237D01*
X230861620Y-67791871D01*
X230550571Y-67730000D01*
X230233429Y-67730000D01*
X229922380Y-67791871D01*
X229629379Y-67913237D01*
X229365685Y-68089431D01*
X229141431Y-68313685D01*
X229122000Y-68342766D01*
X229102569Y-68313685D01*
X228878315Y-68089431D01*
X228614621Y-67913237D01*
X228321620Y-67791871D01*
X228010571Y-67730000D01*
X227693429Y-67730000D01*
X227382380Y-67791871D01*
X227089379Y-67913237D01*
X226825685Y-68089431D01*
X226601431Y-68313685D01*
X226582000Y-68342766D01*
X226562569Y-68313685D01*
X226338315Y-68089431D01*
X226074621Y-67913237D01*
X225781620Y-67791871D01*
X225470571Y-67730000D01*
X225153429Y-67730000D01*
X224842380Y-67791871D01*
X224549379Y-67913237D01*
X224285685Y-68089431D01*
X224061431Y-68313685D01*
X224042000Y-68342766D01*
X224022569Y-68313685D01*
X223798315Y-68089431D01*
X223534621Y-67913237D01*
X223241620Y-67791871D01*
X222930571Y-67730000D01*
X222613429Y-67730000D01*
X222302380Y-67791871D01*
X222009379Y-67913237D01*
X221745685Y-68089431D01*
X221521431Y-68313685D01*
X221345237Y-68577379D01*
X221223871Y-68870380D01*
X221162000Y-69181429D01*
X185495072Y-69181429D01*
X185495072Y-68365000D01*
X185482812Y-68240518D01*
X185446502Y-68120820D01*
X185387537Y-68010506D01*
X185308185Y-67913815D01*
X185211494Y-67834463D01*
X185101180Y-67775498D01*
X184981482Y-67739188D01*
X184857000Y-67726928D01*
X182907000Y-67726928D01*
X182782518Y-67739188D01*
X182662820Y-67775498D01*
X182552506Y-67834463D01*
X182455815Y-67913815D01*
X182376463Y-68010506D01*
X182343234Y-68072672D01*
X182104621Y-67913237D01*
X181811620Y-67791871D01*
X181500571Y-67730000D01*
X181183429Y-67730000D01*
X180872380Y-67791871D01*
X180579379Y-67913237D01*
X180315685Y-68089431D01*
X180091431Y-68313685D01*
X180072000Y-68342766D01*
X180052569Y-68313685D01*
X179828315Y-68089431D01*
X179564621Y-67913237D01*
X179271620Y-67791871D01*
X178960571Y-67730000D01*
X178643429Y-67730000D01*
X178332380Y-67791871D01*
X178039379Y-67913237D01*
X177775685Y-68089431D01*
X177551431Y-68313685D01*
X177532000Y-68342766D01*
X177512569Y-68313685D01*
X177288315Y-68089431D01*
X177024621Y-67913237D01*
X176731620Y-67791871D01*
X176420571Y-67730000D01*
X176103429Y-67730000D01*
X175792380Y-67791871D01*
X175499379Y-67913237D01*
X175235685Y-68089431D01*
X175011431Y-68313685D01*
X174992000Y-68342766D01*
X174972569Y-68313685D01*
X174748315Y-68089431D01*
X174484621Y-67913237D01*
X174191620Y-67791871D01*
X173880571Y-67730000D01*
X173563429Y-67730000D01*
X173252380Y-67791871D01*
X172959379Y-67913237D01*
X172695685Y-68089431D01*
X172471431Y-68313685D01*
X172295237Y-68577379D01*
X172173871Y-68870380D01*
X172112000Y-69181429D01*
X170161465Y-69181429D01*
X170161465Y-66504497D01*
X236491469Y-66504497D01*
X236491468Y-151934495D01*
M02*
